<?xml version="1.0" encoding="UTF-8"?>
<svg id="Capa_2" data-name="Capa 2" xmlns="http://www.w3.org/2000/svg" viewBox="0 0 39.72 39.72">
  <defs>
    <style>
      .cls-1 {
        fill: #fff;
      }
    </style>
  </defs>
  <g id="Capa_1-2" data-name="Capa 1">
    <g>
      <path class="cls-1" d="M23.48,17.04c-1.7,0-2.46.93-2.89,1.59v-1.36h-3.2c.04.9,0,9.63,0,9.63h3.2v-5.38c0-.29.02-.58.11-.78.23-.58.76-1.17,1.64-1.17,1.16,0,1.62.88,1.62,2.18v5.16h3.2v-5.53c0-2.96-1.58-4.33-3.69-4.33h0ZM20.59,18.66h-.02s.02-.02.02-.04v.04Z"/>
      <rect class="cls-1" x="12.42" y="17.27" width="3.2" height="9.63"/>
      <path class="cls-1" d="M19.86,0C8.91,0,0,8.91,0,19.86s8.91,19.86,19.86,19.86,19.86-8.91,19.86-19.86S30.81,0,19.86,0h0ZM30.39,28.84c0,.84-.7,1.53-1.57,1.53H10.76c-.86,0-1.57-.68-1.57-1.53V10.57c0-.84.7-1.53,1.57-1.53h18.06c.87,0,1.57.69,1.57,1.53v18.27Z"/>
      <path class="cls-1" d="M14.04,12.62c-1.09,0-1.81.72-1.81,1.67s.7,1.66,1.77,1.66h.02c1.12,0,1.81-.74,1.81-1.66-.02-.95-.7-1.67-1.79-1.67h0Z"/>
    </g>
  </g>
</svg>