<?xml version="1.0" encoding="UTF-8"?>
<svg id="Layer_1" xmlns="http://www.w3.org/2000/svg" version="1.1" viewBox="0 0 282 40">
  <!-- Generator: Adobe Illustrator 29.4.0, SVG Export Plug-In . SVG Version: 2.1.0 Build 152)  -->
  <defs>
    <style>
      .st0 {
        fill: #179bd7;
      }
    </style>
  </defs>
  <polygon class="st0" points="75.9 12.1 67.3 12.1 58.1 21.3 58 21.3 62.3 .5 55.7 .5 47.9 37.5 54.3 37.5 57.2 24 57.3 24 63.9 37.5 71.3 37.5 63.7 23.7 75.9 12.1"/>
  <path class="st0" d="M35.4,26.3c0-4.8,3-9.7,8.2-9.7s3.5.4,4.8,1.3l1.6-5.4c-1.8-.5-4.2-1-6.6-1-9.1,0-15,6.8-15,15.6s4.2,11,10.8,11,4.3-.2,6.4-1.2l.7-5.2c-1.7.8-3.8,1.3-5.4,1.3-4.5,0-5.6-3.3-5.6-6.6Z"/>
  <path class="st0" d="M171.5,11.5c-3,0-5.8.5-8.6,1.5l-.9,5.3c2.6-1.2,5.4-2,8.4-2s5.1.7,5.1,3.3,0,1.5-.2,2.2h-2.3c-6.2,0-15.6.6-15.6,9s3.2,7.3,7.8,7.3,5.9-1.6,8.2-4.5h.1l-.7,3.9h5.6c.6-4.8,3.1-14.8,3.1-18.2,0-6-4.8-7.8-9.9-7.8ZM166.9,33.3c-1.7,0-3.4-.9-3.4-2.7,0-4.3,5.3-4.8,8.5-4.8h2.3c-1,4.1-2.6,7.5-7.5,7.5Z"/>
  <polygon class="st0" points="30.9 1.1 24.3 1.1 22.9 7.4 29.5 7.4 30.9 1.1"/>
  <polygon class="st0" points="21.9 12.1 16.5 37.5 23.1 37.5 28.5 12.1 21.9 12.1"/>
  <path class="st0" d="M107.4,30.5c0-.8,0-1.7.3-2.5l2.4-11.1h5.9l1-4.8h-5.9l1.6-7.5-7.1,2.3-1.1,5.2h-4.8l-1,4.9h4.8l-1.9,8.6c-.4,2-.8,4-.8,5.9,0,4.9,3.2,6.7,7.7,6.7s2.4-.3,3.6-.6l1.1-5.1c-.8.3-2,.6-3.2.6-1.5,0-2.5-1-2.5-2.5Z"/>
  <path class="st0" d="M9.5,30.5c0-.8.1-1.7.3-2.5l2.4-11.1h5.9l1-4.8h-5.9l1.6-7.5-7.1,2.3-1.1,5.2H1.8l-1,4.9h4.8l-1.9,8.6c-.5,2-.8,4-.8,5.9,0,4.9,3.2,6.7,7.6,6.7s2.4-.3,3.5-.6l1.1-5.1c-.8.3-2,.6-3.2.6-1.5,0-2.5-1-2.5-2.5Z"/>
  <path class="st0" d="M86.9,12.9c-8.3.1-14.3,7.8-14.2,15.7.1,7.5,5.1,11,12.4,10.9,2.7,0,5.5-.7,8.1-1.6l.8-5.2c-2.4,1.2-5.1,1.9-7.8,1.9-4.2,0-6.7-1.4-7.1-5.4,0-.2,0-.5,0-.7v-.2c0-1.7.3-3.5,1-5.1,1.2-3.3,3-5.5,6.9-5.6,2.8,0,4.2,1.5,4.3,4.2,0,.6,0,1.1-.1,1.7h-9.1c-.6,2.1-.6,3.5-.6,4.7l15.6-.2c.4-1.9.6-3.8.6-5.7,0-6.4-4.3-9.6-10.6-9.5Z"/>
  <path class="st0" d="M278.1,13.2c0-1.3-.8-1.9-2.3-1.9h-2.6s0,0,0,0v6.7c.1,0,1.2,0,1.2,0v-3s.9,0,.9,0l1.9,2.9h1.2s-2-3-2-3c1,0,1.7-.8,1.7-1.9ZM274.4,14.2v-2s1.3,0,1.3,0c.7,0,1.4.2,1.4,1,0,.9-.5,1-1.4,1.1h-1.3Z"/>
  <path class="st0" d="M149.3,11.9c-3.6,0-7.2,1.6-8.9,5h-.1c-.4-3-3.5-4.8-6.6-4.7-3.1,0-6,1.5-7.7,4.1h-.1l.5-3.4h-6.2c-.1.9-.3,1.9-.5,2.9l-4.3,22.7h6.6c0,0,2.4-12.2,2.4-12.2.8-3.4,1.9-8.8,6.4-8.9,1.7,0,3.1,1.1,3.2,3,0,1.5-.4,3.9-.8,5.4l-2.5,12.4h6.6c0,0,2.4-12.2,2.4-12.2.8-3.5,1.8-8.8,6.4-8.9,1.7,0,3.1,1.1,3.2,3,0,1.5-.4,3.9-.8,5.4l-2.5,12.4h6.6c0,0,2.5-12.3,2.5-12.3.5-2.1,1.1-4.7,1-6.9,0-3.9-3.4-6.9-7.2-6.9Z"/>
  <path class="st0" d="M234.9,10.6c-8.4.1-14.4,7.8-14.2,15.7.1,7.5,5.1,11,12.4,10.9,2.7,0,5.5-.7,8.1-1.6l.8-5.2c-2.5,1.2-5.1,1.9-7.8,1.9-4.2,0-6.7-1.4-7.1-5.4,0-.2,0-.5,0-.7s0,0,0-.2h0c0,0,0,0,0,0,0-1.7.4-3.5,1-5.1,1.2-3.3,3-5.5,6.9-5.6,2.8,0,4.2,1.5,4.3,4.2,0,.6,0,1.1-.1,1.7h-9.1c-.6,2.1-.6,3.5-.6,4.7l15.6-.2c.3-1.9.5-3.8.5-5.7-.1-6.4-4.3-9.6-10.6-9.5Z"/>
  <path class="st0" d="M275.4,9c-3.1,0-5.7,2.7-5.6,5.8,0,3.2,2.7,5.7,5.8,5.6s5.7-2.7,5.6-5.8c0-3.2-2.7-5.7-5.8-5.6ZM275.6,19.6c-2.6,0-4.7-2-4.7-4.8,0-2.7,1.9-4.9,4.6-4.9,2.6,0,4.6,2,4.7,4.8,0,2.7-1.9,4.9-4.5,4.9Z"/>
  <path class="st0" d="M256.1,15.6h-.1l.8-4.8h-6.3c-.2,1.3-.4,2.4-.5,3.5l-4.2,22.1h6.6c0,0,2.2-11.5,2.2-11.5.8-4.1,3-8.3,7.7-8.4.8,0,1.8.1,2.5.4l1.3-6.5c-.8-.2-1.7-.2-2.5-.2-3.1,0-6.3,2.7-7.4,5.5Z"/>
  <path class="st0" d="M185.2,19.4c.1,6.4,8.7,6.6,8.8,10.7,0,2.1-2.3,2.8-4.5,2.9-2.6,0-4.4-.9-6.3-1.9l-1.3,5.3c2.4,1.1,5.1,1.5,7.8,1.4,5.7,0,11.4-2.2,11.3-8.8-.1-6.2-8.7-7.3-8.8-10.5,0-2,2.4-2.6,4.4-2.6,1.9,0,3.7.5,4.4.9l1.3-5c-1.3-.3-3.8-.7-6.2-.7-5.2,0-11,2.3-10.9,8.3Z"/>
  <path class="st0" d="M213,29.9c0-.8,0-1.7.3-2.5l2.2-11.1h5.9c0,0,1-5,1-5h-5.9c0,0,1.5-7.5,1.5-7.5l-7.1,2.4-1.1,5.2h-4.8c0,0-1,5-1,5h4.8c0,0-1.7,8.5-1.7,8.5-.4,2-.8,4-.8,5.9,0,4.9,3.3,6.6,7.8,6.5,1.1,0,2.4-.4,3.5-.7l1.1-5.2c-.8.4-2,.6-3.2.7-1.5,0-2.5-.9-2.5-2.4Z"/>
</svg>