<?xml version="1.0" encoding="UTF-8"?>
<svg id="Layer_1" xmlns="http://www.w3.org/2000/svg" version="1.1" viewBox="0 0 197 116">
  <!-- Generator: Adobe Illustrator 29.5.0, SVG Export Plug-In . SVG Version: 2.1.0 Build 137)  -->
  <defs>
    <style>
      .st0 {
        fill: #fff;
      }
    </style>
  </defs>
  <path class="st0" d="M100.2,24.8h-7.3l-3.8,14.3h0c-.8-1.3-2.5-2.4-4.7-2.4-6.4,0-12,7.5-12,16.1s3.4,8.3,7,8.3,4.8-1.6,6-3.3h0l-.8,3h6.2l9.4-36.1h0ZM81.9,55.5c-1.4,0-2.2-1.4-2.2-3.9,0-4.4,2.4-9.1,5.4-9.1s2.3,1.5,2.3,3.8c0,4.1-2.4,9.2-5.4,9.2h-.1ZM138.6,61.2c7.5,0,13.1-6.9,13.1-14.6s-3.7-9.9-8.8-9.9c-7.4,0-12.8,7-12.8,15s3.8,9.4,8.4,9.4h.1ZM142.4,42c1.5,0,2.4,1.9,2.4,4.2,0,4.2-2.5,9.4-5.3,9.4s-2.3-1.5-2.3-4.2c0-4.8,2.3-9.5,5.3-9.5h0ZM67.5,37.2l-.8,3.3h0c1-1.7,3.3-3.7,5.5-3.7s1.2,0,1.6.3l-1.8,6.9c-.5-.3-1.3-.6-2.1-.6-2.8,0-4.7,3.3-5.5,6.3l-2.9,11.2h-7.3l6.2-23.7h7.1ZM164.6,55.8c1.7,0,2.7-.2,3.6-.9l-1.5,5.6c-.8.3-2.2.7-4.1.7-4.9,0-8.8-4-8.8-9.7s5.7-14.7,12.8-14.7,4.7.9,5.8,1.7l-1.4,5.3c-.8-.8-2.2-1.8-3.9-1.8-3.3,0-6.4,3.8-6.4,9.2s1.5,4.5,3.8,4.5h0ZM190.9,63.3c-1.5,0-2-.8-2-2.2v-2.4c0-2.7-1.3-5.5-3-6.7h0c4.2-.9,9.5-4.3,9.5-9.6s-2.3-5.7-6.3-5.7-4.6,1.1-6,2.7h0l3.8-14.7h-7.3l-9.4,36.1h7.3l1.9-7.3c1.7.2,3.4,2,3.4,4.5s-.3,3.3-.3,5.1c0,3.5,2.6,5.8,6.4,5.8s3.8-.6,4.9-1.6l-1-4.7c-.3.2-1.2.5-1.9.5v.2ZM180.5,49.2c.7-3.7,3.9-7.3,6.5-7.3s1.7.6,1.7,1.7c0,2.7-3.7,5.6-8.2,5.6ZM132.3,68l-1.1-4.7c-.5.3-1.3.6-2.3.6s-2.5-1.1-2.5-2.7.3-4.3.3-6.7c0-4.3-2.3-7.5-4-8.6h0c4.9-1.2,10-6.2,10-11.5s-3.5-9.6-11.1-9.6h-7.1c-1.6,2.4-3.5,3.8-7,3.8l-1.3,4.8h1.2c1.4,0,2.9-.3,4.2-1l-7.4,28.3h7.5l3.6-13.8c2.4.6,4.6,3.6,4.6,7s-.9,5.3-.9,9.2,3.2,6.8,7.7,6.8,4.3-.9,5.6-2h0ZM118.2,41.7h-1.5l3-11.6h1c3.2,0,4.4,2,4.4,4.5,0,3.7-2.3,7.1-6.9,7.1ZM32.7,24.8l-9.4,36.1h-7.5l4.2-15.9h-6.8l-4.2,15.9H1.6l7.4-28.3c-1.3.6-2.8,1-4.2,1s-.8,0-1.2,0l1.3-4.8c3.5,0,5.4-1.5,7-3.8h6.6l-3.7,14.2h6.8l3.7-14.2h7.5v-.2ZM47.5,61.3c1.7,0,2.7-.3,3.4-.8l1.4-5.2c-.3,0-.6,0-1.1,0-.8,0-1.2-.4-1.2-1s0-.5,0-.8l4.3-16.4h-7.2l-.6,2.5h0c-.6-1.4-2.4-2.9-4.8-2.9-6.4,0-12,7.5-12,16.1s3.4,8.3,7,8.3,5.1-1.8,6.2-3.5h0c.6,2.5,2.6,3.6,4.5,3.6ZM39.3,55.5c-1.4,0-2.2-1.4-2.2-3.9,0-4.4,2.4-9.1,5.4-9.1s2.3,1.5,2.3,3.8c0,4-2.4,9.2-5.4,9.2h0ZM164.6,69.6c.5,0,.9-.3.9-.8s-.4-.8-1-.8h-.8v2.9h.4v-1.3h0l1,1.3h.5l-.8-1c-.1,0-.2-.2-.3-.3h.1ZM164.1,69.3v-1h.3c.4,0,.6.2.6.5s-.2.5-.6.5h-.3ZM164.6,66.8c-1.5,0-2.7,1.2-2.7,2.7s1.2,2.7,2.7,2.7,2.7-1.2,2.7-2.7-1.2-2.7-2.7-2.7ZM164.6,71.8c-1.3,0-2.3-1.1-2.3-2.4s1-2.3,2.3-2.3,2.3,1.1,2.3,2.4-1,2.3-2.3,2.3ZM158.8,63.5h0c-2.8,29.2-27.5,52.1-57.4,52.1s-54.6-22.9-57.4-52.1c0,0,.2,0,.2-.2l.2.2c.6.5,2.4,1.9,5.1,1.8h.7c3.6,25,25.1,44.2,51.1,44.2s51.6-23.2,51.6-51.6h0c0,0,0-.2.1-.2.1.2.2.4.3.6h0c.1.2.2.4.3.6h0c.1.2.2.3.3.5h0c.1.2.2.3.4.5q.1.1,0,0c.1.2.3.3.4.5h0c.4.5.9.9,1.3,1.2.5.4.9.7,1.2.9.6.5,1,.7,1.2.7h0l.4.3ZM49.4,34.9h-.8C57.5,14.5,77.8.3,101.4.3s47,16.5,54.7,39.3c0,0-.3.4-.7.8-.1,0-.2.3-.3.4h0c-.4.5-.8,1-1,1.3-.4-.8-1.3-2-1.3-2-.1-.2-.5-.6-1.5-1.8-.9-1.2-2.1-2.1-3.4-2.8-8.4-17.3-26-29.2-46.5-29.2s-37.6,11.6-46.2,28.5h-5.9,0Z"/>
</svg>