<?xml version="1.0" encoding="UTF-8"?>
<svg id="Layer_1" xmlns="http://www.w3.org/2000/svg" version="1.1" xmlns:xlink="http://www.w3.org/1999/xlink" viewBox="0 0 445 453">
  <!-- Generator: Adobe Illustrator 29.4.0, SVG Export Plug-In . SVG Version: 2.1.0 Build 152)  -->
  <defs>
    <style>
      .st0 {
        clip-path: url(#clippath-6);
      }

      .st1 {
        clip-path: url(#clippath-7);
      }

      .st2 {
        clip-path: url(#clippath-17);
      }

      .st3 {
        clip-path: url(#clippath-15);
      }

      .st4 {
        clip-path: url(#clippath-18);
      }

      .st5 {
        fill: url(#Degradado_sin_nombre_2719);
      }

      .st6 {
        clip-path: url(#clippath-4);
      }

      .st7 {
        clip-path: url(#clippath-9);
      }

      .st8 {
        clip-path: url(#clippath-10);
      }

      .st9 {
        fill: url(#Degradado_sin_nombre_2718);
      }

      .st10 {
        fill: url(#Degradado_sin_nombre_2711);
      }

      .st11 {
        fill: url(#Degradado_sin_nombre_2716);
      }

      .st12 {
        clip-path: url(#clippath-11);
      }

      .st13 {
        fill: none;
      }

      .st14 {
        fill: url(#Degradado_sin_nombre_274);
      }

      .st15 {
        fill: url(#Degradado_sin_nombre_2715);
      }

      .st16 {
        fill: url(#Degradado_sin_nombre_277);
      }

      .st17 {
        clip-path: url(#clippath-1);
      }

      .st18 {
        fill: url(#Degradado_sin_nombre_2710);
      }

      .st19 {
        clip-path: url(#clippath-5);
      }

      .st20 {
        clip-path: url(#clippath-8);
      }

      .st21 {
        fill: url(#Degradado_sin_nombre_279);
      }

      .st22 {
        fill: url(#Degradado_sin_nombre_275);
      }

      .st23 {
        clip-path: url(#clippath-3);
      }

      .st24 {
        clip-path: url(#clippath-12);
      }

      .st25 {
        clip-path: url(#clippath-14);
      }

      .st26 {
        fill: url(#Degradado_sin_nombre_276);
      }

      .st27 {
        clip-path: url(#clippath-19);
      }

      .st28 {
        fill: url(#Degradado_sin_nombre_278);
      }

      .st29 {
        fill: url(#Degradado_sin_nombre_273);
      }

      .st30 {
        fill: url(#Degradado_sin_nombre_2717);
      }

      .st31 {
        clip-path: url(#clippath-16);
      }

      .st32 {
        fill: url(#Degradado_sin_nombre_27);
      }

      .st33 {
        clip-path: url(#clippath-2);
      }

      .st34 {
        fill: url(#Degradado_sin_nombre_2712);
      }

      .st35 {
        fill: url(#Degradado_sin_nombre_2714);
      }

      .st36 {
        fill: url(#Degradado_sin_nombre_2713);
      }

      .st37 {
        clip-path: url(#clippath-13);
      }

      .st38 {
        clip-path: url(#clippath);
      }

      .st39 {
        fill: url(#Degradado_sin_nombre_271);
      }

      .st40 {
        fill: url(#Degradado_sin_nombre_272);
      }
    </style>
    <clipPath id="clippath">
      <path class="st13" d="M315.7,117.6s0,0,0,0c0,0,0,0,0,0M313.8,116.6s0,0,0,0c0,0-.1-.1-.2-.1,0,0,.1.1.2.1M348.9,109.7s0,0,0,0c0,0,0,0,0,0M349,109.6s0,0,0,0c0,0,0,0,0,0M361.1,97.3s0,0,0,0c0,0,0,0,0,0M364.8,90.6c0,.3-.2.6-.3.9,0,.1,0,.3-.1.4,0,0,0,0,0,.1,0,0,0,0,0,.1,0,.2-.2.3-.2.5-.1.3-.3.6-.4.8-.6,1.1-1.3,2.2-2.1,3.3-.2.2-.3.4-.5.7,0,0,0,0,0,0,0,.1-.2.2-.3.3-.4.5-.8,1-1.3,1.5-.8,1-1.7,1.9-2.5,2.9-1.6,1.8-3.4,3.5-5.2,5.2-.9.8-1.8,1.6-2.8,2.3-.1,0-.3.2-.4.3-.2.2-.4.3-.7.5-.5.4-1,.7-1.6,1.1-2.1,1.4-4.2,2.6-6.5,3.7-.3.1-.6.3-.9.4,0,0,0,0,0,0,0,0,0,0-.1,0-.6.2-1.2.4-1.7.7-1.1.4-2.2.7-3.3,1-1.8.4-3.6.8-5.4,1.1-.2,0-.3,0-.5,0-.1,0-.2,0-.3,0-.5,0-1,.1-1.5.2-1,0-2.1.1-3.1.1-1.1,0-2.2,0-3.3-.2,0,0,0,0,0,0,0,0,0,0-.2,0-.3,0-.6,0-.8-.2-.5-.1-1-.2-1.5-.4-.3,0-.5-.2-.8-.3,0,0-.2,0-.3-.1,0,0-.1,0-.2,0,0,0,0,0,0,0-.1,0-.3-.1-.4-.2-.2-.1-.4-.2-.6-.3-.2-.1-.5-.3-.7-.4,0,0-.1,0-.2-.1,0,0,0,0,0,0,0,0,0,0,0,0,0,0,0,0,0,0-.3-.2-.2-.2-.1-.1-.1-.1-.3-.2-.4-.3-.2-.2-.4-.4-.7-.6-1.2-1.2-3.4-1.3-4.5,0-1.2,1.3-1.2,3.2,0,4.5,6.5,6.8,17.4,5.6,25.7,3.8,10.3-2.3,19.3-8.3,26.5-15.9,4.3-4.5,8.8-9.5,10.6-15.6.5-1.6-.6-3.6-2.2-4-.3,0-.5,0-.8,0-1.4,0-2.7.9-3.1,2.3"/>
    </clipPath>
    <linearGradient id="Degradado_sin_nombre_27" data-name="Degradado sin nombre 27" x1="-159.7" y1="545.4" x2="-157.4" y2="545.4" gradientTransform="translate(8040.1 26656.2) scale(48.7 -48.7)" gradientUnits="userSpaceOnUse">
      <stop offset="0" stop-color="#d29443"/>
      <stop offset="0" stop-color="#b77f39"/>
      <stop offset=".2" stop-color="#95652c"/>
      <stop offset=".2" stop-color="#7d5222"/>
      <stop offset=".3" stop-color="#6e461c"/>
      <stop offset=".4" stop-color="#69431b"/>
      <stop offset=".5" stop-color="#70481d"/>
      <stop offset=".6" stop-color="#835725"/>
      <stop offset=".7" stop-color="#a37031"/>
      <stop offset=".8" stop-color="#cc8f41"/>
      <stop offset=".8" stop-color="#cf9141"/>
      <stop offset="1" stop-color="#ddb380"/>
    </linearGradient>
    <clipPath id="clippath-1">
      <path class="st13" d="M329.2,80c.5,0,1,0,1.5-.2,1.1-.4,2.1-.9,2.9-1.7.5-.5,1.1-1.3,1.4-2.2,1.4-2.1,2.8-4.2,4.3-6.2,1.7-2.1,3.5-4,5.5-5.7,1.1-.8,2.4-1.5,3.6-2.1,1.3-.5,2.7-.9,4.1-1.1,2.8-.3,5.3-.1,7.9,1.1,15.4,6.9,19.4,23.8,17.9,39.4-.3,1.8-.8,3.6-1.5,5.4-2.5,5.5-5.6,10.7-9.3,15.5-5.6,7.1-12.2,13.3-19.3,18.9-4.8,3.7-9.9,7-15,10.2,0-.2,0-.4-.2-.6-.5-1.5-1.5-3.1-3-3.8-7.6-3.8-15-7.9-22-12.7-1.8-1.2-3.6-2.5-5.4-3.9-5-3.9-9.6-8.3-13.6-13.3-2.3-2.8-3.9-6.4-5.7-9.5-1.4-2.5-2.8-5.1-3.5-7.9-1-3.6-.9-7.3-.7-11,.4-11.3,7-25.9,19.8-27.1,1.7-.2,3.5-.2,5.3,0,1.2.2,2.4.5,3.5.9,1.1.5,2.1,1.1,3.1,1.8,1.7,1.4,3.2,3,4.6,4.7,1.8,2.4,3.4,5,5,7.6,0,0,0,0,0,0,.2.5.5,1,.8,1.4,0,0,0,.1.1.2,0,0,0,0,0,0,.8,1.1,2,2,3.3,2.3.5.1,1.1.2,1.6.2.9,0,1.8-.2,2.7-.5M364.6,1.8c-3,2-4.3,5.9-2.4,9.1,3.9,6.8,7.9,13.5,11.1,20.7.7,1.8,1.4,3.5,2,5.3-4.6-7.2-10.1-13.8-16.2-19.7-4.4-4.2-9.3-8.2-14.8-10.9-1.6-.8-3.3-1.2-5.1-.7-1.5.4-3.2,1.6-4,3.1-.8,1.5-1.2,3.4-.7,5.1.5,1.6,1.5,3.2,3.1,4,2.4,1.2,4.7,2.6,6.9,4.3,5.9,4.7,11.1,10.5,15.8,16.4,2.1,2.8,4,5.7,5.7,8.6-1.4-.6-2.9-1.2-4.5-1.5-5.7-1.2-11.4-.3-16.5,2.5-.6.3-1.1.8-1.6,1.3-1.1.5-2.1,1-3.2,1.6-3.8,2.2-7.2,5.3-10,8.7-.9,1.2-1.8,2.3-2.7,3.6,0-.1-.1-.2-.2-.3-2.3-3.1-4.7-6.1-7.8-8.5-1.9-1.5-3.9-2.8-6-3.8-.4-.5-1-1-1.6-1.4-2-1.1-4.1-2.1-6.4-2.6-2.8-.6-5.2-.6-7.9-.2-1.8.3-3.6.8-5.3,1.6,2.3-4.3,4.9-8.3,7.9-12.2,4.1-5.2,8.5-10.2,13.7-14.4,1.5-1.1,3.2-2.2,4.9-3.1,3-1.6,4.1-6,2.3-8.8-2-3-5.6-4-8.8-2.3-4.7,2.4-8.8,5.9-12.5,9.6-3.8,3.8-7.2,8-10.5,12.3-1.8,2.3-3.5,4.7-5,7.2.7-2.2,1.5-4.4,2.4-6.6,2.7-6.3,6.1-12.3,9.3-18.4.8-1.5,1.1-3.3.6-5-.4-1.5-1.6-3.1-3-3.8-3-1.6-7.1-.9-8.8,2.3-4.6,8.5-9.1,17-12.3,26,0-3.7,0-7.3.3-11,.1-1.6-.8-3.5-1.9-4.5-1.1-1.1-2.9-2-4.5-1.9-1.7,0-3.4.6-4.5,1.9-1.2,1.3-1.8,2.8-1.9,4.5-.4,5.6-.3,11.2-.3,16.8,0,5.7,0,11.3-.2,17-.3,5.9-.6,11.7-.8,17.6-.2,5.4-.1,10.8-.3,16.2-.1,2.5-.3,5-.2,7.4,0,.5,0,1,0,1.5-1,9-1.5,18.2-1.6,27.3,0,10.9.4,21.9.8,32.8,0,2.9.3,5.7.8,8.5.4,2.6,1.3,5.3,3.2,7.3,1.4,1.4,3.5,2,5.4,1.8,1.1.7,2.4,1.2,3.6,1.1,1.1,0,2.2-.3,3.2-.9.5-.2.9-.6,1.4-1.1.5.4,1.1.6,1.7.8,1.1.3,2.3.3,3.4,0,.4,0,.8-.3,1.2-.5.9.5,2,.9,3.1.8,2.8-.1,5.5-1.9,6.2-4.7.2-.8.3-1.6.3-2.4,0,0,0,.1,0,.2,0-1,0-2-.5-3-.9-8-.9-16-.4-24-4.9-5.4-9.7-10.9-13.4-17.2-1-1.8,1.7-3.4,2.8-1.6,3.4,5.7,7.7,10.8,12.1,15.7,4.8,4,9.8,7.6,15.1,10.8,5.5,3.4,11.2,6.5,17,9.4,1.4.7,2.8,1,4.3.8,0,1,.4,2.1.9,2.9,1.9,3,5.9,4.3,9.1,2.4,3.9-2.4,7.8-4.9,11.6-7.5.2-.2.4-.4.5-.6,1-1.1,2.2-2.1,3.4-3,2.3-1.8,4.2-3.1,6.3-5.1,3-3,5.8-6.3,8.5-9.6,5.3-6.6,10.6-13.2,14.6-20.7,1-1.8,3.7-.2,2.8,1.6-2.2,4.1-4.8,8-7.6,11.8-3.1,4.1-6.2,8.2-9.5,12.1.4,7,.3,14-.6,20.9-.4,1-.6,2-.5,3.1,0,0,0-.1,0-.1,0,.8,0,1.7.3,2.5.7,2.7,3.6,5,6.4,4.9,1.2,0,2.3-.4,3.4-.9,1.7.9,3.9,1,5.7.2.4-.2.8-.4,1.2-.6.3.3.6.5.9.8,1.1.9,2.6,1.5,4,1.4,1.3,0,2.6-.5,3.7-1.2,2,.4,4.2-.2,5.8-1.8,1.8-1.7,2.8-4.3,3.3-6.7.5-2.5.8-5.1.9-7.7.2-4.4.3-8.8.5-13.2.6-12.6.7-25.2-.2-37.8-.3-3.6-.6-7.2-1-10.8,0,0,0-.2,0-.2.1-2.2,0-4.5,0-6.7-.3-5.2-.2-10.4-.4-15.6-.4-11.6-1.3-23.2-1.2-34.8,0-6.4.2-12.7-.3-19.1-.1-1.8-.7-3.4-2-4.7-1.2-1.2-3.1-2-4.7-2-1.7,0-3.5.6-4.7,2-1.1,1.2-2.1,3-2,4.7.3,4.1.4,8.2.4,12.3-1.4-4-3.1-7.9-5-11.7-2.7-5.4-5.7-10.5-8.8-15.7-.8-1.4-2.4-2.6-4-3.1-.5-.1-1.1-.2-1.8-.2-1.2,0-2.4.3-3.4.9"/>
    </clipPath>
    <linearGradient id="Degradado_sin_nombre_271" data-name="Degradado sin nombre 27" x1="-159.7" y1="545.7" x2="-157.4" y2="545.7" gradientTransform="translate(8035.1 26649.1) scale(48.7 -48.7)" xlink:href="#Degradado_sin_nombre_27"/>
    <clipPath id="clippath-2">
      <path class="st13" d="M375.8,401.4c-3.7,2.7-17,3-22.5,3.6-1.4-10.4,4.6-18,15.1-17.5,8.6-1.3,14.5,8.5,7.3,13.9M339.3,381.6c-11.9,15.3-14.3,56.7,7.1,66.4,19.5,9.9,55.2,2.3,54.4-25h-19.4c.1,15.4-30.6,14.8-28-2,0,0,21.2-1.7,21.2-1.7,16.9-2.4,34.5-14.2,26.2-34.7-4.4-10.9-13.9-14.3-24.3-15.1-2.2-.2-4.4-.2-6.4-.2-14.9,0-24.6,4.2-30.9,12.4"/>
    </clipPath>
    <linearGradient id="Degradado_sin_nombre_272" data-name="Degradado sin nombre 27" x1="-154.1" y1="542.8" x2="-151.9" y2="542.8" gradientTransform="translate(-21062.4 -75664.6) rotate(-180) scale(140.2 -140.2)" xlink:href="#Degradado_sin_nombre_27"/>
    <clipPath id="clippath-3">
      <path class="st13" d="M349.6,229.5c-3.7,2.7-17,3-22.5,3.7-1.4-10.4,4.6-18,15.1-17.5,8.6-1.3,14.5,8.5,7.3,13.9M313.1,209.6c-11.9,15.3-14.3,56.7,7.1,66.4,19.5,9.9,55.2,2.3,54.4-25h-19.4c.1,15.4-30.6,14.8-28-2,0,0,21.2-1.7,21.2-1.7,16.9-2.4,34.5-14.2,26.2-34.7-4.4-10.9-13.9-14.3-24.3-15.1-2.2-.2-4.4-.2-6.4-.2-14.9,0-24.6,4.2-30.9,12.4"/>
    </clipPath>
    <linearGradient id="Degradado_sin_nombre_273" data-name="Degradado sin nombre 27" x1="-154.1" y1="542.2" x2="-151.9" y2="542.2" gradientTransform="translate(-21189.1 -75756.3) rotate(-180) scale(140.2 -140.2)" xlink:href="#Degradado_sin_nombre_27"/>
    <clipPath id="clippath-4">
      <path class="st13" d="M249,359.9c0,7.6,4.8,15.1,14.2,14.8,9.3.2,14-7.3,14-14.8,0-7.5-4.6-15.1-14-14.8-.2,0-.4,0-.6,0-9.1,0-13.7,7.4-13.7,14.9"/>
    </clipPath>
    <linearGradient id="Degradado_sin_nombre_274" data-name="Degradado sin nombre 27" x1="-154.1" y1="542.4" x2="-151.9" y2="542.4" gradientTransform="translate(-21136.4 -75681.3) rotate(180) scale(140.2 -140.2)" xlink:href="#Degradado_sin_nombre_27"/>
    <clipPath id="clippath-5">
      <path class="st13" d="M250.2,380c1.1,9.8,1.9,20.9,1.9,33,0,12.7-.8,24.3-1.9,34.6h23.3c0-12.7,0-25.5,0-38.2,0-9.8,0-19.6,0-29.3h-23.3Z"/>
    </clipPath>
    <linearGradient id="Degradado_sin_nombre_275" data-name="Degradado sin nombre 27" x1="-154.1" y1="542.5" x2="-151.8" y2="542.5" gradientTransform="translate(-20991 -75267.9) rotate(180) scale(139.5 -139.5)" xlink:href="#Degradado_sin_nombre_27"/>
    <clipPath id="clippath-6">
      <path class="st13" d="M94,183c0,7.6,4.8,15.1,14.2,14.8,9.3.2,14-7.3,14-14.8,0-7.5-4.6-15.1-14-14.8-.2,0-.4,0-.6,0-9.1,0-13.7,7.4-13.7,14.9"/>
    </clipPath>
    <linearGradient id="Degradado_sin_nombre_276" data-name="Degradado sin nombre 27" x1="-154.1" y1="541.4" x2="-151.8" y2="541.4" gradientTransform="translate(-21302.4 -75725.8) rotate(-180) scale(140.2 -140.2)" xlink:href="#Degradado_sin_nombre_27"/>
    <clipPath id="clippath-7">
      <path class="st13" d="M95.1,203.1c1.1,9.8,1.9,20.9,1.9,33,0,12.7-.8,24.3-1.9,34.6h23.3c0-12.7,0-25.5,0-38.2,0-9.8,0-19.6,0-29.3h-23.3Z"/>
    </clipPath>
    <linearGradient id="Degradado_sin_nombre_277" data-name="Degradado sin nombre 27" x1="-154.1" y1="541.6" x2="-151.8" y2="541.6" gradientTransform="translate(-21157.3 -75312.3) rotate(180) scale(139.5 -139.5)" xlink:href="#Degradado_sin_nombre_27"/>
    <clipPath id="clippath-8">
      <path class="st13" d="M292.2,336.1c1.3,16.2,2.2,34.5,2.3,54.4,0,21-.9,40.1-2.3,57h27.4c0-21,0-42,0-63.1,0-16.1,0-32.3,0-48.3h-27.4Z"/>
    </clipPath>
    <linearGradient id="Degradado_sin_nombre_278" data-name="Degradado sin nombre 27" x1="-154.1" y1="542.6" x2="-151.8" y2="542.6" gradientTransform="translate(-20964.3 -75194.6) rotate(-180) scale(139.3 -139.3)" xlink:href="#Degradado_sin_nombre_27"/>
    <clipPath id="clippath-9">
      <path class="st13" d="M53.3,361.1c-2,.5-3.9,1-5.6,1.6-2.8,1-5.3,2.5-7.4,4.2-3.2,2.2-6.1,4.9-7.8,8.5-1.3,2.8-1.7,6.1-1.5,9.2-1.2,12.8,6.4,26.3,22.4,27.6,4.3.4,8.8.8,12.9,2.5,4,1.6,10.9,6.3,8.3,11.4-.9,1.9-2.7,3.2-4.6,4.1-4.7,2.3-10.5,2.4-14.9-.4-3.4-2.2-3.8-6.1-3.2-9.8-3.7,0-7.5,0-11.2,0-2.4,0-8-1-10.1.6-3.7,2.8-.5,11.3,1.4,14.3,3.4,5.1,8.6,8.7,14.1,10.9,11.3,4.6,25.1,4.5,36.3-.3,15.9-6.8,25.1-30.3,8.8-42.2-6.5-4.7-14.3-6.3-21.9-7.7-5-.9-14.1-2.7-14.6-9.3-.1-1.9.5-3.7,1.6-5.3,3.3-4.7,9.6-5.3,13.8-1.7,3.1,2.7,1.7,7.9,5.8,8.9,5.1,1.3,14.4-2.8,19-4.7.2,0,.5-.2.6-.4,0-.2,0-.4,0-.6-.2-1.3-.4-2.6-.6-4-2.1-14.1-14.6-19.3-27.7-19.3s-9.5.7-13.9,1.9"/>
    </clipPath>
    <linearGradient id="Degradado_sin_nombre_279" data-name="Degradado sin nombre 27" x1="-154.1" y1="542" x2="-151.8" y2="542" gradientTransform="translate(-21138.5 -75503.7) rotate(-180) scale(140.1 -140.1)" xlink:href="#Degradado_sin_nombre_27"/>
    <clipPath id="clippath-10">
      <path class="st13" d="M181.9,325.9c2.4-1.7,11.3-1.9,15-2.3,1,6.6-3.1,11.4-10.1,11.1-.4,0-.7,0-1.1,0-5.1,0-8.3-5.7-3.8-8.9M165.2,312.2h12.9c0-9.8,20.4-9.4,18.7,1.3,0,0-14.1,1.1-14.1,1.1-11.3,1.5-23,9-17.5,22.1,2.9,6.9,9.3,9.1,16.2,9.6,12.4.8,20.1-1.8,24.9-7.7,7.9-9.7,9.5-36-4.8-42.2-3.6-1.7-8.1-2.6-12.6-2.6-11.8,0-24.1,6-23.7,18.5"/>
    </clipPath>
    <linearGradient id="Degradado_sin_nombre_2710" data-name="Degradado sin nombre 27" x1="-154.1" y1="542" x2="-151.8" y2="542" gradientTransform="translate(-21186.4 -75681.5) rotate(-180) scale(140.2 -140.2)" xlink:href="#Degradado_sin_nombre_27"/>
    <clipPath id="clippath-11">
      <path class="st13" d="M23,238c-1.6-23.4,36.4-23.2,35.1,0,.7,11.6-8.5,17.5-17.7,17.5-9.1,0-18.2-5.8-17.4-17.5M58.2,168.3v41.2c-23.7-22.4-60.5-2-57.8,29.6-3.3,30.9,38.2,50.5,57.9,25.7l1.2,8.7h21.1c-1.7-12.8-2.9-26.8-3.3-41.8-.6-23.6.9-44.9,3.3-63.4h-22.4Z"/>
    </clipPath>
    <linearGradient id="Degradado_sin_nombre_2711" data-name="Degradado sin nombre 27" x1="-154.1" y1="541.3" x2="-151.8" y2="541.3" gradientTransform="translate(-21264.6 -75575.8) rotate(-180) scale(140 -140)" xlink:href="#Degradado_sin_nombre_27"/>
    <clipPath id="clippath-12">
      <path class="st13" d="M154.9,209l-1.5-7.6c-7.1.6-14.2,1.1-21.3,1.6,2.3,15.2,3,27.4,3.2,36.4,0,1.3,0,2.3,0,2.7.2,13.8-.6,24.8-1.4,32.7h20.7s0-40.2,0-40.2c0-9,5.8-15.1,15-15,21.7-.5,14.9,43.5,14.5,55.2h21.2c.6-11.7,5.8-56.8-6.7-67.8-4.7-5.4-12.7-8-20.8-8s-18.2,3.3-23,10"/>
    </clipPath>
    <linearGradient id="Degradado_sin_nombre_2712" data-name="Degradado sin nombre 27" x1="-154.1" y1="541.8" x2="-151.8" y2="541.8" gradientTransform="translate(-21256 -75749.7) rotate(-180) scale(140.3 -140.3)" xlink:href="#Degradado_sin_nombre_27"/>
    <clipPath id="clippath-13">
      <path class="st13" d="M239.6,207.9l-1.5-7.6c-7.1.5-14.2,1.1-21.2,1.6,2.3,15.2,3,27.4,3.2,36.4,0,1.3,0,2.3,0,2.7.2,13.8-.6,24.8-1.4,32.7h20.7s0-40.2,0-40.2c-.1-9,5.8-15.1,15-15,21.7-.5,14.9,43.5,14.5,55.2h21.2c.6-11.7,5.8-56.8-6.7-67.8-4.7-5.4-12.7-8-20.8-8s-18.2,3.3-23,10"/>
    </clipPath>
    <linearGradient id="Degradado_sin_nombre_2713" data-name="Degradado sin nombre 27" x1="-154.1" y1="542" x2="-151.8" y2="542" gradientTransform="translate(-21233 -75783.3) rotate(-180) scale(140.3 -140.3)" xlink:href="#Degradado_sin_nombre_27"/>
    <clipPath id="clippath-14">
      <path class="st13" d="M129.5,374.2l-1.7-8.6h-24.2c2.5,13,4.5,28.1,5,45.1.4,13.5-.2,25.9-1.2,36.8h23.6l-1.6-43.9c-.5-10.1,5-17.8,14.9-17.7,9.1,0,13.7,5.7,13.6,15.1l3.9,46.5h21.9v-43.9c-.4-10.1,6.8-19.3,16.8-19.2,9.1,0,14.4,6.5,14.3,15.8l-2.6,47.3h23.8c0-11.1,10.5-65.6-3.5-77.3-11.6-12.7-44.6-10.1-53.1,6.8-3.3-10.9-13.1-16.1-23.5-16.1s-20.1,4.6-26.4,13.3"/>
    </clipPath>
    <linearGradient id="Degradado_sin_nombre_2714" data-name="Degradado sin nombre 27" x1="-154.1" y1="542.3" x2="-151.9" y2="542.3" gradientTransform="translate(-21202.9 -75874.5) rotate(-180) scale(140.7 -140.7)" xlink:href="#Degradado_sin_nombre_27"/>
    <clipPath id="clippath-15">
      <path class="st13" d="M185.3,112.2c.7-2,1.3-3.9,1.9-5.8.5-1.9.9-3.5,1.1-4.8.2,1.3.6,2.9,1.2,4.8.6,2,1.2,3.9,1.8,5.7,3.4,9.8,5.9,17.1,8,23.2h-21.9c2.6-7.7,5.3-15.4,8-23.2M176.6,69.7c-10.2,37.4-24,73.4-39.7,108.7h25.4c0-.1,8-23,8-23h35.9l7.8,22.9h25.8c-15-38.2-30.4-76.7-39.5-108.7h-23.8Z"/>
    </clipPath>
    <linearGradient id="Degradado_sin_nombre_2715" data-name="Degradado sin nombre 27" x1="-154.1" y1="541.4" x2="-151.8" y2="541.4" gradientTransform="translate(-21267.9 -75599.6) rotate(180) scale(139.9 -139.9)" xlink:href="#Degradado_sin_nombre_27"/>
    <clipPath id="clippath-16">
      <path class="st13" d="M117.1,303.8l-.8-7.1h-14.6c.6,7,1,14.5,1.1,22.4,0,9.6-.4,18.6-1.1,26.8h15.6c-.7-3.2-1.5-8-1.2-13.7.3-7.7.5-14,5.1-18.1,5.2-4.6,12.8-3.7,15.3-3.3v-14.3c-.3-.1-1-.4-2.2-.4-2.7,0-7.8,1.2-17.1,7.6"/>
    </clipPath>
    <linearGradient id="Degradado_sin_nombre_2716" data-name="Degradado sin nombre 27" x1="-154.1" y1="541.9" x2="-151.8" y2="541.9" gradientTransform="translate(-21172.9 -75542.8) rotate(180) scale(140 -140)" xlink:href="#Degradado_sin_nombre_27"/>
    <clipPath id="clippath-17">
      <path class="st13" d="M55.6,322.7c0-6.6,5.8-12,12.9-12s12.9,5.4,12.9,12-5.8,12-12.9,12-12.9-5.4-12.9-12M40.5,322.7c0,14.4,12.5,26.1,28,26.1s28-11.7,28-26.1-12.5-26.1-28-26.1-28,11.7-28,26.1"/>
    </clipPath>
    <linearGradient id="Degradado_sin_nombre_2717" data-name="Degradado sin nombre 27" x1="-154.1" y1="541.7" x2="-151.8" y2="541.7" gradientTransform="translate(-21250.1 -75745.5) rotate(180) scale(140.4 -140.4)" xlink:href="#Degradado_sin_nombre_27"/>
    <clipPath id="clippath-18">
      <path class="st13" d="M17.8,288.8s-7.9,5.7-8.6,16.1c-.1,1.7-.2,4.7-.2,8.5H1.6v13.9h7.3c-.1,13.9-.2,29.5-.5,33.7,4.3,0,13.7.6,18,.6-.6-2.9-1.2-7-1-12,.1-3.1-.6-12.5-1-22.3h8.7v-13.9h-8.9c.1-5.8.6-10.6,1.8-12.5,3-4.9,15.4-3.9,17.5-3.6v-12.6c-.5-.2-3.9-1.1-8.5-1.1s-11.2,1.1-17,5.2"/>
    </clipPath>
    <linearGradient id="Degradado_sin_nombre_2718" data-name="Degradado sin nombre 27" x1="-154.1" y1="541.6" x2="-151.8" y2="541.6" gradientTransform="translate(-21150.2 -75328.9) rotate(-180) scale(139.7 -139.7)" xlink:href="#Degradado_sin_nombre_27"/>
    <clipPath id="clippath-19">
      <path class="st13" d="M413,206.3l-1.3-11.8h-24.1c1,11.5,1.7,23.8,1.8,36.9.1,15.9-.6,30.6-1.8,44.1h25.6c-1.2-5.3-2.4-13.1-2.1-22.5.5-12.6.9-23,8.4-29.7,8.5-7.5,21.1-6.1,25.2-5.4v-23.5c-.6-.2-1.7-.6-3.6-.6-4.4,0-12.9,2-28.1,12.5"/>
    </clipPath>
    <linearGradient id="Degradado_sin_nombre_2719" data-name="Degradado sin nombre 27" x1="-154.1" y1="542.5" x2="-151.9" y2="542.5" gradientTransform="translate(-21149.3 -75711.4) rotate(-180) scale(140 -140)" xlink:href="#Degradado_sin_nombre_27"/>
  </defs>
  <g class="st38">
    <rect class="st32" x="303.2" y="81" width="72" height="53" transform="translate(-16 85.5) rotate(-14)"/>
  </g>
  <g class="st17">
    <rect class="st39" x="237.5" y="-14.4" width="185.7" height="205.2" transform="translate(-11.5 82.8) rotate(-14)"/>
  </g>
  <g class="st33">
    <rect class="st40" x="306" y="352.4" width="122.1" height="122.2" transform="translate(-184 368) rotate(-43.7)"/>
  </g>
  <g class="st23">
    <rect class="st29" x="279.8" y="180.5" width="122.1" height="122.2" transform="translate(-72.5 302.3) rotate(-43.7)"/>
  </g>
  <g class="st6">
    <rect class="st14" x="242.5" y="339.2" width="41.3" height="41.4" transform="translate(-175.7 281.4) rotate(-43.7)"/>
  </g>
  <g class="st19">
    <rect class="st22" x="230.1" y="381.3" width="63.6" height="65" transform="translate(-213.3 295.5) rotate(-43.7)"/>
  </g>
  <g class="st0">
    <rect class="st26" x="87.4" y="162.3" width="41.3" height="41.4" transform="translate(-96.5 125.3) rotate(-43.7)"/>
  </g>
  <g class="st1">
    <rect class="st16" x="75" y="204.4" width="63.6" height="65" transform="translate(-134 139.4) rotate(-43.7)"/>
  </g>
  <g class="st20">
    <rect class="st28" x="257.6" y="342.1" width="96.8" height="99.6" transform="translate(-185.9 319.8) rotate(-43.7)"/>
  </g>
  <g class="st7">
    <rect class="st21" x="6.7" y="344" width="121.3" height="121.6" transform="translate(-261 158.6) rotate(-43.7)"/>
  </g>
  <g class="st8">
    <rect class="st18" x="149" y="281.7" width="77.4" height="77.4" transform="translate(-169.3 218.4) rotate(-43.7)"/>
  </g>
  <g class="st12">
    <rect class="st10" x="-33.2" y="156.2" width="144.2" height="145.4" transform="translate(-147.4 90.3) rotate(-43.7)"/>
  </g>
  <g class="st24">
    <rect class="st34" x="116.9" y="182.1" width="109.5" height="109.4" transform="translate(-116.1 184.2) rotate(-43.7)"/>
  </g>
  <g class="st37">
    <rect class="st36" x="201.6" y="181" width="109.5" height="109.4" transform="translate(-91.9 242.3) rotate(-43.7)"/>
  </g>
  <g class="st25">
    <rect class="st35" x="92.3" y="320.6" width="165.5" height="163.8" transform="translate(-229.6 232.4) rotate(-43.7)"/>
  </g>
  <g class="st3">
    <rect class="st15" x="113.6" y="49.1" width="149.6" height="149.7" transform="translate(-33.5 164.4) rotate(-43.7)"/>
  </g>
  <g class="st31">
    <rect class="st11" x="89.3" y="291.1" width="59.4" height="59.9" transform="translate(-188.8 171.1) rotate(-43.7)"/>
  </g>
  <g class="st2">
    <rect class="st30" x="30.2" y="284.5" width="76.6" height="76.5" transform="translate(-204 136.7) rotate(-43.7)"/>
  </g>
  <g class="st4">
    <rect class="st9" x="-19.6" y="279.9" width="84" height="85.2" transform="translate(-216.6 104.8) rotate(-43.7)"/>
  </g>
  <g class="st27">
    <rect class="st5" x="367.2" y="185.4" width="97.8" height="98.6" transform="translate(-46.9 352.4) rotate(-43.7)"/>
  </g>
</svg>