<?xml version="1.0" encoding="utf-8"?>
<!-- Generator: Adobe Illustrator 26.4.1, SVG Export Plug-In . SVG Version: 6.00 Build 0)  -->
<svg version="1.1" id="Layer_1" xmlns="http://www.w3.org/2000/svg" xmlns:xlink="http://www.w3.org/1999/xlink" x="0px" y="0px"
	 viewBox="0 0 528.51 494.81" style="enable-background:new 0 0 528.51 494.81;" xml:space="preserve">
<style type="text/css">
	.st0{fill:url(#SVGID_1_);}
	.st1{fill:url(#SVGID_00000029749987037011457580000018095589541918962819_);}
	.st2{fill:#F9F9FA;}
	.st3{fill:#D8D9D8;}
	
		.st4{clip-path:url(#SVGID_00000051354535039929865350000013897978941500112778_);fill:url(#SVGID_00000088826410504224487810000015638136936937738931_);}
	.st5{fill:#121111;}
	.st6{fill:#F6EA12;}
	.st7{fill:#1D9849;}
	.st8{fill:#F7C047;}
	.st9{fill:#DC2427;}
	.st10{fill:#288AC7;}
	
		.st11{clip-path:url(#SVGID_00000036216852065960027500000017363107627505009063_);fill:url(#SVGID_00000032618977340699881340000003165861582961115791_);}
	
		.st12{clip-path:url(#SVGID_00000041260568173851491190000014772597348800255891_);fill:url(#SVGID_00000043434754653722014780000016439257237248364203_);}
	
		.st13{clip-path:url(#SVGID_00000101791836161610049140000016025522688015295129_);fill:url(#SVGID_00000010989381624518226220000010713716573337089967_);}
	.st14{fill:#9B6B3A;}
	.st15{fill:none;stroke:#9B6B3A;stroke-width:0.4622;stroke-miterlimit:10;}
	
		.st16{clip-path:url(#SVGID_00000021088031437733153820000015209892668099512704_);fill:url(#SVGID_00000181793841857726960000000007854957999280555685_);}
	
		.st17{clip-path:url(#SVGID_00000065044670388170061170000001622666870398589062_);fill:url(#SVGID_00000022531790364692100640000004495949295712206755_);}
	
		.st18{clip-path:url(#SVGID_00000000217430102221670310000012737292493058843539_);fill:url(#SVGID_00000089542397832530679410000011461425590420525484_);}
	.st19{fill:#FFFFFF;}
	.st20{fill:none;}
	.st21{fill:url(#SVGID_00000182511787590202748000000010406682934409363899_);}
	.st22{fill:url(#SVGID_00000170991305453532742820000011107340692588595893_);}
	.st23{fill:url(#SVGID_00000000942080363480754990000006980625649701252768_);}
	.st24{fill:url(#SVGID_00000029042670832670024840000003109703695357064893_);}
	.st25{fill:url(#SVGID_00000034075192597331121740000013093329064637605271_);}
	.st26{fill:url(#SVGID_00000051364805049440820290000006070731564384094607_);}
	.st27{fill:url(#SVGID_00000091723610823390765190000007093390817414658953_);}
	.st28{fill:url(#SVGID_00000181074613476190417180000014097454675648266408_);}
	.st29{fill:url(#SVGID_00000093135644772316689910000014692106881566310550_);}
	.st30{fill:url(#SVGID_00000026141206658592954540000016416829422539231107_);}
	.st31{fill:url(#SVGID_00000055683492141155725460000008442651968261671090_);}
	.st32{fill:url(#SVGID_00000116202801006735431550000006130459125963686304_);}
	.st33{fill:url(#SVGID_00000022543806987897153530000015037205266835850371_);}
	.st34{fill:url(#SVGID_00000023998781102504911280000015333449464493154961_);}
	.st35{fill:url(#SVGID_00000098194928828538872740000004665957502367895709_);}
	.st36{fill:url(#SVGID_00000024688044967483050010000000211651225946376591_);}
	.st37{fill:url(#SVGID_00000114071714794391009460000013814281990390286519_);}
	.st38{fill:url(#SVGID_00000033332886872496748710000007003183879689861248_);}
	.st39{fill:url(#SVGID_00000176749859161513439470000015009871750694152889_);}
	.st40{fill:url(#SVGID_00000090976384395743944450000005299946830327424677_);}
	.st41{fill:url(#SVGID_00000161630201477811687510000001136847288588987060_);}
	.st42{fill:url(#SVGID_00000048470764625587251460000001251990309947175611_);}
	.st43{fill:url(#SVGID_00000060750403618165445690000002445232896533375899_);}
	.st44{fill:url(#SVGID_00000156547566461802572150000009723447691436814522_);}
	.st45{fill:url(#SVGID_00000097476911475792641140000005269600243642929588_);}
	
		.st46{clip-path:url(#SVGID_00000048475973127338861160000001098371022100038536_);fill:url(#SVGID_00000052062973718244014370000008691236795041727388_);}
	.st47{fill:#179BD7;}
	.st48{fill:none;stroke:#2A2D44;stroke-width:1.1907;stroke-miterlimit:10;}
	.st49{fill:#121C47;}
	.st50{fill:#CAE7F9;}
	.st51{fill:#E01F26;}
</style>
<g>
	<path class="st20" d="M310.22,139.22c1.81,3.34,3.59,7.08,5.97,10.06c4.17,5.26,9.07,9.88,14.34,14.03
		c1.86,1.42,3.75,2.79,5.68,4.1c7.4,5.04,15.26,9.37,23.25,13.39c1.57,0.79,2.59,2.43,3.12,4.06c0.07,0.21,0.12,0.42,0.16,0.63
		c5.46-3.35,10.79-6.92,15.89-10.8c7.51-5.87,14.46-12.46,20.37-19.96c3.83-5.09,7.18-10.56,9.79-16.37
		c0.71-1.84,1.21-3.73,1.53-5.67c1.59-16.4-2.61-34.28-18.87-41.56c-2.77-1.24-5.39-1.41-8.37-1.11c-1.47,0.26-2.91,0.64-4.31,1.16
		c-1.34,0.64-2.62,1.4-3.83,2.26c-2.16,1.77-4.08,3.81-5.82,5.99c-1.58,2.12-3.05,4.33-4.49,6.56c-0.39,0.91-0.96,1.75-1.53,2.28
		c-0.9,0.82-1.95,1.43-3.11,1.81c-0.52,0.17-1.06,0.24-1.61,0.25c-0.87,0.38-1.82,0.58-2.81,0.58c-0.56,0-1.12-0.06-1.69-0.19
		c-1.42-0.32-2.66-1.31-3.52-2.43c-0.02-0.02-0.03-0.04-0.05-0.06c-0.04-0.05-0.09-0.11-0.13-0.16c-0.36-0.44-0.65-0.93-0.85-1.47
		c-0.01-0.01-0.02-0.03-0.02-0.05c-1.65-2.73-3.33-5.44-5.24-8c-1.47-1.82-3.08-3.52-4.89-5c-1.03-0.73-2.12-1.38-3.25-1.93
		c-1.2-0.44-2.43-0.77-3.69-0.99c-1.85-0.18-3.7-0.16-5.54,0.02c-13.51,1.35-20.55,16.76-20.93,28.66
		c-0.13,3.89-0.24,7.84,0.77,11.6C307.31,133.84,308.77,136.54,310.22,139.22z M402.55,123.42c-1.97,6.41-6.7,11.71-11.23,16.49
		c-7.63,8.02-17.12,14.4-28.03,16.8c-8.77,1.92-20.28,3.09-27.14-4.04c-1.32-1.37-1.27-3.42,0-4.8c1.22-1.33,3.56-1.28,4.8,0
		c0.23,0.23,0.45,0.46,0.7,0.68c0.05,0.04,0.23,0.17,0.38,0.28c0.07,0.05,0.15,0.11,0.19,0.16c0.06,0.04,0.13,0.09,0.19,0.13
		c0.24,0.16,0.48,0.31,0.73,0.45c0.22,0.12,0.44,0.24,0.66,0.35c0.15,0.08,0.31,0.15,0.47,0.22c-0.04-0.03-0.06-0.05-0.09-0.06
		c0.06,0.03,0.13,0.08,0.19,0.1c0.1,0.04,0.21,0.08,0.31,0.11c0.28,0.1,0.55,0.19,0.84,0.27c0.53,0.16,1.07,0.29,1.62,0.4
		c0.3,0.06,0.59,0.12,0.89,0.16c0.07,0.01,0.12,0.02,0.16,0.03c0.02,0,0.05,0,0.07,0.01c1.15,0.14,2.32,0.19,3.48,0.18
		c1.1,0,2.2-0.06,3.29-0.15c0.54-0.05,1.09-0.1,1.63-0.17c0.11-0.01,0.22-0.03,0.32-0.04c0.17-0.02,0.33-0.05,0.5-0.08
		c1.92-0.29,3.83-0.69,5.72-1.15c1.18-0.29,2.35-0.62,3.5-1.01c0.62-0.22,1.23-0.45,1.84-0.69c0.07-0.02,0.11-0.04,0.15-0.06
		c0.02-0.01,0.05-0.02,0.09-0.04c0.3-0.13,0.6-0.27,0.9-0.4c2.39-1.11,4.68-2.42,6.86-3.89c0.56-0.38,1.12-0.77,1.66-1.16
		c0.23-0.17,0.47-0.34,0.7-0.52c0.14-0.1,0.27-0.2,0.4-0.3c1-0.79,1.99-1.6,2.95-2.45c1.94-1.71,3.78-3.54,5.52-5.46
		c0.9-0.99,1.78-2,2.65-3.02c0.45-0.53,0.9-1.07,1.34-1.62c0.08-0.11,0.17-0.21,0.25-0.32c0.01-0.02,0.02-0.04,0.04-0.06
		c0.18-0.24,0.36-0.47,0.53-0.71c0.8-1.11,1.55-2.25,2.19-3.45c0.16-0.3,0.31-0.59,0.46-0.9c0.08-0.17,0.16-0.34,0.24-0.52
		c0.01-0.01,0.03-0.07,0.05-0.12c0.02-0.05,0.04-0.1,0.05-0.12c0.05-0.13,0.1-0.27,0.15-0.4c0.11-0.31,0.22-0.62,0.31-0.94
		c0.47-1.54,1.81-2.47,3.33-2.47c0.28,0,0.56,0.03,0.85,0.09C401.93,119.64,403.07,121.72,402.55,123.42z"/>
	<path class="st20" d="M223.93,211.38c0.38,0,0.78-0.03,1.18-0.09c7.85,0.33,12.34-5.16,11.27-12.73
		c-4.09,0.5-14.01,0.71-16.74,2.65C214.65,204.9,218.19,211.38,223.93,211.38z"/>
	<path class="st20" d="M214.36,258.07c-4,0-7.25,0.77-9.76,2.3c-2.51,1.54-4.38,3.92-5.6,7.15c-0.45,1.18-0.82,2.49-1.11,3.92h31.99
		c0-4.09-1.38-7.35-4.15-9.76C222.97,259.28,219.18,258.07,214.36,258.07z"/>
	<path class="st20" d="M307.91,369.36c0.32,0,0.66-0.02,1-0.08c6.65,0.29,10.44-4.37,9.54-10.77c-3.46,0.42-11.85,0.6-14.17,2.24
		C300.05,363.87,303.04,369.36,307.91,369.36z"/>
	<path class="st20" d="M373.04,285.55c-6.73,4.96-1.96,13.69,5.77,13.69c0.52,0,1.05-0.04,1.59-0.12
		c10.57,0.45,16.61-6.95,15.17-17.13C390.07,282.66,376.72,282.94,373.04,285.55z"/>
	<path class="st20" d="M472.52,458.67c0.49,0,0.99-0.04,1.51-0.12c10.03,0.45,15.75-6.92,14.39-17.07
		c-5.22,0.67-17.88,0.95-21.37,3.55C460.67,449.98,465.19,458.67,472.52,458.67z"/>
	<path class="st20" d="M103.79,368.05c6.88,0,12.45-5.31,12.45-11.87c0-6.55-5.58-11.87-12.45-11.87c-6.88,0-12.46,5.31-12.46,11.87
		C91.34,362.73,96.91,368.05,103.79,368.05z"/>
	<path class="st20" d="M169.53,454.46c10.15,0,18.37-8.23,18.37-18.39c0-10.15-8.22-18.39-18.37-18.39
		c-10.15,0-18.37,8.23-18.37,18.39C151.16,446.23,159.39,454.46,169.53,454.46z"/>
	<path class="st20" d="M342.22,149.03c0-0.01,0-0.02-0.01-0.04c0,0-0.01,0-0.01-0.01C342.21,149,342.22,149.01,342.22,149.03z"/>
	<path class="st20" d="M47.65,366.66c6.11,0,12.18-3.98,11.65-11.98c1.06-16.02-24.44-15.92-23.51,0
		C35.35,362.65,41.51,366.66,47.65,366.66z"/>
	<path class="st20" d="M342.13,148.94c0.02,0.01,0.04,0.03,0.06,0.04c-0.03-0.04-0.1-0.1-0.17-0.15
		C341.89,148.74,341.8,148.72,342.13,148.94z"/>
	
		<linearGradient id="SVGID_1_" gradientUnits="userSpaceOnUse" x1="2025.0112" y1="953.1838" x2="2027.4312" y2="953.1838" gradientTransform="matrix(69.5325 -36.2778 -36.2778 -69.5325 -106266.0625 140142.875)">
		<stop  offset="0" style="stop-color:#D1933F"/>
		<stop  offset="0.0567" style="stop-color:#B57E36"/>
		<stop  offset="0.1487" style="stop-color:#92642A"/>
		<stop  offset="0.2361" style="stop-color:#7B5222"/>
		<stop  offset="0.3161" style="stop-color:#6E481D"/>
		<stop  offset="0.3819" style="stop-color:#6A451B"/>
		<stop  offset="0.4559" style="stop-color:#6F4A1E"/>
		<stop  offset="0.5644" style="stop-color:#815624"/>
		<stop  offset="0.694" style="stop-color:#9F6D2F"/>
		<stop  offset="0.8335" style="stop-color:#CB8E3D"/>
		<stop  offset="0.8335" style="stop-color:#CE903D"/>
		<stop  offset="1" style="stop-color:#DCB27E"/>
	</linearGradient>
	<path class="st0" d="M20.67,402.44H35.7v-28.27c15.91,15.33,40.57,1.4,38.73-20.27c1.52-14.49-10.99-25.35-23.29-25.35
		c-5.69,0-11.34,2.33-15.53,7.71l-0.78-5.95H20.67c1.12,8.77,1.94,18.36,2.2,28.68C23.3,375.15,22.3,389.76,20.67,402.44
		L20.67,402.44z M59.3,354.68c0.53,8.01-5.55,11.98-11.65,11.98c-6.13,0-12.3-4.01-11.86-11.98
		C34.86,338.75,60.37,338.65,59.3,354.68z"/>
	
		<linearGradient id="SVGID_00000038394753113047018970000015931882449964661894_" gradientUnits="userSpaceOnUse" x1="2025.0112" y1="952.8625" x2="2027.4312" y2="952.8625" gradientTransform="matrix(69.5325 -36.2778 -36.2778 -69.5325 -106257.8594 140158.6094)">
		<stop  offset="0" style="stop-color:#D1933F"/>
		<stop  offset="0.0567" style="stop-color:#B57E36"/>
		<stop  offset="0.1487" style="stop-color:#92642A"/>
		<stop  offset="0.2361" style="stop-color:#7B5222"/>
		<stop  offset="0.3161" style="stop-color:#6E481D"/>
		<stop  offset="0.3819" style="stop-color:#6A451B"/>
		<stop  offset="0.4559" style="stop-color:#6F4A1E"/>
		<stop  offset="0.5644" style="stop-color:#815624"/>
		<stop  offset="0.694" style="stop-color:#9F6D2F"/>
		<stop  offset="0.8335" style="stop-color:#CB8E3D"/>
		<stop  offset="0.8335" style="stop-color:#CE903D"/>
		<stop  offset="1" style="stop-color:#DCB27E"/>
	</linearGradient>
	<path style="fill:url(#SVGID_00000038394753113047018970000015931882449964661894_);" d="M149.65,365.53
		c0.28-7.56,0.51-13.8,4.95-17.84c4.99-4.53,12.4-3.64,14.79-3.24v-8.18v-5.95c-0.33-0.12-1-0.35-2.13-0.35
		c-2.57,0-7.56,1.18-16.49,7.5l-0.79-7.05h-14.14c0.6,6.88,1,14.28,1.06,22.16c0.07,9.52-0.35,18.38-1.06,26.48h15.03
		C150.15,375.84,149.44,371.16,149.65,365.53z"/>
	
		<linearGradient id="SVGID_00000165949504315143977730000010845408141181307582_" gradientUnits="userSpaceOnUse" x1="2025.0112" y1="952.9898" x2="2027.4312" y2="952.9898" gradientTransform="matrix(69.5325 -36.2778 -36.2778 -69.5325 -106261.1094 140152.375)">
		<stop  offset="0" style="stop-color:#D1933F"/>
		<stop  offset="0.0567" style="stop-color:#B57E36"/>
		<stop  offset="0.1487" style="stop-color:#92642A"/>
		<stop  offset="0.2361" style="stop-color:#7B5222"/>
		<stop  offset="0.3161" style="stop-color:#6E481D"/>
		<stop  offset="0.3819" style="stop-color:#6A451B"/>
		<stop  offset="0.4559" style="stop-color:#6F4A1E"/>
		<stop  offset="0.5644" style="stop-color:#815624"/>
		<stop  offset="0.694" style="stop-color:#9F6D2F"/>
		<stop  offset="0.8335" style="stop-color:#CB8E3D"/>
		<stop  offset="0.8335" style="stop-color:#CE903D"/>
		<stop  offset="1" style="stop-color:#DCB27E"/>
	</linearGradient>
	<path style="fill:url(#SVGID_00000165949504315143977730000010845408141181307582_);" d="M103.79,381.97
		c14.95,0,27.06-11.55,27.06-25.79c0-14.24-12.12-25.79-27.06-25.79c-14.95,0-27.07,11.55-27.07,25.79
		C76.72,370.43,88.84,381.97,103.79,381.97z M91.34,356.18c0-6.55,5.58-11.87,12.46-11.87c6.88,0,12.45,5.31,12.45,11.87
		c0,6.55-5.58,11.87-12.45,11.87C96.91,368.05,91.34,362.73,91.34,356.18z"/>
	
		<linearGradient id="SVGID_00000062915221254768333980000006587506747588482981_" gradientUnits="userSpaceOnUse" x1="2070.3901" y1="921.31" x2="2072.8101" y2="921.31" gradientTransform="matrix(-100.737 49.188 49.188 100.737 163535.75 -194562.5156)">
		<stop  offset="0" style="stop-color:#D1933F"/>
		<stop  offset="0.0567" style="stop-color:#B57E36"/>
		<stop  offset="0.1487" style="stop-color:#92642A"/>
		<stop  offset="0.2361" style="stop-color:#7B5222"/>
		<stop  offset="0.3161" style="stop-color:#6E481D"/>
		<stop  offset="0.3819" style="stop-color:#6A451B"/>
		<stop  offset="0.4559" style="stop-color:#6F4A1E"/>
		<stop  offset="0.5644" style="stop-color:#815624"/>
		<stop  offset="0.694" style="stop-color:#9F6D2F"/>
		<stop  offset="0.8335" style="stop-color:#CB8E3D"/>
		<stop  offset="0.8335" style="stop-color:#CE903D"/>
		<stop  offset="1" style="stop-color:#DCB27E"/>
	</linearGradient>
	<path style="fill:url(#SVGID_00000062915221254768333980000006587506747588482981_);" d="M115.48,223.34
		c25.49-10.73,12.37-59.66,14.86-80.65h-18.26l1.38,50.8c0.05,10.2-5.96,16.3-16.24,16.22c-10.3,0.03-16.07-5.87-16.01-16.22v-50.8
		H62.95v52.04C61.16,222.31,93.85,234.73,115.48,223.34z"/>
	
		<linearGradient id="SVGID_00000006687159826571175540000017169391362537715118_" gradientUnits="userSpaceOnUse" x1="2070.3901" y1="921.5408" x2="2072.8101" y2="921.5408" gradientTransform="matrix(-100.737 49.188 49.188 100.737 163543.7344 -194546.1406)">
		<stop  offset="0" style="stop-color:#D1933F"/>
		<stop  offset="0.0567" style="stop-color:#B57E36"/>
		<stop  offset="0.1487" style="stop-color:#92642A"/>
		<stop  offset="0.2361" style="stop-color:#7B5222"/>
		<stop  offset="0.3161" style="stop-color:#6E481D"/>
		<stop  offset="0.3819" style="stop-color:#6A451B"/>
		<stop  offset="0.4559" style="stop-color:#6F4A1E"/>
		<stop  offset="0.5644" style="stop-color:#815624"/>
		<stop  offset="0.694" style="stop-color:#9F6D2F"/>
		<stop  offset="0.8335" style="stop-color:#CB8E3D"/>
		<stop  offset="0.8335" style="stop-color:#CE903D"/>
		<stop  offset="1" style="stop-color:#DCB27E"/>
	</linearGradient>
	<path style="fill:url(#SVGID_00000006687159826571175540000017169391362537715118_);" d="M154.47,172.21l-1.13-5.86
		c-5.31,0.42-10.62,0.84-15.94,1.26c1.7,11.64,2.27,21.01,2.44,27.92c0.02,0.97,0.03,1.78,0.04,2.05
		c0.15,10.6-0.45,19.04-1.08,25.09l15.56,0.01v-30.86c-0.08-6.91,4.35-11.56,11.27-11.49c16.27-0.41,11.18,33.37,10.86,42.36h15.87
		c0.44-9,4.34-43.56-5.03-51.99c-3.53-4.11-9.51-6.17-15.58-6.17C164.99,164.52,158.12,167.08,154.47,172.21z"/>
	
		<linearGradient id="SVGID_00000093858732011086836470000000546702438518035893_" gradientUnits="userSpaceOnUse" x1="2070.3901" y1="921.6786" x2="2072.8101" y2="921.6786" gradientTransform="matrix(-100.737 49.188 49.188 100.737 163548.5156 -194536.3594)">
		<stop  offset="0" style="stop-color:#D1933F"/>
		<stop  offset="0.0567" style="stop-color:#B57E36"/>
		<stop  offset="0.1487" style="stop-color:#92642A"/>
		<stop  offset="0.2361" style="stop-color:#7B5222"/>
		<stop  offset="0.3161" style="stop-color:#6E481D"/>
		<stop  offset="0.3819" style="stop-color:#6A451B"/>
		<stop  offset="0.4559" style="stop-color:#6F4A1E"/>
		<stop  offset="0.5644" style="stop-color:#815624"/>
		<stop  offset="0.694" style="stop-color:#9F6D2F"/>
		<stop  offset="0.8335" style="stop-color:#CB8E3D"/>
		<stop  offset="0.8335" style="stop-color:#CE903D"/>
		<stop  offset="1" style="stop-color:#DCB27E"/>
	</linearGradient>
	<path style="fill:url(#SVGID_00000093858732011086836470000000546702438518035893_);" d="M219.03,224.41
		c13.82,0.96,22.47-2.09,27.8-8.8c8.83-11.11,10.65-41.12-5.31-48.13c-4.03-1.99-8.99-3.01-14.05-3.01
		c-13.14,0-26.89,6.84-26.48,21.14h14.43c-0.11-11.15,22.82-10.75,20.85,1.46c0,0-15.77,1.24-15.78,1.24
		c-12.56,1.74-25.68,10.32-19.53,25.18C204.23,221.41,211.33,223.88,219.03,224.41z M219.65,201.21c2.73-1.94,12.65-2.15,16.74-2.65
		c1.06,7.57-3.42,13.06-11.27,12.73c-0.4,0.06-0.8,0.09-1.18,0.09C218.19,211.38,214.65,204.9,219.65,201.21z"/>
	
		<linearGradient id="SVGID_00000111156576555170786400000008380187278484878520_" gradientUnits="userSpaceOnUse" x1="2070.3757" y1="922.8737" x2="2072.7957" y2="922.8737" gradientTransform="matrix(-100.737 49.188 49.188 100.737 163590.9375 -194452.0781)">
		<stop  offset="0" style="stop-color:#D1933F"/>
		<stop  offset="0.0567" style="stop-color:#B57E36"/>
		<stop  offset="0.1487" style="stop-color:#92642A"/>
		<stop  offset="0.2361" style="stop-color:#7B5222"/>
		<stop  offset="0.3161" style="stop-color:#6E481D"/>
		<stop  offset="0.3819" style="stop-color:#6A451B"/>
		<stop  offset="0.4559" style="stop-color:#6F4A1E"/>
		<stop  offset="0.5644" style="stop-color:#815624"/>
		<stop  offset="0.694" style="stop-color:#9F6D2F"/>
		<stop  offset="0.8335" style="stop-color:#CB8E3D"/>
		<stop  offset="0.8335" style="stop-color:#CE903D"/>
		<stop  offset="1" style="stop-color:#DCB27E"/>
	</linearGradient>
	<path style="fill:url(#SVGID_00000111156576555170786400000008380187278484878520_);" d="M234.16,433.68
		c-0.09-9.26,5.55-15.49,14.39-15.4c20.76-0.55,14.26,44.73,13.86,56.78h20.26c0.56-12.06,5.54-58.4-6.42-69.69
		c-4.5-5.51-12.14-8.27-19.88-8.27c-8.64,0-17.4,3.43-22.06,10.31l-1.44-7.85c-6.78,0.56-13.56,1.13-20.34,1.69
		c2.17,15.61,2.9,28.16,3.11,37.42c0.03,1.31,0.05,2.39,0.05,2.75c0.19,14.21-0.57,25.53-1.39,33.63l19.86,0.01V433.68z"/>
	
		<linearGradient id="SVGID_00000003077931351339590310000006062158633223985574_" gradientUnits="userSpaceOnUse" x1="2070.3757" y1="923.3871" x2="2072.7957" y2="923.3871" gradientTransform="matrix(-100.737 49.188 49.188 100.737 163608.7188 -194415.6562)">
		<stop  offset="0" style="stop-color:#D1933F"/>
		<stop  offset="0.0567" style="stop-color:#B57E36"/>
		<stop  offset="0.1487" style="stop-color:#92642A"/>
		<stop  offset="0.2361" style="stop-color:#7B5222"/>
		<stop  offset="0.3161" style="stop-color:#6E481D"/>
		<stop  offset="0.3819" style="stop-color:#6A451B"/>
		<stop  offset="0.4559" style="stop-color:#6F4A1E"/>
		<stop  offset="0.5644" style="stop-color:#815624"/>
		<stop  offset="0.694" style="stop-color:#9F6D2F"/>
		<stop  offset="0.8335" style="stop-color:#CB8E3D"/>
		<stop  offset="0.8335" style="stop-color:#CE903D"/>
		<stop  offset="1" style="stop-color:#DCB27E"/>
	</linearGradient>
	<path style="fill:url(#SVGID_00000003077931351339590310000006062158633223985574_);" d="M501.75,464.33
		c11.28-14.9,13.6-55.13-6.78-64.53c-5.14-2.67-11.48-4.03-17.93-4.03c-16.76,0-34.33,9.17-33.8,28.34h18.42
		c-0.14-14.95,29.14-14.42,26.62,1.96c0,0-20.12,1.66-20.15,1.66c-16.03,2.34-32.77,13.83-24.93,33.75
		c4.18,10.61,13.23,13.93,23.06,14.64C483.91,477.43,494.94,473.34,501.75,464.33z M488.42,441.49
		c1.36,10.14-4.37,17.52-14.39,17.07c-0.52,0.08-1.02,0.12-1.51,0.12c-7.33,0-11.85-8.7-5.47-13.64
		C470.54,442.44,483.2,442.15,488.42,441.49z"/>
	
		<linearGradient id="SVGID_00000050657573362895888640000002794726693761002117_" gradientUnits="userSpaceOnUse" x1="2070.3757" y1="922.9871" x2="2072.7957" y2="922.9871" gradientTransform="matrix(-100.737 49.188 49.188 100.737 163594.8594 -194444.0312)">
		<stop  offset="0" style="stop-color:#D1933F"/>
		<stop  offset="0.0567" style="stop-color:#B57E36"/>
		<stop  offset="0.1487" style="stop-color:#92642A"/>
		<stop  offset="0.2361" style="stop-color:#7B5222"/>
		<stop  offset="0.3161" style="stop-color:#6E481D"/>
		<stop  offset="0.3819" style="stop-color:#6A451B"/>
		<stop  offset="0.4559" style="stop-color:#6F4A1E"/>
		<stop  offset="0.5644" style="stop-color:#815624"/>
		<stop  offset="0.694" style="stop-color:#9F6D2F"/>
		<stop  offset="0.8335" style="stop-color:#CB8E3D"/>
		<stop  offset="0.8335" style="stop-color:#CE903D"/>
		<stop  offset="1" style="stop-color:#DCB27E"/>
	</linearGradient>
	<path style="fill:url(#SVGID_00000050657573362895888640000002794726693761002117_);" d="M309.81,453.15
		c0.41-11.71,0.75-21.38,7.3-27.63c7.36-7.02,18.29-5.64,21.82-5.03v-12.68v-9.22c-0.49-0.19-1.47-0.54-3.15-0.54
		c-3.8,0-11.15,1.83-24.32,11.62l-1.17-10.93h-20.87c0.89,10.65,1.47,22.13,1.56,34.33c0.11,14.75-0.51,28.48-1.56,41.02l0,0h22.16
		C310.56,469.12,309.51,461.88,309.81,453.15z"/>
	
		<linearGradient id="SVGID_00000144314182736581687820000006575759942789022891_" gradientUnits="userSpaceOnUse" x1="2070.3757" y1="922.8972" x2="2072.7957" y2="922.8972" gradientTransform="matrix(-100.737 49.188 49.188 100.737 163591.75 -194450.4062)">
		<stop  offset="0" style="stop-color:#D1933F"/>
		<stop  offset="0.0567" style="stop-color:#B57E36"/>
		<stop  offset="0.1487" style="stop-color:#92642A"/>
		<stop  offset="0.2361" style="stop-color:#7B5222"/>
		<stop  offset="0.3161" style="stop-color:#6E481D"/>
		<stop  offset="0.3819" style="stop-color:#6A451B"/>
		<stop  offset="0.4559" style="stop-color:#6F4A1E"/>
		<stop  offset="0.5644" style="stop-color:#815624"/>
		<stop  offset="0.694" style="stop-color:#9F6D2F"/>
		<stop  offset="0.8335" style="stop-color:#CB8E3D"/>
		<stop  offset="0.8335" style="stop-color:#CE903D"/>
		<stop  offset="1" style="stop-color:#DCB27E"/>
	</linearGradient>
	<path style="fill:url(#SVGID_00000144314182736581687820000006575759942789022891_);" d="M372.37,388.79
		c0.02-7.34-4.41-14.67-13.34-14.43c-0.18-0.01-0.35-0.01-0.53-0.01c-8.69,0-13,7.22-12.98,14.44c0.02,7.35,4.54,14.69,13.51,14.43
		C367.89,403.43,372.35,396.11,372.37,388.79z"/>
	
		<linearGradient id="SVGID_00000178920943941880298240000005268151862649496740_" gradientUnits="userSpaceOnUse" x1="2070.3757" y1="923.1409" x2="2072.7957" y2="923.1409" gradientTransform="matrix(-100.737 49.188 49.188 100.737 163600.1875 -194433.1094)">
		<stop  offset="0" style="stop-color:#D1933F"/>
		<stop  offset="0.0567" style="stop-color:#B57E36"/>
		<stop  offset="0.1487" style="stop-color:#92642A"/>
		<stop  offset="0.2361" style="stop-color:#7B5222"/>
		<stop  offset="0.3161" style="stop-color:#6E481D"/>
		<stop  offset="0.3819" style="stop-color:#6A451B"/>
		<stop  offset="0.4559" style="stop-color:#6F4A1E"/>
		<stop  offset="0.5644" style="stop-color:#815624"/>
		<stop  offset="0.694" style="stop-color:#9F6D2F"/>
		<stop  offset="0.8335" style="stop-color:#CB8E3D"/>
		<stop  offset="0.8335" style="stop-color:#CE903D"/>
		<stop  offset="1" style="stop-color:#DCB27E"/>
	</linearGradient>
	<path style="fill:url(#SVGID_00000178920943941880298240000005268151862649496740_);" d="M368.84,436.86
		c0-9.52-0.02-19.02-0.05-28.5h-22.16c1.08,9.57,1.82,20.32,1.85,32.06c0.03,12.37-0.72,23.65-1.85,33.63h22.16
		C368.83,461.69,368.85,449.3,368.84,436.86z"/>
	
		<linearGradient id="SVGID_00000143610761953936871290000012623143523775189162_" gradientUnits="userSpaceOnUse" x1="2070.3757" y1="923.2305" x2="2072.7957" y2="923.2305" gradientTransform="matrix(-100.737 49.188 49.188 100.737 163603.2969 -194426.75)">
		<stop  offset="0" style="stop-color:#D1933F"/>
		<stop  offset="0.0567" style="stop-color:#B57E36"/>
		<stop  offset="0.1487" style="stop-color:#92642A"/>
		<stop  offset="0.2361" style="stop-color:#7B5222"/>
		<stop  offset="0.3161" style="stop-color:#6E481D"/>
		<stop  offset="0.3819" style="stop-color:#6A451B"/>
		<stop  offset="0.4559" style="stop-color:#6F4A1E"/>
		<stop  offset="0.5644" style="stop-color:#815624"/>
		<stop  offset="0.694" style="stop-color:#9F6D2F"/>
		<stop  offset="0.8335" style="stop-color:#CB8E3D"/>
		<stop  offset="0.8335" style="stop-color:#CE903D"/>
		<stop  offset="1" style="stop-color:#DCB27E"/>
	</linearGradient>
	<path style="fill:url(#SVGID_00000143610761953936871290000012623143523775189162_);" d="M422.2,473.16
		c13.87-6.04,21.9-27.03,7.68-37.64c-5.67-4.23-12.45-5.64-19.12-6.86c-4.37-0.8-12.28-2.42-12.74-8.3
		c-0.13-1.67,0.46-3.34,1.39-4.71c2.86-4.21,8.33-4.76,12.03-1.51c2.74,2.43,1.47,7.04,5.03,7.97c4.43,1.16,12.51-2.51,16.57-4.2
		c0.2-0.08,0.4-0.18,0.5-0.37c0.08-0.17,0.05-0.37,0.03-0.55c-0.17-1.18-0.34-2.36-0.51-3.54c-1.82-12.56-12.73-17.25-24.18-17.25
		c-4.11,0-8.29,0.6-12.14,1.66c-1.76,0.4-3.41,0.9-4.9,1.45c-2.46,0.92-4.58,2.2-6.41,3.73c-2.76,2-5.36,4.41-6.8,7.58
		c-1.15,2.54-1.47,5.4-1.27,8.22c-1.07,11.43,5.56,23.45,19.51,24.64c3.75,0.32,7.71,0.7,11.23,2.19c3.47,1.47,9.49,5.58,7.24,10.19
		c-0.83,1.68-2.37,2.86-3.99,3.69c-4.08,2.08-9.19,2.18-13.02-0.38c-2.92-1.96-3.28-5.46-2.79-8.71c-3.25-0.04-6.51-0.03-9.77-0.03
		c-2.11-0.01-6.97-0.88-8.76,0.51c-3.19,2.48-0.47,10.08,1.24,12.76c2.94,4.58,7.45,7.75,12.29,9.74
		C400.4,477.49,412.42,477.41,422.2,473.16z"/>
	
		<linearGradient id="SVGID_00000104665826077566175850000012337548088613279890_" gradientUnits="userSpaceOnUse" x1="2070.3757" y1="922.5212" x2="2072.7957" y2="922.5212" gradientTransform="matrix(-100.737 49.188 49.188 100.737 163578.7188 -194477.0781)">
		<stop  offset="0" style="stop-color:#D1933F"/>
		<stop  offset="0.0567" style="stop-color:#B57E36"/>
		<stop  offset="0.1487" style="stop-color:#92642A"/>
		<stop  offset="0.2361" style="stop-color:#7B5222"/>
		<stop  offset="0.3161" style="stop-color:#6E481D"/>
		<stop  offset="0.3819" style="stop-color:#6A451B"/>
		<stop  offset="0.4559" style="stop-color:#6F4A1E"/>
		<stop  offset="0.5644" style="stop-color:#815624"/>
		<stop  offset="0.694" style="stop-color:#9F6D2F"/>
		<stop  offset="0.8335" style="stop-color:#CB8E3D"/>
		<stop  offset="0.8335" style="stop-color:#CE903D"/>
		<stop  offset="1" style="stop-color:#DCB27E"/>
	</linearGradient>
	<path style="fill:url(#SVGID_00000104665826077566175850000012337548088613279890_);" d="M109.53,475.02
		c13.86-6.03,21.9-27.03,7.68-37.65c-5.67-4.23-12.45-5.65-19.12-6.87c-4.37-0.8-12.28-2.42-12.74-8.3
		c-0.13-1.67,0.46-3.34,1.39-4.7c2.86-4.21,8.33-4.76,12.04-1.51c2.74,2.43,1.47,7.04,5.03,7.97c4.43,1.16,12.51-2.51,16.57-4.2
		c0.19-0.08,0.4-0.18,0.5-0.37c0.08-0.17,0.06-0.37,0.03-0.55c-0.17-1.18-0.34-2.36-0.52-3.54c-1.82-12.56-12.73-17.25-24.18-17.25
		c-4.11,0-8.29,0.61-12.14,1.66c-1.76,0.4-3.42,0.89-4.9,1.45c-2.45,0.92-4.58,2.2-6.41,3.73c-2.76,2-5.36,4.41-6.8,7.58
		c-1.15,2.54-1.48,5.4-1.27,8.22c-1.07,11.44,5.56,23.45,19.51,24.64c3.75,0.32,7.71,0.7,11.23,2.19c3.47,1.47,9.49,5.58,7.24,10.19
		c-0.82,1.68-2.36,2.86-3.99,3.69c-4.08,2.08-9.19,2.18-13.02-0.38c-2.92-1.96-3.28-5.46-2.79-8.71c-3.25-0.03-6.51-0.03-9.77-0.03
		c-2.11,0-6.97-0.88-8.76,0.51c-3.19,2.48-0.48,10.08,1.24,12.76c2.94,4.58,7.46,7.75,12.29,9.74
		C87.73,479.35,99.75,479.28,109.53,475.02z"/>
	
		<linearGradient id="SVGID_00000021088039107499428270000016404111667151394212_" gradientUnits="userSpaceOnUse" x1="2070.3757" y1="922.6846" x2="2072.7957" y2="922.6846" gradientTransform="matrix(-100.737 49.188 49.188 100.737 163584.3906 -194465.4844)">
		<stop  offset="0" style="stop-color:#D1933F"/>
		<stop  offset="0.0567" style="stop-color:#B57E36"/>
		<stop  offset="0.1487" style="stop-color:#92642A"/>
		<stop  offset="0.2361" style="stop-color:#7B5222"/>
		<stop  offset="0.3161" style="stop-color:#6E481D"/>
		<stop  offset="0.3819" style="stop-color:#6A451B"/>
		<stop  offset="0.4559" style="stop-color:#6F4A1E"/>
		<stop  offset="0.5644" style="stop-color:#815624"/>
		<stop  offset="0.694" style="stop-color:#9F6D2F"/>
		<stop  offset="0.8335" style="stop-color:#CB8E3D"/>
		<stop  offset="0.8335" style="stop-color:#CE903D"/>
		<stop  offset="1" style="stop-color:#DCB27E"/>
	</linearGradient>
	<path style="fill:url(#SVGID_00000021088039107499428270000016404111667151394212_);" d="M209.46,436.08
		c0-22.07-17.88-39.96-39.93-39.96c-22.05,0-39.93,17.89-39.93,39.96c0,22.07,17.88,39.96,39.93,39.96
		C191.58,476.03,209.46,458.14,209.46,436.08z M151.16,436.08c0-10.15,8.23-18.39,18.37-18.39c10.15,0,18.37,8.23,18.37,18.39
		c0,10.16-8.22,18.39-18.37,18.39C159.39,454.46,151.16,446.23,151.16,436.08z"/>
	
		<linearGradient id="SVGID_00000165950057667556086870000018153876468251603101_" gradientUnits="userSpaceOnUse" x1="2074.6689" y1="919.4849" x2="2077.0889" y2="919.4849" gradientTransform="matrix(-80.445 39.2798 39.2798 80.445 131189.1875 -155176.6719)">
		<stop  offset="0" style="stop-color:#D1933F"/>
		<stop  offset="0.0567" style="stop-color:#B57E36"/>
		<stop  offset="0.1487" style="stop-color:#92642A"/>
		<stop  offset="0.2361" style="stop-color:#7B5222"/>
		<stop  offset="0.3161" style="stop-color:#6E481D"/>
		<stop  offset="0.3819" style="stop-color:#6A451B"/>
		<stop  offset="0.4559" style="stop-color:#6F4A1E"/>
		<stop  offset="0.5644" style="stop-color:#815624"/>
		<stop  offset="0.694" style="stop-color:#9F6D2F"/>
		<stop  offset="0.8335" style="stop-color:#CB8E3D"/>
		<stop  offset="0.8335" style="stop-color:#CE903D"/>
		<stop  offset="1" style="stop-color:#DCB27E"/>
	</linearGradient>
	<path style="fill:url(#SVGID_00000165950057667556086870000018153876468251603101_);" d="M252.19,353.58
		c-0.07-5.85,3.68-9.78,9.54-9.73c13.77-0.35,9.46,28.24,9.19,35.85h13.44c0.37-7.61,3.68-36.86-4.26-44
		c-2.98-3.48-8.05-5.22-13.18-5.22c-5.73,0-11.54,2.17-14.63,6.5l-0.95-4.96c-4.5,0.36-8.99,0.71-13.49,1.07
		c1.44,9.85,1.93,17.77,2.06,23.62c0.02,0.83,0.03,1.51,0.03,1.73c0.12,8.97-0.38,16.12-0.92,21.23l13.17,0V353.58z"/>
	
		<linearGradient id="SVGID_00000156547557327244220580000010803307563635998387_" gradientUnits="userSpaceOnUse" x1="2074.6689" y1="919.3378" x2="2077.0889" y2="919.3378" gradientTransform="matrix(-80.445 39.2798 39.2798 80.445 131185.1094 -155185)">
		<stop  offset="0" style="stop-color:#D1933F"/>
		<stop  offset="0.0567" style="stop-color:#B57E36"/>
		<stop  offset="0.1487" style="stop-color:#92642A"/>
		<stop  offset="0.2361" style="stop-color:#7B5222"/>
		<stop  offset="0.3161" style="stop-color:#6E481D"/>
		<stop  offset="0.3819" style="stop-color:#6A451B"/>
		<stop  offset="0.4559" style="stop-color:#6F4A1E"/>
		<stop  offset="0.5644" style="stop-color:#815624"/>
		<stop  offset="0.694" style="stop-color:#9F6D2F"/>
		<stop  offset="0.8335" style="stop-color:#CB8E3D"/>
		<stop  offset="0.8335" style="stop-color:#CE903D"/>
		<stop  offset="1" style="stop-color:#DCB27E"/>
	</linearGradient>
	<path style="fill:url(#SVGID_00000156547557327244220580000010803307563635998387_);" d="M232.79,332.74l-13.17-0.01v26.12
		c0.07,5.85-3.68,9.78-9.54,9.72c-13.77,0.35-9.46-28.24-9.19-35.85h-13.44c-0.37,7.61-3.68,36.86,4.26,44
		c6.31,7.36,21.95,6.94,27.81-1.29l0.95,4.96c4.5-0.35,8.99-0.71,13.49-1.07c-1.44-9.85-1.92-17.77-2.06-23.63
		c-0.02-0.83-0.03-1.51-0.03-1.73C231.75,345,232.25,337.85,232.79,332.74z"/>
	
		<linearGradient id="SVGID_00000170996649494876156930000014571079500949597108_" gradientUnits="userSpaceOnUse" x1="2074.6689" y1="919.6173" x2="2077.0889" y2="919.6173" gradientTransform="matrix(-80.445 39.2798 39.2798 80.445 131192.8438 -155169.1719)">
		<stop  offset="0" style="stop-color:#D1933F"/>
		<stop  offset="0.0567" style="stop-color:#B57E36"/>
		<stop  offset="0.1487" style="stop-color:#92642A"/>
		<stop  offset="0.2361" style="stop-color:#7B5222"/>
		<stop  offset="0.3161" style="stop-color:#6E481D"/>
		<stop  offset="0.3819" style="stop-color:#6A451B"/>
		<stop  offset="0.4559" style="stop-color:#6F4A1E"/>
		<stop  offset="0.5644" style="stop-color:#815624"/>
		<stop  offset="0.694" style="stop-color:#9F6D2F"/>
		<stop  offset="0.8335" style="stop-color:#CB8E3D"/>
		<stop  offset="0.8335" style="stop-color:#CE903D"/>
		<stop  offset="1" style="stop-color:#DCB27E"/>
	</linearGradient>
	<path style="fill:url(#SVGID_00000170996649494876156930000014571079500949597108_);" d="M327.29,372.93
		c7.48-9.41,9.02-34.8-4.5-40.74c-3.41-1.69-7.61-2.54-11.89-2.54c-11.11,0-22.76,5.79-22.41,17.89h12.21
		c-0.09-9.44,19.32-9.1,17.65,1.24c0,0-13.34,1.05-13.36,1.05c-10.63,1.48-21.73,8.73-16.53,21.3c2.77,6.7,8.77,8.79,15.29,9.25
		C315.46,381.2,322.77,378.62,327.29,372.93z M304.28,360.75c2.32-1.64,10.71-1.82,14.17-2.24c0.9,6.4-2.89,11.06-9.54,10.77
		c-0.34,0.05-0.67,0.08-1,0.08C303.04,369.36,300.05,363.87,304.28,360.75z"/>
	
		<linearGradient id="SVGID_00000171688417461651159880000006620535402207361666_" gradientUnits="userSpaceOnUse" x1="2070.3984" y1="922.2407" x2="2072.8184" y2="922.2407" gradientTransform="matrix(-100.737 49.188 49.188 100.737 163567.3906 -194496.2031)">
		<stop  offset="0" style="stop-color:#D1933F"/>
		<stop  offset="0.0567" style="stop-color:#B57E36"/>
		<stop  offset="0.1487" style="stop-color:#92642A"/>
		<stop  offset="0.2361" style="stop-color:#7B5222"/>
		<stop  offset="0.3161" style="stop-color:#6E481D"/>
		<stop  offset="0.3819" style="stop-color:#6A451B"/>
		<stop  offset="0.4559" style="stop-color:#6F4A1E"/>
		<stop  offset="0.5644" style="stop-color:#815624"/>
		<stop  offset="0.694" style="stop-color:#9F6D2F"/>
		<stop  offset="0.8335" style="stop-color:#CB8E3D"/>
		<stop  offset="0.8335" style="stop-color:#CE903D"/>
		<stop  offset="1" style="stop-color:#DCB27E"/>
	</linearGradient>
	<path style="fill:url(#SVGID_00000171688417461651159880000006620535402207361666_);" d="M282.48,247.5l-1.57-8.16
		c-7.4,0.59-14.8,1.17-22.2,1.76c2.37,16.22,3.17,29.26,3.4,38.9c0.03,1.36,0.05,2.48,0.05,2.85c0.21,14.77-0.62,26.53-1.51,34.95
		l21.68,0.01v-43c-0.1-9.63,6.06-16.1,15.71-16.01c22.66-0.57,15.57,46.48,15.12,59.01h22.12c0.61-12.53,6.05-60.68-7.01-72.43
		c-4.91-5.73-13.25-8.59-21.7-8.59C297.13,236.79,287.56,240.35,282.48,247.5z"/>
	
		<linearGradient id="SVGID_00000155134228218341780770000013299988814619360946_" gradientUnits="userSpaceOnUse" x1="2070.3984" y1="922.4219" x2="2072.8184" y2="922.4219" gradientTransform="matrix(-100.737 49.188 49.188 100.737 163573.6719 -194483.3438)">
		<stop  offset="0" style="stop-color:#D1933F"/>
		<stop  offset="0.0567" style="stop-color:#B57E36"/>
		<stop  offset="0.1487" style="stop-color:#92642A"/>
		<stop  offset="0.2361" style="stop-color:#7B5222"/>
		<stop  offset="0.3161" style="stop-color:#6E481D"/>
		<stop  offset="0.3819" style="stop-color:#6A451B"/>
		<stop  offset="0.4559" style="stop-color:#6F4A1E"/>
		<stop  offset="0.5644" style="stop-color:#815624"/>
		<stop  offset="0.694" style="stop-color:#9F6D2F"/>
		<stop  offset="0.8335" style="stop-color:#CB8E3D"/>
		<stop  offset="0.8335" style="stop-color:#CE903D"/>
		<stop  offset="1" style="stop-color:#DCB27E"/>
	</linearGradient>
	<path style="fill:url(#SVGID_00000155134228218341780770000013299988814619360946_);" d="M402.48,240.14
		c-5.42-2.68-12.1-4.05-18.91-4.05c-17.68,0-36.2,9.21-35.64,28.46h19.42c-0.15-15.01,30.72-14.47,28.07,1.97
		c0,0-21.22,1.66-21.24,1.67c-16.91,2.35-34.56,13.89-26.29,33.89c4.4,10.65,13.96,13.98,24.32,14.7
		c18.61,1.29,30.24-2.81,37.42-11.85C421.52,289.97,423.98,249.58,402.48,240.14z M380.4,299.12c-0.54,0.08-1.07,0.12-1.59,0.12
		c-7.73,0-12.49-8.73-5.77-13.69c3.68-2.61,17.02-2.89,22.53-3.56C397.01,292.17,390.97,299.57,380.4,299.12z"/>
	
		<linearGradient id="SVGID_00000181800488668847908970000013631470222481978002_" gradientUnits="userSpaceOnUse" x1="2070.3984" y1="921.8633" x2="2072.8184" y2="921.8633" gradientTransform="matrix(-100.737 49.188 49.188 100.737 163554.3281 -194522.9688)">
		<stop  offset="0" style="stop-color:#D1933F"/>
		<stop  offset="0.0567" style="stop-color:#B57E36"/>
		<stop  offset="0.1487" style="stop-color:#92642A"/>
		<stop  offset="0.2361" style="stop-color:#7B5222"/>
		<stop  offset="0.3161" style="stop-color:#6E481D"/>
		<stop  offset="0.3819" style="stop-color:#6A451B"/>
		<stop  offset="0.4559" style="stop-color:#6F4A1E"/>
		<stop  offset="0.5644" style="stop-color:#815624"/>
		<stop  offset="0.694" style="stop-color:#9F6D2F"/>
		<stop  offset="0.8335" style="stop-color:#CB8E3D"/>
		<stop  offset="0.8335" style="stop-color:#CE903D"/>
		<stop  offset="1" style="stop-color:#DCB27E"/>
	</linearGradient>
	<path style="fill:url(#SVGID_00000181800488668847908970000013631470222481978002_);" d="M132.47,320.14
		c7.17,0,13.57-1.38,19.21-4.15c5.63-2.77,10.16-6.58,13.59-11.45c3.43-4.86,5.4-10.52,5.92-16.98h-23.82
		c-0.72,3.79-2.33,6.64-4.84,8.53c-2.51,1.9-5.86,2.84-10.06,2.84c-3.38,0-6.27-0.76-8.68-2.3c-2.41-1.53-4.25-3.76-5.53-6.68
		c-1.28-2.92-1.92-6.42-1.92-10.53c0-3.99,0.67-7.42,2-10.29c1.33-2.87,3.25-5.09,5.76-6.68c2.51-1.59,5.4-2.38,8.68-2.38
		c4.09,0,7.35,0.92,9.75,2.77c2.41,1.84,4.02,4.71,4.84,8.6h23.82c-0.72-10.04-4.61-17.98-11.68-23.81
		c-7.07-5.84-16.29-8.76-27.66-8.76c-7.68,0-14.47,1.75-20.36,5.22c-5.89,3.48-10.52,8.27-13.9,14.36
		c-3.38,6.1-5.07,13.09-5.07,20.97c0,8.2,1.64,15.34,4.92,21.44c3.28,6.1,7.91,10.83,13.91,14.21
		C117.34,318.45,124.38,320.14,132.47,320.14z"/>
	
		<linearGradient id="SVGID_00000019644509087992912640000005909421771716384412_" gradientUnits="userSpaceOnUse" x1="2070.3984" y1="922.0537" x2="2072.8184" y2="922.0537" gradientTransform="matrix(-100.737 49.188 49.188 100.737 163560.9219 -194509.4531)">
		<stop  offset="0" style="stop-color:#D1933F"/>
		<stop  offset="0.0567" style="stop-color:#B57E36"/>
		<stop  offset="0.1487" style="stop-color:#92642A"/>
		<stop  offset="0.2361" style="stop-color:#7B5222"/>
		<stop  offset="0.3161" style="stop-color:#6E481D"/>
		<stop  offset="0.3819" style="stop-color:#6A451B"/>
		<stop  offset="0.4559" style="stop-color:#6F4A1E"/>
		<stop  offset="0.5644" style="stop-color:#815624"/>
		<stop  offset="0.694" style="stop-color:#9F6D2F"/>
		<stop  offset="0.8335" style="stop-color:#CB8E3D"/>
		<stop  offset="0.8335" style="stop-color:#CE903D"/>
		<stop  offset="1" style="stop-color:#DCB27E"/>
	</linearGradient>
	<path style="fill:url(#SVGID_00000019644509087992912640000005909421771716384412_);" d="M193.78,244.09
		c-5.94,3.48-10.58,8.27-13.91,14.36c-3.33,6.1-4.99,13.14-4.99,21.13c0,7.89,1.72,14.88,5.15,20.97
		c3.43,6.1,8.14,10.89,14.13,14.37c5.99,3.48,12.83,5.22,20.51,5.22c10.55,0,19.36-2.54,26.43-7.61
		c7.07-5.07,11.27-11.85,12.6-20.36h-21.66c-0.82,2.77-2.71,4.92-5.68,6.45c-2.97,1.54-6.71,2.3-11.22,2.3
		c-6.14,0-10.68-1.72-13.6-5.15c-2.02-2.37-3.34-5.64-3.96-9.81l55.82-0.26v-5.99c0-8.4-1.59-15.64-4.76-21.74
		c-3.18-6.09-7.68-10.8-13.52-14.13c-5.84-3.33-12.8-4.99-20.89-4.99C206.53,238.86,199.71,240.61,193.78,244.09z M229.88,271.44
		h-31.99c0.29-1.43,0.65-2.73,1.11-3.92c1.23-3.23,3.1-5.61,5.6-7.15c2.51-1.54,5.76-2.3,9.76-2.3c4.81,0,8.6,1.21,11.37,3.61
		C228.5,264.09,229.88,267.34,229.88,271.44z"/>
	
		<linearGradient id="SVGID_00000063634034545452942710000010098257261760575375_" gradientUnits="userSpaceOnUse" x1="2070.3984" y1="922.7399" x2="2072.8184" y2="922.7399" gradientTransform="matrix(-100.737 49.188 49.188 100.737 163584.6875 -194460.7812)">
		<stop  offset="0" style="stop-color:#D1933F"/>
		<stop  offset="0.0567" style="stop-color:#B57E36"/>
		<stop  offset="0.1487" style="stop-color:#92642A"/>
		<stop  offset="0.2361" style="stop-color:#7B5222"/>
		<stop  offset="0.3161" style="stop-color:#6E481D"/>
		<stop  offset="0.3819" style="stop-color:#6A451B"/>
		<stop  offset="0.4559" style="stop-color:#6F4A1E"/>
		<stop  offset="0.5644" style="stop-color:#815624"/>
		<stop  offset="0.694" style="stop-color:#9F6D2F"/>
		<stop  offset="0.8335" style="stop-color:#CB8E3D"/>
		<stop  offset="0.8335" style="stop-color:#CE903D"/>
		<stop  offset="1" style="stop-color:#DCB27E"/>
	</linearGradient>
	<path style="fill:url(#SVGID_00000063634034545452942710000010098257261760575375_);" d="M445.75,292.34c-4,0-7.2,1.3-9.6,3.92
		c-2.41,2.61-3.61,6.02-3.61,10.22c0,3.38,1.23,6.25,3.69,8.6c2.46,2.35,5.48,3.53,9.06,3.53c1.43,0,2.69-0.21,3.77-0.62
		c0.23-0.09,0.45-0.18,0.67-0.29c-0.19,3.02-1.46,5.52-3.82,7.51c-2.56,2.15-5.84,3.58-9.83,4.3v8.45
		c4.81-0.52,9.09-2.03,12.83-4.53c3.74-2.51,6.66-5.76,8.76-9.76c2.1-3.99,3.15-8.45,3.15-13.37c0-5.32-1.38-9.65-4.15-12.98
		C453.89,294,450.26,292.34,445.75,292.34z"/>
	
		<linearGradient id="SVGID_00000018220665345582940020000016522231407118447528_" gradientUnits="userSpaceOnUse" x1="2006.8451" y1="955.0929" x2="2009.265" y2="955.0929" gradientTransform="matrix(47.2205 -11.8051 -11.8051 -47.2205 -83195.5312 68951.9766)">
		<stop  offset="0" style="stop-color:#D1933F"/>
		<stop  offset="0.0567" style="stop-color:#B57E36"/>
		<stop  offset="0.1487" style="stop-color:#92642A"/>
		<stop  offset="0.2361" style="stop-color:#7B5222"/>
		<stop  offset="0.3161" style="stop-color:#6E481D"/>
		<stop  offset="0.3819" style="stop-color:#6A451B"/>
		<stop  offset="0.4559" style="stop-color:#6F4A1E"/>
		<stop  offset="0.5644" style="stop-color:#815624"/>
		<stop  offset="0.694" style="stop-color:#9F6D2F"/>
		<stop  offset="0.8335" style="stop-color:#CB8E3D"/>
		<stop  offset="0.8335" style="stop-color:#CE903D"/>
		<stop  offset="1" style="stop-color:#DCB27E"/>
	</linearGradient>
	<path style="fill:url(#SVGID_00000018220665345582940020000016522231407118447528_);" d="M342.21,148.99
		c-0.03-0.05-0.12-0.12-0.19-0.16c0.08,0.06,0.14,0.11,0.17,0.15C342.2,148.98,342.2,148.98,342.21,148.99z"/>
	
		<linearGradient id="SVGID_00000030475859795320631280000011665245986358748092_" gradientUnits="userSpaceOnUse" x1="2006.8451" y1="955.1174" x2="2009.265" y2="955.1174" gradientTransform="matrix(47.2205 -11.8051 -11.8051 -47.2205 -83195.5312 68951.9766)">
		<stop  offset="0" style="stop-color:#D1933F"/>
		<stop  offset="0.0567" style="stop-color:#B57E36"/>
		<stop  offset="0.1487" style="stop-color:#92642A"/>
		<stop  offset="0.2361" style="stop-color:#7B5222"/>
		<stop  offset="0.3161" style="stop-color:#6E481D"/>
		<stop  offset="0.3819" style="stop-color:#6A451B"/>
		<stop  offset="0.4559" style="stop-color:#6F4A1E"/>
		<stop  offset="0.5644" style="stop-color:#815624"/>
		<stop  offset="0.694" style="stop-color:#9F6D2F"/>
		<stop  offset="0.8335" style="stop-color:#CB8E3D"/>
		<stop  offset="0.8335" style="stop-color:#CE903D"/>
		<stop  offset="1" style="stop-color:#DCB27E"/>
	</linearGradient>
	<path style="fill:url(#SVGID_00000030475859795320631280000011665245986358748092_);" d="M400.18,119.24
		c-0.29-0.06-0.57-0.09-0.85-0.09c-1.51,0-2.86,0.93-3.33,2.47c-0.09,0.31-0.2,0.63-0.31,0.94c-0.05,0.13-0.1,0.27-0.15,0.4
		c-0.01,0.01-0.02,0.07-0.05,0.12c-0.02,0.06-0.04,0.11-0.05,0.12c-0.08,0.17-0.16,0.35-0.24,0.52c-0.15,0.3-0.3,0.6-0.46,0.9
		c-0.65,1.2-1.39,2.35-2.19,3.45c-0.17,0.24-0.36,0.47-0.53,0.71c-0.02,0.02-0.03,0.04-0.04,0.06c-0.08,0.11-0.17,0.21-0.25,0.32
		c-0.44,0.55-0.89,1.09-1.34,1.62c-0.87,1.02-1.75,2.03-2.65,3.02c-1.74,1.92-3.58,3.75-5.52,5.46c-0.96,0.85-1.95,1.66-2.95,2.45
		c-0.13,0.1-0.26,0.2-0.4,0.3c-0.23,0.17-0.46,0.35-0.7,0.52c-0.55,0.4-1.1,0.78-1.66,1.16c-2.19,1.47-4.47,2.78-6.86,3.89
		c-0.3,0.14-0.6,0.27-0.9,0.4c-0.03,0.01-0.06,0.03-0.09,0.04c-0.03,0.01-0.08,0.03-0.15,0.06c-0.61,0.24-1.22,0.47-1.84,0.69
		c-1.15,0.39-2.32,0.72-3.5,1.01c-1.89,0.46-3.79,0.85-5.72,1.15c-0.17,0.03-0.33,0.05-0.5,0.08c-0.1,0.01-0.21,0.03-0.32,0.04
		c-0.54,0.07-1.09,0.12-1.63,0.17c-1.09,0.09-2.19,0.15-3.29,0.15c-1.16,0-2.33-0.05-3.48-0.18c-0.02,0-0.05,0-0.07-0.01
		c-0.04-0.01-0.09-0.02-0.16-0.03c-0.3-0.05-0.59-0.1-0.89-0.16c-0.54-0.11-1.09-0.25-1.62-0.4c-0.28-0.08-0.56-0.17-0.84-0.27
		c-0.1-0.04-0.2-0.08-0.31-0.11c-0.06-0.02-0.14-0.07-0.19-0.1c0.02,0.02,0.05,0.04,0.09,0.06c-0.16-0.07-0.32-0.15-0.47-0.22
		c-0.23-0.11-0.45-0.23-0.66-0.35c-0.25-0.14-0.49-0.29-0.73-0.45c-0.07-0.04-0.13-0.09-0.19-0.13c0.01,0.01,0.01,0.03,0.01,0.04
		c0-0.01-0.01-0.03-0.03-0.05c-0.02-0.01-0.04-0.03-0.06-0.04c-0.33-0.22-0.24-0.2-0.11-0.11c-0.15-0.12-0.33-0.24-0.38-0.28
		c-0.24-0.22-0.47-0.45-0.7-0.68c-1.23-1.28-3.57-1.33-4.8,0c-1.27,1.38-1.32,3.43,0,4.8c6.86,7.13,18.37,5.96,27.14,4.04
		c10.91-2.4,20.4-8.77,28.03-16.8c4.53-4.77,9.26-10.07,11.23-16.49C403.07,121.72,401.93,119.64,400.18,119.24z"/>
	
		<linearGradient id="SVGID_00000065760826278488352400000014601614315135735440_" gradientUnits="userSpaceOnUse" x1="2006.8451" y1="955.368" x2="2009.265" y2="955.368" gradientTransform="matrix(47.2205 -11.8051 -11.8051 -47.2205 -83197.6094 68943.6406)">
		<stop  offset="0" style="stop-color:#D1933F"/>
		<stop  offset="0.0567" style="stop-color:#B57E36"/>
		<stop  offset="0.1487" style="stop-color:#92642A"/>
		<stop  offset="0.2361" style="stop-color:#7B5222"/>
		<stop  offset="0.3161" style="stop-color:#6E481D"/>
		<stop  offset="0.3819" style="stop-color:#6A451B"/>
		<stop  offset="0.4559" style="stop-color:#6F4A1E"/>
		<stop  offset="0.5644" style="stop-color:#815624"/>
		<stop  offset="0.694" style="stop-color:#9F6D2F"/>
		<stop  offset="0.8335" style="stop-color:#CB8E3D"/>
		<stop  offset="0.8335" style="stop-color:#CE903D"/>
		<stop  offset="1" style="stop-color:#DCB27E"/>
	</linearGradient>
	<path style="fill:url(#SVGID_00000065760826278488352400000014601614315135735440_);" d="M282.58,191.4
		c0.1,3.03,0.35,6.03,0.82,9.03c0.44,2.78,1.4,5.61,3.41,7.66c1.47,1.49,3.68,2.15,5.75,1.9c1.14,0.77,2.49,1.23,3.79,1.17
		c1.21-0.05,2.36-0.36,3.42-0.93c0.47-0.25,1-0.67,1.48-1.17c0.56,0.38,1.17,0.67,1.83,0.83c1.19,0.27,2.41,0.27,3.61,0
		c0.42-0.1,0.86-0.27,1.29-0.5c0.98,0.57,2.11,0.93,3.25,0.88c2.92-0.13,5.83-2,6.54-4.98c0.2-0.84,0.32-1.69,0.29-2.55
		c-0.01,0.06-0.02,0.13-0.03,0.19c0.07-1.09-0.07-2.15-0.51-3.17c-0.96-8.4-0.98-16.89-0.38-25.33
		c-5.14-5.71-10.23-11.47-14.13-18.14c-1.11-1.89,1.83-3.59,2.93-1.71c3.55,6.06,8.12,11.36,12.79,16.56
		c5.02,4.18,10.36,7.98,15.91,11.43c5.81,3.62,11.84,6.87,17.95,9.95c1.44,0.73,3,1.09,4.58,0.82c0.07,1.1,0.37,2.2,0.92,3.06
		c2.04,3.17,6.26,4.55,9.63,2.53c4.16-2.5,8.27-5.13,12.28-7.91c0.18-0.24,0.38-0.46,0.57-0.67c1.07-1.19,2.34-2.2,3.61-3.18
		c2.44-1.9,4.47-3.28,6.63-5.43c3.2-3.2,6.16-6.63,9-10.16c5.58-6.93,11.19-13.94,15.39-21.83c1.03-1.93,3.96-0.21,2.93,1.71
		c-2.33,4.37-5.08,8.47-8.04,12.43c-3.23,4.32-6.55,8.65-10.06,12.79c0.41,7.36,0.29,14.74-0.6,22.05
		c-0.45,1.07-0.62,2.14-0.57,3.27c-0.01-0.05-0.01-0.1-0.02-0.16c-0.04,0.88,0.08,1.76,0.3,2.62c0.74,2.88,3.76,5.3,6.79,5.17
		c1.25-0.06,2.45-0.38,3.55-0.96c1.83,0.92,4.07,1.03,5.99,0.22c0.43-0.18,0.86-0.41,1.26-0.67c0.29,0.3,0.6,0.57,0.95,0.79
		c1.19,0.92,2.72,1.58,4.27,1.51c1.38-0.06,2.76-0.5,3.92-1.26c2.15,0.37,4.41-0.24,6.16-1.89c1.92-1.81,2.96-4.5,3.47-7.04
		c0.54-2.67,0.79-5.43,0.94-8.15c0.24-4.63,0.35-9.27,0.55-13.9c0.59-13.29,0.7-26.63-0.25-39.9c-0.27-3.79-0.63-7.59-1.1-11.37
		c0-0.08,0.01-0.16,0.02-0.25c0.13-2.34,0.02-4.7-0.09-7.04c-0.27-5.49-0.21-10.98-0.38-16.47c-0.39-12.25-1.37-24.47-1.25-36.73
		c0.07-6.73,0.23-13.46-0.29-20.17c-0.14-1.89-0.69-3.6-2.06-4.98c-1.22-1.22-3.23-2.14-4.98-2.06c-1.82,0.08-3.71,0.68-4.98,2.06
		c-1.21,1.32-2.2,3.13-2.06,4.98c0.33,4.31,0.39,8.64,0.37,12.96c-1.52-4.23-3.28-8.36-5.29-12.39c-2.82-5.67-6.07-11.12-9.24-16.59
		c-0.89-1.53-2.51-2.77-4.21-3.24c-0.57-0.16-1.2-0.24-1.85-0.24c-1.27,0-2.58,0.31-3.58,0.95c-3.22,2.07-4.5,6.22-2.53,9.63
		c4.15,7.16,8.4,14.28,11.69,21.88c0.75,1.85,1.45,3.72,2.09,5.61c-4.87-7.55-10.67-14.54-17.13-20.77
		c-4.62-4.46-9.79-8.71-15.59-11.53c-1.72-0.84-3.53-1.23-5.43-0.71c-1.63,0.45-3.4,1.71-4.21,3.23c-0.86,1.63-1.3,3.61-0.71,5.43
		c0.54,1.67,1.6,3.41,3.24,4.21c2.56,1.25,4.96,2.79,7.24,4.5c6.27,4.99,11.76,11.03,16.7,17.33c2.2,2.92,4.19,5.98,6.03,9.13
		c-1.51-0.68-3.09-1.22-4.74-1.56c-6.06-1.25-12.01-0.28-17.44,2.67c-0.63,0.34-1.18,0.8-1.65,1.32c-1.14,0.48-2.26,1.02-3.34,1.64
		c-4.06,2.32-7.62,5.58-10.57,9.2c-0.99,1.22-1.95,2.48-2.87,3.75c-0.08-0.11-0.15-0.22-0.23-0.33c-2.38-3.31-4.97-6.49-8.19-9.02
		c-2-1.57-4.1-2.94-6.37-4c-0.47-0.57-1.04-1.07-1.73-1.46c-2.07-1.21-4.38-2.23-6.73-2.71c-2.92-0.6-5.47-0.59-8.39-0.16
		c-1.93,0.28-3.78,0.89-5.55,1.7c2.45-4.52,5.22-8.81,8.34-12.91c4.3-5.5,8.97-10.81,14.44-15.18c1.63-1.21,3.33-2.32,5.14-3.26
		c3.15-1.65,4.36-6.31,2.43-9.29c-2.07-3.21-5.92-4.2-9.29-2.43c-4.92,2.58-9.32,6.27-13.24,10.18c-4.05,4.03-7.64,8.47-11.11,13
		c-1.89,2.47-3.65,5.01-5.28,7.63c0.76-2.35,1.62-4.67,2.55-6.95c2.88-6.66,6.39-13.01,9.83-19.4c0.85-1.59,1.17-3.47,0.68-5.23
		c-0.43-1.58-1.65-3.28-3.12-4.06c-3.16-1.67-7.49-0.9-9.29,2.44c-4.82,8.96-9.63,17.91-13.03,27.49c0-3.87,0.07-7.74,0.34-11.6
		c0.12-1.66-0.84-3.65-1.99-4.8c-1.18-1.18-3.11-2.06-4.8-1.99c-1.76,0.08-3.58,0.66-4.8,1.99c-1.27,1.38-1.86,2.92-1.99,4.8
		c-0.42,5.9-0.36,11.82-0.29,17.73c0.07,5.99,0.05,11.96-0.23,17.95c-0.29,6.18-0.6,12.35-0.81,18.53
		c-0.2,5.7-0.11,11.41-0.35,17.11c-0.11,2.62-0.27,5.24-0.22,7.87c0.01,0.52,0.04,1.04,0.08,1.56c-1.1,9.55-1.58,19.18-1.66,28.79
		C281.63,168.33,282.18,179.86,282.58,191.4z M305.74,119.3c0.38-11.9,7.43-27.31,20.93-28.66c1.84-0.19,3.7-0.2,5.54-0.02
		c1.26,0.23,2.49,0.55,3.69,0.99c1.14,0.55,2.22,1.2,3.25,1.93c1.81,1.49,3.42,3.18,4.89,5c1.91,2.56,3.59,5.27,5.24,8
		c0.01,0.02,0.01,0.03,0.02,0.05c0.2,0.54,0.49,1.03,0.85,1.47c0.04,0.05,0.09,0.11,0.13,0.16c0.02,0.02,0.03,0.04,0.05,0.06
		c0.86,1.12,2.1,2.11,3.52,2.43c0.57,0.13,1.13,0.19,1.69,0.19c0.98,0,1.93-0.2,2.81-0.58c0.55-0.01,1.09-0.08,1.61-0.25
		c1.16-0.38,2.21-0.98,3.11-1.81c0.58-0.53,1.14-1.37,1.53-2.28c1.44-2.22,2.91-4.43,4.49-6.56c1.74-2.18,3.66-4.22,5.82-5.99
		c1.21-0.86,2.49-1.62,3.83-2.26c1.4-0.52,2.84-0.9,4.31-1.16c2.98-0.3,5.61-0.13,8.37,1.11c16.26,7.28,20.46,25.16,18.87,41.56
		c-0.32,1.94-0.82,3.83-1.53,5.67c-2.61,5.81-5.96,11.28-9.79,16.37c-5.9,7.5-12.85,14.09-20.37,19.96
		c-5.1,3.88-10.43,7.45-15.89,10.8c-0.04-0.21-0.09-0.43-0.16-0.63c-0.52-1.62-1.55-3.26-3.12-4.06
		c-7.99-4.02-15.85-8.36-23.25-13.39c-1.93-1.31-3.82-2.68-5.68-4.1c-5.26-4.15-10.17-8.77-14.34-14.03
		c-2.38-2.97-4.16-6.72-5.97-10.06c-1.45-2.67-2.91-5.38-3.7-8.31C305.5,127.15,305.62,123.19,305.74,119.3z"/>
</g>
</svg>
