<?xml version="1.0" encoding="UTF-8"?>
<svg id="Layer_1" xmlns="http://www.w3.org/2000/svg" version="1.1" viewBox="0 0 25 25">
  <!-- Generator: Adobe Illustrator 29.4.0, SVG Export Plug-In . SVG Version: 2.1.0 Build 152)  -->
  <defs>
    <style>
      .st0 {
        fill: #fff;
      }
    </style>
  </defs>
  <path class="st0" d="M8.5,6.5c-.4.1-.9.7-1.1,1-.4.3-.6.7-.8,1.1-.6,1.4.3,3,1,4.1,1.6,2.6,4.8,4.7,4.8,4.7.6.6,1.6.9,2.4.9.4,0,2,0,2.4-.3.8-.3,1.8-.8,2.2-1.5.5-.8-.6-1.3-1.2-1.5-.3,0-1.7-.7-2.4-.4-.5.2-.9.6-1.5.6h-.2c-1.4.2-2.8-.8-3.7-1.9-.4-.5-.9-1.4-.8-2,0-.5.5-.9.5-1.5,0-.6-.3-1.3-.5-1.9-.2-.4-.3-.9-.6-1.2-.2-.2-.5-.3-.7-.2"/>
  <path class="st0" d="M12.5,0C5.6,0,0,5.6,0,12.5s.4,3.5,1,5c.2.4.4.8.6,1.1L0,25l6.7-1.4c1.7.9,3.7,1.4,5.8,1.4,6.9,0,12.5-5.6,12.5-12.5,0-6.9-5.6-12.5-12.5-12.5M12.5,22.3c-1.9,0-3.7-.5-5.2-1.5h0s0,0,0,0l-3.8.8v-.4c0,0,.1,0,.1,0l.9-3.1c-1.1-1.6-1.8-3.5-1.8-5.6C2.7,7.1,7.1,2.7,12.5,2.7s9.8,4.4,9.8,9.8c0,5.4-4.4,9.8-9.8,9.8"/>
</svg>