<?xml version="1.0" encoding="UTF-8"?>
<svg id="Layer_1" xmlns="http://www.w3.org/2000/svg" version="1.1" xmlns:xlink="http://www.w3.org/1999/xlink" viewBox="0 0 490 452">
  <!-- Generator: Adobe Illustrator 29.4.0, SVG Export Plug-In . SVG Version: 2.1.0 Build 152)  -->
  <defs>
    <style>
      .st0 {
        fill: url(#Degradado_sin_nombre_6);
      }

      .st1 {
        fill: url(#Degradado_sin_nombre_5);
      }

      .st2 {
        fill: url(#Degradado_sin_nombre_24);
      }

      .st3 {
        fill: url(#Degradado_sin_nombre_16);
      }

      .st4 {
        fill: url(#Degradado_sin_nombre_19);
      }

      .st5 {
        fill: url(#Degradado_sin_nombre_11);
      }

      .st6 {
        fill: url(#Degradado_sin_nombre_25);
      }

      .st7 {
        fill: none;
      }

      .st8 {
        fill: url(#Degradado_sin_nombre_4);
      }

      .st9 {
        fill: url(#Degradado_sin_nombre_2);
      }

      .st10 {
        fill: url(#Degradado_sin_nombre_9);
      }

      .st11 {
        fill: url(#Degradado_sin_nombre_17);
      }

      .st12 {
        fill: url(#Degradado_sin_nombre_13);
      }

      .st13 {
        fill: url(#Degradado_sin_nombre_7);
      }

      .st14 {
        fill: url(#Degradado_sin_nombre_23);
      }

      .st15 {
        fill: url(#Degradado_sin_nombre_21);
      }

      .st16 {
        fill: url(#Degradado_sin_nombre_3);
      }

      .st17 {
        fill: url(#Degradado_sin_nombre);
      }

      .st18 {
        fill: url(#Degradado_sin_nombre_22);
      }

      .st19 {
        fill: url(#Degradado_sin_nombre_10);
      }

      .st20 {
        fill: url(#Degradado_sin_nombre_18);
      }

      .st21 {
        fill: url(#Degradado_sin_nombre_14);
      }

      .st22 {
        fill: url(#Degradado_sin_nombre_15);
      }

      .st23 {
        fill: url(#Degradado_sin_nombre_20);
      }

      .st24 {
        fill: url(#Degradado_sin_nombre_8);
      }

      .st25 {
        fill: url(#Degradado_sin_nombre_12);
      }
    </style>
    <linearGradient id="Degradado_sin_nombre" data-name="Degradado sin nombre" x1="1751.3" y1="-162.5" x2="1753.7" y2="-162.5" gradientTransform="translate(-115940.9 75206.9) rotate(-27.6) scale(78.4)" gradientUnits="userSpaceOnUse">
      <stop offset="0" stop-color="#d1933f"/>
      <stop offset="0" stop-color="#b57e36"/>
      <stop offset=".1" stop-color="#92642a"/>
      <stop offset=".2" stop-color="#7b5222"/>
      <stop offset=".3" stop-color="#6e481d"/>
      <stop offset=".4" stop-color="#6a451b"/>
      <stop offset=".5" stop-color="#6f4a1e"/>
      <stop offset=".6" stop-color="#815624"/>
      <stop offset=".7" stop-color="#9f6d2f"/>
      <stop offset=".8" stop-color="#cb8e3d"/>
      <stop offset=".8" stop-color="#ce903d"/>
      <stop offset="1" stop-color="#dcb27e"/>
    </linearGradient>
    <linearGradient id="Degradado_sin_nombre_2" data-name="Degradado sin nombre 2" x1="1751.3" y1="-162.2" x2="1753.7" y2="-162.2" gradientTransform="translate(-115932.7 75222.6) rotate(-27.6) scale(78.4)" gradientUnits="userSpaceOnUse">
      <stop offset="0" stop-color="#d1933f"/>
      <stop offset="0" stop-color="#b57e36"/>
      <stop offset=".1" stop-color="#92642a"/>
      <stop offset=".2" stop-color="#7b5222"/>
      <stop offset=".3" stop-color="#6e481d"/>
      <stop offset=".4" stop-color="#6a451b"/>
      <stop offset=".5" stop-color="#6f4a1e"/>
      <stop offset=".6" stop-color="#815624"/>
      <stop offset=".7" stop-color="#9f6d2f"/>
      <stop offset=".8" stop-color="#cb8e3d"/>
      <stop offset=".8" stop-color="#ce903d"/>
      <stop offset="1" stop-color="#dcb27e"/>
    </linearGradient>
    <linearGradient id="Degradado_sin_nombre_3" data-name="Degradado sin nombre 3" x1="1751.3" y1="-162.3" x2="1753.7" y2="-162.3" gradientTransform="translate(-115935.9 75216.4) rotate(-27.6) scale(78.4)" gradientUnits="userSpaceOnUse">
      <stop offset="0" stop-color="#d1933f"/>
      <stop offset="0" stop-color="#b57e36"/>
      <stop offset=".1" stop-color="#92642a"/>
      <stop offset=".2" stop-color="#7b5222"/>
      <stop offset=".3" stop-color="#6e481d"/>
      <stop offset=".4" stop-color="#6a451b"/>
      <stop offset=".5" stop-color="#6f4a1e"/>
      <stop offset=".6" stop-color="#815624"/>
      <stop offset=".7" stop-color="#9f6d2f"/>
      <stop offset=".8" stop-color="#cb8e3d"/>
      <stop offset=".8" stop-color="#ce903d"/>
      <stop offset="1" stop-color="#dcb27e"/>
    </linearGradient>
    <linearGradient id="Degradado_sin_nombre_4" data-name="Degradado sin nombre 4" x1="1794.4" y1="-138.3" x2="1796.8" y2="-138.3" gradientTransform="translate(174229.2 -102131.2) rotate(154) scale(112.1)" gradientUnits="userSpaceOnUse">
      <stop offset="0" stop-color="#d1933f"/>
      <stop offset="0" stop-color="#b57e36"/>
      <stop offset=".1" stop-color="#92642a"/>
      <stop offset=".2" stop-color="#7b5222"/>
      <stop offset=".3" stop-color="#6e481d"/>
      <stop offset=".4" stop-color="#6a451b"/>
      <stop offset=".5" stop-color="#6f4a1e"/>
      <stop offset=".6" stop-color="#815624"/>
      <stop offset=".7" stop-color="#9f6d2f"/>
      <stop offset=".8" stop-color="#cb8e3d"/>
      <stop offset=".8" stop-color="#ce903d"/>
      <stop offset="1" stop-color="#dcb27e"/>
    </linearGradient>
    <linearGradient id="Degradado_sin_nombre_5" data-name="Degradado sin nombre 5" x1="1794.4" y1="-138.5" x2="1796.8" y2="-138.5" gradientTransform="translate(174237.2 -102114.8) rotate(154) scale(112.1)" gradientUnits="userSpaceOnUse">
      <stop offset="0" stop-color="#d1933f"/>
      <stop offset="0" stop-color="#b57e36"/>
      <stop offset=".1" stop-color="#92642a"/>
      <stop offset=".2" stop-color="#7b5222"/>
      <stop offset=".3" stop-color="#6e481d"/>
      <stop offset=".4" stop-color="#6a451b"/>
      <stop offset=".5" stop-color="#6f4a1e"/>
      <stop offset=".6" stop-color="#815624"/>
      <stop offset=".7" stop-color="#9f6d2f"/>
      <stop offset=".8" stop-color="#cb8e3d"/>
      <stop offset=".8" stop-color="#ce903d"/>
      <stop offset="1" stop-color="#dcb27e"/>
    </linearGradient>
    <linearGradient id="Degradado_sin_nombre_6" data-name="Degradado sin nombre 6" x1="1794.4" y1="-138.6" x2="1796.8" y2="-138.6" gradientTransform="translate(174242 -102105) rotate(154) scale(112.1)" gradientUnits="userSpaceOnUse">
      <stop offset="0" stop-color="#d1933f"/>
      <stop offset="0" stop-color="#b57e36"/>
      <stop offset=".1" stop-color="#92642a"/>
      <stop offset=".2" stop-color="#7b5222"/>
      <stop offset=".3" stop-color="#6e481d"/>
      <stop offset=".4" stop-color="#6a451b"/>
      <stop offset=".5" stop-color="#6f4a1e"/>
      <stop offset=".6" stop-color="#815624"/>
      <stop offset=".7" stop-color="#9f6d2f"/>
      <stop offset=".8" stop-color="#cb8e3d"/>
      <stop offset=".8" stop-color="#ce903d"/>
      <stop offset="1" stop-color="#dcb27e"/>
    </linearGradient>
    <linearGradient id="Degradado_sin_nombre_7" data-name="Degradado sin nombre 7" x1="1794.4" y1="-139.8" x2="1796.8" y2="-139.8" gradientTransform="translate(174284.4 -102020.8) rotate(154) scale(112.1)" gradientUnits="userSpaceOnUse">
      <stop offset="0" stop-color="#d1933f"/>
      <stop offset="0" stop-color="#b57e36"/>
      <stop offset=".1" stop-color="#92642a"/>
      <stop offset=".2" stop-color="#7b5222"/>
      <stop offset=".3" stop-color="#6e481d"/>
      <stop offset=".4" stop-color="#6a451b"/>
      <stop offset=".5" stop-color="#6f4a1e"/>
      <stop offset=".6" stop-color="#815624"/>
      <stop offset=".7" stop-color="#9f6d2f"/>
      <stop offset=".8" stop-color="#cb8e3d"/>
      <stop offset=".8" stop-color="#ce903d"/>
      <stop offset="1" stop-color="#dcb27e"/>
    </linearGradient>
    <linearGradient id="Degradado_sin_nombre_8" data-name="Degradado sin nombre 8" x1="1794.4" y1="-140.3" x2="1796.8" y2="-140.3" gradientTransform="translate(174302.2 -101984.3) rotate(154) scale(112.1)" gradientUnits="userSpaceOnUse">
      <stop offset="0" stop-color="#d1933f"/>
      <stop offset="0" stop-color="#b57e36"/>
      <stop offset=".1" stop-color="#92642a"/>
      <stop offset=".2" stop-color="#7b5222"/>
      <stop offset=".3" stop-color="#6e481d"/>
      <stop offset=".4" stop-color="#6a451b"/>
      <stop offset=".5" stop-color="#6f4a1e"/>
      <stop offset=".6" stop-color="#815624"/>
      <stop offset=".7" stop-color="#9f6d2f"/>
      <stop offset=".8" stop-color="#cb8e3d"/>
      <stop offset=".8" stop-color="#ce903d"/>
      <stop offset="1" stop-color="#dcb27e"/>
    </linearGradient>
    <linearGradient id="Degradado_sin_nombre_9" data-name="Degradado sin nombre 9" x1="1794.4" y1="-139.9" x2="1796.8" y2="-139.9" gradientTransform="translate(174288.3 -102012.7) rotate(154) scale(112.1)" gradientUnits="userSpaceOnUse">
      <stop offset="0" stop-color="#d1933f"/>
      <stop offset="0" stop-color="#b57e36"/>
      <stop offset=".1" stop-color="#92642a"/>
      <stop offset=".2" stop-color="#7b5222"/>
      <stop offset=".3" stop-color="#6e481d"/>
      <stop offset=".4" stop-color="#6a451b"/>
      <stop offset=".5" stop-color="#6f4a1e"/>
      <stop offset=".6" stop-color="#815624"/>
      <stop offset=".7" stop-color="#9f6d2f"/>
      <stop offset=".8" stop-color="#cb8e3d"/>
      <stop offset=".8" stop-color="#ce903d"/>
      <stop offset="1" stop-color="#dcb27e"/>
    </linearGradient>
    <linearGradient id="Degradado_sin_nombre_10" data-name="Degradado sin nombre 10" x1="1794.4" y1="-139.8" x2="1796.8" y2="-139.8" gradientTransform="translate(174285.2 -102019.1) rotate(154) scale(112.1)" gradientUnits="userSpaceOnUse">
      <stop offset="0" stop-color="#d1933f"/>
      <stop offset="0" stop-color="#b57e36"/>
      <stop offset=".1" stop-color="#92642a"/>
      <stop offset=".2" stop-color="#7b5222"/>
      <stop offset=".3" stop-color="#6e481d"/>
      <stop offset=".4" stop-color="#6a451b"/>
      <stop offset=".5" stop-color="#6f4a1e"/>
      <stop offset=".6" stop-color="#815624"/>
      <stop offset=".7" stop-color="#9f6d2f"/>
      <stop offset=".8" stop-color="#cb8e3d"/>
      <stop offset=".8" stop-color="#ce903d"/>
      <stop offset="1" stop-color="#dcb27e"/>
    </linearGradient>
    <linearGradient id="Degradado_sin_nombre_11" data-name="Degradado sin nombre 11" x1="1794.4" y1="-140.1" x2="1796.8" y2="-140.1" gradientTransform="translate(174293.6 -102001.8) rotate(154) scale(112.1)" gradientUnits="userSpaceOnUse">
      <stop offset="0" stop-color="#d1933f"/>
      <stop offset="0" stop-color="#b57e36"/>
      <stop offset=".1" stop-color="#92642a"/>
      <stop offset=".2" stop-color="#7b5222"/>
      <stop offset=".3" stop-color="#6e481d"/>
      <stop offset=".4" stop-color="#6a451b"/>
      <stop offset=".5" stop-color="#6f4a1e"/>
      <stop offset=".6" stop-color="#815624"/>
      <stop offset=".7" stop-color="#9f6d2f"/>
      <stop offset=".8" stop-color="#cb8e3d"/>
      <stop offset=".8" stop-color="#ce903d"/>
      <stop offset="1" stop-color="#dcb27e"/>
    </linearGradient>
    <linearGradient id="Degradado_sin_nombre_12" data-name="Degradado sin nombre 12" x1="1794.4" y1="-140.2" x2="1796.8" y2="-140.2" gradientTransform="translate(174296.7 -101995.4) rotate(154) scale(112.1)" gradientUnits="userSpaceOnUse">
      <stop offset="0" stop-color="#d1933f"/>
      <stop offset="0" stop-color="#b57e36"/>
      <stop offset=".1" stop-color="#92642a"/>
      <stop offset=".2" stop-color="#7b5222"/>
      <stop offset=".3" stop-color="#6e481d"/>
      <stop offset=".4" stop-color="#6a451b"/>
      <stop offset=".5" stop-color="#6f4a1e"/>
      <stop offset=".6" stop-color="#815624"/>
      <stop offset=".7" stop-color="#9f6d2f"/>
      <stop offset=".8" stop-color="#cb8e3d"/>
      <stop offset=".8" stop-color="#ce903d"/>
      <stop offset="1" stop-color="#dcb27e"/>
    </linearGradient>
    <linearGradient id="Degradado_sin_nombre_13" data-name="Degradado sin nombre 13" x1="1794.4" y1="-139.5" x2="1796.8" y2="-139.5" gradientTransform="translate(174272.2 -102045.8) rotate(154) scale(112.1)" gradientUnits="userSpaceOnUse">
      <stop offset="0" stop-color="#d1933f"/>
      <stop offset="0" stop-color="#b57e36"/>
      <stop offset=".1" stop-color="#92642a"/>
      <stop offset=".2" stop-color="#7b5222"/>
      <stop offset=".3" stop-color="#6e481d"/>
      <stop offset=".4" stop-color="#6a451b"/>
      <stop offset=".5" stop-color="#6f4a1e"/>
      <stop offset=".6" stop-color="#815624"/>
      <stop offset=".7" stop-color="#9f6d2f"/>
      <stop offset=".8" stop-color="#cb8e3d"/>
      <stop offset=".8" stop-color="#ce903d"/>
      <stop offset="1" stop-color="#dcb27e"/>
    </linearGradient>
    <linearGradient id="Degradado_sin_nombre_14" data-name="Degradado sin nombre 14" x1="1794.4" y1="-139.6" x2="1796.8" y2="-139.6" gradientTransform="translate(174277.8 -102034.2) rotate(154) scale(112.1)" gradientUnits="userSpaceOnUse">
      <stop offset="0" stop-color="#d1933f"/>
      <stop offset="0" stop-color="#b57e36"/>
      <stop offset=".1" stop-color="#92642a"/>
      <stop offset=".2" stop-color="#7b5222"/>
      <stop offset=".3" stop-color="#6e481d"/>
      <stop offset=".4" stop-color="#6a451b"/>
      <stop offset=".5" stop-color="#6f4a1e"/>
      <stop offset=".6" stop-color="#815624"/>
      <stop offset=".7" stop-color="#9f6d2f"/>
      <stop offset=".8" stop-color="#cb8e3d"/>
      <stop offset=".8" stop-color="#ce903d"/>
      <stop offset="1" stop-color="#dcb27e"/>
    </linearGradient>
    <linearGradient id="Degradado_sin_nombre_15" data-name="Degradado sin nombre 15" x1="1798.4" y1="-137.2" x2="1800.8" y2="-137.2" gradientTransform="translate(139673.2 -81423.5) rotate(154) scale(89.5)" gradientUnits="userSpaceOnUse">
      <stop offset="0" stop-color="#d1933f"/>
      <stop offset="0" stop-color="#b57e36"/>
      <stop offset=".1" stop-color="#92642a"/>
      <stop offset=".2" stop-color="#7b5222"/>
      <stop offset=".3" stop-color="#6e481d"/>
      <stop offset=".4" stop-color="#6a451b"/>
      <stop offset=".5" stop-color="#6f4a1e"/>
      <stop offset=".6" stop-color="#815624"/>
      <stop offset=".7" stop-color="#9f6d2f"/>
      <stop offset=".8" stop-color="#cb8e3d"/>
      <stop offset=".8" stop-color="#ce903d"/>
      <stop offset="1" stop-color="#dcb27e"/>
    </linearGradient>
    <linearGradient id="Degradado_sin_nombre_16" data-name="Degradado sin nombre 16" x1="1798.4" y1="-137.1" x2="1800.8" y2="-137.1" gradientTransform="translate(139669.1 -81431.8) rotate(154) scale(89.5)" gradientUnits="userSpaceOnUse">
      <stop offset="0" stop-color="#d1933f"/>
      <stop offset="0" stop-color="#b57e36"/>
      <stop offset=".1" stop-color="#92642a"/>
      <stop offset=".2" stop-color="#7b5222"/>
      <stop offset=".3" stop-color="#6e481d"/>
      <stop offset=".4" stop-color="#6a451b"/>
      <stop offset=".5" stop-color="#6f4a1e"/>
      <stop offset=".6" stop-color="#815624"/>
      <stop offset=".7" stop-color="#9f6d2f"/>
      <stop offset=".8" stop-color="#cb8e3d"/>
      <stop offset=".8" stop-color="#ce903d"/>
      <stop offset="1" stop-color="#dcb27e"/>
    </linearGradient>
    <linearGradient id="Degradado_sin_nombre_17" data-name="Degradado sin nombre 17" x1="1798.4" y1="-137.4" x2="1800.8" y2="-137.4" gradientTransform="translate(139676.9 -81416) rotate(154) scale(89.5)" gradientUnits="userSpaceOnUse">
      <stop offset="0" stop-color="#d1933f"/>
      <stop offset="0" stop-color="#b57e36"/>
      <stop offset=".1" stop-color="#92642a"/>
      <stop offset=".2" stop-color="#7b5222"/>
      <stop offset=".3" stop-color="#6e481d"/>
      <stop offset=".4" stop-color="#6a451b"/>
      <stop offset=".5" stop-color="#6f4a1e"/>
      <stop offset=".6" stop-color="#815624"/>
      <stop offset=".7" stop-color="#9f6d2f"/>
      <stop offset=".8" stop-color="#cb8e3d"/>
      <stop offset=".8" stop-color="#ce903d"/>
      <stop offset="1" stop-color="#dcb27e"/>
    </linearGradient>
    <linearGradient id="Degradado_sin_nombre_18" data-name="Degradado sin nombre 18" x1="1794.4" y1="-139.2" x2="1796.8" y2="-139.2" gradientTransform="translate(174260.8 -102064.9) rotate(154) scale(112.1)" gradientUnits="userSpaceOnUse">
      <stop offset="0" stop-color="#d1933f"/>
      <stop offset="0" stop-color="#b57e36"/>
      <stop offset=".1" stop-color="#92642a"/>
      <stop offset=".2" stop-color="#7b5222"/>
      <stop offset=".3" stop-color="#6e481d"/>
      <stop offset=".4" stop-color="#6a451b"/>
      <stop offset=".5" stop-color="#6f4a1e"/>
      <stop offset=".6" stop-color="#815624"/>
      <stop offset=".7" stop-color="#9f6d2f"/>
      <stop offset=".8" stop-color="#cb8e3d"/>
      <stop offset=".8" stop-color="#ce903d"/>
      <stop offset="1" stop-color="#dcb27e"/>
    </linearGradient>
    <linearGradient id="Degradado_sin_nombre_19" data-name="Degradado sin nombre 19" x1="1794.4" y1="-139.4" x2="1796.8" y2="-139.4" gradientTransform="translate(174267.1 -102052) rotate(154) scale(112.1)" gradientUnits="userSpaceOnUse">
      <stop offset="0" stop-color="#d1933f"/>
      <stop offset="0" stop-color="#b57e36"/>
      <stop offset=".1" stop-color="#92642a"/>
      <stop offset=".2" stop-color="#7b5222"/>
      <stop offset=".3" stop-color="#6e481d"/>
      <stop offset=".4" stop-color="#6a451b"/>
      <stop offset=".5" stop-color="#6f4a1e"/>
      <stop offset=".6" stop-color="#815624"/>
      <stop offset=".7" stop-color="#9f6d2f"/>
      <stop offset=".8" stop-color="#cb8e3d"/>
      <stop offset=".8" stop-color="#ce903d"/>
      <stop offset="1" stop-color="#dcb27e"/>
    </linearGradient>
    <linearGradient id="Degradado_sin_nombre_20" data-name="Degradado sin nombre 20" x1="1794.4" y1="-138.8" x2="1796.8" y2="-138.8" gradientTransform="translate(174247.8 -102091.7) rotate(154) scale(112.1)" gradientUnits="userSpaceOnUse">
      <stop offset="0" stop-color="#d1933f"/>
      <stop offset="0" stop-color="#b57e36"/>
      <stop offset=".1" stop-color="#92642a"/>
      <stop offset=".2" stop-color="#7b5222"/>
      <stop offset=".3" stop-color="#6e481d"/>
      <stop offset=".4" stop-color="#6a451b"/>
      <stop offset=".5" stop-color="#6f4a1e"/>
      <stop offset=".6" stop-color="#815624"/>
      <stop offset=".7" stop-color="#9f6d2f"/>
      <stop offset=".8" stop-color="#cb8e3d"/>
      <stop offset=".8" stop-color="#ce903d"/>
      <stop offset="1" stop-color="#dcb27e"/>
    </linearGradient>
    <linearGradient id="Degradado_sin_nombre_21" data-name="Degradado sin nombre 21" x1="1794.4" y1="-139" x2="1796.8" y2="-139" gradientTransform="translate(174254.4 -102078.1) rotate(154) scale(112.1)" gradientUnits="userSpaceOnUse">
      <stop offset="0" stop-color="#d1933f"/>
      <stop offset="0" stop-color="#b57e36"/>
      <stop offset=".1" stop-color="#92642a"/>
      <stop offset=".2" stop-color="#7b5222"/>
      <stop offset=".3" stop-color="#6e481d"/>
      <stop offset=".4" stop-color="#6a451b"/>
      <stop offset=".5" stop-color="#6f4a1e"/>
      <stop offset=".6" stop-color="#815624"/>
      <stop offset=".7" stop-color="#9f6d2f"/>
      <stop offset=".8" stop-color="#cb8e3d"/>
      <stop offset=".8" stop-color="#ce903d"/>
      <stop offset="1" stop-color="#dcb27e"/>
    </linearGradient>
    <linearGradient id="Degradado_sin_nombre_22" data-name="Degradado sin nombre 22" x1="1794.4" y1="-139.7" x2="1796.8" y2="-139.7" gradientTransform="translate(174278.1 -102029.5) rotate(154) scale(112.1)" gradientUnits="userSpaceOnUse">
      <stop offset="0" stop-color="#d1933f"/>
      <stop offset="0" stop-color="#b57e36"/>
      <stop offset=".1" stop-color="#92642a"/>
      <stop offset=".2" stop-color="#7b5222"/>
      <stop offset=".3" stop-color="#6e481d"/>
      <stop offset=".4" stop-color="#6a451b"/>
      <stop offset=".5" stop-color="#6f4a1e"/>
      <stop offset=".6" stop-color="#815624"/>
      <stop offset=".7" stop-color="#9f6d2f"/>
      <stop offset=".8" stop-color="#cb8e3d"/>
      <stop offset=".8" stop-color="#ce903d"/>
      <stop offset="1" stop-color="#dcb27e"/>
    </linearGradient>
    <linearGradient id="Degradado_sin_nombre_23" data-name="Degradado sin nombre 23" x1="1735.6" y1="-162.3" x2="1738" y2="-162.3" gradientTransform="translate(-79765.9 28287.5) rotate(-14) scale(48.7)" gradientUnits="userSpaceOnUse">
      <stop offset="0" stop-color="#d1933f"/>
      <stop offset="0" stop-color="#b57e36"/>
      <stop offset=".1" stop-color="#92642a"/>
      <stop offset=".2" stop-color="#7b5222"/>
      <stop offset=".3" stop-color="#6e481d"/>
      <stop offset=".4" stop-color="#6a451b"/>
      <stop offset=".5" stop-color="#6f4a1e"/>
      <stop offset=".6" stop-color="#815624"/>
      <stop offset=".7" stop-color="#9f6d2f"/>
      <stop offset=".8" stop-color="#cb8e3d"/>
      <stop offset=".8" stop-color="#ce903d"/>
      <stop offset="1" stop-color="#dcb27e"/>
    </linearGradient>
    <linearGradient id="Degradado_sin_nombre_24" data-name="Degradado sin nombre 24" x1="1735.6" y1="-162.3" x2="1738" y2="-162.3" gradientTransform="translate(-79765.9 28287.5) rotate(-14) scale(48.7)" gradientUnits="userSpaceOnUse">
      <stop offset="0" stop-color="#d1933f"/>
      <stop offset="0" stop-color="#b57e36"/>
      <stop offset=".1" stop-color="#92642a"/>
      <stop offset=".2" stop-color="#7b5222"/>
      <stop offset=".3" stop-color="#6e481d"/>
      <stop offset=".4" stop-color="#6a451b"/>
      <stop offset=".5" stop-color="#6f4a1e"/>
      <stop offset=".6" stop-color="#815624"/>
      <stop offset=".7" stop-color="#9f6d2f"/>
      <stop offset=".8" stop-color="#cb8e3d"/>
      <stop offset=".8" stop-color="#ce903d"/>
      <stop offset="1" stop-color="#dcb27e"/>
    </linearGradient>
    <linearGradient id="Degradado_sin_nombre_25" data-name="Degradado sin nombre 25" x1="1735.6" y1="-162.6" x2="1738" y2="-162.6" gradientTransform="translate(-79768 28279.1) rotate(-14) scale(48.7)" gradientUnits="userSpaceOnUse">
      <stop offset="0" stop-color="#d1933f"/>
      <stop offset="0" stop-color="#b57e36"/>
      <stop offset=".1" stop-color="#92642a"/>
      <stop offset=".2" stop-color="#7b5222"/>
      <stop offset=".3" stop-color="#6e481d"/>
      <stop offset=".4" stop-color="#6a451b"/>
      <stop offset=".5" stop-color="#6f4a1e"/>
      <stop offset=".6" stop-color="#815624"/>
      <stop offset=".7" stop-color="#9f6d2f"/>
      <stop offset=".8" stop-color="#cb8e3d"/>
      <stop offset=".8" stop-color="#ce903d"/>
      <stop offset="1" stop-color="#dcb27e"/>
    </linearGradient>
  </defs>
  <path class="st7" d="M289.7,112.7c1.8,3.3,3.6,7.1,6,10.1,4.2,5.3,9.1,9.9,14.3,14,1.9,1.4,3.8,2.8,5.7,4.1,7.4,5,15.3,9.4,23.2,13.4,1.6.8,2.6,2.4,3.1,4.1,0,.2.1.4.2.6,5.5-3.4,10.8-6.9,15.9-10.8,7.5-5.9,14.5-12.5,20.4-20,3.8-5.1,7.2-10.6,9.8-16.4.7-1.8,1.2-3.7,1.5-5.7,1.6-16.4-2.6-34.3-18.9-41.6-2.8-1.2-5.4-1.4-8.4-1.1-1.5.3-2.9.6-4.3,1.2-1.3.6-2.6,1.4-3.8,2.3-2.2,1.8-4.1,3.8-5.8,6-1.6,2.1-3,4.3-4.5,6.6-.4.9-1,1.8-1.5,2.3-.9.8-2,1.4-3.1,1.8-.5.2-1.1.2-1.6.2-.9.4-1.8.6-2.8.6s-1.1,0-1.7-.2c-1.4-.3-2.7-1.3-3.5-2.4,0,0,0,0,0,0,0,0,0-.1-.1-.2-.4-.4-.6-.9-.9-1.5,0,0,0,0,0,0-1.6-2.7-3.3-5.4-5.2-8-1.5-1.8-3.1-3.5-4.9-5-1-.7-2.1-1.4-3.2-1.9-1.2-.4-2.4-.8-3.7-1-1.9-.2-3.7-.2-5.5,0-13.5,1.3-20.5,16.8-20.9,28.7-.1,3.9-.2,7.8.8,11.6.8,2.9,2.2,5.6,3.7,8.3ZM382.1,96.9c-2,6.4-6.7,11.7-11.2,16.5-7.6,8-17.1,14.4-28,16.8-8.8,1.9-20.3,3.1-27.1-4-1.3-1.4-1.3-3.4,0-4.8,1.2-1.3,3.6-1.3,4.8,0,.2.2.5.5.7.7,0,0,.2.2.4.3,0,0,.1.1.2.2,0,0,.1,0,.2.1.2.2.5.3.7.4.2.1.4.2.7.4.1,0,.3.1.5.2,0,0,0,0,0,0,0,0,.1,0,.2.1.1,0,.2,0,.3.1.3.1.5.2.8.3.5.2,1.1.3,1.6.4.3,0,.6.1.9.2,0,0,.1,0,.2,0,0,0,0,0,0,0,1.1.1,2.3.2,3.5.2,1.1,0,2.2,0,3.3-.1.5,0,1.1-.1,1.6-.2.1,0,.2,0,.3,0,.2,0,.3,0,.5,0,1.9-.3,3.8-.7,5.7-1.1,1.2-.3,2.4-.6,3.5-1,.6-.2,1.2-.4,1.8-.7,0,0,.1,0,.1,0s0,0,0,0c.3-.1.6-.3.9-.4,2.4-1.1,4.7-2.4,6.9-3.9.6-.4,1.1-.8,1.7-1.2.2-.2.5-.3.7-.5.1-.1.3-.2.4-.3,1-.8,2-1.6,3-2.4,1.9-1.7,3.8-3.5,5.5-5.5.9-1,1.8-2,2.6-3,.5-.5.9-1.1,1.3-1.6,0-.1.2-.2.2-.3,0,0,0,0,0,0,.2-.2.4-.5.5-.7.8-1.1,1.5-2.2,2.2-3.4.2-.3.3-.6.5-.9,0-.2.2-.3.2-.5,0,0,0,0,0-.1s0,0,0-.1c0-.1.1-.3.1-.4.1-.3.2-.6.3-.9.5-1.5,1.8-2.5,3.3-2.5s.6,0,.9,0c1.7.4,2.9,2.5,2.3,4.2Z"/>
  <path class="st7" d="M203.4,184.8c.4,0,.8,0,1.2,0,7.9.3,12.3-5.2,11.3-12.7-4.1.5-14,.7-16.7,2.6-5,3.7-1.4,10.2,4.3,10.2Z"/>
  <path class="st7" d="M193.9,231.5c-4,0-7.2.8-9.8,2.3-2.5,1.5-4.4,3.9-5.6,7.1-.4,1.2-.8,2.5-1.1,3.9h32c0-4.1-1.4-7.4-4.1-9.8-2.8-2.4-6.6-3.6-11.4-3.6Z"/>
  <path class="st7" d="M287.4,342.8c.3,0,.7,0,1,0,6.6.3,10.4-4.4,9.5-10.8-3.5.4-11.9.6-14.2,2.2-4.2,3.1-1.2,8.6,3.6,8.6Z"/>
  <path class="st7" d="M352.6,259c-6.7,5-2,13.7,5.8,13.7s1,0,1.6-.1c10.6.5,16.6-7,15.2-17.1-5.5.7-18.9,1-22.5,3.6Z"/>
  <path class="st7" d="M452,432.1c.5,0,1,0,1.5-.1,10,.5,15.8-6.9,14.4-17.1-5.2.7-17.9,1-21.4,3.5-6.4,5-1.9,13.6,5.5,13.6Z"/>
  <path class="st7" d="M83.3,341.5c6.9,0,12.4-5.3,12.4-11.9s-5.6-11.9-12.4-11.9-12.5,5.3-12.5,11.9c0,6.6,5.6,11.9,12.5,11.9Z"/>
  <path class="st7" d="M149,427.9c10.1,0,18.4-8.2,18.4-18.4s-8.2-18.4-18.4-18.4-18.4,8.2-18.4,18.4,8.2,18.4,18.4,18.4Z"/>
  <path class="st7" d="M321.7,122.5s0,0,0,0c0,0,0,0,0,0,0,0,0,0,0,0Z"/>
  <path class="st7" d="M27.2,340.1c6.1,0,12.2-4,11.7-12,1.1-16-24.4-15.9-23.5,0-.4,8,5.7,12,11.9,12Z"/>
  <path class="st7" d="M321.6,122.4s0,0,0,0c0,0-.1-.1-.2-.1-.1,0-.2-.1.1.1Z"/>
  <path class="st17" d="M.2,375.9h15v-28.3c15.9,15.3,40.6,1.4,38.7-20.3,1.5-14.5-11-25.4-23.3-25.4s-11.3,2.3-15.5,7.7l-.8-6H.2c1.1,8.8,1.9,18.4,2.2,28.7.4,16.2-.6,30.8-2.2,43.5H.2ZM38.8,328.1c.5,8-5.5,12-11.6,12s-12.3-4-11.9-12c-.9-15.9,24.6-16,23.5,0Z"/>
  <path class="st9" d="M129.2,339c.3-7.6.5-13.8,4.9-17.8,5-4.5,12.4-3.6,14.8-3.2v-14.1c-.3-.1-1-.4-2.1-.4-2.6,0-7.6,1.2-16.5,7.5l-.8-7h-14.1c.6,6.9,1,14.3,1.1,22.2,0,9.5-.4,18.4-1.1,26.5h15c-.7-3.2-1.4-7.9-1.2-13.5Z"/>
  <path class="st16" d="M83.3,355.4c14.9,0,27.1-11.5,27.1-25.8s-12.1-25.8-27.1-25.8-27.1,11.5-27.1,25.8c0,14.2,12.1,25.8,27.1,25.8ZM70.9,329.6c0-6.5,5.6-11.9,12.5-11.9s12.4,5.3,12.4,11.9-5.6,11.9-12.4,11.9-12.5-5.3-12.5-11.9Z"/>
  <path class="st8" d="M95,196.8c25.5-10.7,12.4-59.7,14.9-80.6h-18.3l1.4,50.8c0,10.2-6,16.3-16.2,16.2-10.3,0-16.1-5.9-16-16.2v-50.8h-18.3v52c-1.8,27.6,30.9,40,52.5,28.6Z"/>
  <path class="st1" d="M134,145.6l-1.1-5.9c-5.3.4-10.6.8-15.9,1.3,1.7,11.6,2.3,21,2.4,27.9,0,1,0,1.8,0,2.1.1,10.6-.4,19-1.1,25.1h15.6s0-30.9,0-30.9c0-6.9,4.4-11.6,11.3-11.5,16.3-.4,11.2,33.4,10.9,42.4h15.9c.4-9,4.3-43.6-5-52-3.5-4.1-9.5-6.2-15.6-6.2-6.8,0-13.6,2.6-17.3,7.7Z"/>
  <path class="st0" d="M198.5,197.8c13.8,1,22.5-2.1,27.8-8.8,8.8-11.1,10.7-41.1-5.3-48.1-4-2-9-3-14.1-3-13.1,0-26.9,6.8-26.5,21.1h14.4c-.1-11.1,22.8-10.8,20.9,1.5,0,0-15.8,1.2-15.8,1.2-12.6,1.7-25.7,10.3-19.5,25.2,3.3,7.9,10.4,10.4,18.1,10.9ZM199.2,174.6c2.7-1.9,12.6-2.1,16.7-2.6,1.1,7.6-3.4,13.1-11.3,12.7-.4,0-.8,0-1.2,0-5.8,0-9.3-6.5-4.3-10.2Z"/>
  <path class="st13" d="M213.7,407.1c0-9.3,5.6-15.5,14.4-15.4,20.8-.5,14.3,44.7,13.9,56.8h20.3c.6-12.1,5.5-58.4-6.4-69.7-4.5-5.5-12.1-8.3-19.9-8.3s-17.4,3.4-22.1,10.3l-1.4-7.9c-6.8.6-13.6,1.1-20.3,1.7,2.2,15.6,2.9,28.2,3.1,37.4,0,1.3,0,2.4,0,2.8.2,14.2-.6,25.5-1.4,33.6h19.9s0-41.4,0-41.4Z"/>
  <path class="st24" d="M481.3,437.8c11.3-14.9,13.6-55.1-6.8-64.5-5.1-2.7-11.5-4-17.9-4-16.8,0-34.3,9.2-33.8,28.3h18.4c-.1-15,29.1-14.4,26.6,2,0,0-20.1,1.7-20.1,1.7-16,2.3-32.8,13.8-24.9,33.8,4.2,10.6,13.2,13.9,23.1,14.6,17.6,1.3,28.7-2.8,35.5-11.8ZM467.9,414.9c1.4,10.1-4.4,17.5-14.4,17.1-.5,0-1,.1-1.5.1-7.3,0-11.9-8.7-5.5-13.6,3.5-2.6,16.2-2.9,21.4-3.5Z"/>
  <path class="st10" d="M289.3,426.6c.4-11.7.8-21.4,7.3-27.6,7.4-7,18.3-5.6,21.8-5v-21.9c-.5-.2-1.5-.5-3.1-.5-3.8,0-11.1,1.8-24.3,11.6l-1.2-10.9h-20.9c.9,10.6,1.5,22.1,1.6,34.3.1,14.8-.5,28.5-1.6,41h22.2c-1-5-2.1-12.2-1.8-20.9Z"/>
  <path class="st19" d="M351.9,362.2c0-7.3-4.4-14.7-13.3-14.4-.2,0-.4,0-.5,0-8.7,0-13,7.2-13,14.4,0,7.4,4.5,14.7,13.5,14.4,8.9.2,13.3-7.1,13.3-14.4Z"/>
  <path class="st5" d="M348.4,410.3c0-9.5,0-19,0-28.5h-22.2c1.1,9.6,1.8,20.3,1.9,32.1,0,12.4-.7,23.6-1.9,33.6h22.2c0-12.4,0-24.8,0-37.2Z"/>
  <path class="st25" d="M401.7,446.6c13.9-6,21.9-27,7.7-37.6-5.7-4.2-12.5-5.6-19.1-6.9-4.4-.8-12.3-2.4-12.7-8.3-.1-1.7.5-3.3,1.4-4.7,2.9-4.2,8.3-4.8,12-1.5,2.7,2.4,1.5,7,5,8,4.4,1.2,12.5-2.5,16.6-4.2.2,0,.4-.2.5-.4,0-.2,0-.4,0-.5-.2-1.2-.3-2.4-.5-3.5-1.8-12.6-12.7-17.2-24.2-17.2s-8.3.6-12.1,1.7c-1.8.4-3.4.9-4.9,1.5-2.5.9-4.6,2.2-6.4,3.7-2.8,2-5.4,4.4-6.8,7.6-1.1,2.5-1.5,5.4-1.3,8.2-1.1,11.4,5.6,23.5,19.5,24.6,3.8.3,7.7.7,11.2,2.2,3.5,1.5,9.5,5.6,7.2,10.2-.8,1.7-2.4,2.9-4,3.7-4.1,2.1-9.2,2.2-13-.4-2.9-2-3.3-5.5-2.8-8.7-3.2,0-6.5,0-9.8,0-2.1,0-7-.9-8.8.5-3.2,2.5-.5,10.1,1.2,12.8,2.9,4.6,7.5,7.8,12.3,9.7,9.9,4,21.9,4,31.7-.3Z"/>
  <path class="st12" d="M89,448.5c13.9-6,21.9-27,7.7-37.6-5.7-4.2-12.4-5.6-19.1-6.9-4.4-.8-12.3-2.4-12.7-8.3-.1-1.7.5-3.3,1.4-4.7,2.9-4.2,8.3-4.8,12-1.5,2.7,2.4,1.5,7,5,8,4.4,1.2,12.5-2.5,16.6-4.2.2,0,.4-.2.5-.4,0-.2,0-.4,0-.5-.2-1.2-.3-2.4-.5-3.5-1.8-12.6-12.7-17.2-24.2-17.2s-8.3.6-12.1,1.7c-1.8.4-3.4.9-4.9,1.5-2.4.9-4.6,2.2-6.4,3.7-2.8,2-5.4,4.4-6.8,7.6-1.2,2.5-1.5,5.4-1.3,8.2-1.1,11.4,5.6,23.5,19.5,24.6,3.8.3,7.7.7,11.2,2.2,3.5,1.5,9.5,5.6,7.2,10.2-.8,1.7-2.4,2.9-4,3.7-4.1,2.1-9.2,2.2-13-.4-2.9-2-3.3-5.5-2.8-8.7-3.2,0-6.5,0-9.8,0s-7-.9-8.8.5c-3.2,2.5-.5,10.1,1.2,12.8,2.9,4.6,7.5,7.8,12.3,9.7,9.9,4.1,21.9,4,31.7-.3Z"/>
  <path class="st21" d="M189,409.5c0-22.1-17.9-40-39.9-40s-39.9,17.9-39.9,40,17.9,40,39.9,40c22.1,0,39.9-17.9,39.9-40ZM130.7,409.5c0-10.1,8.2-18.4,18.4-18.4s18.4,8.2,18.4,18.4-8.2,18.4-18.4,18.4c-10.1,0-18.4-8.2-18.4-18.4Z"/>
  <path class="st22" d="M231.7,327c0-5.9,3.7-9.8,9.5-9.7,13.8-.4,9.5,28.2,9.2,35.9h13.4c.4-7.6,3.7-36.9-4.3-44-3-3.5-8-5.2-13.2-5.2s-11.5,2.2-14.6,6.5l-.9-5c-4.5.4-9,.7-13.5,1.1,1.4,9.9,1.9,17.8,2.1,23.6,0,.8,0,1.5,0,1.7.1,9-.4,16.1-.9,21.2h13.2v-26.1Z"/>
  <path class="st3" d="M212.3,306.2h-13.2s0,26.1,0,26.1c0,5.9-3.7,9.8-9.5,9.7-13.8.4-9.5-28.2-9.2-35.9h-13.4c-.4,7.6-3.7,36.9,4.3,44,6.3,7.4,21.9,6.9,27.8-1.3l.9,5c4.5-.4,9-.7,13.5-1.1-1.4-9.9-1.9-17.8-2.1-23.6,0-.8,0-1.5,0-1.7-.1-9,.4-16.1.9-21.2Z"/>
  <path class="st11" d="M306.8,346.4c7.5-9.4,9-34.8-4.5-40.7-3.4-1.7-7.6-2.5-11.9-2.5-11.1,0-22.8,5.8-22.4,17.9h12.2c0-9.4,19.3-9.1,17.6,1.2,0,0-13.3,1-13.4,1-10.6,1.5-21.7,8.7-16.5,21.3,2.8,6.7,8.8,8.8,15.3,9.2,11.7.8,19-1.8,23.5-7.4ZM283.8,334.2c2.3-1.6,10.7-1.8,14.2-2.2.9,6.4-2.9,11.1-9.5,10.8-.3,0-.7,0-1,0-4.9,0-7.9-5.5-3.6-8.6Z"/>
  <path class="st20" d="M262,220.9l-1.6-8.2c-7.4.6-14.8,1.2-22.2,1.8,2.4,16.2,3.2,29.3,3.4,38.9,0,1.4,0,2.5,0,2.9.2,14.8-.6,26.5-1.5,35h21.7s0-43,0-43c-.1-9.6,6.1-16.1,15.7-16,22.7-.6,15.6,46.5,15.1,59h22.1c.6-12.5,6-60.7-7-72.4-4.9-5.7-13.2-8.6-21.7-8.6-9.4,0-19,3.6-24.1,10.7Z"/>
  <path class="st4" d="M382,213.6c-5.4-2.7-12.1-4.1-18.9-4.1-17.7,0-36.2,9.2-35.6,28.5h19.4c-.1-15,30.7-14.5,28.1,2,0,0-21.2,1.7-21.2,1.7-16.9,2.4-34.6,13.9-26.3,33.9,4.4,10.6,14,14,24.3,14.7,18.6,1.3,30.2-2.8,37.4-11.9,11.9-15,14.4-55.4-7.1-64.8ZM359.9,272.6c-.5,0-1.1.1-1.6.1-7.7,0-12.5-8.7-5.8-13.7,3.7-2.6,17-2.9,22.5-3.6,1.4,10.2-4.6,17.6-15.2,17.1Z"/>
  <path class="st23" d="M112,293.6c7.2,0,13.6-1.4,19.2-4.1,5.6-2.8,10.2-6.6,13.6-11.5,3.4-4.9,5.4-10.5,5.9-17h-23.8c-.7,3.8-2.3,6.6-4.8,8.5-2.5,1.9-5.9,2.8-10.1,2.8s-6.3-.8-8.7-2.3c-2.4-1.5-4.2-3.8-5.5-6.7-1.3-2.9-1.9-6.4-1.9-10.5s.7-7.4,2-10.3,3.2-5.1,5.8-6.7,5.4-2.4,8.7-2.4,7.4.9,9.8,2.8c2.4,1.8,4,4.7,4.8,8.6h23.8c-.7-10-4.6-18-11.7-23.8-7.1-5.8-16.3-8.8-27.7-8.8s-14.5,1.8-20.4,5.2c-5.9,3.5-10.5,8.3-13.9,14.4-3.4,6.1-5.1,13.1-5.1,21s1.6,15.3,4.9,21.4,7.9,10.8,13.9,14.2c6,3.4,13,5.1,21.1,5.1Z"/>
  <path class="st15" d="M173.3,217.5c-5.9,3.5-10.6,8.3-13.9,14.4-3.3,6.1-5,13.1-5,21.1s1.7,14.9,5.1,21c3.4,6.1,8.1,10.9,14.1,14.4,6,3.5,12.8,5.2,20.5,5.2s19.4-2.5,26.4-7.6c7.1-5.1,11.3-11.9,12.6-20.4h-21.7c-.8,2.8-2.7,4.9-5.7,6.5-3,1.5-6.7,2.3-11.2,2.3s-10.7-1.7-13.6-5.1c-2-2.4-3.3-5.6-4-9.8l55.8-.3v-6c0-8.4-1.6-15.6-4.8-21.7-3.2-6.1-7.7-10.8-13.5-14.1-5.8-3.3-12.8-5-20.9-5-7.7,0-14.5,1.8-20.4,5.2ZM209.4,244.9h-32c.3-1.4.6-2.7,1.1-3.9,1.2-3.2,3.1-5.6,5.6-7.1,2.5-1.5,5.8-2.3,9.8-2.3s8.6,1.2,11.4,3.6c2.8,2.4,4.2,5.7,4.2,9.8Z"/>
  <path class="st18" d="M425.3,265.8c-4,0-7.2,1.3-9.6,3.9-2.4,2.6-3.6,6-3.6,10.2s1.2,6.2,3.7,8.6,5.5,3.5,9.1,3.5,2.7-.2,3.8-.6c.2,0,.5-.2.7-.3-.2,3-1.5,5.5-3.8,7.5-2.6,2.1-5.8,3.6-9.8,4.3v8.5c4.8-.5,9.1-2,12.8-4.5,3.7-2.5,6.7-5.8,8.8-9.8,2.1-4,3.1-8.5,3.1-13.4s-1.4-9.6-4.1-13c-2.8-3.3-6.4-5-10.9-5Z"/>
  <path class="st14" d="M321.7,122.4c0,0-.1-.1-.2-.2,0,0,.1.1.2.1t0,0Z"/>
  <path class="st2" d="M379.7,92.7c-.3,0-.6,0-.9,0-1.5,0-2.9.9-3.3,2.5,0,.3-.2.6-.3.9,0,.1-.1.3-.1.4,0,0,0,0,0,.1,0,0,0,.1,0,.1,0,.2-.2.3-.2.5-.1.3-.3.6-.5.9-.6,1.2-1.4,2.3-2.2,3.4-.2.2-.4.5-.5.7,0,0,0,0,0,0,0,.1-.2.2-.2.3-.4.6-.9,1.1-1.3,1.6-.9,1-1.8,2-2.6,3-1.7,1.9-3.6,3.8-5.5,5.5-1,.9-2,1.7-3,2.4-.1.1-.3.2-.4.3-.2.2-.5.4-.7.5-.5.4-1.1.8-1.7,1.2-2.2,1.5-4.5,2.8-6.9,3.9-.3.1-.6.3-.9.4,0,0,0,0,0,0s0,0-.1,0c-.6.2-1.2.5-1.8.7-1.1.4-2.3.7-3.5,1-1.9.5-3.8.9-5.7,1.1-.2,0-.3,0-.5,0-.1,0-.2,0-.3,0-.5,0-1.1.1-1.6.2-1.1,0-2.2.1-3.3.1s-2.3,0-3.5-.2c0,0,0,0,0,0,0,0,0,0-.2,0-.3,0-.6-.1-.9-.2-.5-.1-1.1-.2-1.6-.4-.3,0-.6-.2-.8-.3-.1,0-.2,0-.3-.1,0,0-.1,0-.2-.1,0,0,0,0,0,0-.2,0-.3-.1-.5-.2-.2-.1-.5-.2-.7-.4-.2-.1-.5-.3-.7-.4,0,0-.1,0-.2-.1,0,0,0,0,0,0,0,0,0,0,0,0,0,0,0,0,0,0-.3-.2-.2-.2-.1-.1-.1-.1-.3-.2-.4-.3-.2-.2-.5-.4-.7-.7-1.2-1.3-3.6-1.3-4.8,0-1.3,1.4-1.3,3.4,0,4.8,6.9,7.1,18.4,6,27.1,4,10.9-2.4,20.4-8.8,28-16.8,4.5-4.8,9.3-10.1,11.2-16.5.5-1.7-.6-3.8-2.3-4.2Z"/>
  <path class="st6" d="M262.1,164.8c.1,3,.4,6,.8,9,.4,2.8,1.4,5.6,3.4,7.7,1.5,1.5,3.7,2.1,5.8,1.9,1.1.8,2.5,1.2,3.8,1.2,1.2,0,2.4-.4,3.4-.9.5-.2,1-.7,1.5-1.2.6.4,1.2.7,1.8.8,1.2.3,2.4.3,3.6,0,.4-.1.9-.3,1.3-.5,1,.6,2.1.9,3.2.9,2.9-.1,5.8-2,6.5-5,.2-.8.3-1.7.3-2.6,0,0,0,.1,0,.2,0-1.1,0-2.1-.5-3.2-1-8.4-1-16.9-.4-25.3-5.1-5.7-10.2-11.5-14.1-18.1-1.1-1.9,1.8-3.6,2.9-1.7,3.5,6.1,8.1,11.4,12.8,16.6,5,4.2,10.4,8,15.9,11.4,5.8,3.6,11.8,6.9,18,9.9,1.4.7,3,1.1,4.6.8,0,1.1.4,2.2.9,3.1,2,3.2,6.3,4.6,9.6,2.5,4.2-2.5,8.3-5.1,12.3-7.9.2-.2.4-.5.6-.7,1.1-1.2,2.3-2.2,3.6-3.2,2.4-1.9,4.5-3.3,6.6-5.4,3.2-3.2,6.2-6.6,9-10.2,5.6-6.9,11.2-13.9,15.4-21.8,1-1.9,4-.2,2.9,1.7-2.3,4.4-5.1,8.5-8,12.4-3.2,4.3-6.5,8.6-10.1,12.8.4,7.4.3,14.7-.6,22.1-.5,1.1-.6,2.1-.6,3.3,0,0,0-.1,0-.2,0,.9,0,1.8.3,2.6.7,2.9,3.8,5.3,6.8,5.2,1.2,0,2.5-.4,3.5-1,1.8.9,4.1,1,6,.2.4-.2.9-.4,1.3-.7.3.3.6.6,1,.8,1.2.9,2.7,1.6,4.3,1.5,1.4,0,2.8-.5,3.9-1.3,2.1.4,4.4-.2,6.2-1.9,1.9-1.8,3-4.5,3.5-7,.5-2.7.8-5.4.9-8.1.2-4.6.4-9.3.5-13.9.6-13.3.7-26.6-.2-39.9-.3-3.8-.6-7.6-1.1-11.4,0,0,0-.2,0-.2.1-2.3,0-4.7,0-7-.3-5.5-.2-11-.4-16.5-.4-12.2-1.4-24.5-1.2-36.7,0-6.7.2-13.5-.3-20.2-.1-1.9-.7-3.6-2.1-5-1.2-1.2-3.2-2.1-5-2.1-1.8,0-3.7.7-5,2.1-1.2,1.3-2.2,3.1-2.1,5,.3,4.3.4,8.6.4,13-1.5-4.2-3.3-8.4-5.3-12.4-2.8-5.7-6.1-11.1-9.2-16.6-.9-1.5-2.5-2.8-4.2-3.2-.6-.2-1.2-.2-1.9-.2-1.3,0-2.6.3-3.6,1-3.2,2.1-4.5,6.2-2.5,9.6,4.1,7.2,8.4,14.3,11.7,21.9.8,1.8,1.5,3.7,2.1,5.6-4.9-7.5-10.7-14.5-17.1-20.8-4.6-4.5-9.8-8.7-15.6-11.5-1.7-.8-3.5-1.2-5.4-.7-1.6.5-3.4,1.7-4.2,3.2-.9,1.6-1.3,3.6-.7,5.4.5,1.7,1.6,3.4,3.2,4.2,2.6,1.2,5,2.8,7.2,4.5,6.3,5,11.8,11,16.7,17.3,2.2,2.9,4.2,6,6,9.1-1.5-.7-3.1-1.2-4.7-1.6-6.1-1.2-12-.3-17.4,2.7-.6.3-1.2.8-1.6,1.3-1.1.5-2.3,1-3.3,1.6-4.1,2.3-7.6,5.6-10.6,9.2-1,1.2-2,2.5-2.9,3.8,0-.1-.1-.2-.2-.3-2.4-3.3-5-6.5-8.2-9-2-1.6-4.1-2.9-6.4-4-.5-.6-1-1.1-1.7-1.5-2.1-1.2-4.4-2.2-6.7-2.7-2.9-.6-5.5-.6-8.4-.2-1.9.3-3.8.9-5.5,1.7,2.5-4.5,5.2-8.8,8.3-12.9,4.3-5.5,9-10.8,14.4-15.2,1.6-1.2,3.3-2.3,5.1-3.3,3.1-1.7,4.4-6.3,2.4-9.3-2.1-3.2-5.9-4.2-9.3-2.4-4.9,2.6-9.3,6.3-13.2,10.2-4,4-7.6,8.5-11.1,13-1.9,2.5-3.6,5-5.3,7.6.8-2.3,1.6-4.7,2.5-7,2.9-6.7,6.4-13,9.8-19.4.9-1.6,1.2-3.5.7-5.2-.4-1.6-1.6-3.3-3.1-4.1-3.2-1.7-7.5-.9-9.3,2.4-4.8,9-9.6,17.9-13,27.5,0-3.9,0-7.7.3-11.6.1-1.7-.8-3.7-2-4.8-1.2-1.2-3.1-2.1-4.8-2-1.8,0-3.6.7-4.8,2-1.3,1.4-1.9,2.9-2,4.8-.4,5.9-.4,11.8-.3,17.7,0,6,0,12-.2,17.9-.3,6.2-.6,12.3-.8,18.5-.2,5.7-.1,11.4-.4,17.1-.1,2.6-.3,5.2-.2,7.9,0,.5,0,1,0,1.6-1.1,9.5-1.6,19.2-1.7,28.8,0,11.6.5,23.1.9,34.6ZM285.3,92.7c.4-11.9,7.4-27.3,20.9-28.7,1.8-.2,3.7-.2,5.5,0,1.3.2,2.5.6,3.7,1,1.1.6,2.2,1.2,3.2,1.9,1.8,1.5,3.4,3.2,4.9,5,1.9,2.6,3.6,5.3,5.2,8,0,0,0,0,0,0,.2.5.5,1,.9,1.5,0,0,0,.1.1.2,0,0,0,0,0,0,.9,1.1,2.1,2.1,3.5,2.4.6.1,1.1.2,1.7.2,1,0,1.9-.2,2.8-.6.5,0,1.1,0,1.6-.2,1.2-.4,2.2-1,3.1-1.8.6-.5,1.1-1.4,1.5-2.3,1.4-2.2,2.9-4.4,4.5-6.6,1.7-2.2,3.7-4.2,5.8-6,1.2-.9,2.5-1.6,3.8-2.3,1.4-.5,2.8-.9,4.3-1.2,3-.3,5.6-.1,8.4,1.1,16.3,7.3,20.5,25.2,18.9,41.6-.3,1.9-.8,3.8-1.5,5.7-2.6,5.8-6,11.3-9.8,16.4-5.9,7.5-12.9,14.1-20.4,20-5.1,3.9-10.4,7.4-15.9,10.8,0-.2,0-.4-.2-.6-.5-1.6-1.5-3.3-3.1-4.1-8-4-15.9-8.4-23.2-13.4-1.9-1.3-3.8-2.7-5.7-4.1-5.3-4.1-10.2-8.8-14.3-14-2.4-3-4.2-6.7-6-10.1-1.5-2.7-2.9-5.4-3.7-8.3-1-3.7-.9-7.7-.7-11.6Z"/>
</svg>