<?xml version="1.0" encoding="utf-8"?>
<!-- Generator: Adobe Illustrator 26.4.1, SVG Export Plug-In . SVG Version: 6.00 Build 0)  -->
<svg version="1.1" id="Layer_1" xmlns="http://www.w3.org/2000/svg" xmlns:xlink="http://www.w3.org/1999/xlink" x="0px" y="0px"
	 viewBox="0 0 122.55 145.53" style="enable-background:new 0 0 122.55 145.53;" xml:space="preserve">
<style type="text/css">
	.st0{fill:url(#SVGID_1_);}
	.st1{fill:url(#SVGID_00000172422818139400870290000010953690236078362792_);}
	.st2{fill:#F9F9FA;}
	.st3{fill:#D8D9D8;}
	
		.st4{clip-path:url(#SVGID_00000134217124624034368820000015962178164665673902_);fill:url(#SVGID_00000078766938018743813770000012396788124879822508_);}
	.st5{fill:#121111;}
	.st6{fill:#F6EA12;}
	.st7{fill:#1D9849;}
	.st8{fill:#F7C047;}
	.st9{fill:#DC2427;}
	.st10{fill:#288AC7;}
	
		.st11{clip-path:url(#SVGID_00000122704163946582963330000016435987777078640060_);fill:url(#SVGID_00000094605295356521632810000003320265815206846336_);}
	
		.st12{clip-path:url(#SVGID_00000034798719103526308270000011580836374857215673_);fill:url(#SVGID_00000067921892125085202750000017105149465354758315_);}
	
		.st13{clip-path:url(#SVGID_00000097470725155218080500000013794801544597727365_);fill:url(#SVGID_00000072248310174002021660000005533054327546951308_);}
	.st14{fill:#9B6B3A;}
	.st15{fill:none;stroke:#9B6B3A;stroke-width:0.4622;stroke-miterlimit:10;}
	
		.st16{clip-path:url(#SVGID_00000082358691067877341290000016807844031283276471_);fill:url(#SVGID_00000135658749018917155200000004842107137505741189_);}
	
		.st17{clip-path:url(#SVGID_00000159435990147844043800000015443626941309331085_);fill:url(#SVGID_00000175317695185995416210000003282003772576814754_);}
	
		.st18{clip-path:url(#SVGID_00000173141731167658039580000010988730882922329516_);fill:url(#SVGID_00000112626944514039953980000005506813456667558330_);}
	.st19{fill:#FFFFFF;}
	.st20{fill:none;}
	.st21{fill:url(#SVGID_00000153676030734368722130000015754884353039744417_);}
	.st22{fill:url(#SVGID_00000090987427996151969540000011916463461640168591_);}
	.st23{fill:url(#SVGID_00000164472792664030174690000011636403070414998421_);}
	.st24{fill:url(#SVGID_00000134958324134083873350000015615169450831030404_);}
	.st25{fill:url(#SVGID_00000060709102985940165210000011310124907139883923_);}
	.st26{fill:url(#SVGID_00000037662720265419242210000006116383139438648714_);}
	.st27{fill:url(#SVGID_00000090990851125800074030000005537654316719384718_);}
	.st28{fill:url(#SVGID_00000009573050535517511520000012299221081148551848_);}
	.st29{fill:url(#SVGID_00000042715411294635362720000018006330391701661595_);}
	.st30{fill:url(#SVGID_00000143581507777983437340000009537564278885764263_);}
	.st31{fill:url(#SVGID_00000003783657428669090410000014379044996526142612_);}
	.st32{fill:url(#SVGID_00000062885284164119567930000016382449429497943467_);}
	.st33{fill:url(#SVGID_00000096776087347268100220000015960527299111253905_);}
	.st34{fill:url(#SVGID_00000183930940705509102910000006206366242595655344_);}
	.st35{fill:url(#SVGID_00000173162092601570786200000002545954185467725456_);}
	.st36{fill:url(#SVGID_00000168092857157777445340000013653049524430623126_);}
	.st37{fill:url(#SVGID_00000023990302390849927100000004999848908234768829_);}
	.st38{fill:url(#SVGID_00000170986998027694098750000014103226941363372713_);}
	.st39{fill:url(#SVGID_00000163775725551822169010000005786264128138564255_);}
	.st40{fill:url(#SVGID_00000183960647588754843120000007941089532173776044_);}
	.st41{fill:url(#SVGID_00000161629562845744794740000015288178522448397978_);}
	.st42{fill:url(#SVGID_00000032648698453588852640000017647104777347356089_);}
	.st43{fill:url(#SVGID_00000035528054682492100550000016141774239865275579_);}
	.st44{fill:url(#SVGID_00000018915619308264531040000018210135558562765976_);}
	.st45{fill:url(#SVGID_00000111166194680389291630000005392641373318069157_);}
	
		.st46{clip-path:url(#SVGID_00000080169910329159741800000017682507140135772808_);fill:url(#SVGID_00000087389782096320201040000005363479108714622124_);}
	.st47{fill:#179BD7;}
	.st48{fill:none;stroke:#2A2D44;stroke-width:1.1907;stroke-miterlimit:10;}
	.st49{fill:#121C47;}
	.st50{fill:#CAE7F9;}
	.st51{fill:#E01F26;}
</style>
<g>
	<path class="st19" d="M28.57,98h69.61V20.08H28.57V98z M94.31,94.13H32.44V23.94h61.87V94.13z M44.33,61.65
		c5.29,0,8.03-3.02,8.03-8.32v-7.37c0-4.87-2.01-7.56-5.97-7.56c-2.16,0-3.72,0.85-4.7,2.41l0.44-7.89h9.35v-4.73h-14.2l-0.98,19.19
		h5.09v-0.99c0-2.36,1.08-3.26,2.79-3.26c1.71,0,2.79,0.9,2.79,3.26v7.28c0,2.36-1.08,3.21-2.79,3.21c-1.71,0-2.79-0.85-2.79-3.21
		v-3.07h-5.09v2.74C36.31,58.62,39.05,61.65,44.33,61.65 M62.69,61.65c5.29,0,8.03-3.02,8.03-8.32v-2.6c0-3.36-1.08-5.81-3.77-6.95
		c2.6-1.04,3.77-3.26,3.77-6.8v-0.85c0-5.29-2.74-8.32-8.03-8.32c-5.29,0-8.03,3.02-8.03,8.32v1.8h5.09v-2.13
		c0-2.36,1.08-3.26,2.79-3.26c1.71,0,2.79,0.8,2.79,3.78v1.84c0,2.65-1.22,3.5-3.23,3.5H60v4.73h1.81c2.45,0,3.52,1.13,3.52,4.2v2.6
		c0,2.93-1.08,3.73-2.79,3.73c-1.71,0-2.79-0.9-2.79-3.26v-3.07h-5.09v2.74C54.66,58.62,57.4,61.65,62.69,61.65 M82.37,61.27h5.38
		v-6h2.69v-4.73h-2.69V28.19h-5.87l-9.79,22.35v4.73h10.28V61.27z M77.03,50.54l5.34-12.24v12.24H77.03z M78,65.51
		c-6.83,0-12.37,5.54-12.37,12.38c0,6.83,5.54,12.37,12.37,12.37c6.84,0,12.38-5.54,12.38-12.37C90.38,71.05,84.84,65.51,78,65.51
		 M48.75,65.51c-6.84,0-12.38,5.54-12.38,12.38c0,6.83,5.54,12.37,12.38,12.37c6.83,0,12.38-5.54,12.38-12.37
		C61.13,71.05,55.59,65.51,48.75,65.51"/>
	<polygon class="st19" points="32.55,108.49 30.23,108.49 30.23,112.23 32.87,112.23 32.87,113.23 29.17,113.23 29.17,103.26 
		32.7,103.26 32.7,104.25 30.23,104.25 30.23,107.53 32.55,107.53 	"/>
	<path class="st19" d="M34.03,113.23v-9.97h1l1.7,4.67c0.38,1.07,0.86,2.4,1.18,3.48h0.03c-0.08-1.57-0.12-2.85-0.12-4.58v-3.56
		h0.95v9.97h-1l-1.76-4.79c-0.37-1.01-0.77-2.15-1.1-3.39h-0.03c0.08,1.33,0.11,2.6,0.11,4.73v3.45H34.03z"/>
	<polygon class="st19" points="41.5,104.28 39.81,104.28 39.81,103.26 44.25,103.26 44.25,104.28 42.56,104.28 42.56,113.23 
		41.5,113.23 	"/>
	<polygon class="st19" points="48.66,108.49 46.34,108.49 46.34,112.23 48.98,112.23 48.98,113.23 45.28,113.23 45.28,103.26 
		48.81,103.26 48.81,104.25 46.34,104.25 46.34,107.53 48.66,107.53 	"/>
	<path class="st19" d="M50.14,103.41c0.45-0.13,1-0.19,1.52-0.19c0.92,0,1.61,0.21,2.09,0.71c0.46,0.5,0.65,1.17,0.65,1.95
		c0,1.27-0.55,2.1-1.48,2.56v0.03c0.69,0.22,1.04,0.93,1.25,2.23c0.21,1.38,0.4,2.22,0.52,2.53h-1.07c-0.14-0.3-0.32-1.24-0.5-2.47
		c-0.21-1.36-0.6-1.88-1.51-1.88H51.2v4.35h-1.06V103.41z M51.2,108.01h0.44c1.02,0,1.69-0.8,1.69-2c0-1.15-0.44-1.86-1.58-1.88
		c-0.21,0-0.41,0.02-0.55,0.06V108.01z"/>
	<polygon class="st19" points="56.69,104.28 55.01,104.28 55.01,103.26 59.44,103.26 59.44,104.28 57.75,104.28 57.75,113.23 
		56.69,113.23 	"/>
	<path class="st19" d="M60.96,110.24l-0.62,2.99h-1.02l2.12-9.97h1.17l2.06,9.97h-1.04l-0.62-2.99H60.96z M62.88,109.32l-0.48-2.53
		c-0.14-0.71-0.26-1.54-0.37-2.28h-0.06c-0.11,0.75-0.25,1.61-0.37,2.28l-0.48,2.53H62.88z"/>
	<rect x="65.83" y="103.26" class="st19" width="1.06" height="9.97"/>
	<path class="st19" d="M68.56,113.23v-9.97h1l1.7,4.67c0.38,1.07,0.86,2.4,1.18,3.48h0.03c-0.08-1.57-0.12-2.85-0.12-4.58v-3.56
		h0.95v9.97h-1l-1.76-4.79c-0.37-1.01-0.77-2.15-1.1-3.39h-0.03c0.08,1.33,0.11,2.6,0.11,4.73v3.45H68.56z"/>
	<path class="st19" d="M80.55,108.94c-0.07-1.32-0.14-2.78-0.1-3.9H80.4c-0.2,1.11-1.88,5.67-1.88,5.67h-0.67
		c0,0-1.66-4.52-1.84-5.67h-0.04c0,1.17-0.05,2.56-0.11,3.98l-0.18,4.21h-0.95l0.55-9.97h1.14c0,0,1.63,4.38,1.83,5.52h0.04
		c0.18-1.14,1.73-5.52,1.73-5.52h1.18l0.54,9.97h-0.99L80.55,108.94z"/>
	<polygon class="st19" points="86.55,108.49 84.23,108.49 84.23,112.23 86.87,112.23 86.87,113.23 83.17,113.23 83.17,103.26 
		86.7,103.26 86.7,104.25 84.23,104.25 84.23,107.53 86.55,107.53 	"/>
	<path class="st19" d="M88.03,113.23v-9.97h1l1.7,4.67c0.38,1.07,0.86,2.4,1.18,3.48h0.03c-0.08-1.57-0.12-2.85-0.12-4.58v-3.56
		h0.95v9.97h-1l-1.76-4.79c-0.37-1.01-0.77-2.15-1.1-3.39h-0.03c0.08,1.33,0.11,2.6,0.11,4.73v3.45H88.03z"/>
	<polygon class="st19" points="95.51,104.28 93.82,104.28 93.82,103.26 98.25,103.26 98.25,104.28 96.56,104.28 96.56,113.23 
		95.51,113.23 	"/>
</g>
</svg>
