<?xml version="1.0" encoding="UTF-8"?>
<svg id="Layer_1" xmlns="http://www.w3.org/2000/svg" version="1.1" xmlns:xlink="http://www.w3.org/1999/xlink" viewBox="0 0 152 153">
  <!-- Generator: Adobe Illustrator 29.4.0, SVG Export Plug-In . SVG Version: 2.1.0 Build 152)  -->
  <defs>
    <style>
      .st0 {
        fill: #f9f9fa;
      }

      .st1 {
        fill: #dc2427;
      }

      .st2 {
        fill: none;
      }

      .st3 {
        fill: #1d9849;
      }

      .st4 {
        fill: #f6ea12;
      }

      .st5 {
        fill: #288ac7;
      }

      .st6 {
        fill: url(#Degradado_sin_nombre);
      }

      .st7 {
        fill: #f7c047;
      }

      .st8 {
        fill: #d8d9d8;
      }

      .st9 {
        clip-path: url(#clippath);
      }

      .st10 {
        fill: #121111;
      }
    </style>
    <clipPath id="clippath">
      <ellipse class="st2" cx="76" cy="76.5" rx="67.4" ry="67.6"/>
    </clipPath>
    <linearGradient id="Degradado_sin_nombre" data-name="Degradado sin nombre" x1="1033.8" y1="-295.1" x2="1034.9" y2="-295.1" gradientTransform="translate(-123061.4 35207.7) scale(119.1)" gradientUnits="userSpaceOnUse">
      <stop offset="0" stop-color="#d29441"/>
      <stop offset="0" stop-color="#b47d37"/>
      <stop offset=".2" stop-color="#92632b"/>
      <stop offset=".2" stop-color="#7b5122"/>
      <stop offset=".3" stop-color="#6e471d"/>
      <stop offset=".4" stop-color="#6a441b"/>
      <stop offset=".5" stop-color="#6f491e"/>
      <stop offset=".6" stop-color="#815524"/>
      <stop offset=".7" stop-color="#9f6c30"/>
      <stop offset=".8" stop-color="#cc8f40"/>
      <stop offset=".8" stop-color="#ce913f"/>
      <stop offset="1" stop-color="#ddb380"/>
    </linearGradient>
  </defs>
  <path class="st0" d="M151.8,76.5c0,42-33.9,76.1-75.8,76.1S.2,118.5.2,76.5,34.1.4,76,.4c41.9,0,75.8,34.1,75.8,76.1"/>
  <path class="st8" d="M146.1,76.5c0,38.8-31.4,70.3-70.1,70.3S5.9,115.3,5.9,76.5,37.3,6.2,76,6.2s70.1,31.5,70.1,70.3"/>
  <g class="st9">
    <rect class="st6" x="8.6" y="8.9" width="134.7" height="135.3"/>
  </g>
  <path class="st0" d="M135.9,76.5c0,33.2-26.8,60.2-59.9,60.2s-59.9-26.9-59.9-60.2,26.8-60.2,59.9-60.2,59.9,26.9,59.9,60.1"/>
  <path class="st10" d="M33.2,56.4c-.1-1.4.3-2.2,1.3-2.6,1-.3,1.9,0,2.7,1.2.8-.9,2-1.1,2.7-.3.7.8,1.2.6,2,.3.8-.2,1.4.3,1.9.9.5.7.5,1.4,0,2.2,0,.2-.3.3-.4.4.6.4,1.2.7,1.9,1.1.4-2.3,1-4.5,1.8-6.7,1.2-3.1,3.5-5.1,6.7-6.3,2.7-1,5.5-1.5,8.4-1,.7.1.7-.3.8-.8.7-3.3,2.2-6.2,5.3-8,3.2-1.8,7-1.5,9.8.9,2.7,2.4,4.2,5.4,4.1,9,0,.3,0,.5-.1.8-.3,1-.7,1.2-1.6.6-1.5-.9-3-1.8-4.6-2.4-2.4-1-4.9-1.5-7.4-.1,0,0-.1,0-.2,0-.5.4-1.3.6-1.3,1.2,0,.5.8.6,1.3.8,5.2,2.3,7.4,6.5,7.8,11.9.3,4.7-1.7,8.3-4.9,11.6-2.1,2.2-4.5,3.8-7.5,4.3-3.9.6-7.6.1-11.1-1.8-.3-.2-.6-.4-.9-.4-.1,1.9-.7,3.6-1.7,5.3,1,0,2-.4,2.8,0,2.8,1.2,6.1,1.9,7.2,5.3.9,2.8,1.4,5.7.3,8.6-1.3,3.4-4,5.1-7.5,5.8-.7.1-1.4-.1-2.1-.2-1.6-.2-2.4.6-2.3,2.2,0,1,.2,2.1.2,3.1,0,.2,0,.3,0,.5-.1.6-.2,1.2-1,1.2-.7,0-1.3-.4-1.4-1.2-.3-1.5-.5-3-.7-4.5-.5-3.2-1-6.4-1.5-9.5-.2-1.6-.5-3.2-.7-4.8-5.5,2.3-10.7,1.8-15.6-1.6-3.2-2.2-5-5.5-5.7-9.3-.4-2.3-.3-4.6.3-6.9,0-.3,0-.5-.2-.7-.8-.7-.9-1.6-.6-2.6.3-1,1-1.4,2-1.4.4,0,.3-.2.3-.4,0-1.7.1-2.1,1.6-2.7.3-.2.2-.3.2-.5-.1-2,1-2.9,2.9-2.3.4.1.5,0,.6-.2,1.1-.9,1.7-1,2.8-.2.6.4.9-.3,1.4,0M54.5,51.4c-.1,2.4-1.2,4.2-2.7,5.8-.4.5-.9.9-1.7,1-1.3,0-1.5.4-1.4,1.7.2,2.4.8,4.7,1.7,6.9,1.2,2.8,3.1,4.9,5.7,6.4,4.1,2.3,10,.6,12.4-3.7,2.5-4.4,2.9-9.1,1.7-14-.3-1.2-.6-2.4-1.2-3.6-4,3.1-10.3,3.2-14.6-.5M39,61.4c0,1.8-.8,2.8-2.2,3.1-1.4.4-2.1-.4-2.7-1.8,0,1.9-1.8,3.7-3.3,2.8,0,.2,0,.3,0,.4,0,2-1.5,3.1-3.4,2.7-.7-.2-.5.3-.6.5-.9,5.4,1,9.8,5.5,12.9,5.2,3.7,10.9,1,12.9-4.4,1-2.7,1.1-5.5.8-8.3-.2-2.5-1.1-4.8-2.7-6.9-.2-.3-.3-.5-.8-.2-1.3.8-2.6.4-3.5-.9M46.9,87.6c0,1.9.5,3.6,1.4,4.4.8.8,1.7,1.5,2.7,2.2.8.6,1.8.7,2.8.2,1.3-.5,2.3-1.5,2.9-2.7,1.3-2.6.9-5.1-.5-7.4-1.4-2.4-4.9-3-7-1.3-1.5,1.2-2.4,2.8-2.3,4.6M63.9,45.7c.2.3.6.3.8.5.9.6,1.2,0,1.6-.7.4-.8-.5-.6-.8-.9s-.4-.2-.6-.3c-.2,0-.3-.2-.4,0-.2.4-.4.9-.6,1.4"/>
  <path class="st10" d="M90.9,80.1c1.6.4,2.9-.2,4.2-1.1,1.3-.9,2.9-.9,4.3-.3,1.5.7,3,1.4,4.4,2.2,1.7,1,2.3,2.6,2.6,4.4.4,2.2.7,4.4,0,6.7-1.2,3.6-4.6,5.6-7.8,6.1-.6,0-1.3-.1-1.9-.2-1.5-.2-2.6.9-2.3,2.3.2,1.1.3,2.3.1,3.4-.1.5,0,1.1-.8,1.2-.8.1-1.4-.3-1.5-1-.2-.9-.4-1.9-.5-2.8-.5-3.2-1-6.5-1.5-9.7-.5-3.3-1-6.5-1.5-9.8-.1-.8.3-1.4,1.2-1.5.4,0,.8,0,1.1,0M103.4,88.8c0-1-.2-1.9-.4-2.9-.7-2.8-3.9-4.6-6.4-3.7-2,.7-3.7,3-3.7,5.3,0,1.8.3,3.6,1.8,4.9.6.5,1.1.9,1.7,1.4,1.3,1.1,2.7,1.2,4.1.3,1.9-1.2,3-3,3-5.3"/>
  <path class="st4" d="M68.5,78.5c4.2.3,8.4.5,12.7.8-.4.3-.8.6-.9,1.2-.3,2.7-.6,5.5-.9,8.2,0,.6-.2,1.1-.6,1.5-1.4,1.9-3.4,3-5.7,3.3-1.2.2-2.5.3-3.3-.9-.5-.8-.8-1.6-.8-2.6.1-2.9.2-5.9.3-8.8,0-1,0-2-.8-2.7"/>
  <path class="st10" d="M68.5,78.5c.9.7.9,1.7.8,2.7-.1,2.9-.2,5.9-.3,8.8,0,1,.3,1.8.8,2.6.8,1.2,2.1,1.1,3.3.9,2.3-.4,4.3-1.4,5.7-3.3.3-.4.5-.9.6-1.5.3-2.7.6-5.5.9-8.2,0-.6.5-.9.9-1.2,1.2,0,2.1.8,2,2-.3,3.5-.6,7.1-1,10.6,0,1.1-.2,2.2-.3,3.3-.2,1.4-1.3,1.9-2.4,1.1-1.2-.9-2.4-.8-3.7-.4-1,.3-1.8.8-2.9.9-2.4.4-4.3-.5-5.8-2.1-1-1.1-1-2.5-.9-3.9,0-3.3.3-6.6.2-9.9,0-.8.2-1.4.7-2,.4-.5.9-.8,1.6-.5"/>
  <path class="st10" d="M117.1,82.3c-.6-.9-.4-1.4.6-2,1.6-.9,5.2-.1,6.3,1.4.2.3.4.7.3,1.1-.3,3.4-.5,6.9-.5,10.4s.4,1.8,1.3,2.2c.5.3,1,.5,1.4.8.5.3.9.7.8,1.3,0,.6-.6.7-1.1.8-2.7.7-5.4.6-8.1,0-1.6-.4-2.1-1.2-1.7-2.5.4-.4,1-.4,1.5-.6,2-.7,2.4-1.3,2.5-3.3,0-1.7.3-3.5.5-5.2.2-1.7,0-2.6-1.1-3.2-.9-.5-1.8-.9-2.7-1.3"/>
  <path class="st3" d="M117.1,82.3c.9.4,1.8.8,2.7,1.3,1.1.6,1.4,1.5,1.1,3.2-.2,1.7-.4,3.5-.5,5.2-.1,2-.5,2.6-2.5,3.3-.5.2-1.1.2-1.5.6,0-2.7.2-5.3.4-7.9,0-1.9,0-3.8.3-5.6"/>
  <path class="st10" d="M122.9,71.8c1.2.6,1.6,1.3,1.4,2.3-.1,1-.8,1.7-1.8,1.9-.7.1-1.3-.3-1.9-.4,0-.5-.4-.7-.5-1.2-.4-1.7.9-3,2.8-2.6"/>
  <path class="st3" d="M122.9,71.8c-1.9-.3-3.1.9-2.8,2.6,0,.4.6.7.5,1.2-1.9-.6-2.6-2.3-1.6-3.7.9-1.2,3.1-1.2,3.8,0"/>
  <path class="st7" d="M54.5,51.4c4.3,3.7,10.6,3.7,14.6.5.6,1.2.9,2.4,1.2,3.6,1.2,4.9.8,9.6-1.7,14-2.5,4.3-8.3,6-12.4,3.7-2.6-1.5-4.5-3.6-5.7-6.4-.9-2.2-1.5-4.5-1.7-6.9,0-1.2.2-1.6,1.4-1.7.7,0,1.2-.5,1.7-1,1.4-1.6,2.6-3.5,2.7-5.8M58.5,68.4c.7,0,1.4,0,2.2-.2,3.5-.7,4.9-3.3,5.9-6.3.2-.7,0-1.3-.7-1.6s-1.4-.1-1.8.6c-.4.7-.7,1.4-1.1,2.1-.6,1.2-1.6,2.1-3,2.3-1.5.2-2.9.2-4.3-.5-.9-.5-1.6-.3-2,.4-.4.7-.2,1.4.7,2,1.2.9,2.7,1.1,4.2,1.2M60,61.1c1,0,1.8-.7,1.8-1.6,0-.9-.8-1.7-1.8-1.7s-1.8.7-1.8,1.6c0,.9.7,1.6,1.7,1.7M57.3,60.5c0-.9-.8-1.6-1.8-1.6-1,0-1.7.7-1.7,1.6,0,.9.8,1.6,1.8,1.6,1,0,1.7-.7,1.7-1.6"/>
  <path class="st7" d="M39,61.4c.9,1.4,2.2,1.7,3.5.9.5-.3.6,0,.8.2,1.5,2.1,2.4,4.4,2.7,6.9.3,2.8.2,5.6-.8,8.3-2,5.4-7.7,8-12.9,4.4-4.5-3.1-6.3-7.5-5.5-12.9,0-.2,0-.7.6-.5,1.9.5,3.4-.7,3.4-2.7,0-.1,0-.3,0-.4,1.5.8,3.3-.9,3.3-2.8.6,1.3,1.3,2.2,2.7,1.8,1.4-.4,2.1-1.4,2.2-3.1M36.9,78.5c.9,0,1.7,0,2.5-.2,1.4-.4,2.8-.8,3.6-2.1.3-.5.5-1,0-1.5-.4-.5-.9-.7-1.6-.4-.5.2-.9.4-1.3.8-.3.3-.7.4-1.1.5-2.2.4-4.2,0-5.6-1.8-.5-.6-.9-1.3-1.4-1.9-.6-.7-1.1-.7-1.9-.3-.7.4-.9,1-.6,1.7,1.6,3.1,3.8,5.5,7.4,5.3M42.2,69.5c0-.9-.7-1.6-1.7-1.7-1,0-1.8.7-1.8,1.6,0,.9.8,1.7,1.7,1.7,1,0,1.8-.7,1.8-1.6M35.8,67.7c-1,0-1.7.7-1.7,1.6,0,.9.7,1.7,1.7,1.7.9,0,1.8-.8,1.8-1.7,0-.9-.8-1.6-1.8-1.6"/>
  <path class="st1" d="M46.9,87.6c-.1-1.8.8-3.4,2.3-4.6,2.1-1.7,5.6-1.1,7,1.3,1.4,2.3,1.8,4.9.5,7.4-.6,1.2-1.6,2.2-2.9,2.7-1,.4-2,.3-2.8-.2-.9-.7-1.8-1.4-2.7-2.2-.9-.8-1.4-2.6-1.4-4.4"/>
  <path class="st1" d="M63.9,45.7c.2-.5.4-1,.6-1.5,0-.2.3-.1.4,0,.2.1.5.2.6.3.2.3,1.2.1.8.9-.3.6-.7,1.2-1.6.7-.3-.2-.7-.1-.8-.4"/>
  <path class="st5" d="M103.4,88.8c0,2.3-1,4.1-3,5.3-1.4.9-2.8.7-4.1-.3-.6-.5-1.1-.9-1.7-1.4-1.5-1.3-1.8-3.1-1.8-4.9,0-2.3,1.7-4.6,3.7-5.3,2.6-.8,5.7.9,6.4,3.7.3.9.4,1.9.4,2.9"/>
  <path class="st10" d="M58.5,68.4c-1.5,0-3-.3-4.2-1.2-.9-.7-1.1-1.3-.7-2,.5-.7,1.1-.9,2-.4,1.4.7,2.8.7,4.3.5,1.4-.2,2.4-1,3-2.3.4-.7.7-1.4,1.1-2.1.4-.7,1-.9,1.8-.6.8.3.9.9.7,1.6-1,2.9-2.4,5.6-5.9,6.3-.7.2-1.4.3-2.2.2"/>
  <path class="st10" d="M60,61.1c-1,0-1.7-.7-1.7-1.7,0-.9.8-1.6,1.8-1.6s1.8.8,1.8,1.7c0,.9-.8,1.6-1.8,1.6"/>
  <path class="st10" d="M57.3,60.5c0,1-.7,1.6-1.7,1.6s-1.8-.7-1.8-1.6.8-1.6,1.7-1.6c1.1,0,1.8.6,1.8,1.6"/>
  <path class="st10" d="M36.9,78.5c-3.5.2-5.8-2.2-7.4-5.3-.3-.7-.2-1.3.6-1.7.8-.5,1.3-.4,1.9.3.5.6.9,1.3,1.4,1.9,1.4,1.9,3.4,2.3,5.6,1.8.4,0,.8-.3,1.1-.5.4-.3.8-.6,1.3-.8.7-.3,1.2,0,1.6.4.5.5.3,1,0,1.5-.9,1.2-2.2,1.7-3.6,2.1-.8.2-1.6.2-2.5.2"/>
  <path class="st10" d="M42.2,69.6c0,.9-.8,1.6-1.8,1.6-1,0-1.8-.8-1.7-1.7,0-.9.8-1.6,1.8-1.6,1,0,1.7.7,1.7,1.7"/>
  <path class="st10" d="M35.8,67.7c1,0,1.8.7,1.8,1.6,0,.9-.8,1.7-1.8,1.7-1,0-1.8-.7-1.7-1.7,0-.9.7-1.6,1.7-1.6"/>
</svg>