<?xml version="1.0" encoding="UTF-8"?>
<svg id="Layer_1" xmlns="http://www.w3.org/2000/svg" version="1.1" xmlns:xlink="http://www.w3.org/1999/xlink" viewBox="0 0 490 452">
  <!-- Generator: Adobe Illustrator 29.4.0, SVG Export Plug-In . SVG Version: 2.1.0 Build 152)  -->
  <defs>
    <style>
      .st0 {
        fill: url(#Degradado_sin_nombre_24);
      }

      .st1 {
        fill: url(#Degradado_sin_nombre_28);
      }

      .st2 {
        fill: none;
      }

      .st3 {
        fill: url(#Degradado_sin_nombre_32);
      }

      .st4 {
        fill: url(#Degradado_sin_nombre_23);
      }

      .st5 {
        fill: url(#Degradado_sin_nombre_241);
      }

      .st6 {
        fill: url(#Degradado_sin_nombre_27);
      }

      .st7 {
        fill: url(#Degradado_sin_nombre_29);
      }
    </style>
    <linearGradient id="Degradado_sin_nombre_32" data-name="Degradado sin nombre 32" x1="73" y1="461.8" x2="476.5" y2="354" gradientUnits="userSpaceOnUse">
      <stop offset="0" stop-color="#dcb27e"/>
      <stop offset=".3" stop-color="#d39c53"/>
      <stop offset=".3" stop-color="#b57e36"/>
      <stop offset=".4" stop-color="#92642a"/>
      <stop offset=".4" stop-color="#7b5222"/>
      <stop offset=".5" stop-color="#6e481d"/>
      <stop offset=".5" stop-color="#6a451b"/>
      <stop offset=".6" stop-color="#6f4a1e"/>
      <stop offset=".7" stop-color="#815624"/>
      <stop offset=".8" stop-color="#9f6d2f"/>
      <stop offset=".9" stop-color="#cb8e3d"/>
      <stop offset=".9" stop-color="#ce903d"/>
      <stop offset="1" stop-color="#dcb27e"/>
    </linearGradient>
    <linearGradient id="Degradado_sin_nombre_29" data-name="Degradado sin nombre 29" x1="-10.6" y1="358.1" x2="355.3" y2="289.4" gradientUnits="userSpaceOnUse">
      <stop offset="0" stop-color="#6a451b"/>
      <stop offset=".1" stop-color="#b57e36"/>
      <stop offset=".2" stop-color="#dcb27e"/>
      <stop offset=".6" stop-color="#d9aa6f"/>
      <stop offset=".8" stop-color="#ce903d"/>
      <stop offset=".8" stop-color="#cb8e3d"/>
      <stop offset=".9" stop-color="#9f6d2f"/>
      <stop offset="1" stop-color="#6f4a1e"/>
    </linearGradient>
    <linearGradient id="Degradado_sin_nombre_28" data-name="Degradado sin nombre 28" x1="123.7" y1="253.3" x2="408.9" y2="147.8" gradientUnits="userSpaceOnUse">
      <stop offset="0" stop-color="#d1933f"/>
      <stop offset="0" stop-color="#b57e36"/>
      <stop offset="0" stop-color="#92642a"/>
      <stop offset=".2" stop-color="#7b5222"/>
      <stop offset=".3" stop-color="#6e481d"/>
      <stop offset=".4" stop-color="#6a451b"/>
      <stop offset=".5" stop-color="#6f4a1e"/>
      <stop offset=".6" stop-color="#815624"/>
      <stop offset=".7" stop-color="#9f6d2f"/>
      <stop offset=".8" stop-color="#cb8e3d"/>
      <stop offset=".8" stop-color="#ce903d"/>
      <stop offset="1" stop-color="#dcb27e"/>
    </linearGradient>
    <linearGradient id="Degradado_sin_nombre_23" data-name="Degradado sin nombre 23" x1="1837" y1="533" x2="1839.4" y2="533" gradientTransform="translate(-80200.7 46949) rotate(-14) scale(48.7 -48.7)" gradientUnits="userSpaceOnUse">
      <stop offset="0" stop-color="#d1933f"/>
      <stop offset="0" stop-color="#b57e36"/>
      <stop offset="0" stop-color="#92642a"/>
      <stop offset=".2" stop-color="#7b5222"/>
      <stop offset=".3" stop-color="#6e481d"/>
      <stop offset=".4" stop-color="#6a451b"/>
      <stop offset=".5" stop-color="#6f4a1e"/>
      <stop offset=".6" stop-color="#815624"/>
      <stop offset=".7" stop-color="#9f6d2f"/>
      <stop offset=".8" stop-color="#cb8e3d"/>
      <stop offset=".8" stop-color="#ce903d"/>
      <stop offset="1" stop-color="#dcb27e"/>
    </linearGradient>
    <linearGradient id="Degradado_sin_nombre_24" data-name="Degradado sin nombre 24" x1="321.9" y1="121.9" x2="322.1" y2="121.9" gradientUnits="userSpaceOnUse">
      <stop offset="0" stop-color="#d1933f"/>
      <stop offset="0" stop-color="#b57e36"/>
      <stop offset="0" stop-color="#92642a"/>
      <stop offset=".2" stop-color="#7b5222"/>
      <stop offset=".3" stop-color="#6e481d"/>
      <stop offset=".4" stop-color="#6a451b"/>
      <stop offset=".5" stop-color="#6f4a1e"/>
      <stop offset=".6" stop-color="#815624"/>
      <stop offset=".7" stop-color="#9f6d2f"/>
      <stop offset=".8" stop-color="#cb8e3d"/>
      <stop offset=".8" stop-color="#ce903d"/>
      <stop offset="1" stop-color="#dcb27e"/>
    </linearGradient>
    <linearGradient id="Degradado_sin_nombre_241" data-name="Degradado sin nombre 24" x1="322.6" y1="111.7" x2="431.5" y2="111.7" xlink:href="#Degradado_sin_nombre_24"/>
    <linearGradient id="Degradado_sin_nombre_27" data-name="Degradado sin nombre 27" x1="273" y1="-39.5" x2="409" y2="-103.1" gradientTransform="translate(0 168)" gradientUnits="userSpaceOnUse">
      <stop offset=".2" stop-color="#b77f39"/>
      <stop offset=".3" stop-color="#9b6a2e"/>
      <stop offset=".5" stop-color="#69431b"/>
      <stop offset=".7" stop-color="#70481d"/>
      <stop offset="1" stop-color="#b77f39"/>
    </linearGradient>
  </defs>
  <path class="st2" d="M289.7,112.7c1.8,3.3,3.6,7.1,6,10.1,4.2,5.3,9.1,9.9,14.3,14,1.9,1.4,3.8,2.8,5.7,4.1,7.4,5,15.3,9.4,23.2,13.4,1.6.8,2.6,2.4,3.1,4.1,0,.2.1.4.2.6,5.5-3.4,10.8-6.9,15.9-10.8,7.5-5.9,14.5-12.5,20.4-20,3.8-5.1,7.2-10.6,9.8-16.4.7-1.8,1.2-3.7,1.5-5.7,1.6-16.4-2.6-34.3-18.9-41.6-2.8-1.2-5.4-1.4-8.4-1.1-1.5.3-2.9.6-4.3,1.2-1.3.6-2.6,1.4-3.8,2.3-2.2,1.8-4.1,3.8-5.8,6-1.6,2.1-3,4.3-4.5,6.6-.4.9-1,1.8-1.5,2.3-.9.8-2,1.4-3.1,1.8-.5.2-1.1.2-1.6.2-.9.4-1.8.6-2.8.6s-1.1,0-1.7-.2c-1.4-.3-2.7-1.3-3.5-2.4h0s0,0-.1-.2c-.4-.4-.6-.9-.9-1.5h0c-1.6-2.7-3.3-5.4-5.2-8-1.5-1.8-3.1-3.5-4.9-5-1-.7-2.1-1.4-3.2-1.9-1.2-.4-2.4-.8-3.7-1-1.9-.2-3.7-.2-5.5,0-13.5,1.3-20.5,16.8-20.9,28.7-.1,3.9-.2,7.8.8,11.6.8,2.9,2.2,5.6,3.7,8.3h-.3ZM382.1,96.9c-2,6.4-6.7,11.7-11.2,16.5-7.6,8-17.1,14.4-28,16.8-8.8,1.9-20.3,3.1-27.1-4-1.3-1.4-1.3-3.4,0-4.8,1.2-1.3,3.6-1.3,4.8,0,.2.2.5.5.7.7,0,0,.2.2.4.3l.2.2s.1,0,.2,0c.2.2.5.3.7.4s.4.2.7.4c.1,0,.3,0,.5.2h0s.1,0,.2,0c.1,0,.2,0,.3,0,.3,0,.5.2.8.3.5.2,1.1.3,1.6.4.3,0,.6,0,.9.2h.2c1.1,0,2.3.2,3.5.2s2.2,0,3.3,0c.5,0,1.1,0,1.6-.2h.8c1.9-.3,3.8-.7,5.7-1.1,1.2-.3,2.4-.6,3.5-1,.6-.2,1.2-.4,1.8-.7h.1c.3,0,.6-.3.9-.4,2.4-1.1,4.7-2.4,6.9-3.9.6-.4,1.1-.8,1.7-1.2.2-.2.5-.3.7-.5s.3-.2.4-.3c1-.8,2-1.6,3-2.4,1.9-1.7,3.8-3.5,5.5-5.5.9-1,1.8-2,2.6-3,.5-.5.9-1.1,1.3-1.6,0,0,.2-.2.2-.3h0c.2-.2.4-.5.5-.7.8-1.1,1.5-2.2,2.2-3.4.2-.3.3-.6.5-.9,0-.2.2-.3.2-.5h0v-.2c0,0,.1-.3.1-.4.1-.3.2-.6.3-.9.5-1.5,1.8-2.5,3.3-2.5s.6,0,.9,0c1.7.4,2.9,2.5,2.3,4.2l.3-.6Z"/>
  <path class="st2" d="M321.7,122.5h0Z"/>
  <path class="st2" d="M321.6,122.4h0s-.1,0-.2,0-.2,0,.1,0h.1Z"/>
  <path class="st3" d="M255.9,378.8c11.9,11.3,7,57.6,6.4,69.7h-20.3c.4-12.1,6.9-57.3-13.9-56.8-8.8-.1-14.4,6.1-14.4,15.4h0c0,0,0,41.3,0,41.3h-19.9c.8-8.1,1.6-19.4,1.4-33.6v-2.8c-.2-9.2-.9-21.8-3.1-37.4,6.7-.6,13.5-1.1,20.3-1.7l1.4,7.9c4.7-6.9,14.3-10.3,22.1-10.3s15.4,2.8,19.9,8.3ZM481.3,437.8h.1c-6.8,9.1-17.9,13.2-35.5,11.9-9.9-.7-18.9-4-23.1-14.6-7.9-20,8.9-31.5,24.9-33.8l20.1-1.7c2.5-16.4-26.7-17-26.6-2h-18.4c-.5-19.1,17-28.3,33.8-28.3s12.8,1.3,17.9,4c20.4,9.4,18.1,49.6,6.8,64.5ZM467.9,414.9h0c-5.2.7-17.9,1-21.4,3.6-6.4,4.9-1.8,13.6,5.5,13.6s1,0,1.5,0c10,.4,15.8-7,14.4-17.1ZM291,383.2l-1.2-10.9h-20.9c.9,10.6,1.5,22.1,1.6,34.3,0,14.8-.5,28.5-1.6,41h22.2c-1-5-2.1-12.2-1.8-20.9h0c.4-11.8.8-21.5,7.3-27.7,7.4-7,18.3-5.6,21.8-5v-21.9c-.5-.2-1.5-.5-3.1-.5-3.8,0-11.1,1.8-24.3,11.6ZM338.6,347.8h-.5c-8.7,0-13,7.2-13,14.4s4.5,14.7,13.5,14.4c8.9.2,13.3-7.1,13.3-14.4s-4.4-14.7-13.3-14.4ZM328.1,413.9c0,12.4-.7,23.6-1.9,33.6h22.2v-65.7h-22.2c1.1,9.6,1.8,20.3,1.9,32.1ZM409.4,409c-5.7-4.2-12.5-5.6-19.1-6.9-4.4-.8-12.3-2.4-12.7-8.3-.1-1.7.5-3.3,1.4-4.7,2.9-4.2,8.3-4.8,12-1.5,2.7,2.4,1.5,7,5,8,4.4,1.2,12.5-2.5,16.6-4.2.2,0,.4-.2.5-.4v-.5c-.2-1.2-.3-2.4-.5-3.5-1.8-12.6-12.7-17.2-24.2-17.2s-8.3.6-12.1,1.7c-1.8.4-3.4.9-4.9,1.5-2.5.9-4.6,2.2-6.4,3.7-2.8,2-5.4,4.4-6.8,7.6-1.1,2.5-1.5,5.4-1.3,8.2-1.1,11.4,5.6,23.5,19.5,24.6,3.8.3,7.7.7,11.2,2.2s9.5,5.6,7.2,10.2c-.8,1.7-2.4,2.9-4,3.7-4.1,2.1-9.2,2.2-13-.4-2.9-2-3.3-5.5-2.8-8.7h-9.8c-2.1,0-7-.9-8.8.5-3.2,2.5-.5,10.1,1.2,12.8,2.9,4.6,7.5,7.8,12.3,9.7,9.9,4,21.9,4,31.7-.3v-.2c14-6,22-27,7.8-37.6ZM96.7,410.9c-5.7-4.2-12.4-5.6-19.1-6.9-4.4-.8-12.3-2.4-12.7-8.3-.1-1.7.5-3.3,1.4-4.7,2.9-4.2,8.3-4.8,12-1.5,2.7,2.4,1.5,7,5,8,4.4,1.2,12.5-2.5,16.6-4.2.2,0,.4-.2.5-.4v-.5c-.2-1.2-.3-2.4-.5-3.5-1.8-12.6-12.7-17.2-24.2-17.2s-8.3.6-12.1,1.7c-1.8.4-3.4.9-4.9,1.5-2.4.9-4.6,2.2-6.4,3.7-2.8,2-5.4,4.4-6.8,7.6-1.2,2.5-1.5,5.4-1.3,8.2-1.1,11.4,5.6,23.5,19.5,24.6,3.8.3,7.7.7,11.2,2.2s9.5,5.6,7.2,10.2c-.8,1.7-2.4,2.9-4,3.7-4.1,2.1-9.2,2.2-13-.4-2.9-2-3.3-5.5-2.8-8.7h-9.8c-3.3,0-7-.9-8.8.5-3.2,2.5-.5,10.1,1.2,12.8,2.9,4.6,7.5,7.8,12.3,9.7,9.9,4.1,21.9,4,31.7-.3v-.2c14-6,22-27,7.8-37.6ZM189,409.5c0,22.1-17.8,40-39.9,40s-39.9-17.9-39.9-40,17.9-40,39.9-40,39.9,17.9,39.9,40ZM167.5,409.5c0-10.2-8.2-18.4-18.4-18.4s-18.4,8.3-18.4,18.4,8.3,18.4,18.4,18.4,18.4-8.2,18.4-18.4Z"/>
  <path class="st7" d="M30.6,301.9c-12.3,0-11.3,2.3-15.5,7.7l-.8-6H.2c1.1,8.8,1.9,18.4,2.2,28.7.4,16.2-.6,30.8-2.2,43.5H.2c0,0,15,0,15,0v-28.3c15.9,15.3,40.6,1.4,38.7-20.3,1.5-14.5-11-25.4-23.3-25.4ZM27.2,340.1c-6.1,0-12.3-4-11.9-12-.9-15.9,24.6-16,23.5,0,.5,8-5.5,12-11.6,12ZM146.8,303.5c1.1,0,1.8.3,2.1.4v14.1c-2.4-.4-9.8-1.3-14.8,3.2-4.4,4-4.6,10.2-4.9,17.8v.2c-.2,5.6.5,10.3,1.2,13.5h-15c.7-8.1,1.1-17,1.1-26.5-.1-7.9-.5-15.3-1.1-22.2h14.1l.8,7c8.9-6.3,13.9-7.5,16.5-7.5ZM83.3,303.8c-15,0-27.1,11.5-27.1,25.8s12.1,25.8,27.1,25.8,27.1-11.5,27.1-25.8-12.1-25.8-27.1-25.8ZM83.4,341.5c-6.8,0-12.5-5.3-12.5-11.9s5.6-11.9,12.5-11.9,12.4,5.3,12.4,11.9-5.6,11.9-12.4,11.9ZM259.5,309.2c8,7.1,4.7,36.4,4.3,44h-13.4c.3-7.7,4.6-36.3-9.2-35.9-5.8,0-9.5,3.8-9.5,9.7v26.1h-13.2c.5-5.1,1-12.2.9-21.2v-1.7c-.2-5.8-.7-13.7-2.1-23.6,4.5-.4,9-.7,13.5-1.1l.9,5c3.1-4.3,9.4-6.5,14.6-6.5s10.2,1.7,13.2,5.2ZM211.4,329.1c.2,5.8.7,13.7,2.1,23.6-4.5.4-9,.7-13.5,1.1l-.9-5c-5.9,8.2-21.5,8.7-27.8,1.3-8-7.1-4.7-36.4-4.3-44h13.4c-.3,7.7-4.6,36.3,9.2,35.9,5.8,0,9.5-3.8,9.5-9.7v-26.1h13.2c-.5,5.1-1,12.2-.9,21.2v1.7ZM302.3,305.7c-3.4-1.7-7.6-2.5-11.9-2.5-11.1,0-22.8,5.8-22.4,17.9h12.2c0-9.4,19.3-9.1,17.6,1.2,0,0-13.3,1-13.4,1-10.6,1.5-21.7,8.7-16.5,21.3,2.8,6.7,8.8,8.8,15.3,9.2,11.7.8,19-1.8,23.5-7.4h0c7.5-9.4,9-34.8-4.5-40.7ZM288.5,342.8h-1c-4.9,0-7.9-5.5-3.6-8.6h-.1c2.3-1.6,10.7-1.8,14.2-2.2.9,6.4-2.9,11.1-9.5,10.8Z"/>
  <path class="st1" d="M42.5,168.2v-52h18.3v50.8c0,10.3,5.7,16.2,16,16.2,10.2,0,16.2-6,16.2-16.2l-1.4-50.8h18.3c-2.5,20.9,10.6,69.9-14.9,80.6-21.6,11.4-54.3-1-52.5-28.6ZM156.1,196.1h15.9c.4-9,4.3-43.6-5-52-3.5-4.1-9.5-6.2-15.6-6.2s-13.6,2.6-17.3,7.7h0s-1.1-5.9-1.1-5.9c-5.3.4-10.6.8-15.9,1.3,1.7,11.6,2.3,21,2.4,27.9v2.1c0,10.6-.4,19-1.1,25.1h15.6v-30.9c0-6.9,4.4-11.6,11.3-11.5,16.3-.4,11.2,33.4,10.9,42.4ZM215.7,160.5c1.9-12.3-21-12.6-20.9-1.5h-14.4c-.4-14.3,13.4-21.1,26.5-21.1s10.1,1,14.1,3c16,7,14.1,37,5.3,48.1-5.3,6.7-14,9.8-27.8,8.8-7.7-.5-14.8-3-18.1-10.9-6.2-14.9,6.9-23.5,19.5-25.2l15.8-1.2ZM199.2,174.6h-.1c-5,3.6-1.5,10.1,4.3,10.1h1.2c7.9.4,12.4-5.1,11.3-12.7-4.1.5-14,.7-16.7,2.6ZM286,210.3c-9.3,0-18.9,3.6-24,10.6l-1.6-8.2c-7.4.6-14.8,1.2-22.2,1.8,2.4,16.2,3.2,29.3,3.4,38.9v2.9c.2,14.8-.6,26.5-1.5,35h21.7v-43c0-9.6,6.1-16.1,15.7-16,22.7-.6,15.6,46.5,15.1,59h22.1c.6-12.5,6-60.7-7-72.4-4.9-5.7-13.2-8.6-21.7-8.6ZM389.2,278.4c-7.2,9.1-18.8,13.2-37.4,11.9-10.3-.7-19.9-4.1-24.3-14.7-8.3-20,9.4-31.5,26.3-33.9l21.2-1.7c2.6-16.5-28.2-17-28.1-2h-19.4c-.6-19.3,17.9-28.5,35.6-28.5s13.5,1.4,18.9,4.1h0c21.5,9.4,19,49.8,7.1,64.8ZM375,255.4c-5.5.7-18.8,1-22.5,3.6-6.7,5-1.9,13.7,5.8,13.7s1.1-.1,1.6-.1h-.1c10.6.4,16.6-7,15.2-17.2ZM103.7,235.8c2.6-1.6,5.4-2.4,8.7-2.4s7.4.9,9.8,2.8c2.4,1.8,4,4.7,4.8,8.6h23.8c-.7-10-4.6-18-11.7-23.8-7.1-5.8-16.3-8.8-27.7-8.8s-14.5,1.8-20.4,5.2c-5.9,3.5-10.5,8.3-13.9,14.4-3.4,6.1-5.1,13.1-5.1,21s1.6,15.3,4.9,21.4c3.3,6.1,7.9,10.8,13.9,14.2s13,5.1,21.1,5.1h0c7.2,0,13.6-1.3,19.2-4,5.6-2.8,10.2-6.6,13.6-11.5,3.4-4.9,5.4-10.5,5.9-17h-23.8c-.7,3.8-2.3,6.6-4.8,8.5-2.5,1.9-5.9,2.8-10.1,2.8s-6.3-.8-8.7-2.3c-2.4-1.5-4.2-3.8-5.5-6.7s-1.9-6.4-1.9-10.5.7-7.4,2-10.3c1.3-2.9,3.2-5.1,5.8-6.7ZM211.4,265.6h21.7c-1.3,8.5-5.5,15.3-12.6,20.4-7,5.1-18.7,7.6-26.4,7.6s-14.5-1.7-20.5-5.2-10.7-8.3-14.1-14.4c-3.4-6.1-5.1-13-5.1-21s1.7-15,5-21.1c3.3-6.1,8-10.9,13.9-14.4h-.2c5.9-3.3,12.7-5.1,20.4-5.1s15.1,1.7,20.9,5c5.8,3.3,10.3,8,13.5,14.1s4.8,13.3,4.8,21.7v6l-55.8.3c.7,4.2,2,7.4,4,9.8,2.9,3.4,9.1,5.1,13.6,5.1s8.2-.8,11.2-2.3c3-1.6,4.9-3.7,5.7-6.5ZM177.4,244.9h32.1c0-4-1.4-7.3-4.2-9.7-2.8-2.4-7.4-3.6-11.4-3.6s-7.3.8-9.8,2.3-4.4,3.9-5.6,7.1c-.5,1.2-.8,2.5-1.1,3.9ZM436.4,270.7c-2.8-3.3-6.4-5-10.9-5h-.2c-4,0-7.2,1.4-9.6,4-2.4,2.6-3.6,6-3.6,10.2s1.2,6.2,3.7,8.6c2.5,2.4,5.5,3.5,9.1,3.5s2.7-.2,3.8-.6c.2,0,.5-.2.7-.3-.2,3-1.5,5.5-3.8,7.5-2.6,2.1-5.8,3.6-9.8,4.3v8.5c4.8-.5,9.1-2,12.8-4.5s6.7-5.8,8.8-9.8,3.1-8.5,3.1-13.4-1.4-9.6-4.1-13Z"/>
  <path class="st4" d="M321.7,122.4l-.2-.2s.1,0,.2,0q0,0,0,0h0Z"/>
  <g>
    <path class="st0" d="M321.9,121.8s0,0,0,0c0,0,0,0,0,0Z"/>
    <path class="st5" d="M380.1,92.2l-.4.5h-.9c-1.5,0-2.9.9-3.3,2.5,0,.3-.2.6-.3.9,0,.1-.1.3-.1.4h0v.2c0,.2-.2.3-.2.5,0,.3-.3.6-.5.9-.6,1.2-1.4,2.3-2.2,3.4-.2.2-.4.5-.5.7,0,0-.2.2-.2.3-.4.6-.9,1.1-1.3,1.6-.9,1-1.8,2-2.6,3-1.7,1.9-3.6,3.8-5.5,5.5-1,.9-2,1.7-3,2.4-.1,0-.3.2-.4.3-.2.2-.5.4-.7.5-.5.4-1.1.8-1.7,1.2-2.2,1.5-4.5,2.8-6.9,3.9-.3,0-.6.3-.9.4h0c-.6.2-1.2.5-1.8.7-1.1.4-2.3.7-3.5,1-1.9.5-3.8.9-5.7,1.1h-.8c-.5,0-1.1.1-1.6.2-1.1,0-2.2,0-3.3,0s-2.3,0-3.5-.2h-.2c-.3,0-.6-.1-.9-.2-.5,0-1.1-.2-1.6-.4-.3,0-.6-.2-.8-.3,0,0-.2,0-.3,0,0,0,0,0-.2-.1-.2,0-.3,0-.5-.2-.2-.1-.5-.2-.7-.4-.2,0-.5-.3-.7-.4,0,0,0,0-.2,0-.2-.1-.2-.2-.2-.2-.1,0-.2-.2-.3-.2-.2-.2-.5-.4-.7-.7-1.2-1.3-3.6-1.3-4.8,0-1.3,1.4-1.3,3.4,0,4.8,6.9,7.1,18.4,6,27.1,4,10.9-2.4,20.4-8.8,28-16.8,4.5-4.8,9.3-10.1,11.2-16.5.5-1.7-.6-3.8-2.3-4.2Z"/>
  </g>
  <path class="st6" d="M379.5,92.5l.4-.5c1.7.4,2.7,2.4,2.2,4.2-1.9,6.3-6.6,11.6-11.2,16.5-.6.6-1.2,1.2-1.7,1.7-7.4,7.5-16.5,13.4-26.9,15.7-8.8,1.9-20.3,3.1-27-4l.3-.3c-1.4-1.5-1.4-3.4,0-4.9,0,0,.2,0,.3-.2v-.2c1.3-1.4,3.6-1.4,4.9,0,.2.3.5.5.7.7s.2.2.3.2l.2.2h.2c.2,0,.5.3.7.4.2.2.5.3.7.4.2,0,.3.2.5.2h.5c.2,0,.5.3.8.3.5.2,1.2.3,1.7.4.3,0,.6.2.9.2h.2c1.3.2,2.3.2,3.5.2h3.3c.5,0,1.2-.2,1.7-.2h.8c1.9-.2,3.8-.6,5.7-1.2,1.3-.3,2.3-.6,3.5-1.1.6-.2,1.3-.5,1.8-.7h0c.3,0,.6-.3.9-.4,2.3-1.2,4.7-2.3,6.9-3.9.6-.4,1.3-.8,1.7-1.3.2,0,.5-.3.7-.5,0,0,.3-.2.4-.3,1.1-.7,1.9-1.6,3-2.3,1.6-1.4,3-2.7,4.4-4.3.3-.3.5-.6.8-.9.2-.3.5-.5.7-.8.7-.8,1.5-1.7,2.1-2.4.4-.5.9-1.1,1.4-1.7,0,0,.2-.2.2-.3,0-.2.3-.5.5-.7,0-.2.3-.4.4-.5.5-.8,1.2-1.7,1.7-2.6.2-.3.3-.6.5-.9,0-.2.2-.4.2-.5h0v-.6c0-.3.2-.6.3-.9,0-.4.3-.8.6-1.2.6-1.1,1.7-1.7,2.8-1.7h.9l-.3.4-.4.5ZM321.9,121.7h0ZM378.3,175h0v-.2.2ZM416.3,151.3c0,4.6-.3,9.3-.5,13.9,0,2.6-.4,5.4-.9,8.1-.5,2.4-1.7,5.2-3.5,7s-4.1,2.2-6.1,1.9c-1.2.8-2.4,1.4-3.9,1.4s-3.1-.6-4.3-1.6c-.4-.2-.7-.5-1.1-.8-.4.3-.9.5-1.4.7-1.9.8-4.2.7-5.9-.2-1.1.6-2.2,1.1-3.5,1.1-3,0-6-2.2-6.8-5.2-.3-.7-.3-1.7-.3-2.4,0-1.3,0-2.1.6-3.3.9-7.4,1.1-14.7.6-22,3.6-4.2,6.9-8.4,10-12.8,2.8-3.9,5.7-8,8-12.3,1.2-1.9-1.9-3.6-2.8-1.7-4.2,7.9-9.8,14.9-15.3,21.7-2.7,3.6-5.8,7-9,10.1s-4.2,3.5-6.5,5.4c-1.4,1.1-2.4,1.9-3.6,3.2-.2.2-.4.5-.6.7-4,2.7-8.1,5.4-12.2,7.9-3.3,2-7.6.7-9.6-2.4-.5-.9-.9-1.9-.9-3.1-1.7.3-3.2,0-4.6-.8-6.1-3-12.1-6.2-17.9-9.9-5.5-3.4-10.9-7.2-15.8-11.4-4.7-5.2-9.3-10.4-12.8-16.6-1.2-1.9-4-.2-2.8,1.7,3.9,6.5,9,12.3,14,18-.6,8.3-.6,16.9.4,25.2.5,1.1.5,1.9.5,3.1s0,1.7-.3,2.5c-.7,3-3.6,5-6.4,5s-2.1-.3-3.2-.9c-.4.2-.9.4-1.4.5-1.3.3-2.3.3-3.6,0-.6,0-1.3-.4-1.8-.8-.5.5-1.1,1.1-1.6,1.3-1.1.5-2.1.9-3.4.9s-2.6-.4-3.8-1.3c-2,.2-4.3-.4-5.8-1.9-1.9-2-3-5-3.4-7.7-.4-3-.7-5.9-.8-9v-.3c-.5-11.5-1.1-22.9-1.1-34.5s.6-19.2,1.7-28.7v-1.7c0-2.6,0-5.3.2-7.9.3-5.7.2-11.4.4-17.1.2-6.1.5-12.2.8-18.4.2-5.9.2-11.8.2-17.9s0-11.7.3-17.7c0-1.9.7-3.4,1.9-4.9,1.3-1.4,3-1.9,4.9-1.9s3.6.8,4.9,1.9,2,3.1,1.9,4.9c-.3,3.9-.3,7.7-.3,11.6,3.4-9.6,8.2-18.4,13-27.4,1.8-3.3,6-4.1,9.3-2.3,1.6.8,2.6,2.4,3.1,4.1.5,1.7.2,3.6-.7,5.2-3.4,6.3-6.9,12.7-9.8,19.3-.9,2.2-1.7,4.7-2.4,7,1.7-2.5,3.4-5.1,5.3-7.6,3.5-4.5,7.1-9,11.1-13,3.9-3.9,8.3-7.6,13.2-10.1,3.4-1.8,7.2-.8,9.3,2.3,1.9,3,.7,7.6-2.3,9.3-1.8,1.1-3.5,2-5.1,3.3-5.4,4.4-10,9.7-14.4,15.1-3.1,4.1-5.8,8.3-8.3,12.9,1.7-.8,3.6-1.5,5.5-1.7,2.8-.4,5.5-.4,8.3.2,2.2.5,4.6,1.6,6.6,2.6.7.4,1.3.9,1.7,1.6,2.2,1.2,4.4,2.3,6.3,4,3.2,2.4,5.8,5.7,8.2,9,0,0,.2.2.2.3.9-1.4,1.9-2.5,2.8-3.8,3-3.6,6.4-6.9,10.6-9.2,1.1-.6,2.1-1.2,3.3-1.7.4-.5,1.1-1.1,1.7-1.4,5.4-3,11.3-3.9,17.4-2.6,1.7.4,3.2.9,4.7,1.7-1.8-3.1-3.8-6.1-5.9-9.1-5-6.2-10.3-12.2-16.7-17.3-2.1-1.7-4.6-3.3-7.2-4.5-1.7-.8-2.6-2.4-3.2-4.2-.6-1.8-.2-3.8.7-5.4.8-1.6,2.5-2.6,4.2-3.2,1.9-.5,3.7,0,5.4.7,5.8,2.7,11,7,15.5,11.5,6.3,6.2,12.1,13.3,17.1,20.8-.6-1.9-1.4-3.8-2-5.6-3.3-7.6-7.6-14.7-11.6-21.8-1.9-3.4-.7-7.5,2.4-9.6,1.1-.7,2.2-1.1,3.6-1.1s1.4,0,1.9.2c1.7.4,3.3,1.7,4.2,3.2,3.1,5.5,6.3,10.9,9.2,16.6,1.9,4,3.8,8.2,5.3,12.3,0-4.4,0-8.7-.4-13,0-1.9.9-3.7,2-5,1.4-1.5,3.2-2,5-2s3.8.9,5,2c1.5,1.5,1.9,3.1,2,5,.5,6.6.3,13.5.3,20.2-.2,12.1.8,24.5,1.3,36.6.2,5.5,0,11,.4,16.5v7.2c.5,3.8.8,7.6,1.2,11.4.9,13.3.8,26.5.2,39.8l-.4.3h.2ZM370.7,64.2c-2.7-1.3-5.4-1.5-8.3-1.2-1.6.3-2.8.7-4.3,1.3-1.4.7-2.5,1.5-3.8,2.2-2,1.8-4.1,3.8-5.8,5.9s-3.1,4.4-4.5,6.5c-.4.9-.9,1.8-1.6,2.2-.9.8-1.9,1.5-3.1,1.8-.5.2-1.2.2-1.7.2-.9.4-1.8.6-2.7.6s-1.2,0-1.7-.2c-1.5-.3-2.5-1.4-3.5-2.3v-.2c-.4-.5-.7-1.1-.9-1.6-1.7-2.6-3.3-5.4-5.2-8-1.6-1.8-3.1-3.5-5-5-1.1-.7-2-1.4-3.2-1.9-1.3-.4-2.3-.8-3.7-1.1-1.8-.2-3.7-.2-5.5,0-13.5,1.5-20.5,16.8-20.9,28.6h-.2c-.2,3.8-.3,7.8.7,11.5.8,2.8,2.1,5.6,3.7,8.3,1.8,3.4,3.6,7.1,5.9,10,4.1,5.2,9,9.9,14.2,13.9,1.9,1.5,3.8,2.7,5.7,4.1,7.3,5,15.1,9.4,23.1,13.4s2.5,2.4,3.1,4.1c.2.2.2.4.2.6,5.5-3.4,10.8-6.9,15.8-10.8,7.5-5.9,14.5-12.5,20.4-19.9,3.8-5.1,7.2-10.6,9.8-16.4.7-1.9,1.3-3.8,1.6-5.7,1.7-16.4-2.5-34.2-18.8-41.6v.3h.1ZM297.6,175.7h0v.2-.2Z"/>
</svg>