<?xml version="1.0" encoding="UTF-8"?>
<svg id="Layer_1" xmlns="http://www.w3.org/2000/svg" version="1.1" xmlns:xlink="http://www.w3.org/1999/xlink" viewBox="0 0 248 78">
  <!-- Generator: Adobe Illustrator 29.5.0, SVG Export Plug-In . SVG Version: 2.1.0 Build 137)  -->
  <defs>
    <style>
      .st0 {
        fill: url(#Degradado_sin_nombre_6);
      }

      .st1 {
        fill: url(#Degradado_sin_nombre_5);
      }

      .st2 {
        clip-path: url(#clippath-4);
      }

      .st3 {
        fill: #875d27;
      }

      .st4 {
        stroke: #9b6b3a;
        stroke-miterlimit: 10;
        stroke-width: .5px;
      }

      .st4, .st5 {
        fill: none;
      }

      .st6 {
        fill: url(#Degradado_sin_nombre_4);
      }

      .st7 {
        clip-path: url(#clippath-1);
      }

      .st8 {
        fill: url(#Degradado_sin_nombre_2);
      }

      .st9 {
        clip-path: url(#clippath-5);
      }

      .st10 {
        clip-path: url(#clippath-3);
      }

      .st11 {
        fill: #9b6b3a;
      }

      .st12 {
        fill: url(#Degradado_sin_nombre_3);
      }

      .st13 {
        fill: url(#Degradado_sin_nombre);
      }

      .st14 {
        clip-path: url(#clippath-2);
      }

      .st15 {
        clip-path: url(#clippath);
      }
    </style>
    <clipPath id="clippath">
      <path class="st5" d="M1.5,43v34.7h28.8c-1.6-.8-3-1.8-4.4-2.9H7.5v-31.9H1.5Z"/>
    </clipPath>
    <linearGradient id="Degradado_sin_nombre" data-name="Degradado sin nombre" x1="1114.8" y1="954.1" x2="1117" y2="954.1" gradientTransform="translate(-14466.1 12463.2) scale(13 -13)" gradientUnits="userSpaceOnUse">
      <stop offset="0" stop-color="#d29441"/>
      <stop offset="0" stop-color="#b47d37"/>
      <stop offset=".2" stop-color="#92632b"/>
      <stop offset=".2" stop-color="#7b5122"/>
      <stop offset=".3" stop-color="#6e471d"/>
      <stop offset=".4" stop-color="#6a441b"/>
      <stop offset=".5" stop-color="#6f491e"/>
      <stop offset=".6" stop-color="#815524"/>
      <stop offset=".7" stop-color="#9f6c30"/>
      <stop offset=".8" stop-color="#cc8f40"/>
      <stop offset=".8" stop-color="#ce913f"/>
      <stop offset="1" stop-color="#ddb380"/>
    </linearGradient>
    <clipPath id="clippath-1">
      <path class="st5" d="M242.5,50.8h1.4c.1,0,.3,0,.4.2,0,0,.1.2.1.4s0,.2-.1.3c0,0-.1.2-.3.2h-1.5v-1.2h0ZM241.6,50v4.5h.9v-1.9h.7s.2,0,.3.2c0,0,.2.3.5.7l.7,1h1.1l-.6-.9c-.2-.4-.4-.6-.5-.7-.1-.1-.3-.3-.5-.4.4,0,.7-.2.9-.4.2-.2.3-.5.3-.8s0-.5-.2-.7c-.1-.2-.3-.4-.5-.4s-.6-.1-1.1-.1h-2Z"/>
    </clipPath>
    <linearGradient id="Degradado_sin_nombre_2" data-name="Degradado sin nombre 2" x1="613.6" y1="998" x2="615.8" y2="998" gradientTransform="translate(-898.2 1948.5) scale(1.9 -1.9)" gradientUnits="userSpaceOnUse">
      <stop offset="0" stop-color="#d29441"/>
      <stop offset="0" stop-color="#b47d37"/>
      <stop offset=".2" stop-color="#92632b"/>
      <stop offset=".2" stop-color="#7b5122"/>
      <stop offset=".3" stop-color="#6e471d"/>
      <stop offset=".4" stop-color="#6a441b"/>
      <stop offset=".5" stop-color="#6f491e"/>
      <stop offset=".6" stop-color="#815524"/>
      <stop offset=".7" stop-color="#9f6c30"/>
      <stop offset=".8" stop-color="#cc8f40"/>
      <stop offset=".8" stop-color="#ce913f"/>
      <stop offset="1" stop-color="#ddb380"/>
    </linearGradient>
    <clipPath id="clippath-2">
      <path class="st5" d="M239.7,52.3c0-2.1,1.7-3.7,3.8-3.7s3.8,1.7,3.8,3.7-1.7,3.7-3.8,3.7-3.8-1.7-3.8-3.7M239.1,52.3c0,2.4,2,4.3,4.4,4.3s4.4-1.9,4.4-4.3-2-4.3-4.4-4.3-4.4,1.9-4.4,4.3Z"/>
    </clipPath>
    <linearGradient id="Degradado_sin_nombre_3" data-name="Degradado sin nombre 3" x1="931.3" y1="972.9" x2="933.5" y2="972.9" gradientTransform="translate(-3465.6 3944.1) scale(4 -4)" gradientUnits="userSpaceOnUse">
      <stop offset="0" stop-color="#d29441"/>
      <stop offset="0" stop-color="#b47d37"/>
      <stop offset=".2" stop-color="#92632b"/>
      <stop offset=".2" stop-color="#7b5122"/>
      <stop offset=".3" stop-color="#6e471d"/>
      <stop offset=".4" stop-color="#6a441b"/>
      <stop offset=".5" stop-color="#6f491e"/>
      <stop offset=".6" stop-color="#815524"/>
      <stop offset=".7" stop-color="#9f6c30"/>
      <stop offset=".8" stop-color="#cc8f40"/>
      <stop offset=".8" stop-color="#ce913f"/>
      <stop offset="1" stop-color="#ddb380"/>
    </linearGradient>
    <clipPath id="clippath-3">
      <path class="st5" d="M30.1,52.7c.5-2,1.4-3.8,2.4-5.3,0,0,0-.1,0-.2,1-1.4,2.3-2.5,3.8-3.2,1.3-.7,2.9-1.1,4.6-1.2h.8c2,0,3.8.4,5.4,1.2,1.6.8,2.9,1.9,3.9,3.3,1.1,1.4,1.9,3.2,2.4,5.1.2.9.4,1.8.6,2.8v.3c0,1.1.2,2.2.2,3.4s0,2.9-.3,4.2c0,.8-.3,1.7-.5,2.4-.6,2-1.4,3.8-2.4,5.3,0,0,0,.1,0,.2-1,1.4-2.3,2.5-3.8,3.2-1.3.7-2.9,1.1-4.6,1.2h-.8c-2,0-3.8-.4-5.4-1.2-1.6-.8-2.9-1.9-3.9-3.3-1.1-1.4-1.9-3.2-2.4-5.1-.2-.9-.4-1.8-.6-2.8v-.3c-.1-1.1-.2-2.2-.2-3.4s.1-2.9.3-4.2c.1-.8.3-1.7.5-2.5M41.9,41h0c-1.8,0-3.6.2-5.3.6-1.7.4-3.2,1-4.7,1.8-.4.2-.7.4-1.1.7-.3.1-.6.3-.9.6,0,0-.2,0-.2.2-.4.3-.8.6-1.1.9-.2.2-.4.3-.6.5-1.2,1.1-2.2,2.3-3,3.6-.8,1.3-1.5,2.8-1.9,4.3-.5,1.5-.7,3.1-.7,4.8s0,0,0,.2v.2c0,1.7.2,3.3.7,4.8s1.1,3,1.9,4.3,1.8,2.5,3,3.6c.3.3.7.5,1,.8.3.2.5.4.8.6.1,0,.2,0,.3.2.4.3.8.6,1.3.9.2,0,.3.2.5.3,1.4.8,3,1.4,4.7,1.8,1.7.4,3.4.6,5.3.6s3.6-.2,5.3-.6c1.7-.4,3.2-1,4.7-1.8.4-.2.7-.4,1.1-.7.3-.1.6-.3.9-.5,0,0,.2-.1.2-.2.4-.3.8-.6,1.1-.9.2-.2.4-.3.6-.5,1.2-1.1,2.2-2.3,3-3.6s1.5-2.8,1.9-4.3c.5-1.5.7-3.1.7-4.8s0-.1,0-.2v-.2c0-1.7-.2-3.3-.7-4.8s-1.1-3-1.9-4.3c-.8-1.3-1.8-2.5-3-3.6-.3-.3-.7-.5-1-.8-.3-.2-.5-.4-.8-.6,0,0-.2-.1-.3-.2-.4-.3-.8-.6-1.3-.9-.2,0-.3-.2-.5-.3-1.4-.8-3-1.4-4.7-1.8-1.7-.4-3.4-.6-5.3-.6h0Z"/>
    </clipPath>
    <linearGradient id="Degradado_sin_nombre_4" data-name="Degradado sin nombre 4" x1="1140.7" y1="953.5" x2="1142.9" y2="953.5" gradientTransform="translate(-20099.9 16841.6) scale(17.6 -17.6)" gradientUnits="userSpaceOnUse">
      <stop offset="0" stop-color="#d29441"/>
      <stop offset="0" stop-color="#b47d37"/>
      <stop offset=".2" stop-color="#92632b"/>
      <stop offset=".2" stop-color="#7b5122"/>
      <stop offset=".3" stop-color="#6e471d"/>
      <stop offset=".4" stop-color="#6a441b"/>
      <stop offset=".5" stop-color="#6f491e"/>
      <stop offset=".6" stop-color="#815524"/>
      <stop offset=".7" stop-color="#9f6c30"/>
      <stop offset=".8" stop-color="#cc8f40"/>
      <stop offset=".8" stop-color="#ce913f"/>
      <stop offset="1" stop-color="#ddb380"/>
    </linearGradient>
    <clipPath id="clippath-4">
      <path class="st5" d="M75.2,41.6c-1.8.5-3.4,1.1-4.8,1.9s-2.8,1.8-4,2.9c-1.2,1.1-2.2,2.4-3,3.7,0,.2-.2.4-.3.5,1.1,2.6,1.7,5.4,1.7,8.4s-.6,5.9-1.8,8.6c0,.2.2.4.3.6.8,1.3,1.8,2.6,2.9,3.7,1.2,1.1,2.4,2.1,3.9,2.9,1.4.8,3,1.4,4.8,1.8,1.7.4,3.6.7,5.5.7s3.9-.2,5.5-.7c.5-.2,1-.4,1.5-.5l1.8-3.7c-1,.7-2,1.3-3.1,1.8-1.2.5-2.4.7-3.6.7-2.1,0-4-.4-5.8-1.1s-3.3-1.7-4.7-3.1c-1.3-1.3-2.3-3-3.1-4.9-.8-1.9-1.1-4.1-1.1-6.6s.4-4.6,1.2-6.6c.8-2,1.8-3.6,3.1-5,1.3-1.4,2.9-2.4,4.7-3.1,1.8-.7,3.7-1.1,5.8-1.1s4.5.7,6.3,2,3.5,3.4,5,6.2l2.6-1.7c-.7-1.2-1.6-2.3-2.6-3.4-1-1.1-2.2-2-3.5-2.9-1.3-.9-2.8-1.5-4.4-2s-3.3-.8-5.2-.8-3.8.2-5.6.7h0Z"/>
    </clipPath>
    <linearGradient id="Degradado_sin_nombre_5" data-name="Degradado sin nombre 5" x1="1130.2" y1="955.2" x2="1132.4" y2="955.2" gradientTransform="translate(-16948.9 14386.5) scale(15 -15)" gradientUnits="userSpaceOnUse">
      <stop offset="0" stop-color="#d29441"/>
      <stop offset="0" stop-color="#b47d37"/>
      <stop offset=".2" stop-color="#92632b"/>
      <stop offset=".2" stop-color="#7b5122"/>
      <stop offset=".3" stop-color="#6e471d"/>
      <stop offset=".4" stop-color="#6a441b"/>
      <stop offset=".5" stop-color="#6f491e"/>
      <stop offset=".6" stop-color="#815524"/>
      <stop offset=".7" stop-color="#9f6c30"/>
      <stop offset=".8" stop-color="#cc8f40"/>
      <stop offset=".8" stop-color="#ce913f"/>
      <stop offset="1" stop-color="#ddb380"/>
    </linearGradient>
    <clipPath id="clippath-5">
      <path class="st5" d="M107.4,49.3l6.4,13.7h-13.1l6.6-13.7h0ZM108.2,41.4l-17.1,35.5h3l5.6-11.6h15.2l5.4,11.6h6.1l-16.7-35.5h-1.5Z"/>
    </clipPath>
    <linearGradient id="Degradado_sin_nombre_6" data-name="Degradado sin nombre 6" x1="1135.5" y1="953.1" x2="1137.7" y2="953.1" gradientTransform="translate(-17954.5 15213.1) scale(15.9 -15.9)" gradientUnits="userSpaceOnUse">
      <stop offset="0" stop-color="#d29441"/>
      <stop offset="0" stop-color="#b47d37"/>
      <stop offset=".2" stop-color="#92632b"/>
      <stop offset=".2" stop-color="#7b5122"/>
      <stop offset=".3" stop-color="#6e471d"/>
      <stop offset=".4" stop-color="#6a441b"/>
      <stop offset=".5" stop-color="#6f491e"/>
      <stop offset=".6" stop-color="#815524"/>
      <stop offset=".7" stop-color="#9f6c30"/>
      <stop offset=".8" stop-color="#cc8f40"/>
      <stop offset=".8" stop-color="#ce913f"/>
      <stop offset="1" stop-color="#ddb380"/>
    </linearGradient>
  </defs>
  <g>
    <path class="st3" d="M3.8,16c-1.2-.7-2.1-1.6-2.8-2.8-.7-1.2-1-2.6-1-4.1s.3-2.9,1-4.1c.7-1.2,1.6-2.1,2.8-2.8,1.2-.7,2.5-1,3.9-1s2.8.3,3.9,1c1.2.7,2.1,1.6,2.8,2.8s1,2.6,1,4.1-.3,2.9-1,4.1-1.6,2.1-2.8,2.8-2.5,1-3.9,1-2.7-.3-3.9-1ZM10.7,14.5c.9-.5,1.5-1.2,2-2.2s.7-2,.7-3.2-.2-2.3-.7-3.2-1.2-1.6-2-2.1c-.9-.5-1.8-.8-2.9-.8s-2.1.3-2.9.8c-.9.5-1.5,1.2-2,2.1s-.7,2-.7,3.2.2,2.3.7,3.2,1.2,1.6,2,2.2c.9.5,1.8.8,2.9.8s2.1-.3,2.9-.8Z"/>
    <path class="st3" d="M21.7,5.1c.7-.4,1.5-.6,2.4-.6v2.1h-.5c-2.3,0-3.4,1.2-3.4,3.7v6.6h-2V4.7h2v2c.4-.7.9-1.2,1.5-1.6Z"/>
    <path class="st3" d="M34.2,5.2c.8.5,1.4,1,1.8,1.7v-2.2h2v12.4c0,1.1-.2,2.1-.7,3s-1.1,1.5-2,2c-.9.5-1.9.7-3.1.7s-2.9-.4-4-1.1c-1.1-.8-1.7-1.8-1.9-3.1h2c.2.7.7,1.3,1.4,1.8.7.5,1.5.7,2.5.7s2-.3,2.7-1c.7-.7,1.1-1.7,1.1-2.9v-2.6c-.4.7-1,1.3-1.8,1.8-.8.5-1.7.7-2.8.7s-2.1-.3-2.9-.8c-.9-.5-1.6-1.3-2.1-2.2-.5-1-.8-2.1-.8-3.3s.3-2.3.8-3.3c.5-.9,1.2-1.7,2.1-2.2.9-.5,1.9-.8,2.9-.8s2,.2,2.8.7ZM35.4,8.4c-.4-.7-.9-1.2-1.5-1.6s-1.3-.5-2.1-.5-1.4.2-2.1.5-1.1.9-1.5,1.6c-.4.7-.6,1.5-.6,2.4s.2,1.7.6,2.4.9,1.2,1.5,1.6c.6.4,1.3.5,2.1.5s1.4-.2,2.1-.5c.6-.4,1.1-.9,1.5-1.6s.6-1.5.6-2.4-.2-1.7-.6-2.4Z"/>
    <path class="st3" d="M41.5,7.5c.5-.9,1.2-1.7,2.1-2.2.9-.5,1.9-.8,2.9-.8s2,.2,2.8.7c.8.5,1.4,1,1.8,1.7v-2.2h2v12.2h-2v-2.3c-.4.7-1,1.3-1.8,1.8-.8.5-1.7.7-2.8.7s-2.1-.3-2.9-.8c-.9-.5-1.6-1.3-2.1-2.2-.5-1-.8-2.1-.8-3.3s.3-2.3.8-3.3ZM50.4,8.4c-.4-.7-.9-1.2-1.5-1.6s-1.3-.5-2.1-.5-1.4.2-2.1.5-1.1.9-1.5,1.6c-.4.7-.6,1.5-.6,2.4s.2,1.7.6,2.4.9,1.2,1.5,1.6c.6.4,1.3.5,2.1.5s1.4-.2,2.1-.5c.6-.4,1.1-.9,1.5-1.6s.6-1.5.6-2.4-.2-1.7-.6-2.4Z"/>
    <path class="st3" d="M66,5.8c.9.9,1.4,2.2,1.4,3.9v7.2h-2v-6.9c0-1.2-.3-2.1-.9-2.8-.6-.6-1.4-1-2.5-1s-1.9.3-2.5,1c-.6.7-.9,1.6-.9,2.9v6.7h-2V4.7h2v1.7c.4-.6.9-1.1,1.6-1.4.7-.3,1.4-.5,2.3-.5,1.5,0,2.7.4,3.6,1.3Z"/>
    <path class="st3" d="M70.7,2.4c-.3-.3-.4-.6-.4-1s.1-.7.4-1c.3-.3.6-.4,1-.4s.7.1.9.4.4.6.4,1-.1.7-.4,1-.6.4-.9.4-.7-.1-1-.4ZM72.7,4.7v12.2h-2V4.7h2Z"/>
    <path class="st3" d="M77.6,15.2h6v1.7h-8.3v-1.7l5.9-8.9h-5.9v-1.6h8.2v1.6l-5.9,8.9Z"/>
    <path class="st3" d="M97.2,11.6h-9.7c0,1.2.5,2.1,1.2,2.8.7.7,1.7,1,2.7,1s1.6-.2,2.2-.6c.6-.4,1-.9,1.2-1.6h2.2c-.3,1.2-1,2.1-2,2.9s-2.2,1.1-3.6,1.1-2.2-.3-3.1-.8c-.9-.5-1.6-1.3-2.1-2.2-.5-1-.8-2.1-.8-3.3s.3-2.4.8-3.3c.5-.9,1.2-1.7,2.1-2.2.9-.5,2-.8,3.1-.8s2.2.3,3.1.8c.9.5,1.6,1.2,2.1,2.1.5.9.7,1.9.7,3s0,.8,0,1.2ZM94.7,7.9c-.3-.6-.8-1-1.4-1.3-.6-.3-1.2-.4-1.9-.4-1,0-1.9.3-2.6,1s-1.1,1.6-1.2,2.7h7.7c0-.8-.2-1.4-.5-2Z"/>
  </g>
  <g class="st15">
    <rect class="st13" x="1.5" y="43" width="28.9" height="34.7"/>
  </g>
  <g class="st7">
    <rect class="st8" x="241.6" y="50" width="4.1" height="4.5"/>
  </g>
  <g class="st14">
    <rect class="st12" x="239.1" y="48" width="8.8" height="8.7"/>
  </g>
  <path class="st11" d="M149,73.2c-3.3.9-6.4,1.4-9.2,1.4s-7.1-1.1-9.4-3.2c-2.3-2.1-3.5-4.9-3.5-8.5s1.2-6.8,3.7-9,5.8-3.4,10-3.4,6.2.7,8.5,2.2c-.4,1-.6,2-.8,3-1.8-2.6-4.6-3.8-8.3-3.8s-5.2,1-7,2.9-2.7,4.6-2.7,7.9.9,5.8,2.8,7.8,4.3,2.9,7.4,2.9,3.8-.4,5.6-1.2v-3.3c0-1.5,0-3-.1-4.3.7,0,1.1,0,1.5,0s.8,0,1.5,0c0,2.4-.1,4.2-.1,5.3s0,2.4.1,3.3"/>
  <path class="st4" d="M149,73.2c-3.3.9-6.4,1.4-9.2,1.4s-7.1-1.1-9.4-3.2c-2.3-2.1-3.5-4.9-3.5-8.5s1.2-6.8,3.7-9,5.8-3.4,10-3.4,6.2.7,8.5,2.2c-.4,1-.6,2-.8,3-1.8-2.6-4.6-3.8-8.3-3.8s-5.2,1-7,2.9-2.7,4.6-2.7,7.9.9,5.8,2.8,7.8,4.3,2.9,7.4,2.9,3.8-.4,5.6-1.2v-3.3c0-1.5,0-3-.1-4.3.7,0,1.1,0,1.5,0s.8,0,1.5,0c0,2.4-.1,4.2-.1,5.3s0,2.4.1,3.3h0Z"/>
  <path class="st11" d="M153.8,74.2c.2-2.8.3-6.7.3-11.8s0-8.4-.2-11.3h12.1v2c-2.6-.2-5.4-.3-8.2-.3h-.8v8.6h.6c2.1,0,4.6,0,7.5-.3v2c-1-.2-3.2-.3-6.5-.3h-1.6v9.9h.9c2.1,0,4.9,0,8.4-.4v2h-12.5Z"/>
  <path class="st4" d="M153.8,74.2c.2-2.8.3-6.7.3-11.8s0-8.4-.2-11.3h12.1v2c-2.6-.2-5.4-.3-8.2-.3h-.8v8.6h.6c2.1,0,4.6,0,7.5-.3v2c-1-.2-3.2-.3-6.5-.3h-1.6v9.9h.9c2.1,0,4.9,0,8.4-.4v2h-12.5Z"/>
  <path class="st11" d="M170.8,74.2c.3-6.1.4-12.8.4-20v-3.6h.7c4.8,5.5,10.5,11.4,17,17.9v-3c0-5.5,0-10.4-.3-14.4.5,0,.9,0,1.1,0s.6,0,1.1,0c-.1,5.2-.2,10.5-.2,15.9v7.7h-.4c-1.9-2.4-4.9-5.6-8.9-9.7l-8.4-8.7v4.4c0,3.5,0,8,.2,13.5-.4,0-.8-.2-1.2-.2s-.7,0-1.2.2"/>
  <path class="st4" d="M170.8,74.2c.3-6.1.4-12.8.4-20v-3.6h.7c4.8,5.5,10.5,11.4,17,17.9v-3c0-5.5,0-10.4-.3-14.4.5,0,.9,0,1.1,0s.6,0,1.1,0c-.1,5.2-.2,10.5-.2,15.9v7.7h-.4c-1.9-2.4-4.9-5.6-8.9-9.7l-8.4-8.7v4.4c0,3.5,0,8,.2,13.5-.4,0-.8-.2-1.2-.2s-.7,0-1.2.2h0Z"/>
  <path class="st11" d="M215.1,72.7c-1.8,1.3-4.4,1.9-7.8,1.9s-6.8-1.1-8.9-3.1c-2.1-2.1-3.2-5.1-3.2-8.9s1.2-6.6,3.5-8.8,5.4-3.3,9.4-3.3,5.2.5,7.5,1.6c-.4,1.2-.6,2.2-.6,3.3-1.6-2.4-3.9-3.6-7-3.6s-5.1.9-6.8,2.8c-1.6,1.9-2.4,4.6-2.4,8s.8,6,2.4,7.8,3.8,2.8,6.5,2.8,5.2-.9,7.6-2.8l-.2,2.2h0Z"/>
  <path class="st4" d="M215.1,72.7c-1.8,1.3-4.4,1.9-7.8,1.9s-6.8-1.1-8.9-3.1c-2.1-2.1-3.2-5.1-3.2-8.9s1.2-6.6,3.5-8.8,5.4-3.3,9.4-3.3,5.2.5,7.5,1.6c-.4,1.2-.6,2.2-.6,3.3-1.6-2.4-3.9-3.6-7-3.6s-5.1.9-6.8,2.8c-1.6,1.9-2.4,4.6-2.4,8s.8,6,2.4,7.8,3.8,2.8,6.5,2.8,5.2-.9,7.6-2.8l-.2,2.2h0Z"/>
  <path class="st11" d="M224.5,74.2c.1-1.9.2-3.5.2-4.9s0-2.9-.2-4.7c-3.2-5.3-5.9-9.9-8.2-13.7.6,0,1.2,0,1.9,0s1.4,0,1.9,0c1.8,4.1,4,7.9,6.5,11.5,2.4-3.8,4.5-7.6,6.2-11.5.4,0,.8,0,1.3,0s.9,0,1.3,0c-2.9,4.6-5.5,9-7.9,13.1v3.6c0,2.2,0,4.3.2,6.4-.6,0-1.1-.2-1.6-.2s-1,0-1.6.2"/>
  <path class="st4" d="M224.5,74.2c.1-1.9.2-3.5.2-4.9s0-2.9-.2-4.7c-3.2-5.3-5.9-9.9-8.2-13.7.6,0,1.2,0,1.9,0s1.4,0,1.9,0c1.8,4.1,4,7.9,6.5,11.5,2.4-3.8,4.5-7.6,6.2-11.5.4,0,.8,0,1.3,0s.9,0,1.3,0c-2.9,4.6-5.5,9-7.9,13.1v3.6c0,2.2,0,4.3.2,6.4-.6,0-1.1-.2-1.6-.2s-1,0-1.6.2v.2Z"/>
  <g class="st10">
    <rect class="st6" x="22.3" y="41" width="39.2" height="36.3"/>
  </g>
  <g class="st2">
    <rect class="st1" x="63.1" y="41" width="33.4" height="36.4"/>
  </g>
  <g class="st9">
    <rect class="st0" x="91.1" y="41.4" width="35.3" height="35.5"/>
  </g>
</svg>