<?xml version="1.0" encoding="utf-8"?>
<!-- Generator: Adobe Illustrator 26.4.1, SVG Export Plug-In . SVG Version: 6.00 Build 0)  -->
<svg version="1.1" id="Layer_1" xmlns="http://www.w3.org/2000/svg" xmlns:xlink="http://www.w3.org/1999/xlink" x="0px" y="0px"
	 viewBox="0 0 312.51 124.09" style="enable-background:new 0 0 312.51 124.09;" xml:space="preserve">
<style type="text/css">
	.st0{fill:url(#SVGID_1_);}
	.st1{fill:url(#SVGID_00000057871231576691283290000004010520648982495146_);}
	.st2{fill:#F9F9FA;}
	.st3{fill:#D8D9D8;}
	
		.st4{clip-path:url(#SVGID_00000077317545122910567490000013693267356890747277_);fill:url(#SVGID_00000065072343001640399080000013515525820841646252_);}
	.st5{fill:#121111;}
	.st6{fill:#F6EA12;}
	.st7{fill:#1D9849;}
	.st8{fill:#F7C047;}
	.st9{fill:#DC2427;}
	.st10{fill:#288AC7;}
	.st11{fill:#875D27;}
	.st12{font-family:'Poppins-Light';}
	.st13{font-size:23.2113px;}
	
		.st14{clip-path:url(#SVGID_00000124881311211931007840000017925159299105440409_);fill:url(#SVGID_00000160873518028504850100000006768220055376083123_);}
	
		.st15{clip-path:url(#SVGID_00000027587186336576210040000014338060486852581249_);fill:url(#SVGID_00000164495261388251658080000012427039606236826017_);}
	
		.st16{clip-path:url(#SVGID_00000077297007935361160810000016008701944757104022_);fill:url(#SVGID_00000062875169534219618450000010909233384743795123_);}
	.st17{fill:#9B6B3A;}
	.st18{fill:none;stroke:#9B6B3A;stroke-width:0.4622;stroke-miterlimit:10;}
	
		.st19{clip-path:url(#SVGID_00000170255525304265805550000016975914251090329253_);fill:url(#SVGID_00000158715011946444394200000016360272451673120442_);}
	
		.st20{clip-path:url(#SVGID_00000035492633981862001570000007963643589933604743_);fill:url(#SVGID_00000103963469538225728880000005165857927146201258_);}
	
		.st21{clip-path:url(#SVGID_00000146490824113721863650000008856310645628461696_);fill:url(#SVGID_00000143575571415494569630000015843701059874477960_);}
	.st22{fill:#FFFFFF;}
	.st23{fill:none;}
	.st24{fill:url(#SVGID_00000041271274614296909620000008564776482893517247_);}
	.st25{fill:url(#SVGID_00000008840063292399058310000011250175981348182179_);}
	.st26{fill:url(#SVGID_00000117637021189211865000000017569974909831321491_);}
	.st27{fill:url(#SVGID_00000109738176908106461840000010720149162159107221_);}
	.st28{fill:url(#SVGID_00000142171981699452078400000009892741208658804367_);}
	.st29{fill:url(#SVGID_00000088837499462506851790000008750964168765201544_);}
	.st30{fill:url(#SVGID_00000091735409278140511060000011119420390640853945_);}
	.st31{fill:url(#SVGID_00000112625633435023006050000017789242914113446029_);}
	.st32{fill:url(#SVGID_00000064341553625556248340000014844694067584885892_);}
	.st33{fill:url(#SVGID_00000106870157552260568660000000668199839386408878_);}
	.st34{fill:url(#SVGID_00000124884190099431683260000006946292390850989756_);}
	.st35{fill:url(#SVGID_00000147906910125124254810000005852716700895156651_);}
	.st36{fill:url(#SVGID_00000123407709213968993210000009925771446058865570_);}
	.st37{fill:url(#SVGID_00000110470207287084342020000011640704715779225015_);}
	.st38{fill:url(#SVGID_00000032610368085748482810000013074837266036739205_);}
	.st39{fill:url(#SVGID_00000098205443523534504750000012490360117770644875_);}
	.st40{fill:url(#SVGID_00000126294851151938394990000003185421932654471578_);}
	.st41{fill:url(#SVGID_00000178193357368725161310000005790937954847009438_);}
	.st42{fill:url(#SVGID_00000119799912649000914880000014957518605162614661_);}
	.st43{fill:url(#SVGID_00000033368298438894228160000009248904557310575766_);}
	.st44{fill:url(#SVGID_00000168087362540740344730000007955204313067449279_);}
	.st45{fill:url(#SVGID_00000158712921093175718820000011711644362594578623_);}
	.st46{fill:url(#SVGID_00000121271238766902666330000012381874758985538443_);}
	.st47{fill:url(#SVGID_00000176030360306658317190000006286840236165610687_);}
	.st48{fill:url(#SVGID_00000008133711372832793470000003855808814328946088_);}
	
		.st49{clip-path:url(#SVGID_00000128464597535644124720000004718218427889743006_);fill:url(#SVGID_00000090266028499595445530000018106099871850408091_);}
	.st50{fill:#179BD7;}
	.st51{fill:none;stroke:#2A2D44;stroke-width:1.1907;stroke-miterlimit:10;}
	.st52{fill:#121C47;}
	.st53{fill:#CAE7F9;}
	.st54{fill:#E01F26;}
</style>
<g>
	<text transform="matrix(1 0 0 1 26.5146 34.061)" class="st11 st12 st13">Organizan</text>
	<g>
		<defs>
			<path id="SVGID_00000036211698765934619940000009030114233457713851_" d="M29.01,59.31v33.21v0h0v1.53h28.84
				c-1.58-0.82-3.04-1.81-4.37-2.94H35.01l-0.03-1.19v-1.66v-4.59V83.5v-0.01c0,0,0,0,0,0V59.31H29.01z"/>
		</defs>
		<clipPath id="SVGID_00000036223677683853556400000003471912343927172233_">
			<use xlink:href="#SVGID_00000036211698765934619940000009030114233457713851_"  style="overflow:visible;"/>
		</clipPath>
		
			<linearGradient id="SVGID_1_" gradientUnits="userSpaceOnUse" x1="1630.1079" y1="1162.8363" x2="1632.3302" y2="1162.8363" gradientTransform="matrix(12.9805 0 0 -12.9805 -21130.6074 15170.8799)">
			<stop  offset="0" style="stop-color:#D29441"/>
			<stop  offset="0.0585" style="stop-color:#B47D37"/>
			<stop  offset="0.15" style="stop-color:#92632B"/>
			<stop  offset="0.2369" style="stop-color:#7B5122"/>
			<stop  offset="0.3165" style="stop-color:#6E471D"/>
			<stop  offset="0.3819" style="stop-color:#6A441B"/>
			<stop  offset="0.4554" style="stop-color:#6F491E"/>
			<stop  offset="0.5631" style="stop-color:#815524"/>
			<stop  offset="0.6919" style="stop-color:#9F6C30"/>
			<stop  offset="0.8335" style="stop-color:#CC8F40"/>
			<stop  offset="0.8335" style="stop-color:#CE913F"/>
			<stop  offset="1" style="stop-color:#DDB380"/>
		</linearGradient>
		
			<rect x="29.01" y="59.31" style="clip-path:url(#SVGID_00000036223677683853556400000003471912343927172233_);fill:url(#SVGID_1_);" width="28.85" height="34.75"/>
	</g>
	<g>
		<defs>
			<path id="SVGID_00000101807716409731357200000017376643614569739936_" d="M270.07,67.12h0.73c0.37,0,0.6,0,0.67,0.01
				c0.15,0.03,0.27,0.08,0.35,0.18c0.08,0.09,0.13,0.21,0.13,0.37c0,0.13-0.04,0.25-0.1,0.34c-0.06,0.09-0.15,0.16-0.26,0.19
				c-0.11,0.04-0.38,0.06-0.83,0.06h-0.69V67.12z M269.14,66.36v4.5h0.93v-1.88h0.18c0.22,0,0.38,0.02,0.48,0.05
				c0.09,0.04,0.18,0.1,0.28,0.19c0.09,0.09,0.25,0.32,0.49,0.66l0.67,0.98h1.11l-0.56-0.88c-0.22-0.35-0.4-0.59-0.53-0.73
				c-0.13-0.14-0.3-0.26-0.5-0.38c0.4-0.06,0.7-0.2,0.9-0.42c0.2-0.22,0.3-0.5,0.3-0.83c0-0.27-0.06-0.5-0.2-0.71
				c-0.14-0.21-0.32-0.35-0.54-0.43c-0.22-0.08-0.58-0.12-1.07-0.12H269.14z"/>
		</defs>
		<clipPath id="SVGID_00000096766534814557157180000007276762449551349155_">
			<use xlink:href="#SVGID_00000101807716409731357200000017376643614569739936_"  style="overflow:visible;"/>
		</clipPath>
		
			<linearGradient id="SVGID_00000158750433638725238410000008335602635134389934_" gradientUnits="userSpaceOnUse" x1="887.6464" y1="1604.2656" x2="889.8688" y2="1604.2656" gradientTransform="matrix(1.8627 0 0 -1.8627 -1384.3057 3056.9182)">
			<stop  offset="0" style="stop-color:#D29441"/>
			<stop  offset="0.0585" style="stop-color:#B47D37"/>
			<stop  offset="0.15" style="stop-color:#92632B"/>
			<stop  offset="0.2369" style="stop-color:#7B5122"/>
			<stop  offset="0.3165" style="stop-color:#6E471D"/>
			<stop  offset="0.3819" style="stop-color:#6A441B"/>
			<stop  offset="0.4554" style="stop-color:#6F491E"/>
			<stop  offset="0.5631" style="stop-color:#815524"/>
			<stop  offset="0.6919" style="stop-color:#9F6C30"/>
			<stop  offset="0.8335" style="stop-color:#CC8F40"/>
			<stop  offset="0.8335" style="stop-color:#CE913F"/>
			<stop  offset="1" style="stop-color:#DDB380"/>
		</linearGradient>
		
			<rect x="269.14" y="66.36" style="clip-path:url(#SVGID_00000096766534814557157180000007276762449551349155_);fill:url(#SVGID_00000158750433638725238410000008335602635134389934_);" width="4.14" height="4.5"/>
	</g>
	<g>
		<defs>
			<path id="SVGID_00000031170329995833469580000014583510429637838011_" d="M267.18,68.6c0-2.06,1.72-3.74,3.83-3.74
				c2.11,0,3.83,1.68,3.83,3.74c0,2.06-1.72,3.74-3.83,3.74C268.9,72.35,267.18,70.67,267.18,68.6 M266.59,68.6
				c0,2.39,1.98,4.33,4.42,4.33c2.44,0,4.42-1.94,4.42-4.33c0-2.39-1.99-4.33-4.42-4.33C268.58,64.28,266.59,66.22,266.59,68.6"/>
		</defs>
		<clipPath id="SVGID_00000109006946014823743840000005193397531597111431_">
			<use xlink:href="#SVGID_00000031170329995833469580000014583510429637838011_"  style="overflow:visible;"/>
		</clipPath>
		
			<linearGradient id="SVGID_00000109728095121587432710000014364733068594478262_" gradientUnits="userSpaceOnUse" x1="1354.8025" y1="1330.2795" x2="1357.0244" y2="1330.2795" gradientTransform="matrix(3.9804 0 0 -3.9804 -5126.0513 5363.6357)">
			<stop  offset="0" style="stop-color:#D29441"/>
			<stop  offset="0.0585" style="stop-color:#B47D37"/>
			<stop  offset="0.15" style="stop-color:#92632B"/>
			<stop  offset="0.2369" style="stop-color:#7B5122"/>
			<stop  offset="0.3165" style="stop-color:#6E471D"/>
			<stop  offset="0.3819" style="stop-color:#6A441B"/>
			<stop  offset="0.4554" style="stop-color:#6F491E"/>
			<stop  offset="0.5631" style="stop-color:#815524"/>
			<stop  offset="0.6919" style="stop-color:#9F6C30"/>
			<stop  offset="0.8335" style="stop-color:#CC8F40"/>
			<stop  offset="0.8335" style="stop-color:#CE913F"/>
			<stop  offset="1" style="stop-color:#DDB380"/>
		</linearGradient>
		
			<rect x="266.59" y="64.28" style="clip-path:url(#SVGID_00000109006946014823743840000005193397531597111431_);fill:url(#SVGID_00000109728095121587432710000014364733068594478262_);" width="8.84" height="8.65"/>
	</g>
	<path class="st17" d="M176.55,89.5c-3.29,0.95-6.36,1.43-9.23,1.43c-3.98,0-7.13-1.05-9.44-3.16c-2.32-2.1-3.47-4.93-3.47-8.49
		c0-3.76,1.24-6.76,3.73-9.01c2.49-2.25,5.82-3.38,10.01-3.38c3.35,0,6.2,0.72,8.54,2.17c-0.35,1.04-0.62,2.04-0.83,2.99
		c-1.8-2.56-4.56-3.84-8.26-3.84c-2.89,0-5.24,0.97-7.04,2.92c-1.8,1.94-2.71,4.56-2.71,7.86c0,3.25,0.94,5.85,2.81,7.78
		s4.32,2.9,7.36,2.9c1.94,0,3.82-0.38,5.62-1.15c0.05-1.54,0.07-2.65,0.07-3.33c0-1.52-0.04-2.96-0.1-4.35
		c0.66,0.09,1.15,0.14,1.48,0.14c0.33,0,0.82-0.04,1.47-0.14c-0.09,2.4-0.14,4.18-0.14,5.33C176.41,87.49,176.45,88.6,176.55,89.5"
		/>
	<path class="st18" d="M176.55,89.5c-3.29,0.95-6.36,1.43-9.23,1.43c-3.98,0-7.13-1.05-9.44-3.16c-2.32-2.1-3.47-4.93-3.47-8.49
		c0-3.76,1.24-6.76,3.73-9.01c2.49-2.25,5.82-3.38,10.01-3.38c3.35,0,6.2,0.72,8.54,2.17c-0.35,1.04-0.62,2.04-0.83,2.99
		c-1.8-2.56-4.56-3.84-8.26-3.84c-2.89,0-5.24,0.97-7.04,2.92c-1.8,1.94-2.71,4.56-2.71,7.86c0,3.25,0.94,5.85,2.81,7.78
		s4.32,2.9,7.36,2.9c1.94,0,3.82-0.38,5.62-1.15c0.05-1.54,0.07-2.65,0.07-3.33c0-1.52-0.04-2.96-0.1-4.35
		c0.66,0.09,1.15,0.14,1.48,0.14c0.33,0,0.82-0.04,1.47-0.14c-0.09,2.4-0.14,4.18-0.14,5.33C176.41,87.49,176.45,88.6,176.55,89.5z"
		/>
	<path class="st17" d="M181.34,90.52c0.18-2.78,0.28-6.73,0.28-11.85c0-4.62-0.08-8.4-0.24-11.34c1.32,0.07,2.73,0.1,4.23,0.1
		c1.55,0,4.2-0.03,7.95-0.1v0.48c-0.02,0.23-0.04,0.4-0.04,0.51c0,0.09,0.01,0.25,0.04,0.48v0.51c-2.64-0.22-5.38-0.34-8.22-0.34
		h-0.8c-0.05,2.7-0.07,5.08-0.07,7.16v1.36h0.62c2.13,0,4.64-0.09,7.53-0.27c-0.05,0.45-0.07,0.8-0.07,1.05
		c0,0.23,0.02,0.54,0.07,0.95c-1.01-0.18-3.19-0.27-6.53-0.27h-1.62v1.63v8.28h0.87c2.09,0,4.88-0.12,8.36-0.37V89
		c-0.02,0.23-0.03,0.4-0.03,0.51c0,0.11,0.01,0.28,0.03,0.51v0.51h-5.93H181.34z"/>
	<path class="st18" d="M181.34,90.52c0.18-2.78,0.28-6.73,0.28-11.85c0-4.62-0.08-8.4-0.24-11.34c1.32,0.07,2.73,0.1,4.23,0.1
		c1.55,0,4.2-0.03,7.95-0.1v0.48c-0.02,0.23-0.04,0.4-0.04,0.51c0,0.09,0.01,0.25,0.04,0.48v0.51c-2.64-0.22-5.38-0.34-8.22-0.34
		h-0.8c-0.05,2.7-0.07,5.08-0.07,7.16v1.36h0.62c2.13,0,4.64-0.09,7.53-0.27c-0.05,0.45-0.07,0.8-0.07,1.05
		c0,0.23,0.02,0.54,0.07,0.95c-1.01-0.18-3.19-0.27-6.53-0.27h-1.62v1.63v8.28h0.87c2.09,0,4.88-0.12,8.36-0.37V89
		c-0.02,0.23-0.03,0.4-0.03,0.51c0,0.11,0.01,0.28,0.03,0.51v0.51h-5.93H181.34z"/>
	<path class="st17" d="M198.3,90.52c0.3-6.11,0.45-12.79,0.45-20.03v-3.6h0.66c4.83,5.48,10.51,11.43,17.04,17.86
		c0.05-1.54,0.07-2.53,0.07-2.99c0-5.54-0.09-10.36-0.28-14.43c0.51,0.09,0.88,0.14,1.11,0.14c0.25,0,0.61-0.04,1.08-0.14
		c-0.14,5.16-0.21,10.47-0.21,15.92v7.71l-0.45,0c-1.94-2.38-4.9-5.61-8.88-9.71l-8.4-8.66c-0.05,1.99-0.07,3.48-0.07,4.45
		c0,3.46,0.08,7.96,0.24,13.48c-0.42-0.11-0.81-0.17-1.18-0.17C199.16,90.35,198.77,90.41,198.3,90.52"/>
	<path class="st18" d="M198.3,90.52c0.3-6.11,0.45-12.79,0.45-20.03v-3.6h0.66c4.83,5.48,10.51,11.43,17.04,17.86
		c0.05-1.54,0.07-2.53,0.07-2.99c0-5.54-0.09-10.36-0.28-14.43c0.51,0.09,0.88,0.14,1.11,0.14c0.25,0,0.61-0.04,1.08-0.14
		c-0.14,5.16-0.21,10.47-0.21,15.92v7.71l-0.45,0c-1.94-2.38-4.9-5.61-8.88-9.71l-8.4-8.66c-0.05,1.99-0.07,3.48-0.07,4.45
		c0,3.46,0.08,7.96,0.24,13.48c-0.42-0.11-0.81-0.17-1.18-0.17C199.16,90.35,198.77,90.41,198.3,90.52z"/>
	<path class="st17" d="M242.62,89.06c-1.76,1.27-4.35,1.9-7.77,1.9c-3.84,0-6.82-1.05-8.94-3.14c-2.12-2.1-3.18-5.05-3.18-8.88
		c0-3.64,1.16-6.56,3.49-8.76c2.33-2.19,5.45-3.29,9.39-3.29c2.75,0,5.24,0.54,7.46,1.63c-0.37,1.15-0.56,2.24-0.56,3.26
		c-1.6-2.42-3.93-3.63-7.01-3.63c-2.89,0-5.15,0.94-6.77,2.83c-1.62,1.89-2.43,4.55-2.43,7.98c0,3.35,0.8,5.96,2.41,7.85
		c1.61,1.89,3.79,2.83,6.54,2.83c2.66,0,5.18-0.94,7.57-2.82L242.62,89.06z"/>
	<path class="st18" d="M242.62,89.06c-1.76,1.27-4.35,1.9-7.77,1.9c-3.84,0-6.82-1.05-8.94-3.14c-2.12-2.1-3.18-5.05-3.18-8.88
		c0-3.64,1.16-6.56,3.49-8.76c2.33-2.19,5.45-3.29,9.39-3.29c2.75,0,5.24,0.54,7.46,1.63c-0.37,1.15-0.56,2.24-0.56,3.26
		c-1.6-2.42-3.93-3.63-7.01-3.63c-2.89,0-5.15,0.94-6.77,2.83c-1.62,1.89-2.43,4.55-2.43,7.98c0,3.35,0.8,5.96,2.41,7.85
		c1.61,1.89,3.79,2.83,6.54,2.83c2.66,0,5.18-0.94,7.57-2.82L242.62,89.06z"/>
	<path class="st17" d="M252.02,90.52c0.12-1.86,0.17-3.47,0.17-4.86c0-1.4-0.06-2.95-0.17-4.65c-3.17-5.34-5.91-9.9-8.22-13.68
		c0.56,0.09,1.19,0.14,1.91,0.14c0.72,0,1.35-0.04,1.91-0.14c1.83,4.05,3.99,7.89,6.49,11.51c2.4-3.8,4.49-7.64,6.25-11.51
		c0.39,0.09,0.82,0.14,1.28,0.14c0.48,0,0.91-0.04,1.28-0.14c-2.91,4.62-5.54,9-7.88,13.14c-0.05,1.58-0.07,2.78-0.07,3.6
		c0,2.15,0.07,4.3,0.21,6.45c-0.58-0.11-1.1-0.17-1.56-0.17C253.13,90.35,252.6,90.41,252.02,90.52"/>
	<path class="st18" d="M252.02,90.52c0.12-1.86,0.17-3.47,0.17-4.86c0-1.4-0.06-2.95-0.17-4.65c-3.17-5.34-5.91-9.9-8.22-13.68
		c0.56,0.09,1.19,0.14,1.91,0.14c0.72,0,1.35-0.04,1.91-0.14c1.83,4.05,3.99,7.89,6.49,11.51c2.4-3.8,4.49-7.64,6.25-11.51
		c0.39,0.09,0.82,0.14,1.28,0.14c0.48,0,0.91-0.04,1.28-0.14c-2.91,4.62-5.54,9-7.88,13.14c-0.05,1.58-0.07,2.78-0.07,3.6
		c0,2.15,0.07,4.3,0.21,6.45c-0.58-0.11-1.1-0.17-1.56-0.17C253.13,90.35,252.6,90.41,252.02,90.52z"/>
	<g>
		<defs>
			<path id="SVGID_00000044864544089521941510000013816571015096541107_" d="M57.67,68.98c0.55-2.04,1.36-3.8,2.42-5.28
				c0.05-0.06,0.09-0.12,0.14-0.18l-0.06-0.1c1.02-1.34,2.28-2.39,3.77-3.15c1.34-0.68,2.88-1.06,4.59-1.16c0.02,0,0.04,0,0.06,0
				c0.26-0.01,0.51-0.04,0.77-0.04c0.02,0,0.04,0,0.06,0c2.02,0,3.81,0.4,5.37,1.2c1.57,0.8,2.88,1.91,3.94,3.35
				c1.06,1.44,1.87,3.16,2.42,5.14c0.25,0.9,0.43,1.85,0.56,2.83c0.02,0.11,0.04,0.21,0.06,0.32c0.14,1.09,0.21,2.22,0.21,3.4
				c0,1.48-0.12,2.88-0.32,4.23l0.02-0.02c-0.13,0.85-0.29,1.68-0.51,2.47c-0.55,2.04-1.36,3.79-2.42,5.28
				c-0.04,0.06-0.09,0.12-0.14,0.18l0.06,0.1c-1.02,1.34-2.28,2.39-3.77,3.15c-1.34,0.68-2.88,1.06-4.59,1.16c-0.02,0-0.04,0-0.06,0
				c-0.26,0.01-0.51,0.04-0.77,0.04c-0.02,0-0.04,0-0.06,0c-2.02,0-3.81-0.4-5.37-1.2c-1.57-0.8-2.88-1.92-3.94-3.35
				c-1.06-1.44-1.87-3.16-2.42-5.14c-0.25-0.9-0.43-1.85-0.56-2.82c-0.02-0.11-0.05-0.22-0.06-0.33c-0.14-1.08-0.2-2.22-0.2-3.4
				c0-1.48,0.12-2.88,0.32-4.23l-0.02,0.02C57.29,70.6,57.45,69.77,57.67,68.98 M69.42,57.36h-0.01c-1.83,0-3.59,0.21-5.28,0.64
				c-1.68,0.42-3.25,1.03-4.69,1.81c-0.37,0.2-0.7,0.44-1.06,0.66l-0.03-0.06c-0.3,0.19-0.58,0.4-0.86,0.61
				c-0.08,0.06-0.15,0.11-0.23,0.16c-0.39,0.29-0.77,0.6-1.14,0.92c-0.21,0.17-0.43,0.33-0.63,0.51c-1.19,1.09-2.2,2.3-3.03,3.63
				c-0.84,1.33-1.48,2.76-1.94,4.3c-0.46,1.53-0.69,3.13-0.69,4.79c0,0.06,0.01,0.11,0.01,0.17c0,0.06-0.01,0.11-0.01,0.16
				c0,1.66,0.23,3.26,0.69,4.79c0.46,1.53,1.1,2.96,1.94,4.29c0.83,1.33,1.84,2.54,3.03,3.63c0.32,0.29,0.67,0.54,1.01,0.82
				c0.26,0.21,0.52,0.43,0.79,0.63c0.11,0.08,0.23,0.15,0.34,0.23c0.43,0.3,0.85,0.6,1.3,0.86l0.02-0.04
				c0.16,0.1,0.32,0.21,0.48,0.3c1.44,0.78,3.01,1.38,4.69,1.81c1.68,0.42,3.45,0.64,5.28,0.64h0.01h0.01
				c1.83,0,3.59-0.21,5.28-0.64c1.68-0.42,3.25-1.03,4.69-1.81c0.37-0.2,0.7-0.44,1.06-0.66l0.03,0.06c0.3-0.19,0.58-0.4,0.86-0.61
				c0.08-0.05,0.15-0.11,0.23-0.16c0.4-0.29,0.77-0.6,1.14-0.92c0.21-0.17,0.43-0.32,0.63-0.51c1.19-1.09,2.2-2.3,3.03-3.63
				c0.84-1.33,1.48-2.76,1.94-4.29c0.46-1.53,0.69-3.13,0.69-4.79c0-0.06-0.01-0.11-0.01-0.16c0-0.06,0.01-0.11,0.01-0.17
				c0-1.66-0.23-3.26-0.69-4.79c-0.46-1.53-1.11-2.96-1.94-4.3c-0.83-1.33-1.84-2.54-3.03-3.63c-0.32-0.29-0.68-0.55-1.02-0.82
				c-0.26-0.21-0.52-0.44-0.79-0.63c-0.11-0.08-0.23-0.15-0.34-0.23c-0.43-0.3-0.85-0.6-1.3-0.87l-0.02,0.04
				c-0.17-0.1-0.32-0.21-0.48-0.3c-1.44-0.78-3.01-1.39-4.69-1.81c-1.68-0.42-3.45-0.64-5.28-0.64H69.42z"/>
		</defs>
		<clipPath id="SVGID_00000023992957145975359800000009279555458978152080_">
			<use xlink:href="#SVGID_00000044864544089521941510000013816571015096541107_"  style="overflow:visible;"/>
		</clipPath>
		
			<linearGradient id="SVGID_00000172410126284905173740000000947728866057949845_" gradientUnits="userSpaceOnUse" x1="1666.7251" y1="1143.4586" x2="1668.9473" y2="1143.4586" gradientTransform="matrix(17.635 0 0 -17.635 -29342.8691 20240.3809)">
			<stop  offset="0" style="stop-color:#D29441"/>
			<stop  offset="0.0585" style="stop-color:#B47D37"/>
			<stop  offset="0.15" style="stop-color:#92632B"/>
			<stop  offset="0.2369" style="stop-color:#7B5122"/>
			<stop  offset="0.3165" style="stop-color:#6E471D"/>
			<stop  offset="0.3819" style="stop-color:#6A441B"/>
			<stop  offset="0.4554" style="stop-color:#6F491E"/>
			<stop  offset="0.5631" style="stop-color:#815524"/>
			<stop  offset="0.6919" style="stop-color:#9F6C30"/>
			<stop  offset="0.8335" style="stop-color:#CC8F40"/>
			<stop  offset="0.8335" style="stop-color:#CE913F"/>
			<stop  offset="1" style="stop-color:#DDB380"/>
		</linearGradient>
		
			<rect x="49.83" y="57.36" style="clip-path:url(#SVGID_00000023992957145975359800000009279555458978152080_);fill:url(#SVGID_00000172410126284905173740000000947728866057949845_);" width="39.19" height="36.26"/>
	</g>
	<g>
		<defs>
			<path id="SVGID_00000033368376386714649820000014197439387732120449_" d="M102.73,57.97c-1.75,0.45-3.36,1.08-4.83,1.89
				c-1.47,0.81-2.8,1.77-3.96,2.91c-1.18,1.13-2.17,2.37-2.97,3.73c-0.11,0.18-0.18,0.37-0.28,0.55c1.12,2.6,1.74,5.44,1.74,8.42
				c0,3.04-0.64,5.94-1.81,8.58c0.1,0.19,0.18,0.4,0.3,0.58c0.79,1.34,1.76,2.56,2.91,3.68c1.15,1.11,2.45,2.06,3.9,2.86
				c1.45,0.79,3.04,1.41,4.78,1.84c1.73,0.44,3.58,0.66,5.53,0.66c2.04,0,3.88-0.25,5.53-0.74c0.52-0.16,0.98-0.36,1.46-0.54
				l1.77-3.67c-0.96,0.71-1.98,1.3-3.08,1.76c-1.16,0.48-2.36,0.71-3.6,0.71c-2.09,0-4.03-0.36-5.82-1.07
				c-1.79-0.7-3.34-1.73-4.66-3.06c-1.31-1.34-2.34-2.97-3.08-4.9c-0.75-1.93-1.12-4.12-1.12-6.56c0-2.44,0.38-4.64,1.15-6.58
				c0.76-1.95,1.81-3.6,3.13-4.97c1.32-1.36,2.88-2.41,4.66-3.15c1.78-0.73,3.71-1.1,5.76-1.1c2.38,0,4.49,0.66,6.32,1.97
				c1.84,1.31,3.5,3.37,5,6.19l2.58-1.7c-0.73-1.16-1.61-2.29-2.63-3.37c-1.02-1.08-2.19-2.04-3.51-2.86
				c-1.32-0.82-2.77-1.48-4.36-1.98c-1.59-0.5-3.33-0.75-5.22-0.75C106.35,57.3,104.48,57.53,102.73,57.97"/>
		</defs>
		<clipPath id="SVGID_00000141423407762356602660000007271359625870653852_">
			<use xlink:href="#SVGID_00000033368376386714649820000014197439387732120449_"  style="overflow:visible;"/>
		</clipPath>
		
			<linearGradient id="SVGID_00000142176194809161939770000009299784065876917650_" gradientUnits="userSpaceOnUse" x1="1651.063" y1="1152.7843" x2="1653.2852" y2="1152.7843" gradientTransform="matrix(15.0454 0 0 -15.0454 -24750.2871 17419.5879)">
			<stop  offset="0" style="stop-color:#D29441"/>
			<stop  offset="0.0585" style="stop-color:#B47D37"/>
			<stop  offset="0.15" style="stop-color:#92632B"/>
			<stop  offset="0.2369" style="stop-color:#7B5122"/>
			<stop  offset="0.3165" style="stop-color:#6E471D"/>
			<stop  offset="0.3819" style="stop-color:#6A441B"/>
			<stop  offset="0.4554" style="stop-color:#6F491E"/>
			<stop  offset="0.5631" style="stop-color:#815524"/>
			<stop  offset="0.6919" style="stop-color:#9F6C30"/>
			<stop  offset="0.8335" style="stop-color:#CC8F40"/>
			<stop  offset="0.8335" style="stop-color:#CE913F"/>
			<stop  offset="1" style="stop-color:#DDB380"/>
		</linearGradient>
		
			<rect x="90.61" y="57.3" style="clip-path:url(#SVGID_00000141423407762356602660000007271359625870653852_);fill:url(#SVGID_00000142176194809161939770000009299784065876917650_);" width="33.43" height="36.37"/>
	</g>
	<g>
		<defs>
			<path id="SVGID_00000047046010688225758150000017362008354610451848_" d="M134.88,65.67l6.45,13.74h-13.08L134.88,65.67z
				 M135.72,57.71l-17.11,35.55h2.98l5.61-11.6h15.23l5.43,11.6h6.07L137.2,57.71H135.72z"/>
		</defs>
		<clipPath id="SVGID_00000068668805370183750860000006537313836600329347_">
			<use xlink:href="#SVGID_00000047046010688225758150000017362008354610451848_"  style="overflow:visible;"/>
		</clipPath>
		
			<linearGradient id="SVGID_00000054950654587951727110000018346692531731292562_" gradientUnits="userSpaceOnUse" x1="1658.1888" y1="1149.3937" x2="1660.411" y2="1149.3937" gradientTransform="matrix(15.894 0 0 -15.894 -26236.6426 18343.9492)">
			<stop  offset="0" style="stop-color:#D29441"/>
			<stop  offset="0.0585" style="stop-color:#B47D37"/>
			<stop  offset="0.15" style="stop-color:#92632B"/>
			<stop  offset="0.2369" style="stop-color:#7B5122"/>
			<stop  offset="0.3165" style="stop-color:#6E471D"/>
			<stop  offset="0.3819" style="stop-color:#6A441B"/>
			<stop  offset="0.4554" style="stop-color:#6F491E"/>
			<stop  offset="0.5631" style="stop-color:#815524"/>
			<stop  offset="0.6919" style="stop-color:#9F6C30"/>
			<stop  offset="0.8335" style="stop-color:#CC8F40"/>
			<stop  offset="0.8335" style="stop-color:#CE913F"/>
			<stop  offset="1" style="stop-color:#DDB380"/>
		</linearGradient>
		
			<rect x="118.61" y="57.71" style="clip-path:url(#SVGID_00000068668805370183750860000006537313836600329347_);fill:url(#SVGID_00000054950654587951727110000018346692531731292562_);" width="35.32" height="35.55"/>
	</g>
</g>
</svg>
