<?xml version="1.0" encoding="utf-8"?>
<!-- Generator: Adobe Illustrator 26.4.1, SVG Export Plug-In . SVG Version: 6.00 Build 0)  -->
<svg version="1.1" id="Layer_1" xmlns="http://www.w3.org/2000/svg" xmlns:xlink="http://www.w3.org/1999/xlink" x="0px" y="0px"
	 viewBox="0 0 39.83 42.89" style="enable-background:new 0 0 39.83 42.89;" xml:space="preserve">
<style type="text/css">
	.st0{fill:url(#SVGID_1_);}
	.st1{fill:url(#SVGID_00000089534915666621886820000013316324502198593711_);}
	.st2{fill:#F9F9FA;}
	.st3{fill:#D8D9D8;}
	
		.st4{clip-path:url(#SVGID_00000163752492510947738380000014054851094027860902_);fill:url(#SVGID_00000057110435172162751300000010536346564429432486_);}
	.st5{fill:#121111;}
	.st6{fill:#F6EA12;}
	.st7{fill:#1D9849;}
	.st8{fill:#F7C047;}
	.st9{fill:#DC2427;}
	.st10{fill:#288AC7;}
	
		.st11{clip-path:url(#SVGID_00000069398968988662361010000011090056370872178079_);fill:url(#SVGID_00000106860529632550099750000010922912414441936817_);}
	
		.st12{clip-path:url(#SVGID_00000005257351160495861360000015912087253035884950_);fill:url(#SVGID_00000067942995025090724400000002309664564486072494_);}
	
		.st13{clip-path:url(#SVGID_00000043456242670487975880000005925367794461996445_);fill:url(#SVGID_00000125581466388314434890000013683800263715326642_);}
	.st14{fill:#9B6B3A;}
	.st15{fill:none;stroke:#9B6B3A;stroke-width:0.4622;stroke-miterlimit:10;}
	
		.st16{clip-path:url(#SVGID_00000154396199423908337860000014099664587901727141_);fill:url(#SVGID_00000151521000263029856710000018446668078427347111_);}
	
		.st17{clip-path:url(#SVGID_00000129911115683005789410000002528696618247630213_);fill:url(#SVGID_00000150812895675860105950000000789536554132276879_);}
	
		.st18{clip-path:url(#SVGID_00000073705582154702932630000002970784386970630534_);fill:url(#SVGID_00000080168043291364708220000002290585541688554164_);}
	.st19{fill:#FFFFFF;}
	.st20{fill:none;}
	.st21{fill:url(#SVGID_00000065789190907215505370000010241666740141305751_);}
	.st22{fill:url(#SVGID_00000047040911578740042270000014238932735865518502_);}
	.st23{fill:url(#SVGID_00000089575141822629028600000017331721633835970454_);}
	.st24{fill:url(#SVGID_00000085246774430345474310000009116343659159031461_);}
	.st25{fill:url(#SVGID_00000164489453376843842490000017470082848934998970_);}
	.st26{fill:url(#SVGID_00000064326062993040270350000001088255828705519768_);}
	.st27{fill:url(#SVGID_00000142874241407242639200000015169123563130724756_);}
	.st28{fill:url(#SVGID_00000002345596819108822240000012564820739971069110_);}
	.st29{fill:url(#SVGID_00000043430957270093804430000016706001739227106209_);}
	.st30{fill:url(#SVGID_00000010298141422519199190000017973844444541913239_);}
	.st31{fill:url(#SVGID_00000000180903230161555390000005652786651268741508_);}
	.st32{fill:url(#SVGID_00000091730831905637673800000002117949230432006063_);}
	.st33{fill:url(#SVGID_00000057842860201347055120000017475443234300026795_);}
	.st34{fill:url(#SVGID_00000098209105738128897000000014887240905148026790_);}
	.st35{fill:url(#SVGID_00000151508124214621601660000008828276907712218804_);}
	.st36{fill:url(#SVGID_00000168830559690323987850000012994542104774904981_);}
	.st37{fill:url(#SVGID_00000034796339359084334280000010189042101248085904_);}
	.st38{fill:url(#SVGID_00000036959581572669359120000009198802460771579581_);}
	.st39{fill:url(#SVGID_00000043441064804382967570000008954487332728958386_);}
	.st40{fill:url(#SVGID_00000128483875007586394740000010747922830823313318_);}
	.st41{fill:url(#SVGID_00000106105015946713369350000015564202949823308458_);}
	.st42{fill:url(#SVGID_00000056404290798241169390000009323462349381924018_);}
	.st43{fill:url(#SVGID_00000013162933578869233980000015788057025388714421_);}
	.st44{fill:url(#SVGID_00000147925250672420166580000013170909875238459022_);}
	.st45{fill:url(#SVGID_00000071534013154134099560000003756398566985388708_);}
	
		.st46{clip-path:url(#SVGID_00000109019350732560828930000012931592219044041859_);fill:url(#SVGID_00000178922645791597548940000009440007889763660200_);}
	.st47{fill:#179BD7;}
	.st48{fill:none;stroke:#2A2D44;stroke-width:1.1907;stroke-miterlimit:10;}
	.st49{fill:#121C47;}
	.st50{fill:#CAE7F9;}
	.st51{fill:#E01F26;}
</style>
<g>
	<path class="st2" d="M15.7,13.92c-0.42,0.14-0.83,0.66-1.1,0.94c-0.34,0.33-0.56,0.66-0.74,1.1c-0.56,1.36,0.27,2.91,0.97,4.03
		c1.58,2.53,4.67,4.61,4.67,4.61c0.6,0.57,1.53,0.84,2.33,0.92c0.42,0.04,1.93-0.09,2.37-0.25c0.76-0.29,1.71-0.8,2.16-1.49
		c0.49-0.76-0.54-1.32-1.13-1.47c-0.3-0.08-1.69-0.67-2.31-0.44c-0.5,0.18-0.87,0.57-1.43,0.6c-0.05,0-0.11,0-0.16,0
		c-1.37,0.17-2.75-0.83-3.58-1.87c-0.36-0.45-0.87-1.4-0.81-1.99c0.05-0.51,0.46-0.9,0.48-1.43c0.02-0.62-0.27-1.3-0.48-1.87
		c-0.15-0.4-0.28-0.87-0.57-1.2C16.15,13.88,15.92,13.84,15.7,13.92"/>
	<path class="st2" d="M19.61,7.53c-6.68,0-12.1,5.5-12.1,12.28c0,1.76,0.36,3.43,1.01,4.93c0.16,0.38,0.35,0.74,0.55,1.1l-1.56,6.25
		l6.53-1.39c1.67,0.88,3.56,1.39,5.57,1.39c6.68,0,12.1-5.5,12.1-12.28C31.7,13.03,26.29,7.53,19.61,7.53 M19.61,29.44
		c-1.85,0-3.57-0.54-5.03-1.47l-0.03,0.01l-0.07-0.06l-3.69,0.74l0.08-0.36c0.01,0.01,0.02,0.02,0.02,0.02l0.91-3.03
		c-1.07-1.56-1.7-3.45-1.7-5.48c0-5.32,4.25-9.63,9.5-9.63c5.25,0,9.5,4.31,9.5,9.63C29.11,25.13,24.85,29.44,19.61,29.44"/>
</g>
</svg>
