<?xml version="1.0" encoding="UTF-8"?>
<svg id="Layer_1" xmlns="http://www.w3.org/2000/svg" version="1.1" xmlns:xlink="http://www.w3.org/1999/xlink" viewBox="0 0 445 453">
  <!-- Generator: Adobe Illustrator 29.4.0, SVG Export Plug-In . SVG Version: 2.1.0 Build 152)  -->
  <defs>
    <style>
      .st0 {
        fill: url(#Degradado_sin_nombre_36);
      }

      .st1 {
        fill: url(#Degradado_sin_nombre_34);
      }

      .st2 {
        fill: url(#Degradado_sin_nombre_24);
      }

      .st3 {
        fill: none;
      }

      .st4 {
        fill: url(#Degradado_sin_nombre_35);
      }

      .st5 {
        fill: url(#Degradado_sin_nombre_23);
      }

      .st6 {
        fill: url(#Degradado_sin_nombre);
      }

      .st7 {
        fill: url(#Degradado_sin_nombre_22);
      }

      .st8 {
        clip-path: url(#clippath);
      }
    </style>
    <clipPath id="clippath">
      <path class="st3" d="M315.7,117.6h0M313.8,116.6h0s-.1-.1-.2-.1c0,0,.1.1.2.1M348.9,109.7h0M349,109.6h0M361.1,97.3h0M364.8,90.6c0,.3-.2.6-.3.9,0,.1,0,.3-.1.4h0v.2c0,.2-.2.3-.2.5-.1.3-.3.6-.4.8-.6,1.1-1.3,2.2-2.1,3.3-.2.2-.3.4-.5.7,0,.1-.2.2-.3.3-.4.5-.8,1-1.3,1.5-.8,1-1.7,1.9-2.5,2.9-1.6,1.8-3.4,3.5-5.2,5.2-.9.8-1.8,1.6-2.8,2.3-.1,0-.3.2-.4.3-.2.2-.4.3-.7.5-.5.4-1,.7-1.6,1.1-2.1,1.4-4.2,2.6-6.5,3.7-.3,0-.6.3-.9.4h-.1c-.6.2-1.2.4-1.7.7-1.1.4-2.2.7-3.3,1-1.8.4-3.6.8-5.4,1.1h-.8c-.5,0-1,.1-1.5.2-1,0-2.1,0-3.1,0s-2.2,0-3.3-.2h-.2c-.3,0-.6,0-.8-.2-.5,0-1-.2-1.5-.4-.3,0-.5-.2-.8-.3,0,0-.2,0-.3-.1h-.2c-.1,0-.3-.1-.4-.2-.2,0-.4-.2-.6-.3s-.5-.3-.7-.4c0,0-.1,0-.2-.1-.3-.2-.2-.2-.1-.1-.1,0-.3-.2-.4-.3-.2-.2-.4-.4-.7-.6-1.2-1.2-3.4-1.3-4.5,0-1.2,1.3-1.2,3.2,0,4.5,6.5,6.8,17.4,5.6,25.7,3.8,10.3-2.3,19.3-8.3,26.5-15.9,4.3-4.5,8.8-9.5,10.6-15.6.5-1.6-.6-3.6-2.2-4h-.8c-1.4,0-2.7.9-3.1,2.3h-.3Z"/>
    </clipPath>
    <linearGradient id="Degradado_sin_nombre" data-name="Degradado sin nombre" x1="-79.9" y1="-179.8" x2="-77.6" y2="-179.8" gradientTransform="translate(4153.6 8862) scale(48.7)" gradientUnits="userSpaceOnUse">
      <stop offset="0" stop-color="#d29443"/>
      <stop offset="0" stop-color="#b77f39"/>
      <stop offset=".2" stop-color="#95652c"/>
      <stop offset=".2" stop-color="#7d5222"/>
      <stop offset=".3" stop-color="#6e461c"/>
      <stop offset=".4" stop-color="#69431b"/>
      <stop offset=".5" stop-color="#70481d"/>
      <stop offset=".6" stop-color="#835725"/>
      <stop offset=".7" stop-color="#a37031"/>
      <stop offset=".8" stop-color="#cc8f41"/>
      <stop offset=".8" stop-color="#cf9141"/>
      <stop offset="1" stop-color="#ddb380"/>
    </linearGradient>
    <linearGradient id="Degradado_sin_nombre_34" data-name="Degradado sin nombre 34" x1="51.5" y1="336.6" x2="428.8" y2="101.6" gradientUnits="userSpaceOnUse">
      <stop offset="0" stop-color="#d9a86c"/>
      <stop offset="0" stop-color="#d29443"/>
      <stop offset=".1" stop-color="#b77f39"/>
      <stop offset=".2" stop-color="#9b6a2e"/>
      <stop offset=".5" stop-color="#69431b"/>
      <stop offset=".7" stop-color="#70481d"/>
      <stop offset=".8" stop-color="#b77f39"/>
      <stop offset=".9" stop-color="#d59d56"/>
    </linearGradient>
    <linearGradient id="Degradado_sin_nombre_36" data-name="Degradado sin nombre 36" x1="35.2" y1="433.9" x2="404.6" y2="375.7" gradientUnits="userSpaceOnUse">
      <stop offset="0" stop-color="#d9a86c"/>
      <stop offset=".5" stop-color="#d29443"/>
      <stop offset=".6" stop-color="#b77f39"/>
      <stop offset=".7" stop-color="#9b6a2e"/>
      <stop offset=".9" stop-color="#69431b"/>
      <stop offset="1" stop-color="#70481d"/>
    </linearGradient>
    <linearGradient id="Degradado_sin_nombre_35" data-name="Degradado sin nombre 35" x1="87.5" y1="321" x2="291.8" y2="269.5" gradientUnits="userSpaceOnUse">
      <stop offset="0" stop-color="#d9a86c"/>
      <stop offset=".2" stop-color="#d29443"/>
      <stop offset=".3" stop-color="#b77f39"/>
      <stop offset=".4" stop-color="#9b6a2e"/>
      <stop offset=".7" stop-color="#d59d56"/>
    </linearGradient>
    <linearGradient id="Degradado_sin_nombre_23" data-name="Degradado sin nombre 23" x1="-29672.8" y1="143.4" x2="-29671.5" y2="143.4" gradientTransform="translate(2417.8 -1966.5) rotate(-45) scale(.1 -.1)" gradientUnits="userSpaceOnUse">
      <stop offset="0" stop-color="#d1933f"/>
      <stop offset="0" stop-color="#b57e36"/>
      <stop offset="0" stop-color="#92642a"/>
      <stop offset=".2" stop-color="#7b5222"/>
      <stop offset=".3" stop-color="#6e481d"/>
      <stop offset=".4" stop-color="#6a451b"/>
      <stop offset=".5" stop-color="#6f4a1e"/>
      <stop offset=".6" stop-color="#815624"/>
      <stop offset=".7" stop-color="#9f6d2f"/>
      <stop offset=".8" stop-color="#cb8e3d"/>
      <stop offset=".8" stop-color="#ce903d"/>
      <stop offset="1" stop-color="#dcb27e"/>
    </linearGradient>
    <linearGradient id="Degradado_sin_nombre_22" data-name="Degradado sin nombre 22" x1="267.3" y1="328" x2="396.1" y2="388.3" gradientTransform="translate(0 451.5) scale(1 -1)" gradientUnits="userSpaceOnUse">
      <stop offset=".2" stop-color="#b77f39"/>
      <stop offset=".3" stop-color="#9b6a2e"/>
      <stop offset=".5" stop-color="#69431b"/>
      <stop offset=".7" stop-color="#70481d"/>
      <stop offset="1" stop-color="#b77f39"/>
    </linearGradient>
    <linearGradient id="Degradado_sin_nombre_24" data-name="Degradado sin nombre 24" x1="213.8" y1="133.6" x2="215.1" y2="133.6" gradientTransform="translate(-19965 1217.4) rotate(-35) scale(79.9)" gradientUnits="userSpaceOnUse">
      <stop offset="0" stop-color="#b77f39"/>
      <stop offset=".2" stop-color="#9b6a2e"/>
      <stop offset=".4" stop-color="#7d5222"/>
      <stop offset=".7" stop-color="#6e461c"/>
      <stop offset=".8" stop-color="#69431b"/>
      <stop offset="1" stop-color="#70481d"/>
    </linearGradient>
  </defs>
  <g class="st8">
    <rect class="st6" x="303.1" y="81.2" width="72" height="53" transform="translate(-16 85.2) rotate(-14)"/>
  </g>
  <path class="st1" d="M94,183c0,7.6,4.8,15.1,14.2,14.8,9.3.2,14-7.3,14-14.8s-4.6-15.1-14-14.8h-.6c-9.1,0-13.7,7.4-13.7,14.9h0ZM58.2,168.3v41.2c-23.7-22.4-60.5-2-57.8,29.6-3.3,30.9,38.2,50.5,57.9,25.7l1.2,8.7h21.1c-1.7-12.8-2.9-26.8-3.3-41.8-.6-23.6.9-44.9,3.3-63.4h-22.4ZM40.4,255.5c-9.1,0-18.2-5.8-17.4-17.5-1.6-23.4,36.4-23.2,35.1,0,.7,11.6-8.5,17.5-17.7,17.5ZM95.1,203.2h23.3v67.5h-23.3c1.1-10.3,1.9-21.9,1.9-34.6s-.8-23.1-1.9-32.9ZM95.1,203.1s0,0,0,.1h0ZM444.7,194.4v23.5c-4.1-.7-16.7-2.1-25.2,5.4-7.5,6.7-7.9,17.1-8.4,29.7-.3,9.4.9,17.2,2.1,22.5h-25.6c1.2-13.5,1.9-28.2,1.8-44.1,0-13.1-.8-25.4-1.8-36.9h24.1l1.3,11.8c15.2-10.5,23.7-12.5,28.1-12.5s3,.4,3.6.6ZM348.4,247.3c16.9-2.4,34.5-14.2,26.2-34.7-4.4-10.9-13.9-14.3-24.3-15.1-2.2-.2-4.4-.2-6.4-.2-14.9,0-24.6,4.2-30.9,12.4h0c-11.9,15.2-14.3,56.6,7.1,66.3,19.5,9.9,55.2,2.3,54.4-25h-19.4c.1,15.4-30.6,14.8-28-2l21.2-1.7ZM342.2,215.7c8.6-1.3,14.5,8.5,7.3,13.9h.1c-3.7,2.6-17,2.9-22.5,3.6-1.4-10.4,4.6-18,15.1-17.5ZM198.3,205.9c12.5,11,7.3,56.1,6.7,67.8h-21.2c.4-11.7,7.2-55.7-14.5-55.2-9.2-.1-15.1,6-15,15v40.2h-20.7c.8-7.9,1.6-18.9,1.4-32.7v-2.7c-.2-9-.9-21.2-3.2-36.4,7-.5,14.1-1.1,21.2-1.6l1.5,7.6h0c4.8-6.7,14.9-10,23-10s16.1,2.6,20.8,8ZM283.4,205.9c12.5,11,7.3,56.1,6.7,67.8h-21.2c.4-11.7,7.2-55.7-14.5-55.2-9.2-.1-15.1,6-15,15v40.2h-20.7c.8-7.9,1.6-18.9,1.4-32.7v-2.7c-.2-9-.9-21.2-3.2-36.4,7-.5,14.1-1.1,21.2-1.6l1.5,7.6c4.8-6.7,14.9-10,23-10s16.1,2.6,20.8,8Z"/>
  <path class="st0" d="M353.4,421l21.2-1.7c16.9-2.4,34.5-14.2,26.2-34.7-4.4-10.9-13.9-14.3-24.3-15.1-2.2-.2-4.4-.2-6.4-.2-14.9,0-24.6,4.2-30.9,12.4h0c-11.9,15.2-14.3,56.6,7.1,66.3,19.5,9.9,55.2,2.3,54.4-25h-19.4c0,15.4-30.6,14.8-28-2ZM368.4,387.5c8.6-1.3,14.5,8.5,7.3,13.9h0c-3.7,2.7-17,3-22.5,3.6-1.4-10.4,4.6-18,15.1-17.5ZM277.2,359.9c0,7.5-4.7,15-14,14.8-9.4.3-14.2-7.2-14.2-14.8h0c0-7.4,4.6-14.8,13.7-14.8h.6c9.4-.3,14,7.3,14,14.8ZM250.2,380.1h23.3v67.5h-23.3c1.1-10.3,1.9-21.9,1.9-34.6s-.8-23.1-1.9-32.9ZM250.2,380s0,0,0,0h0ZM292.2,336.1h27.4v111.4h-27.4c1.4-16.9,2.3-36,2.3-57,0-19.9-1-38.2-2.3-54.4ZM82.4,445.5c-11.2,4.8-25,4.9-36.3.3-5.5-2.2-10.7-5.8-14.1-10.9-1.9-3-5.1-11.5-1.4-14.3,2.1-1.6,7.7-.6,10.1-.6h11.2c-.6,3.7-.2,7.6,3.2,9.8,4.4,2.8,10.2,2.7,14.9.4,1.9-.9,3.7-2.2,4.6-4.1,2.6-5.1-4.3-9.8-8.3-11.4-4.1-1.7-8.6-2.1-12.9-2.5-16-1.3-23.6-14.8-22.4-27.6-.2-3.1.2-6.4,1.5-9.2,1.7-3.6,4.6-6.3,7.8-8.5,2.1-1.7,4.6-3.2,7.4-4.2,1.7-.6,3.6-1.1,5.6-1.6h0c4.4-1.2.8-1.9,13.9-1.9s25.6,5.2,27.7,19.3c.2,1.4.4,2.7.6,4v.6c0,.2-.4.4-.6.4-4.6,1.9-13.9,6-19,4.7-4.1-1-2.7-6.2-5.8-8.9-4.2-3.6-10.5-3-13.8,1.7-1.1,1.6-1.7,3.4-1.6,5.3.5,6.6,9.6,8.4,14.6,9.3,7.6,1.4,15.4,3,21.9,7.7,16.3,11.9,7.1,35.4-8.8,42.2ZM236,447.5h-23.8l2.6-47.3c.1-9.3-5.2-15.8-14.3-15.8-10,0-17.2,9.1-16.8,19.2v43.9h-21.9l-3.9-46.5c0-9.4-4.5-15.1-13.6-15.1-9.9,0-15.4,7.6-14.9,17.7l1.6,43.9h-23.6c1-10.9,1.6-23.3,1.2-36.8-.5-17-2.5-32.1-5-45.1h24.2l1.7,8.6h0c6.3-8.7,16-13.3,26.4-13.3s20.2,5.2,23.5,16.1c8.5-16.9,41.5-19.5,53.1-6.8,14,11.7,3.5,66.2,3.5,77.3Z"/>
  <path class="st4" d="M181.9,325.9c2.4-1.7,11.3-1.9,15-2.3,1,6.6-3.1,11.4-10.1,11.1h-1.1c-5.1,0-8.3-5.7-3.8-8.9M165.2,312.2h12.9c0-9.8,20.4-9.4,18.7,1.3l-14.1,1.1c-11.3,1.5-23,9-17.5,22.1,2.9,6.9,9.3,9.1,16.2,9.6,12.4.8,20.1-1.8,24.9-7.7,7.9-9.7,9.5-36-4.8-42.2-3.6-1.7-8.1-2.6-12.6-2.6-11.8,0-24.1,6-23.7,18.5h0ZM117.1,303.8l-.8-7.1h-14.6c.6,7,1,14.5,1.1,22.4,0,9.6-.4,18.6-1.1,26.8h15.6c-.7-3.2-1.5-8-1.2-13.7.3-7.7.5-14,5.1-18.1,5.2-4.6,12.8-3.7,15.3-3.3v-14.3c-.3-.1-1-.4-2.2-.4-2.7,0-7.8,1.2-17.1,7.6h-.1ZM55.6,322.7c0-6.6,5.8-12,12.9-12s12.9,5.4,12.9,12-5.8,12-12.9,12-12.9-5.4-12.9-12M40.5,322.7c0,14.4,12.5,26.1,28,26.1s28-11.7,28-26.1-12.5-26.1-28-26.1-28,11.7-28,26.1ZM17.8,288.8s-7.9,5.7-8.6,16.1c-.1,1.7-.2,4.7-.2,8.5H1.6v13.9h7.3c-.1,13.9-.2,29.5-.5,33.7,4.3,0,13.7.6,18,.6-.6-2.9-1.2-7-1-12,.1-3.1-.6-12.5-1-22.3h8.7v-13.9h-8.9c.1-5.8.6-10.6,1.8-12.5,3-4.9,15.4-3.9,17.5-3.6v-12.6c-.5-.2-3.9-1.1-8.5-1.1s-11.2,1.1-17,5.2h-.2Z"/>
  <path class="st5" d="M309.6,121.5h-.2.2Z"/>
  <path class="st7" d="M368.2,89.4l.4-.5c1.6.4,2.6,2.3,2.1,4-1.8,6-6.3,11-10.6,15.6-.6.6-1.1,1.1-1.6,1.6-7,7.1-15.6,12.7-25.5,14.9-8.3,1.8-19.2,2.9-25.6-3.8l.3-.3c-1.3-1.4-1.3-3.2,0-4.6,0,0,.2,0,.3-.2,0,0,0,0,0-.2,1.2-1.3,3.4-1.3,4.6,0,.2.3.5.5.7.7s.2.2.3.2l.2.2h.2c.2,0,.5.3.7.4.2.2.5.3.7.4.2,0,.3.2.5.2h.5c.2,0,.5.3.8.3.5.2,1.1.3,1.6.4.3,0,.6.2.9.2h.2c1.2.2,2.2.2,3.3.2h3.1c.5,0,1.1-.2,1.6-.2h.8c1.8-.2,3.6-.6,5.4-1.1,1.2-.3,2.2-.6,3.3-1,.6-.2,1.2-.5,1.7-.7h0c.3,0,.6-.3.9-.4,2.2-1.1,4.5-2.2,6.5-3.7.6-.4,1.2-.8,1.6-1.2.2,0,.5-.3.7-.5,0,0,.3-.2.4-.3,1-.7,1.8-1.5,2.8-2.2,1.5-1.3,2.8-2.6,4.2-4.1.3-.3.5-.6.8-.9.2-.3.5-.5.7-.8.7-.8,1.4-1.6,2-2.3.4-.5.9-1,1.3-1.6,0,0,.2-.2.2-.3,0-.2.3-.5.5-.7,0-.2.3-.4.4-.5.5-.8,1.1-1.6,1.6-2.5.2-.3.3-.6.5-.9,0-.2.2-.4.2-.5h0v-.6c0-.3.2-.6.3-.9,0-.4.3-.8.6-1.1.6-1,1.6-1.6,2.7-1.6h.9l-.3.4ZM313.6,117h0ZM367,167.5h0v-.2.2ZM403,145.1c0,4.4-.3,8.8-.5,13.2,0,2.5-.4,5.1-.9,7.7-.5,2.3-1.6,4.9-3.3,6.6s-3.9,2.1-5.8,1.8c-1.1.8-2.3,1.3-3.7,1.3s-2.9-.6-4.1-1.5c-.4-.2-.7-.5-1-.8-.4.3-.9.5-1.3.7-1.8.8-4,.7-5.6-.2-1,.6-2.1,1-3.3,1-2.8,0-5.7-2.1-6.4-4.9-.3-.7-.3-1.6-.3-2.3,0-1.2,0-2,.6-3.1.9-7,1-13.9.6-20.8,3.4-4,6.5-8,9.5-12.1,2.7-3.7,5.4-7.6,7.6-11.7,1.1-1.8-1.8-3.4-2.7-1.6-4,7.5-9.3,14.1-14.5,20.6-2.6,3.4-5.5,6.6-8.5,9.6s-4,3.3-6.2,5.1c-1.3,1-2.3,1.8-3.4,3-.2.2-.4.5-.6.7-3.8,2.6-7.7,5.1-11.6,7.5-3.1,1.9-7.2.7-9.1-2.3-.5-.9-.9-1.8-.9-2.9-1.6.3-3,0-4.4-.8-5.8-2.8-11.5-5.9-17-9.4-5.2-3.2-10.3-6.8-15-10.8-4.5-4.9-8.8-9.9-12.1-15.7-1.1-1.8-3.8-.2-2.7,1.6,3.7,6.2,8.5,11.7,13.3,17.1-.6,7.9-.6,16,.4,23.9.5,1,.5,1.8.5,2.9s0,1.6-.3,2.4c-.7,2.8-3.4,4.7-6.1,4.7-1.1,0-2-.3-3-.9-.4.2-.9.4-1.3.5-1.2.3-2.2.3-3.4,0-.6,0-1.2-.4-1.7-.8-.5.5-1,1-1.5,1.2-1,.5-2,.9-3.2.9s-2.5-.4-3.6-1.2c-1.9.2-4.1-.4-5.5-1.8-1.8-1.9-2.8-4.7-3.2-7.3-.4-2.8-.7-5.6-.8-8.5v-.3c-.5-10.9-1-21.7-1-32.7s.6-18.2,1.6-27.2v-1.6c0-2.5,0-5,.2-7.5.3-5.4.2-10.8.4-16.2.2-5.8.5-11.6.8-17.4.2-5.6.2-11.2.2-17s0-11.1.3-16.8c0-1.8.7-3.2,1.8-4.6,1.2-1.3,2.8-1.8,4.6-1.8s3.4.8,4.6,1.8,1.9,2.9,1.8,4.6c-.3,3.7-.3,7.3-.3,11,3.2-9.1,7.8-17.4,12.3-26,1.7-3.1,5.7-3.9,8.8-2.2,1.5.8,2.5,2.3,2.9,3.9.5,1.6.2,3.4-.7,4.9-3.2,6-6.5,12-9.3,18.3-.9,2.1-1.6,4.5-2.3,6.6,1.6-2.4,3.2-4.8,5-7.2,3.3-4.3,6.7-8.5,10.5-12.3,3.7-3.7,7.9-7.2,12.5-9.6,3.2-1.7,6.8-.8,8.8,2.2,1.8,2.8.7,7.2-2.2,8.8-1.7,1-3.3,1.9-4.8,3.1-5.1,4.2-9.5,9.2-13.6,14.3-2.9,3.9-5.5,7.9-7.9,12.2,1.6-.8,3.4-1.4,5.2-1.6,2.7-.4,5.2-.4,7.9.2,2.1.5,4.4,1.5,6.3,2.5.7.4,1.2.9,1.6,1.5,2.1,1.1,4.2,2.2,6,3.8,3,2.3,5.5,5.4,7.8,8.5,0,0,.2.2.2.3.9-1.3,1.8-2.4,2.7-3.6,2.8-3.4,6.1-6.5,10-8.7,1-.6,2-1.1,3.1-1.6.4-.5,1-1,1.6-1.3,5.1-2.8,10.7-3.7,16.5-2.5,1.6.4,3,.9,4.5,1.6-1.7-2.9-3.6-5.8-5.6-8.6-4.7-5.9-9.8-11.6-15.8-16.4-2-1.6-4.4-3.1-6.8-4.3-1.6-.8-2.5-2.3-3-4-.6-1.7-.2-3.6.7-5.1.8-1.5,2.4-2.5,4-3,1.8-.5,3.5,0,5.1.7,5.5,2.6,10.4,6.6,14.7,10.9,6,5.9,11.5,12.6,16.2,19.7-.6-1.8-1.3-3.6-1.9-5.3-3.1-7.2-7.2-13.9-11-20.7-1.8-3.2-.7-7.1,2.3-9.1,1-.7,2.1-1,3.4-1s1.3,0,1.8.2c1.6.4,3.1,1.6,4,3,2.9,5.2,6,10.3,8.7,15.7,1.8,3.8,3.6,7.8,5,11.7,0-4.2,0-8.2-.4-12.3,0-1.8.9-3.5,1.9-4.7,1.3-1.4,3-1.9,4.7-1.9s3.6.9,4.7,1.9c1.4,1.4,1.8,2.9,1.9,4.7.5,6.3.3,12.8.3,19.1-.2,11.5.8,23.2,1.2,34.7.2,5.2,0,10.4.4,15.6v6.8c.5,3.6.8,7.2,1.1,10.8.9,12.6.8,25.1.2,37.7l-.4.3ZM359.8,62.6c-2.6-1.2-5.1-1.4-7.9-1.1-1.5.3-2.7.7-4.1,1.2-1.3.7-2.4,1.4-3.6,2.1-1.9,1.7-3.9,3.6-5.5,5.6-1.6,2-2.9,4.2-4.3,6.2-.4.9-.9,1.7-1.5,2.1-.9.8-1.8,1.4-2.9,1.7-.5.2-1.1.2-1.6.2-.9.4-1.7.6-2.6.6s-1.1,0-1.6-.2c-1.4-.3-2.4-1.3-3.3-2.2v-.2c-.4-.5-.7-1-.9-1.5-1.6-2.5-3.1-5.1-4.9-7.6-1.5-1.7-2.9-3.3-4.7-4.7-1-.7-1.9-1.3-3-1.8-1.2-.4-2.2-.8-3.5-1-1.7-.2-3.5-.2-5.2,0-12.8,1.4-19.4,15.9-19.8,27.1h-.2c-.2,3.6-.3,7.4.7,10.9.8,2.7,2,5.3,3.5,7.9,1.7,3.2,3.4,6.7,5.6,9.5,3.9,4.9,8.5,9.4,13.5,13.2,1.8,1.4,3.6,2.6,5.4,3.9,6.9,4.7,14.3,8.9,21.9,12.7s2.4,2.3,2.9,3.9c.2.2.2.4.2.6,5.2-3.2,10.2-6.5,15-10.2,7.1-5.6,13.7-11.8,19.3-18.9,3.6-4.8,6.8-10,9.3-15.5.7-1.8,1.2-3.6,1.5-5.4,1.6-15.5-2.4-32.4-17.8-39.4v.3ZM290.6,168.2h0v.2-.2Z"/>
  <path class="st2" d="M185,111.9c.6-2,1.3-3.8,1.9-5.7.5-1.9.9-3.4,1.1-4.7.3,1.3.6,2.9,1.1,4.7.6,2,1.1,3.8,1.8,5.6,3.3,9.7,5.9,17,7.9,23h-21.7c2.6-7.7,5.2-15.3,7.9-23M176.3,69.7c-10.1,37-23.8,72.8-39.3,107.8h25.2l7.9-22.9h35.6l7.8,22.7h25.6c-14.8-37.9-30.1-76-39.2-107.8h-23.6.1Z"/>
</svg>