<?xml version="1.0" encoding="utf-8"?>
<!-- Generator: Adobe Illustrator 26.4.1, SVG Export Plug-In . SVG Version: 6.00 Build 0)  -->
<svg version="1.1" id="Layer_1" xmlns="http://www.w3.org/2000/svg" xmlns:xlink="http://www.w3.org/1999/xlink" x="0px" y="0px"
	 viewBox="0 0 41.87 34.72" style="enable-background:new 0 0 41.87 34.72;" xml:space="preserve">
<style type="text/css">
	.st0{fill:url(#SVGID_1_);}
	.st1{fill:url(#SVGID_00000152965464204315180580000000118339471063759759_);}
	.st2{fill:#F9F9FA;}
	.st3{fill:#D8D9D8;}
	
		.st4{clip-path:url(#SVGID_00000083063634513833355400000001747462734843170748_);fill:url(#SVGID_00000103245180875976478190000013713807085303742124_);}
	.st5{fill:#121111;}
	.st6{fill:#F6EA12;}
	.st7{fill:#1D9849;}
	.st8{fill:#F7C047;}
	.st9{fill:#DC2427;}
	.st10{fill:#288AC7;}
	
		.st11{clip-path:url(#SVGID_00000087390543132402738850000011448481537659916958_);fill:url(#SVGID_00000088135157260540509850000009474149524371728513_);}
	
		.st12{clip-path:url(#SVGID_00000060712449276449214180000003956900188016588963_);fill:url(#SVGID_00000102524653452471859370000002865402879440624044_);}
	
		.st13{clip-path:url(#SVGID_00000142134178829892745970000010337202314221670303_);fill:url(#SVGID_00000137111357696089235190000003917422691677783437_);}
	.st14{fill:#9B6B3A;}
	.st15{fill:none;stroke:#9B6B3A;stroke-width:0.4622;stroke-miterlimit:10;}
	
		.st16{clip-path:url(#SVGID_00000161598415629930406510000001353249935404830111_);fill:url(#SVGID_00000047031505433517416450000009405083115517814424_);}
	
		.st17{clip-path:url(#SVGID_00000167367645810118649060000015019512328794001582_);fill:url(#SVGID_00000084504745470042672760000002402085918999635854_);}
	
		.st18{clip-path:url(#SVGID_00000046315319243993140120000016114313263829842340_);fill:url(#SVGID_00000112629603288646109380000005873144514519371434_);}
	.st19{fill:#FFFFFF;}
	.st20{fill:none;}
	.st21{fill:url(#SVGID_00000088101311352819259450000006298165186346720128_);}
	.st22{fill:url(#SVGID_00000176000904757295270250000000021987574969226119_);}
	.st23{fill:url(#SVGID_00000036249369709935349650000010690601960964672643_);}
	.st24{fill:url(#SVGID_00000078757576444267098330000010560005840576392123_);}
	.st25{fill:url(#SVGID_00000016793391043458993730000006378122326306392500_);}
	.st26{fill:url(#SVGID_00000106123959598286425630000012261819806152739972_);}
	.st27{fill:url(#SVGID_00000066486461677817952510000012862121405029707649_);}
	.st28{fill:url(#SVGID_00000049925156056126894130000003581320434739662483_);}
	.st29{fill:url(#SVGID_00000031908735854792879880000015836827269202650542_);}
	.st30{fill:url(#SVGID_00000103982354804878657200000006793240323999890059_);}
	.st31{fill:url(#SVGID_00000031928988682316022640000013869458307547513526_);}
	.st32{fill:url(#SVGID_00000012469653921725788790000011005402734961706915_);}
	.st33{fill:url(#SVGID_00000057124484465224598270000015330901339862842813_);}
	.st34{fill:url(#SVGID_00000084503218678739025550000002413445117076284322_);}
	.st35{fill:url(#SVGID_00000109714944456252788130000005955772324580187048_);}
	.st36{fill:url(#SVGID_00000137118753029291707130000000367515793027157933_);}
	.st37{fill:url(#SVGID_00000015348113729590896390000009548205478004258738_);}
	.st38{fill:url(#SVGID_00000155131673474664231630000006023841208202951306_);}
	.st39{fill:url(#SVGID_00000178897713394080501520000009517405320440947616_);}
	.st40{fill:url(#SVGID_00000037693209695230368110000003476804605925926542_);}
	.st41{fill:url(#SVGID_00000154391369951364314420000017882683800162221714_);}
	.st42{fill:url(#SVGID_00000122715549492003470480000006146211411149127584_);}
	.st43{fill:url(#SVGID_00000045610371720904442060000013319012931881501570_);}
	.st44{fill:url(#SVGID_00000100376393704361682490000011805938638296672683_);}
	.st45{fill:url(#SVGID_00000008838565392101820260000012795583444008986298_);}
	
		.st46{clip-path:url(#SVGID_00000081609523684198378280000011819310548176309151_);fill:url(#SVGID_00000000180938566372533100000013070223758730824362_);}
	.st47{fill:#179BD7;}
	.st48{fill:none;stroke:#2A2D44;stroke-width:1.1907;stroke-miterlimit:10;}
	.st49{fill:#121C47;}
	.st50{fill:#CAE7F9;}
	.st51{fill:#E01F26;}
</style>
<rect x="9.6" y="10.08" class="st51" width="17.73" height="1.55"/>
<rect x="9.6" y="12.67" class="st51" width="17.73" height="1.55"/>
<rect x="9.6" y="15.25" class="st51" width="17.73" height="1.55"/>
<rect x="9.6" y="23" class="st51" width="17.73" height="1.55"/>
<rect x="9.6" y="17.84" class="st51" width="17.73" height="1.55"/>
<rect x="9.6" y="20.42" class="st51" width="17.73" height="1.55"/>
<rect x="9.6" y="10.08" class="st49" width="7.38" height="6.74"/>
<path class="st19" d="M11.42,11.15c0,0.22-0.19,0.4-0.43,0.4c-0.24,0-0.43-0.18-0.43-0.4c0-0.22,0.19-0.4,0.43-0.4
	C11.22,10.75,11.42,10.93,11.42,11.15"/>
<path class="st19" d="M13.72,11.15c0,0.22-0.19,0.4-0.43,0.4c-0.24,0-0.43-0.18-0.43-0.4c0-0.22,0.19-0.4,0.43-0.4
	C13.53,10.75,13.72,10.93,13.72,11.15"/>
<path class="st19" d="M16.02,11.15c0,0.22-0.19,0.4-0.43,0.4c-0.24,0-0.43-0.18-0.43-0.4c0-0.22,0.19-0.4,0.43-0.4
	C15.83,10.75,16.02,10.93,16.02,11.15"/>
<path class="st19" d="M11.42,13.46c0,0.22-0.19,0.4-0.43,0.4c-0.24,0-0.43-0.18-0.43-0.4c0-0.22,0.19-0.4,0.43-0.4
	C11.22,13.06,11.42,13.24,11.42,13.46"/>
<path class="st19" d="M13.72,13.46c0,0.22-0.19,0.4-0.43,0.4c-0.24,0-0.43-0.18-0.43-0.4c0-0.22,0.19-0.4,0.43-0.4
	C13.53,13.06,13.72,13.24,13.72,13.46"/>
<path class="st19" d="M16.02,13.46c0,0.22-0.19,0.4-0.43,0.4c-0.24,0-0.43-0.18-0.43-0.4c0-0.22,0.19-0.4,0.43-0.4
	C15.83,13.06,16.02,13.24,16.02,13.46"/>
<path class="st19" d="M11.42,15.76c0,0.22-0.19,0.4-0.43,0.4c-0.24,0-0.43-0.18-0.43-0.4c0-0.22,0.19-0.4,0.43-0.4
	C11.22,15.36,11.42,15.54,11.42,15.76"/>
<path class="st19" d="M13.72,15.76c0,0.22-0.19,0.4-0.43,0.4c-0.24,0-0.43-0.18-0.43-0.4c0-0.22,0.19-0.4,0.43-0.4
	C13.53,15.36,13.72,15.54,13.72,15.76"/>
<path class="st19" d="M16.02,15.76c0,0.22-0.19,0.4-0.43,0.4c-0.24,0-0.43-0.18-0.43-0.4c0-0.22,0.19-0.4,0.43-0.4
	C15.83,15.36,16.02,15.54,16.02,15.76"/>
</svg>
