<?xml version="1.0" encoding="utf-8"?>
<!-- Generator: Adobe Illustrator 26.4.1, SVG Export Plug-In . SVG Version: 6.00 Build 0)  -->
<svg version="1.1" id="Layer_1" xmlns="http://www.w3.org/2000/svg" xmlns:xlink="http://www.w3.org/1999/xlink" x="0px" y="0px"
	 viewBox="0 0 216 173.11" style="enable-background:new 0 0 216 173.11;" xml:space="preserve">
<style type="text/css">
	.st0{fill:url(#SVGID_1_);}
	.st1{fill:url(#SVGID_00000138569269382014198070000010442008776432541374_);}
	.st2{fill:#F9F9FA;}
	.st3{fill:#D8D9D8;}
	
		.st4{clip-path:url(#SVGID_00000012456296536899477390000014277600762300696716_);fill:url(#SVGID_00000006690732896406959080000013130765201985983110_);}
	.st5{fill:#121111;}
	.st6{fill:#F6EA12;}
	.st7{fill:#1D9849;}
	.st8{fill:#F7C047;}
	.st9{fill:#DC2427;}
	.st10{fill:#288AC7;}
	
		.st11{clip-path:url(#SVGID_00000170973279908925662120000001282374523491131009_);fill:url(#SVGID_00000015314221096847453710000011041090532136134067_);}
	
		.st12{clip-path:url(#SVGID_00000058581769980229512010000005003813790156198283_);fill:url(#SVGID_00000031201038307630509810000010371259504467786407_);}
	
		.st13{clip-path:url(#SVGID_00000039101266262230623260000000633214694592077212_);fill:url(#SVGID_00000098914321243102447240000008382398579776317101_);}
	.st14{fill:#9B6B3A;}
	.st15{fill:none;stroke:#9B6B3A;stroke-width:0.4622;stroke-miterlimit:10;}
	
		.st16{clip-path:url(#SVGID_00000176035653275526883860000001701434620126388881_);fill:url(#SVGID_00000024682208539185673880000001342659377037687953_);}
	
		.st17{clip-path:url(#SVGID_00000036224890002940697050000008444946215708673968_);fill:url(#SVGID_00000124884287467137740940000002802952199428884654_);}
	
		.st18{clip-path:url(#SVGID_00000078008115626438059750000005514920032047012254_);fill:url(#SVGID_00000030463111647086552630000017046897271115825598_);}
	.st19{fill:#FFFFFF;}
	.st20{fill:none;}
	.st21{fill:url(#SVGID_00000106860670569473381820000007811725322647519932_);}
	.st22{fill:url(#SVGID_00000023982526538873177950000013602190658549452218_);}
	.st23{fill:url(#SVGID_00000108293970091454962020000013645627434157592458_);}
	.st24{fill:url(#SVGID_00000107556853426453137020000008541376878942955648_);}
	.st25{fill:url(#SVGID_00000051358650446208929670000000323975068316508094_);}
	.st26{fill:url(#SVGID_00000047744897857076484760000016577892038737000367_);}
	.st27{fill:url(#SVGID_00000038406152143224635790000001590371266758006165_);}
	.st28{fill:url(#SVGID_00000097458350746470767220000007239086969737778076_);}
	.st29{fill:url(#SVGID_00000161617456868404331240000009924407351875231402_);}
	.st30{fill:url(#SVGID_00000131369459342754450300000015914772737442926768_);}
	.st31{fill:url(#SVGID_00000176760658703896289000000012149983394391742617_);}
	.st32{fill:url(#SVGID_00000161622303431350803730000008359713895029817758_);}
	.st33{fill:url(#SVGID_00000177466298642348993640000004504185124792650395_);}
	.st34{fill:url(#SVGID_00000056385735190371026030000008287114194765263538_);}
	.st35{fill:url(#SVGID_00000176734009228754073460000008730778336693600177_);}
	.st36{fill:url(#SVGID_00000059274929602663086250000017987517745040623257_);}
	.st37{fill:url(#SVGID_00000075864728472699726860000012616648440608298404_);}
	.st38{fill:url(#SVGID_00000069379014596176516490000014862438214176647554_);}
	.st39{fill:url(#SVGID_00000094608554989064000080000017499247951137224101_);}
	.st40{fill:url(#SVGID_00000022535490975346572700000012608274640790283677_);}
	.st41{fill:url(#SVGID_00000105387069869768301420000015707642793108777115_);}
	.st42{fill:url(#SVGID_00000149378414605201812880000016344282676045874317_);}
	.st43{fill:url(#SVGID_00000160159899248853803800000010447970905569116326_);}
	.st44{fill:url(#SVGID_00000043459119408771299060000014571700293783287461_);}
	.st45{fill:url(#SVGID_00000021103556352526784420000018209261551410504853_);}
	
		.st46{clip-path:url(#SVGID_00000107567662470769861580000011302697560238087608_);fill:url(#SVGID_00000044157404058870722120000006755534148639503497_);}
	.st47{fill:#179BD7;}
	.st48{fill:none;stroke:#2A2D44;stroke-width:1.1907;stroke-miterlimit:10;}
	.st49{fill:#121C47;}
	.st50{fill:#CAE7F9;}
	.st51{fill:#E01F26;}
</style>
<g>
	<path class="st2" d="M187.9,87.64c0,42.03-33.94,76.11-75.81,76.11c-41.87,0-75.81-34.08-75.81-76.11s33.94-76.11,75.81-76.11
		C153.96,11.53,187.9,45.6,187.9,87.64"/>
	<path class="st3" d="M182.15,87.64c0,38.85-31.37,70.34-70.06,70.34c-38.7,0-70.07-31.49-70.07-70.34S73.39,17.3,112.09,17.3
		C150.78,17.3,182.15,48.79,182.15,87.64"/>
	<g>
		<defs>
			<path id="SVGID_00000181772560773201644190000013808804425680437413_" d="M44.72,87.64c0,37.35,30.16,67.63,67.37,67.63
				s67.37-30.28,67.37-67.63s-30.16-67.63-67.37-67.63S44.72,50.29,44.72,87.64"/>
		</defs>
		<clipPath id="SVGID_00000013904406278482107360000010542113952749354117_">
			<use xlink:href="#SVGID_00000181772560773201644190000013808804425680437413_"  style="overflow:visible;"/>
		</clipPath>
		
			<linearGradient id="SVGID_1_" gradientUnits="userSpaceOnUse" x1="1461.4506" y1="926.7995" x2="1462.5823" y2="926.7995" gradientTransform="matrix(119.05 0 0 -119.05 -173940.9688 110423.125)">
			<stop  offset="0" style="stop-color:#D29441"/>
			<stop  offset="0.0585" style="stop-color:#B47D37"/>
			<stop  offset="0.15" style="stop-color:#92632B"/>
			<stop  offset="0.2369" style="stop-color:#7B5122"/>
			<stop  offset="0.3165" style="stop-color:#6E471D"/>
			<stop  offset="0.3819" style="stop-color:#6A441B"/>
			<stop  offset="0.4554" style="stop-color:#6F491E"/>
			<stop  offset="0.5631" style="stop-color:#815524"/>
			<stop  offset="0.6919" style="stop-color:#9F6C30"/>
			<stop  offset="0.8335" style="stop-color:#CC8F40"/>
			<stop  offset="0.8335" style="stop-color:#CE913F"/>
			<stop  offset="1" style="stop-color:#DDB380"/>
		</linearGradient>
		
			<rect x="44.72" y="20.01" style="clip-path:url(#SVGID_00000013904406278482107360000010542113952749354117_);fill:url(#SVGID_1_);" width="134.73" height="135.26"/>
	</g>
	<path class="st2" d="M172,87.64c0,33.22-26.82,60.15-59.91,60.15c-33.09,0-59.91-26.93-59.91-60.15S79,27.49,112.09,27.49
		C145.17,27.49,172,54.42,172,87.64"/>
	<path class="st5" d="M69.27,67.5c-0.13-1.41,0.3-2.24,1.28-2.57c0.98-0.33,1.88,0.04,2.69,1.17c0.82-0.86,1.96-1.08,2.71-0.27
		c0.72,0.78,1.23,0.55,1.99,0.33c0.85-0.25,1.45,0.28,1.89,0.92c0.47,0.69,0.54,1.43,0.07,2.15c-0.1,0.16-0.26,0.28-0.42,0.45
		c0.63,0.37,1.22,0.71,1.86,1.09c0.45-2.3,0.96-4.52,1.81-6.66c1.24-3.12,3.47-5.14,6.65-6.32c2.74-1.02,5.49-1.45,8.38-0.99
		c0.73,0.11,0.7-0.35,0.79-0.81c0.67-3.35,2.18-6.2,5.28-7.97c3.21-1.84,6.96-1.51,9.75,0.94c2.7,2.37,4.16,5.37,4.09,8.99
		c-0.01,0.26-0.03,0.5-0.11,0.76c-0.31,0.96-0.72,1.15-1.6,0.63c-1.49-0.87-2.97-1.77-4.59-2.4c-2.44-0.96-4.88-1.49-7.36-0.13
		c-0.05,0.03-0.11,0.04-0.16,0.07c-0.51,0.36-1.34,0.6-1.35,1.22c-0.01,0.48,0.83,0.59,1.31,0.81c5.18,2.34,7.4,6.5,7.75,11.9
		c0.3,4.66-1.73,8.31-4.87,11.56c-2.09,2.17-4.47,3.79-7.54,4.28c-3.88,0.61-7.58,0.13-11.05-1.76c-0.3-0.16-0.56-0.39-0.93-0.43
		c-0.11,1.86-0.74,3.56-1.66,5.29c1-0.03,1.97-0.4,2.85-0.01c2.8,1.25,6.13,1.94,7.24,5.29c0.92,2.78,1.4,5.69,0.3,8.56
		c-1.3,3.39-4.01,5.1-7.5,5.77c-0.7,0.13-1.39-0.11-2.08-0.18c-1.61-0.15-2.44,0.56-2.31,2.21c0.08,1.03,0.19,2.05,0.15,3.08
		c-0.01,0.17,0.02,0.35-0.03,0.51c-0.14,0.55-0.24,1.2-1.02,1.17c-0.74-0.03-1.27-0.44-1.4-1.18c-0.26-1.49-0.47-2.99-0.71-4.48
		c-0.51-3.18-1.02-6.36-1.52-9.54c-0.25-1.6-0.5-3.21-0.74-4.81c-5.54,2.28-10.74,1.76-15.57-1.59c-3.24-2.25-4.98-5.46-5.67-9.26
		c-0.42-2.31-0.34-4.6,0.28-6.87c0.09-0.33,0.02-0.47-0.23-0.7c-0.75-0.72-0.92-1.61-0.62-2.6c0.3-0.98,0.99-1.45,2.01-1.4
		c0.42,0.02,0.32-0.21,0.31-0.42c-0.07-1.65,0.13-2.05,1.57-2.65c0.35-0.15,0.22-0.29,0.21-0.49c-0.13-2.01,1.02-2.92,2.91-2.26
		c0.36,0.13,0.46-0.03,0.64-0.2c1.06-0.94,1.69-1,2.83-0.15C68.38,67.95,68.77,67.21,69.27,67.5 M90.61,62.54
		c-0.11,2.38-1.23,4.18-2.69,5.83c-0.44,0.5-0.94,0.95-1.66,1c-1.26,0.09-1.51,0.43-1.41,1.67c0.19,2.39,0.79,4.66,1.7,6.88
		c1.15,2.8,3.08,4.94,5.69,6.43c4.07,2.32,9.97,0.59,12.43-3.7c2.52-4.39,2.91-9.1,1.74-13.97c-0.3-1.23-0.61-2.45-1.19-3.61
		C101.23,66.2,94.89,66.26,90.61,62.54 M75.13,72.57c-0.09,1.75-0.81,2.76-2.22,3.14c-1.4,0.38-2.13-0.44-2.68-1.79
		c-0.01,1.92-1.79,3.65-3.33,2.81c-0.01,0.15-0.03,0.29-0.03,0.43c-0.07,1.98-1.48,3.13-3.42,2.67c-0.67-0.16-0.54,0.31-0.58,0.54
		c-0.86,5.39,1.01,9.77,5.46,12.89c5.21,3.65,10.94,1.02,12.95-4.36c1-2.69,1.12-5.48,0.83-8.3c-0.25-2.52-1.11-4.84-2.65-6.89
		c-0.22-0.3-0.32-0.48-0.78-0.2C77.33,74.3,76.05,73.95,75.13,72.57 M82.98,98.74c0,1.86,0.49,3.62,1.36,4.43
		c0.84,0.79,1.74,1.52,2.69,2.18c0.85,0.59,1.83,0.65,2.82,0.24c1.32-0.54,2.32-1.46,2.94-2.69c1.3-2.56,0.88-5.12-0.5-7.44
		c-1.45-2.43-4.95-2.97-7.01-1.3C83.77,95.38,82.87,96.93,82.98,98.74 M99.96,56.8c0.17,0.33,0.58,0.28,0.84,0.45
		c0.88,0.57,1.25-0.05,1.58-0.66c0.42-0.79-0.53-0.58-0.75-0.92c-0.11-0.17-0.38-0.24-0.58-0.35c-0.16-0.09-0.35-0.17-0.45,0.03
		C100.37,55.8,100.18,56.28,99.96,56.8"/>
	<path class="st5" d="M126.99,91.28c1.6,0.38,2.9-0.18,4.22-1.06c1.31-0.87,2.87-0.92,4.32-0.3c1.51,0.65,2.97,1.41,4.37,2.25
		c1.66,0.99,2.28,2.64,2.6,4.44c0.39,2.23,0.73,4.44-0.01,6.68c-1.2,3.59-4.55,5.6-7.81,6.07c-0.65,0.09-1.27-0.12-1.9-0.2
		c-1.51-0.17-2.61,0.87-2.33,2.35c0.21,1.14,0.34,2.26,0.11,3.41c-0.1,0.5-0.07,1.07-0.76,1.17c-0.77,0.11-1.35-0.26-1.54-0.96
		c-0.25-0.93-0.36-1.9-0.52-2.85c-0.52-3.23-1.03-6.47-1.54-9.71c-0.51-3.26-1.02-6.53-1.52-9.79c-0.12-0.82,0.32-1.38,1.17-1.5
		C126.23,91.23,126.61,91.28,126.99,91.28 M139.53,99.94c-0.02-0.98-0.17-1.94-0.42-2.88c-0.72-2.75-3.86-4.55-6.43-3.7
		c-1.97,0.65-3.69,3-3.7,5.27c-0.01,1.83,0.29,3.61,1.82,4.91c0.55,0.47,1.14,0.89,1.69,1.36c1.27,1.08,2.67,1.23,4.08,0.34
		C138.52,104,139.57,102.26,139.53,99.94"/>
	<path class="st6" d="M104.58,89.65c4.22,0.27,8.43,0.53,12.65,0.8c-0.4,0.33-0.81,0.63-0.87,1.21c-0.29,2.73-0.62,5.46-0.89,8.19
		c-0.06,0.57-0.21,1.05-0.55,1.5c-1.42,1.9-3.38,2.96-5.7,3.33c-1.2,0.19-2.51,0.27-3.32-0.94c-0.51-0.77-0.85-1.62-0.81-2.58
		c0.11-2.95,0.21-5.89,0.32-8.84C105.46,91.33,105.45,90.36,104.58,89.65"/>
	<path class="st5" d="M104.58,89.65c0.87,0.71,0.88,1.68,0.84,2.67c-0.11,2.95-0.21,5.89-0.32,8.84c-0.04,0.96,0.3,1.81,0.81,2.58
		c0.81,1.21,2.11,1.13,3.32,0.94c2.32-0.37,4.28-1.42,5.7-3.33c0.34-0.45,0.49-0.94,0.55-1.5c0.27-2.73,0.6-5.46,0.89-8.19
		c0.06-0.58,0.47-0.89,0.87-1.21c1.24-0.05,2.08,0.82,1.97,2.02c-0.32,3.53-0.63,7.06-0.96,10.6c-0.1,1.11-0.22,2.22-0.35,3.33
		c-0.17,1.39-1.35,1.91-2.45,1.08c-1.17-0.88-2.42-0.75-3.72-0.37c-0.97,0.28-1.84,0.78-2.86,0.95c-2.38,0.38-4.29-0.48-5.84-2.13
		c-1-1.07-0.96-2.53-0.94-3.89c0.05-3.29,0.28-6.58,0.22-9.88c-0.01-0.75,0.22-1.4,0.69-1.98C103.39,89.65,103.9,89.37,104.58,89.65
		"/>
	<path class="st5" d="M153.19,93.45c-0.56-0.92-0.42-1.41,0.57-1.98c1.64-0.95,5.21-0.13,6.26,1.41c0.23,0.35,0.36,0.69,0.32,1.12
		c-0.27,3.45-0.53,6.9-0.53,10.37c0,1.04,0.39,1.75,1.3,2.23c0.48,0.26,0.97,0.51,1.44,0.78c0.5,0.29,0.87,0.68,0.78,1.32
		c-0.08,0.62-0.61,0.7-1.07,0.83c-2.7,0.74-5.41,0.61-8.1-0.01c-1.55-0.36-2.07-1.23-1.67-2.5c0.44-0.37,1.02-0.39,1.54-0.57
		c1.97-0.68,2.39-1.3,2.49-3.29c0.09-1.74,0.26-3.47,0.48-5.2c0.22-1.68-0.05-2.64-1.14-3.22
		C154.99,94.26,154.08,93.87,153.19,93.45"/>
	<path class="st7" d="M153.19,93.45c0.89,0.42,1.8,0.81,2.67,1.28c1.09,0.58,1.36,1.54,1.14,3.22c-0.22,1.72-0.39,3.46-0.48,5.2
		c-0.1,1.98-0.52,2.6-2.49,3.29c-0.52,0.18-1.09,0.21-1.54,0.57c-0.04-2.65,0.22-5.29,0.35-7.94
		C152.93,97.19,152.9,95.31,153.19,93.45"/>
	<path class="st5" d="M158.95,82.91c1.2,0.61,1.61,1.26,1.45,2.31c-0.15,1.02-0.78,1.68-1.82,1.87c-0.68,0.12-1.26-0.32-1.9-0.39
		c0.06-0.47-0.4-0.73-0.49-1.15C155.83,83.81,157.08,82.6,158.95,82.91"/>
	<path class="st7" d="M158.95,82.91c-1.87-0.31-3.11,0.9-2.75,2.64c0.09,0.42,0.55,0.67,0.49,1.15c-1.87-0.57-2.62-2.32-1.59-3.69
		C155.98,81.83,158.24,81.77,158.95,82.91"/>
	<path class="st8" d="M90.61,62.54c4.27,3.72,10.62,3.66,14.61,0.53c0.58,1.16,0.9,2.38,1.19,3.61c1.17,4.87,0.78,9.58-1.74,13.97
		c-2.46,4.29-8.35,6.02-12.43,3.7c-2.61-1.49-4.53-3.63-5.69-6.43c-0.92-2.22-1.52-4.49-1.7-6.88c-0.1-1.24,0.15-1.58,1.41-1.67
		c0.73-0.05,1.22-0.5,1.67-1C89.38,66.73,90.51,64.92,90.61,62.54 M94.63,79.52c0.73,0.02,1.45-0.1,2.17-0.24
		c3.49-0.7,4.86-3.32,5.87-6.27c0.25-0.74,0.09-1.28-0.69-1.59c-0.78-0.31-1.38-0.11-1.78,0.59c-0.39,0.7-0.72,1.43-1.09,2.14
		c-0.63,1.22-1.59,2.05-2.99,2.26c-1.48,0.23-2.94,0.24-4.33-0.5c-0.94-0.5-1.57-0.32-2.04,0.41c-0.45,0.68-0.23,1.38,0.68,2.03
		C91.67,79.25,93.13,79.46,94.63,79.52 M96.08,72.19c0.99,0.02,1.79-0.68,1.82-1.59c0.04-0.94-0.77-1.72-1.79-1.72
		c-0.99,0-1.75,0.71-1.76,1.64C94.35,71.46,95.09,72.17,96.08,72.19 M93.35,71.6c-0.01-0.95-0.75-1.59-1.79-1.57
		c-0.96,0.02-1.7,0.71-1.71,1.59c0,0.91,0.77,1.61,1.78,1.61C92.67,73.22,93.37,72.56,93.35,71.6"/>
	<path class="st8" d="M75.13,72.57c0.92,1.38,2.2,1.73,3.54,0.93c0.46-0.27,0.56-0.1,0.78,0.2c1.54,2.06,2.39,4.37,2.65,6.89
		c0.28,2.82,0.17,5.61-0.84,8.3c-2.01,5.39-7.74,8.01-12.95,4.36c-4.45-3.11-6.32-7.5-5.46-12.89c0.04-0.23-0.09-0.7,0.58-0.54
		c1.94,0.46,3.36-0.69,3.42-2.67c0-0.14,0.02-0.28,0.03-0.43c1.54,0.84,3.32-0.89,3.33-2.81c0.55,1.35,1.28,2.17,2.68,1.79
		C74.32,75.33,75.04,74.31,75.13,72.57 M73.02,89.6c0.95-0.04,1.74-0.04,2.5-0.24c1.39-0.36,2.75-0.81,3.61-2.06
		c0.33-0.47,0.47-1,0.02-1.49c-0.44-0.47-0.95-0.71-1.64-0.45c-0.47,0.18-0.88,0.44-1.26,0.76c-0.31,0.27-0.66,0.45-1.07,0.53
		c-2.23,0.44-4.17,0.07-5.6-1.83c-0.48-0.64-0.92-1.33-1.44-1.94c-0.58-0.69-1.13-0.72-1.93-0.26c-0.7,0.4-0.89,1.01-0.55,1.68
		C67.25,87.43,69.49,89.8,73.02,89.6 M78.27,80.68c0.01-0.95-0.7-1.64-1.7-1.65c-1.01-0.01-1.78,0.67-1.8,1.58
		c-0.02,0.9,0.77,1.66,1.73,1.68C77.48,82.31,78.26,81.61,78.27,80.68 M71.86,78.86c-0.97,0.01-1.7,0.69-1.71,1.58
		c-0.01,0.93,0.74,1.65,1.74,1.66c0.95,0.01,1.78-0.76,1.77-1.65C73.65,79.54,72.87,78.85,71.86,78.86"/>
	<path class="st9" d="M82.98,98.74c-0.11-1.81,0.79-3.36,2.3-4.59c2.06-1.68,5.55-1.13,7.01,1.3c1.39,2.32,1.81,4.89,0.5,7.45
		c-0.63,1.23-1.62,2.15-2.94,2.69c-0.99,0.41-1.97,0.35-2.82-0.24c-0.95-0.66-1.85-1.39-2.69-2.18
		C83.47,102.36,82.98,100.61,82.98,98.74"/>
	<path class="st9" d="M99.96,56.8c0.23-0.52,0.42-0.99,0.64-1.45c0.1-0.21,0.29-0.13,0.45-0.03c0.2,0.12,0.47,0.18,0.58,0.35
		c0.22,0.34,1.17,0.13,0.75,0.92c-0.33,0.62-0.7,1.23-1.58,0.66C100.54,57.07,100.13,57.13,99.96,56.8"/>
	<path class="st10" d="M139.53,99.94c0.04,2.32-1.02,4.06-2.96,5.3c-1.42,0.9-2.81,0.74-4.08-0.34c-0.55-0.47-1.14-0.89-1.69-1.36
		c-1.53-1.3-1.83-3.08-1.82-4.91c0.01-2.27,1.73-4.62,3.7-5.27c2.57-0.85,5.71,0.94,6.43,3.7C139.36,98,139.52,98.96,139.53,99.94"
		/>
	<path class="st5" d="M94.63,79.52c-1.5-0.06-2.96-0.27-4.21-1.17c-0.91-0.65-1.12-1.35-0.68-2.03c0.48-0.73,1.1-0.91,2.04-0.41
		c1.39,0.74,2.85,0.73,4.33,0.5c1.4-0.22,2.36-1.04,2.99-2.26c0.37-0.71,0.69-1.44,1.09-2.14c0.39-0.7,1-0.9,1.78-0.59
		c0.78,0.31,0.95,0.86,0.7,1.59c-1.01,2.95-2.38,5.57-5.87,6.27C96.08,79.43,95.36,79.54,94.63,79.52"/>
	<path class="st5" d="M96.08,72.19c-0.99-0.01-1.73-0.73-1.72-1.68c0.01-0.93,0.77-1.64,1.76-1.64c1.02,0,1.82,0.78,1.79,1.72
		C97.87,71.51,97.07,72.2,96.08,72.19"/>
	<path class="st5" d="M93.35,71.6c0.02,0.96-0.69,1.63-1.72,1.63c-1.01,0-1.78-0.69-1.78-1.61c0-0.88,0.75-1.57,1.71-1.59
		C92.61,70.01,93.34,70.65,93.35,71.6"/>
	<path class="st5" d="M73.02,89.6c-3.53,0.2-5.76-2.17-7.36-5.3c-0.34-0.67-0.15-1.28,0.55-1.68c0.8-0.46,1.35-0.43,1.93,0.26
		c0.52,0.61,0.95,1.3,1.44,1.94c1.43,1.9,3.37,2.27,5.6,1.83c0.42-0.08,0.76-0.27,1.07-0.53c0.37-0.32,0.79-0.57,1.26-0.75
		c0.68-0.27,1.2-0.03,1.64,0.45c0.46,0.49,0.31,1.02-0.02,1.49c-0.86,1.25-2.22,1.7-3.61,2.06C74.75,89.56,73.96,89.57,73.02,89.6"
		/>
	<path class="st5" d="M78.27,80.69c-0.01,0.92-0.79,1.63-1.77,1.61c-0.96-0.02-1.75-0.78-1.73-1.68c0.02-0.91,0.79-1.59,1.8-1.58
		C77.57,79.05,78.28,79.73,78.27,80.69"/>
	<path class="st5" d="M71.86,78.86c1-0.01,1.79,0.68,1.8,1.59c0.01,0.88-0.82,1.66-1.77,1.65c-1-0.01-1.75-0.73-1.74-1.66
		C70.16,79.56,70.9,78.88,71.86,78.86"/>
</g>
</svg>
