<?xml version="1.0" encoding="utf-8"?>
<!-- Generator: Adobe Illustrator 26.4.1, SVG Export Plug-In . SVG Version: 6.00 Build 0)  -->
<svg version="1.1" id="Layer_1" xmlns="http://www.w3.org/2000/svg" xmlns:xlink="http://www.w3.org/1999/xlink" x="0px" y="0px"
	 viewBox="0 0 223.66 104.17" style="enable-background:new 0 0 223.66 104.17;" xml:space="preserve">
<style type="text/css">
	.st0{fill:url(#SVGID_1_);}
	.st1{fill:url(#SVGID_00000029008766876165490670000012273211358353978246_);}
	.st2{fill:#F9F9FA;}
	.st3{fill:#D8D9D8;}
	
		.st4{clip-path:url(#SVGID_00000135667552734063885680000000543349718952816054_);fill:url(#SVGID_00000009555529126575812350000004150792211604439173_);}
	.st5{fill:#121111;}
	.st6{fill:#F6EA12;}
	.st7{fill:#1D9849;}
	.st8{fill:#F7C047;}
	.st9{fill:#DC2427;}
	.st10{fill:#288AC7;}
	
		.st11{clip-path:url(#SVGID_00000124852394998399144730000006791962501775873436_);fill:url(#SVGID_00000003812056348758361250000011027296989078195881_);}
	
		.st12{clip-path:url(#SVGID_00000105386578353517092680000017055654503043145647_);fill:url(#SVGID_00000062907563638532162680000002024801202188922301_);}
	
		.st13{clip-path:url(#SVGID_00000161629423262868737580000012998081596217727396_);fill:url(#SVGID_00000094600887203091107140000004627228623805196199_);}
	.st14{fill:#9B6B3A;}
	.st15{fill:none;stroke:#9B6B3A;stroke-width:0.4622;stroke-miterlimit:10;}
	
		.st16{clip-path:url(#SVGID_00000039111232591936078070000001192094874139878282_);fill:url(#SVGID_00000043447012167428180580000007049142522479690166_);}
	
		.st17{clip-path:url(#SVGID_00000080204316341142698670000007677303234042202291_);fill:url(#SVGID_00000073722133418720486830000007483542138642774661_);}
	
		.st18{clip-path:url(#SVGID_00000016034203071257344210000005347626886656797316_);fill:url(#SVGID_00000002342049042174671500000003360982331629406347_);}
	.st19{fill:#FFFFFF;}
	.st20{fill:none;}
	.st21{fill:url(#SVGID_00000157307797658995746720000009691860069099965338_);}
	.st22{fill:url(#SVGID_00000027580052733213526100000004324874067614216368_);}
	.st23{fill:url(#SVGID_00000177481951474258842900000003781667172345696150_);}
	.st24{fill:url(#SVGID_00000158749523167726903650000013554699656929496747_);}
	.st25{fill:url(#SVGID_00000056417190850961772640000003822552173892580282_);}
	.st26{fill:url(#SVGID_00000166651266570322031470000016538850335637594523_);}
	.st27{fill:url(#SVGID_00000142156911304658377650000009407856904773144754_);}
	.st28{fill:url(#SVGID_00000011727807237160154090000014535759977879687092_);}
	.st29{fill:url(#SVGID_00000174567839944540970700000016440151435273277862_);}
	.st30{fill:url(#SVGID_00000132807603597734143940000016255484216553010858_);}
	.st31{fill:url(#SVGID_00000126290649668348180130000011487267686149691567_);}
	.st32{fill:url(#SVGID_00000070814976711068685420000005904971807055134637_);}
	.st33{fill:url(#SVGID_00000172408343102250352400000011900088247931682486_);}
	.st34{fill:url(#SVGID_00000090256610590444070810000007137257578118617510_);}
	.st35{fill:url(#SVGID_00000081646298174787829030000016865421838769065120_);}
	.st36{fill:url(#SVGID_00000106138647918955112990000013438645602234391699_);}
	.st37{fill:url(#SVGID_00000156546093392802338440000004827583973560497555_);}
	.st38{fill:url(#SVGID_00000104680871215165329820000015987732689725958828_);}
	.st39{fill:url(#SVGID_00000148657487983660657960000006022689090995652007_);}
	.st40{fill:url(#SVGID_00000087393590157069480470000009528673977042331040_);}
	.st41{fill:url(#SVGID_00000121242485577594692760000011870131679227995831_);}
	.st42{fill:url(#SVGID_00000138541371018736813350000000878596774120429469_);}
	.st43{fill:url(#SVGID_00000103231837335518529300000015628539272095562624_);}
	.st44{fill:url(#SVGID_00000047024976729012710240000010218391722482931884_);}
	.st45{fill:url(#SVGID_00000053528543784685700410000015177740776116921243_);}
	
		.st46{clip-path:url(#SVGID_00000182507215783402310910000000858661344576465053_);fill:url(#SVGID_00000021120080118678294330000007394245475845097149_);}
	.st47{font-family:'Poppins-Light';}
	.st48{font-size:17.2508px;}
	.st49{fill:#179BD7;}
	.st50{fill:none;stroke:#2A2D44;stroke-width:1.1907;stroke-miterlimit:10;}
	.st51{fill:#121C47;}
	.st52{fill:#CAE7F9;}
	.st53{fill:#E01F26;}
</style>
<g>
	<path class="st19" d="M197.96,55.76v-3.34h1.46c0.36,0,0.63,0.03,0.79,0.09c0.16,0.06,0.3,0.17,0.4,0.32
		c0.1,0.16,0.15,0.33,0.15,0.53c0,0.25-0.07,0.46-0.23,0.62c-0.15,0.17-0.37,0.27-0.67,0.31c0.15,0.09,0.27,0.18,0.37,0.28
		c0.09,0.1,0.23,0.28,0.39,0.54l0.42,0.65h-0.83l-0.5-0.73c-0.18-0.26-0.3-0.42-0.36-0.49c-0.07-0.07-0.14-0.11-0.2-0.14
		c-0.07-0.02-0.19-0.03-0.35-0.03h-0.14v1.39H197.96z M198.65,53.83h0.51c0.33,0,0.54-0.01,0.62-0.04c0.08-0.02,0.15-0.07,0.19-0.14
		c0.04-0.06,0.07-0.15,0.07-0.25c0-0.11-0.03-0.2-0.09-0.27c-0.06-0.07-0.15-0.11-0.26-0.13c-0.05-0.01-0.22-0.01-0.5-0.01h-0.54
		V53.83z"/>
	<path class="st19" d="M199.35,57.3c-1.81,0-3.28-1.44-3.28-3.22c0-1.77,1.47-3.21,3.28-3.21c1.81,0,3.29,1.44,3.29,3.21
		C202.63,55.86,201.16,57.3,199.35,57.3 M199.35,51.3c-1.57,0-2.84,1.25-2.84,2.78c0,1.53,1.27,2.78,2.84,2.78
		c1.57,0,2.85-1.25,2.85-2.78C202.19,52.55,200.91,51.3,199.35,51.3"/>
	<path class="st19" d="M129.14,69.62c-2.44,0.71-4.73,1.06-6.86,1.06c-2.96,0-5.3-0.78-7.01-2.35c-1.72-1.56-2.58-3.67-2.58-6.31
		c0-2.79,0.92-5.02,2.77-6.7c1.85-1.67,4.33-2.51,7.44-2.51c2.49,0,4.61,0.54,6.34,1.62c-0.26,0.77-0.46,1.51-0.62,2.22
		c-1.34-1.9-3.39-2.85-6.14-2.85c-2.15,0-3.89,0.72-5.24,2.17c-1.34,1.44-2.01,3.39-2.01,5.84c0,2.42,0.7,4.35,2.09,5.78
		c1.39,1.44,3.21,2.15,5.47,2.15c1.44,0,2.84-0.28,4.18-0.86c0.03-1.14,0.05-1.97,0.05-2.47c0-1.13-0.03-2.2-0.08-3.23
		c0.49,0.07,0.85,0.1,1.1,0.1c0.24,0,0.61-0.03,1.09-0.1c-0.07,1.78-0.1,3.1-0.1,3.96C129.04,68.12,129.07,68.95,129.14,69.62"/>
	<path class="st19" d="M132.7,70.37c0.14-2.07,0.21-5,0.21-8.81c0-3.43-0.06-6.24-0.18-8.43c0.98,0.05,2.03,0.08,3.15,0.08
		c1.15,0,3.12-0.02,5.91-0.08v0.35c-0.02,0.17-0.03,0.29-0.03,0.38c0,0.07,0.01,0.19,0.03,0.35v0.38c-1.96-0.17-4-0.25-6.11-0.25
		h-0.59c-0.04,2-0.05,3.78-0.05,5.32v1.01h0.46c1.58,0,3.45-0.07,5.6-0.2c-0.03,0.34-0.05,0.6-0.05,0.78c0,0.17,0.02,0.4,0.05,0.71
		c-0.75-0.13-2.37-0.2-4.85-0.2h-1.21v1.21v6.16h0.65c1.55,0,3.63-0.09,6.21-0.28v0.38c-0.02,0.17-0.02,0.29-0.02,0.38
		s0.01,0.21,0.02,0.38v0.38h-4.41H132.7z"/>
	<path class="st19" d="M145.31,70.37c0.22-4.54,0.34-9.5,0.34-14.89v-2.68h0.49c3.59,4.07,7.81,8.5,12.66,13.27
		c0.03-1.14,0.05-1.88,0.05-2.22c0-4.12-0.07-7.7-0.21-10.72c0.38,0.07,0.65,0.1,0.83,0.1c0.19,0,0.45-0.03,0.8-0.1
		c-0.1,3.83-0.16,7.78-0.16,11.83v5.73l-0.33,0c-1.44-1.77-3.64-4.17-6.6-7.22l-6.24-6.43c-0.04,1.48-0.05,2.58-0.05,3.31
		c0,2.57,0.06,5.91,0.18,10.02c-0.31-0.08-0.6-0.13-0.88-0.13C145.95,70.25,145.65,70.29,145.31,70.37"/>
	<path class="st19" d="M178.24,69.29c-1.31,0.94-3.23,1.41-5.78,1.41c-2.85,0-5.07-0.78-6.64-2.33c-1.57-1.56-2.36-3.76-2.36-6.6
		c0-2.71,0.87-4.88,2.59-6.51c1.73-1.63,4.05-2.45,6.98-2.45c2.04,0,3.89,0.4,5.54,1.21c-0.28,0.86-0.41,1.66-0.41,2.42
		c-1.19-1.8-2.92-2.7-5.21-2.7c-2.15,0-3.83,0.7-5.03,2.1c-1.2,1.4-1.81,3.38-1.81,5.93c0,2.49,0.6,4.43,1.79,5.83
		c1.2,1.4,2.81,2.1,4.86,2.1c1.98,0,3.85-0.7,5.62-2.09L178.24,69.29z"/>
	<path class="st19" d="M185.23,70.37c0.09-1.38,0.13-2.58,0.13-3.61c0-1.04-0.04-2.19-0.13-3.46c-2.36-3.97-4.39-7.36-6.11-10.17
		c0.41,0.07,0.89,0.1,1.42,0.1c0.53,0,1.01-0.03,1.42-0.1c1.36,3.01,2.97,5.86,4.82,8.55c1.79-2.83,3.33-5.68,4.64-8.55
		c0.29,0.07,0.61,0.1,0.95,0.1c0.36,0,0.68-0.03,0.95-0.1c-2.17,3.43-4.12,6.69-5.85,9.77c-0.04,1.18-0.05,2.07-0.05,2.67
		c0,1.6,0.05,3.2,0.16,4.79c-0.43-0.08-0.82-0.13-1.16-0.13C186.06,70.25,185.66,70.29,185.23,70.37"/>
	<path class="st19" d="M64.08,59.08c0-1.24-0.17-2.42-0.51-3.56c-0.34-1.14-0.82-2.2-1.44-3.19c-0.61-0.99-1.37-1.89-2.25-2.7
		c-0.24-0.22-0.5-0.41-0.75-0.61c-0.19-0.16-0.38-0.32-0.58-0.47c-0.08-0.06-0.17-0.11-0.25-0.17c-0.32-0.22-0.63-0.45-0.97-0.64
		l-0.02,0.03c-0.12-0.07-0.23-0.16-0.36-0.22c-1.08-0.58-2.24-1.03-3.49-1.34c-1.25-0.32-2.56-0.47-3.92-0.47h-0.01h-0.01
		c-1.36,0-2.67,0.16-3.92,0.47c-1.25,0.31-2.41,0.76-3.49,1.34c-0.27,0.15-0.52,0.33-0.78,0.49l-0.02-0.04
		c-0.22,0.14-0.43,0.3-0.64,0.46c-0.06,0.04-0.11,0.08-0.17,0.12c-0.29,0.22-0.57,0.45-0.85,0.69c-0.15,0.13-0.32,0.24-0.47,0.38
		c-0.88,0.81-1.64,1.71-2.25,2.7c-0.62,0.99-1.1,2.05-1.44,3.19c-0.34,1.14-0.51,2.32-0.51,3.56c0,0.04,0.01,0.08,0.01,0.12
		c0,0.04-0.01,0.08-0.01,0.12c0,1.24,0.17,2.42,0.51,3.56c0.34,1.14,0.82,2.2,1.44,3.19c0.61,0.99,1.37,1.89,2.25,2.7
		c0.24,0.22,0.5,0.41,0.75,0.61c0.19,0.16,0.38,0.32,0.58,0.47c0.08,0.06,0.17,0.11,0.25,0.17c0.32,0.22,0.63,0.45,0.97,0.64
		l0.02-0.03c0.12,0.07,0.23,0.16,0.36,0.22c1.07,0.58,2.24,1.03,3.49,1.35c1.25,0.31,2.56,0.47,3.92,0.47h0.01h0.01
		c1.36,0,2.67-0.16,3.92-0.47c1.25-0.32,2.41-0.76,3.49-1.35c0.27-0.15,0.52-0.33,0.78-0.49l0.02,0.04c0.22-0.14,0.43-0.3,0.64-0.46
		c0.06-0.04,0.11-0.08,0.17-0.12c0.29-0.22,0.57-0.45,0.85-0.69c0.15-0.13,0.32-0.24,0.47-0.38c0.88-0.81,1.64-1.71,2.25-2.7
		c0.62-0.99,1.1-2.05,1.44-3.19c0.34-1.14,0.51-2.32,0.51-3.56c0-0.04-0.01-0.08-0.01-0.12C64.08,59.16,64.08,59.12,64.08,59.08
		 M53.6,70.5c-1,0.51-2.14,0.78-3.41,0.86c-0.01,0-0.03,0-0.04,0c-0.19,0.01-0.38,0.03-0.57,0.03c-0.02,0-0.03,0-0.04,0
		c-1.5,0-2.83-0.3-3.99-0.89c-1.16-0.59-2.14-1.42-2.93-2.49c-0.79-1.07-1.39-2.34-1.8-3.82c-0.18-0.67-0.32-1.37-0.42-2.1
		c-0.01-0.08-0.04-0.16-0.05-0.25c-0.1-0.81-0.15-1.65-0.15-2.52c0-1.1,0.09-2.14,0.24-3.14l-0.02,0.02
		c0.1-0.63,0.22-1.25,0.38-1.84c0.41-1.51,1.01-2.82,1.8-3.92c0.03-0.05,0.07-0.09,0.1-0.13l-0.04-0.07
		c0.76-0.99,1.69-1.78,2.8-2.34c1-0.51,2.14-0.78,3.41-0.86c0.01,0,0.03,0,0.04,0c0.19-0.01,0.38-0.03,0.57-0.03
		c0.02,0,0.03,0,0.04,0c1.5,0,2.83,0.3,3.99,0.89c1.16,0.59,2.14,1.42,2.93,2.49c0.79,1.07,1.39,2.34,1.8,3.82
		c0.19,0.67,0.32,1.38,0.42,2.1c0.01,0.08,0.03,0.16,0.04,0.24c0.1,0.81,0.15,1.65,0.15,2.53c0,1.1-0.09,2.14-0.24,3.14l0.02-0.02
		c-0.1,0.63-0.22,1.25-0.38,1.84c-0.41,1.51-1.01,2.82-1.8,3.92c-0.03,0.05-0.07,0.09-0.11,0.13l0.04,0.07
		C55.64,69.16,54.71,69.94,53.6,70.5"/>
	<path class="st19" d="M83.42,71.76l1.32-2.73c-0.71,0.53-1.47,0.97-2.29,1.3c-0.86,0.35-1.75,0.53-2.67,0.53
		c-1.55,0-3-0.26-4.33-0.79c-1.33-0.52-2.49-1.29-3.46-2.28c-0.97-1-1.74-2.21-2.29-3.65c-0.56-1.43-0.83-3.06-0.83-4.88
		c0-1.82,0.28-3.45,0.86-4.89c0.56-1.45,1.34-2.68,2.33-3.69c0.99-1.01,2.14-1.79,3.47-2.34c1.32-0.54,2.75-0.81,4.28-0.81
		c1.77,0,3.34,0.49,4.7,1.46c1.36,0.98,2.6,2.51,3.72,4.6l1.91-1.26c-0.54-0.87-1.2-1.7-1.95-2.5c-0.76-0.8-1.63-1.51-2.6-2.12
		c-0.98-0.61-2.06-1.1-3.24-1.47c-1.18-0.37-2.47-0.56-3.88-0.56c-1.48,0-2.87,0.17-4.17,0.5c-1.3,0.34-2.5,0.8-3.59,1.4
		c-1.09,0.6-2.08,1.32-2.95,2.16c-0.87,0.84-1.61,1.77-2.21,2.77c-0.08,0.13-0.14,0.28-0.21,0.41c0.83,1.93,1.29,4.04,1.29,6.25
		c0,2.26-0.48,4.42-1.34,6.38c0.08,0.14,0.14,0.3,0.22,0.44c0.59,0.99,1.31,1.9,2.16,2.73c0.85,0.82,1.82,1.53,2.9,2.12
		c1.08,0.59,2.26,1.05,3.55,1.37c1.29,0.33,2.66,0.49,4.11,0.49c1.51,0,2.89-0.18,4.11-0.55C82.71,72.05,83.06,71.9,83.42,71.76"/>
	<path class="st19" d="M98.8,45.99L86.08,72.41h2.22l4.17-8.62h11.31l4.04,8.62h4.51L99.9,45.99H98.8z M93.25,62.12l4.93-10.21
		l4.79,10.21H93.25z"/>
	<text transform="matrix(1 0 0 1 18.3381 23.8078)" class="st19 st47 st48">Organizan</text>
</g>
</svg>
