<?xml version="1.0" encoding="UTF-8"?>
<svg id="Layer_1" xmlns="http://www.w3.org/2000/svg" version="1.1" viewBox="0 0 184 62">
  <!-- Generator: Adobe Illustrator 29.4.0, SVG Export Plug-In . SVG Version: 2.1.0 Build 152)  -->
  <defs>
    <style>
      .st0 {
        fill: #fff;
      }

      .st1 {
        isolation: isolate;
      }
    </style>
  </defs>
  <path class="st0" d="M179.1,45v-3.3h1.5c.4,0,.6,0,.8,0,.2,0,.3.2.4.3.1.2.1.3.1.5s0,.5-.2.6c-.1.2-.4.3-.7.3.1,0,.3.2.4.3,0,0,.2.3.4.5l.4.7h-.8l-.5-.7c-.2-.3-.3-.4-.4-.5,0,0-.1-.1-.2-.1,0,0-.2,0-.4,0h-.1v1.4h-.7ZM179.7,43.1h.5c.3,0,.5,0,.6,0,0,0,.1,0,.2-.1,0,0,0-.2,0-.2s0-.2,0-.3-.1-.1-.3-.1c0,0-.2,0-.5,0h-.5v.8h0Z"/>
  <path class="st0" d="M180.4,46.5c-1.8,0-3.3-1.4-3.3-3.2s1.5-3.2,3.3-3.2,3.3,1.4,3.3,3.2c0,1.8-1.5,3.2-3.3,3.2M180.4,40.5c-1.6,0-2.8,1.2-2.8,2.8s1.3,2.8,2.8,2.8,2.9-1.2,2.9-2.8c0-1.5-1.3-2.8-2.9-2.8"/>
  <path class="st0" d="M110.2,58.9c-2.4.7-4.7,1.1-6.9,1.1s-5.3-.8-7-2.3c-1.7-1.6-2.6-3.7-2.6-6.3s.9-5,2.8-6.7c1.8-1.7,4.3-2.5,7.4-2.5s4.6.5,6.3,1.6c-.3.8-.5,1.5-.6,2.2-1.3-1.9-3.4-2.8-6.1-2.8s-3.9.7-5.2,2.2c-1.3,1.4-2,3.4-2,5.8s.7,4.4,2.1,5.8c1.4,1.4,3.2,2.2,5.5,2.2s2.8-.3,4.2-.9c0-1.1,0-2,0-2.5,0-1.1,0-2.2,0-3.2.5,0,.8,0,1.1,0s.6,0,1.1,0c0,1.8-.1,3.1-.1,4,0,1,0,1.8.1,2.5"/>
  <path class="st0" d="M113.8,59.6c.1-2.1.2-5,.2-8.8s0-6.2-.2-8.4c1,0,2,0,3.1,0s3.1,0,5.9,0v.3c0,.2,0,.3,0,.4s0,.2,0,.3v.4c-2-.2-4-.2-6.1-.2h-.6c0,2,0,3.8,0,5.3v1h.5c1.6,0,3.4,0,5.6-.2,0,.3,0,.6,0,.8s0,.4,0,.7c-.8-.1-2.4-.2-4.9-.2h-1.2v7.4h.6c1.6,0,3.6,0,6.2-.3v.4c0,.2,0,.3,0,.4s0,.2,0,.4v.4h-9.2Z"/>
  <path class="st0" d="M126.4,59.6c.2-4.5.3-9.5.3-14.9v-2.7h.5c3.6,4.1,7.8,8.5,12.7,13.3,0-1.1,0-1.9,0-2.2,0-4.1,0-7.7-.2-10.7.4,0,.6,0,.8,0s.4,0,.8,0c-.1,3.8-.2,7.8-.2,11.8v5.7h-.3c-1.4-1.8-3.6-4.2-6.6-7.2l-6.2-6.4c0,1.5,0,2.6,0,3.3,0,2.6,0,5.9.2,10-.3,0-.6-.1-.9-.1-.2,0-.5,0-.9.1"/>
  <path class="st0" d="M159.3,58.5c-1.3.9-3.2,1.4-5.8,1.4s-5.1-.8-6.6-2.3c-1.6-1.6-2.4-3.8-2.4-6.6s.9-4.9,2.6-6.5c1.7-1.6,4.1-2.5,7-2.5s3.9.4,5.5,1.2c-.3.9-.4,1.7-.4,2.4-1.2-1.8-2.9-2.7-5.2-2.7s-3.8.7-5,2.1c-1.2,1.4-1.8,3.4-1.8,5.9s.6,4.4,1.8,5.8c1.2,1.4,2.8,2.1,4.9,2.1s3.9-.7,5.6-2.1v1.7Z"/>
  <path class="st0" d="M166.3,59.6c0-1.4.1-2.6.1-3.6s0-2.2-.1-3.5c-2.4-4-4.4-7.4-6.1-10.2.4,0,.9,0,1.4,0s1,0,1.4,0c1.4,3,3,5.9,4.8,8.5,1.8-2.8,3.3-5.7,4.6-8.5.3,0,.6,0,.9,0s.7,0,.9,0c-2.2,3.4-4.1,6.7-5.9,9.8,0,1.2,0,2.1,0,2.7,0,1.6,0,3.2.2,4.8-.4,0-.8-.1-1.2-.1-.4,0-.8,0-1.2.1"/>
  <path class="st0" d="M45.2,48.3c0-1.2-.2-2.4-.5-3.6-.3-1.1-.8-2.2-1.4-3.2-.6-1-1.4-1.9-2.2-2.7-.2-.2-.5-.4-.8-.6-.2-.2-.4-.3-.6-.5,0,0-.2-.1-.2-.2-.3-.2-.6-.5-1-.6h0c-.1,0-.2-.1-.4-.2-1.1-.6-2.2-1-3.5-1.3-1.2-.3-2.6-.5-3.9-.5h0c-1.4,0-2.7.2-3.9.5s-2.4.8-3.5,1.3c-.3.2-.5.3-.8.5h0c-.2,0-.4.3-.6.4,0,0-.1,0-.2.1-.3.2-.6.5-.8.7-.2.1-.3.2-.5.4-.9.8-1.6,1.7-2.2,2.7-.6,1-1.1,2-1.4,3.2s-.5,2.3-.5,3.6,0,0,0,.1,0,0,0,.1c0,1.2.2,2.4.5,3.6s.8,2.2,1.4,3.2c.6,1,1.4,1.9,2.2,2.7.2.2.5.4.8.6.2.2.4.3.6.5,0,0,.2.1.2.2.3.2.6.4,1,.6h0c.1,0,.2.1.4.2,1.1.6,2.2,1,3.5,1.3,1.2.3,2.6.5,3.9.5h0c1.4,0,2.7-.2,3.9-.5,1.2-.3,2.4-.8,3.5-1.3.3-.2.5-.3.8-.5h0c.2,0,.4-.3.6-.4,0,0,.1,0,.2-.1.3-.2.6-.4.8-.7.2-.1.3-.2.5-.4.9-.8,1.6-1.7,2.2-2.7.6-1,1.1-2.1,1.4-3.2.3-1.1.5-2.3.5-3.6s0,0,0-.1c0,0,0,0,0-.1M34.7,59.7c-1,.5-2.1.8-3.4.9h0c-.2,0-.4,0-.6,0h0c-1.5,0-2.8-.3-4-.9-1.2-.6-2.1-1.4-2.9-2.5s-1.4-2.3-1.8-3.8c-.2-.7-.3-1.4-.4-2.1,0,0,0-.2,0-.2,0-.8-.2-1.7-.2-2.5s0-2.1.2-3.1h0c0-.6.2-1.2.4-1.8.4-1.5,1-2.8,1.8-3.9,0,0,0,0,0-.1h0c.8-1.1,1.7-1.8,2.8-2.4,1-.5,2.1-.8,3.4-.9h0c.2,0,.4,0,.6,0h0c1.5,0,2.8.3,4,.9s2.1,1.4,2.9,2.5c.8,1.1,1.4,2.3,1.8,3.8.2.7.3,1.4.4,2.1,0,0,0,.2,0,.2,0,.8.2,1.7.2,2.5s0,2.1-.2,3.1h0c0,.6-.2,1.2-.4,1.8-.4,1.5-1,2.8-1.8,3.9,0,0,0,0-.1.1h0c-.7,1.1-1.7,1.9-2.8,2.4"/>
  <path class="st0" d="M64.5,61l1.3-2.7c-.7.5-1.5,1-2.3,1.3-.9.3-1.8.5-2.7.5-1.6,0-3-.3-4.3-.8-1.3-.5-2.5-1.3-3.5-2.3-1-1-1.7-2.2-2.3-3.7-.6-1.4-.8-3.1-.8-4.9s.3-3.5.9-4.9c.6-1.5,1.3-2.7,2.3-3.7,1-1,2.1-1.8,3.5-2.3,1.3-.5,2.8-.8,4.3-.8s3.3.5,4.7,1.5c1.4,1,2.6,2.5,3.7,4.6l1.9-1.3c-.5-.9-1.2-1.7-1.9-2.5-.8-.8-1.6-1.5-2.6-2.1-1-.6-2.1-1.1-3.2-1.5-1.2-.4-2.5-.6-3.9-.6s-2.9.2-4.2.5c-1.3.3-2.5.8-3.6,1.4-1.1.6-2.1,1.3-2.9,2.2-.9.8-1.6,1.8-2.2,2.8,0,.1-.1.3-.2.4.8,1.9,1.3,4,1.3,6.2s-.5,4.4-1.3,6.4c0,.1.1.3.2.4.6,1,1.3,1.9,2.2,2.7.8.8,1.8,1.5,2.9,2.1,1.1.6,2.3,1.1,3.6,1.4,1.3.3,2.7.5,4.1.5s2.9-.2,4.1-.6c.4,0,.7-.2,1.1-.4"/>
  <path class="st0" d="M79.9,35.2l-12.7,26.4h2.2l4.2-8.6h11.3l4,8.6h4.5l-12.4-26.4h-1.1ZM74.3,51.4l4.9-10.2,4.8,10.2h-9.7Z"/>
  <g class="st1">
    <path class="st0" d="M3.2,12.4c-.9-.5-1.6-1.3-2.1-2.2-.5-.9-.8-2-.8-3.2s.3-2.2.8-3.2,1.2-1.7,2.1-2.2c.9-.5,1.9-.8,3-.8s2.1.3,3.1.8,1.6,1.3,2.1,2.2.8,2,.8,3.2-.3,2.2-.8,3.2c-.5.9-1.2,1.7-2.1,2.2s-1.9.8-3.1.8-2.1-.3-3-.8ZM8.6,11.5c.7-.4,1.3-1,1.7-1.8s.6-1.7.6-2.7-.2-1.9-.6-2.7-1-1.4-1.7-1.8c-.7-.4-1.5-.6-2.4-.6s-1.7.2-2.4.6c-.7.4-1.3,1-1.7,1.8-.4.8-.6,1.7-.6,2.7s.2,1.9.6,2.7c.4.8,1,1.4,1.7,1.8.7.4,1.5.6,2.4.6s1.7-.2,2.4-.6Z"/>
    <path class="st0" d="M16.8,3.9c.5-.3,1.2-.5,2-.5v1.3h-.3c-.9,0-1.6.2-2.1.7-.5.5-.8,1.3-.8,2.4v5.3h-1.2V3.6h1.2v1.7c.3-.6.7-1,1.2-1.4Z"/>
    <path class="st0" d="M26.9,4.1c.7.4,1.1.9,1.4,1.6v-2.1h1.2v9.7c0,.9-.2,1.6-.6,2.3-.4.7-.9,1.2-1.6,1.5-.7.4-1.4.5-2.3.5-1.2,0-2.2-.3-3-.9s-1.3-1.4-1.5-2.3h1.2c.2.7.6,1.2,1.2,1.6.6.4,1.3.6,2.1.6s1.2-.1,1.6-.4c.5-.3.9-.6,1.1-1.1.3-.5.4-1.1.4-1.8v-2.3c-.3.6-.8,1.2-1.4,1.6s-1.4.6-2.3.6-1.6-.2-2.3-.6c-.7-.4-1.2-1-1.6-1.7-.4-.7-.6-1.6-.6-2.6s.2-1.8.6-2.5c.4-.7.9-1.3,1.6-1.7.7-.4,1.5-.6,2.3-.6s1.7.2,2.3.6ZM27.9,6.3c-.3-.6-.7-1-1.3-1.3-.5-.3-1.1-.5-1.8-.5s-1.3.1-1.8.4c-.5.3-.9.7-1.3,1.3s-.5,1.2-.5,2,.2,1.4.5,2c.3.6.7,1,1.3,1.3.5.3,1.1.5,1.8.5s1.2-.2,1.8-.5c.5-.3,1-.8,1.3-1.3s.5-1.2.5-2-.2-1.4-.5-2Z"/>
    <path class="st0" d="M32.3,5.8c.4-.7.9-1.3,1.6-1.7.7-.4,1.5-.6,2.3-.6s1.7.2,2.3.6c.6.4,1.1.9,1.4,1.6v-2.1h1.2v9.4h-1.2v-2.1c-.3.6-.8,1.2-1.4,1.6s-1.4.6-2.3.6-1.6-.2-2.3-.6c-.7-.4-1.2-1-1.6-1.7-.4-.7-.6-1.6-.6-2.6s.2-1.8.6-2.5ZM39.5,6.3c-.3-.6-.7-1-1.3-1.3-.5-.3-1.1-.5-1.8-.5s-1.3.1-1.8.4c-.5.3-.9.7-1.3,1.3s-.5,1.2-.5,2,.2,1.4.5,2c.3.6.7,1,1.3,1.3.5.3,1.1.5,1.8.5s1.2-.2,1.8-.5c.5-.3,1-.8,1.3-1.3s.5-1.2.5-2-.2-1.4-.5-2Z"/>
    <path class="st0" d="M51.1,4.5c.7.7,1.1,1.7,1.1,3v5.5h-1.2v-5.4c0-1-.3-1.8-.8-2.3-.5-.5-1.2-.8-2.1-.8s-1.6.3-2.2.9-.8,1.4-.8,2.5v5.1h-1.2V3.6h1.2v1.6c.3-.6.7-1,1.3-1.3.6-.3,1.2-.5,1.9-.5,1.1,0,2,.3,2.8,1Z"/>
    <path class="st0" d="M54.8,1.6c-.2-.2-.3-.4-.3-.6s0-.5.3-.6c.2-.2.4-.2.6-.2s.4,0,.6.2c.2.2.3.4.3.6s0,.5-.3.6c-.2.2-.4.3-.6.3s-.4,0-.6-.3ZM56.1,3.6v9.4h-1.2V3.6h1.2Z"/>
    <path class="st0" d="M59.4,12h4.9v1h-6.3v-1l4.8-7.4h-4.8v-1h6.1v1l-4.8,7.4Z"/>
    <path class="st0" d="M66.4,5.8c.4-.7.9-1.3,1.6-1.7.7-.4,1.5-.6,2.3-.6s1.7.2,2.3.6c.6.4,1.1.9,1.4,1.6v-2.1h1.2v9.4h-1.2v-2.1c-.3.6-.8,1.2-1.4,1.6s-1.4.6-2.3.6-1.6-.2-2.3-.6c-.7-.4-1.2-1-1.6-1.7-.4-.7-.6-1.6-.6-2.6s.2-1.8.6-2.5ZM73.6,6.3c-.3-.6-.7-1-1.3-1.3-.5-.3-1.1-.5-1.8-.5s-1.3.1-1.8.4c-.5.3-.9.7-1.3,1.3s-.5,1.2-.5,2,.2,1.4.5,2c.3.6.7,1,1.3,1.3.5.3,1.1.5,1.8.5s1.2-.2,1.8-.5c.5-.3,1-.8,1.3-1.3s.5-1.2.5-2-.2-1.4-.5-2Z"/>
    <path class="st0" d="M85.2,4.5c.7.7,1.1,1.7,1.1,3v5.5h-1.2v-5.4c0-1-.3-1.8-.8-2.3-.5-.5-1.2-.8-2.1-.8s-1.6.3-2.2.9-.8,1.4-.8,2.5v5.1h-1.2V3.6h1.2v1.6c.3-.6.7-1,1.3-1.3.6-.3,1.2-.5,1.9-.5,1.1,0,2,.3,2.8,1Z"/>
  </g>
</svg>