<?xml version="1.0" encoding="UTF-8"?>
<svg id="Layer_1" xmlns="http://www.w3.org/2000/svg" version="1.1" xmlns:xlink="http://www.w3.org/1999/xlink" viewBox="0 0 248 39">
  <!-- Generator: Adobe Illustrator 29.4.0, SVG Export Plug-In . SVG Version: 2.1.0 Build 152)  -->
  <defs>
    <style>
      .st0 {
        fill: url(#Degradado_sin_nombre_6);
      }

      .st1 {
        fill: url(#Degradado_sin_nombre_5);
      }

      .st2 {
        clip-path: url(#clippath-4);
      }

      .st3 {
        stroke: #9b6b3a;
        stroke-miterlimit: 10;
        stroke-width: .5px;
      }

      .st3, .st4 {
        fill: none;
      }

      .st5 {
        fill: url(#Degradado_sin_nombre_4);
      }

      .st6 {
        clip-path: url(#clippath-1);
      }

      .st7 {
        fill: url(#Degradado_sin_nombre_2);
      }

      .st8 {
        clip-path: url(#clippath-5);
      }

      .st9 {
        clip-path: url(#clippath-3);
      }

      .st10 {
        fill: #9b6b3a;
      }

      .st11 {
        fill: url(#Degradado_sin_nombre_3);
      }

      .st12 {
        fill: url(#Degradado_sin_nombre);
      }

      .st13 {
        clip-path: url(#clippath-2);
      }

      .st14 {
        clip-path: url(#clippath);
      }
    </style>
    <clipPath id="clippath">
      <path class="st4" d="M1.5,4v34.7h28.8c-1.6-.8-3-1.8-4.4-2.9H7.5V3.9H1.5Z"/>
    </clipPath>
    <linearGradient id="Degradado_sin_nombre" data-name="Degradado sin nombre" x1="1258.8" y1="658.2" x2="1261" y2="658.2" gradientTransform="translate(-16338.1 8577.6) scale(13 -13)" gradientUnits="userSpaceOnUse">
      <stop offset="0" stop-color="#d29441"/>
      <stop offset="0" stop-color="#b47d37"/>
      <stop offset=".2" stop-color="#92632b"/>
      <stop offset=".2" stop-color="#7b5122"/>
      <stop offset=".3" stop-color="#6e471d"/>
      <stop offset=".4" stop-color="#6a441b"/>
      <stop offset=".5" stop-color="#6f491e"/>
      <stop offset=".6" stop-color="#815524"/>
      <stop offset=".7" stop-color="#9f6c30"/>
      <stop offset=".8" stop-color="#cc8f40"/>
      <stop offset=".8" stop-color="#ce913f"/>
      <stop offset="1" stop-color="#ddb380"/>
    </linearGradient>
    <clipPath id="clippath-1">
      <path class="st4" d="M242.5,11.8h1.4c.1,0,.3,0,.4.2,0,0,.1.2.1.4s0,.2-.1.3c0,0-.1.2-.3.2h-1.5v-1.2h0ZM241.6,11v4.5h.9v-1.9h.7s.2,0,.3.2c0,0,.2.3.5.7l.7,1h1.1l-.6-.9c-.2-.4-.4-.6-.5-.7s-.3-.3-.5-.4c.4,0,.7-.2.9-.4s.3-.5.3-.8,0-.5-.2-.7c-.1-.2-.3-.4-.5-.4s-.6-.1-1.1-.1h-2Z"/>
    </clipPath>
    <linearGradient id="Degradado_sin_nombre_2" data-name="Degradado sin nombre 2" x1="687.4" y1="828" x2="689.6" y2="828" gradientTransform="translate(-1038.6 1586.4) scale(1.9 -1.9)" gradientUnits="userSpaceOnUse">
      <stop offset="0" stop-color="#d29441"/>
      <stop offset="0" stop-color="#b47d37"/>
      <stop offset=".2" stop-color="#92632b"/>
      <stop offset=".2" stop-color="#7b5122"/>
      <stop offset=".3" stop-color="#6e471d"/>
      <stop offset=".4" stop-color="#6a441b"/>
      <stop offset=".5" stop-color="#6f491e"/>
      <stop offset=".6" stop-color="#815524"/>
      <stop offset=".7" stop-color="#9f6c30"/>
      <stop offset=".8" stop-color="#cc8f40"/>
      <stop offset=".8" stop-color="#ce913f"/>
      <stop offset="1" stop-color="#ddb380"/>
    </linearGradient>
    <clipPath id="clippath-2">
      <path class="st4" d="M239.7,13.3c0-2.1,1.7-3.7,3.8-3.7s3.8,1.7,3.8,3.7-1.7,3.7-3.8,3.7-3.8-1.7-3.8-3.7M239.1,13.3c0,2.4,2,4.3,4.4,4.3s4.4-1.9,4.4-4.3-2-4.3-4.4-4.3-4.4,1.9-4.4,4.3Z"/>
    </clipPath>
    <linearGradient id="Degradado_sin_nombre_3" data-name="Degradado sin nombre 3" x1="1048.3" y1="725.5" x2="1050.5" y2="725.5" gradientTransform="translate(-3933.6 2915.4) scale(4 -4)" gradientUnits="userSpaceOnUse">
      <stop offset="0" stop-color="#d29441"/>
      <stop offset="0" stop-color="#b47d37"/>
      <stop offset=".2" stop-color="#92632b"/>
      <stop offset=".2" stop-color="#7b5122"/>
      <stop offset=".3" stop-color="#6e471d"/>
      <stop offset=".4" stop-color="#6a441b"/>
      <stop offset=".5" stop-color="#6f491e"/>
      <stop offset=".6" stop-color="#815524"/>
      <stop offset=".7" stop-color="#9f6c30"/>
      <stop offset=".8" stop-color="#cc8f40"/>
      <stop offset=".8" stop-color="#ce913f"/>
      <stop offset="1" stop-color="#ddb380"/>
    </linearGradient>
    <clipPath id="clippath-3">
      <path class="st4" d="M30.1,13.7c.5-2,1.4-3.8,2.4-5.3,0,0,0,0,0-.2,1-1.4,2.3-2.5,3.8-3.2,1.3-.7,2.9-1.1,4.6-1.2h.8c2,0,3.8.4,5.4,1.2,1.6.8,2.9,1.9,3.9,3.3,1.1,1.4,1.9,3.2,2.4,5.1.2.9.4,1.8.6,2.8v.3c0,1.1.2,2.2.2,3.4s0,2.9-.3,4.2c0,.8-.3,1.7-.5,2.4-.6,2-1.4,3.8-2.4,5.3,0,0,0,0,0,.2-1,1.4-2.3,2.5-3.8,3.2-1.3.7-2.9,1.1-4.6,1.2h-.8c-2,0-3.8-.4-5.4-1.2-1.6-.8-2.9-1.9-3.9-3.3-1.1-1.4-1.9-3.2-2.4-5.1-.2-.9-.4-1.8-.6-2.8v-.3c-.1-1.1-.2-2.2-.2-3.4s.1-2.9.3-4.2c.1-.8.3-1.7.5-2.5M41.9,2h0c-1.8,0-3.6.2-5.3.6-1.7.4-3.2,1-4.7,1.8-.4.2-.7.4-1.1.7-.3,0-.6.3-.9.6,0,0-.2,0-.2.2-.4.3-.8.6-1.1.9-.2.2-.4.3-.6.5-1.2,1.1-2.2,2.3-3,3.6-.8,1.3-1.5,2.8-1.9,4.3-.5,1.5-.7,3.1-.7,4.8s0,0,0,.2v.2c0,1.7.2,3.3.7,4.8s1.1,3,1.9,4.3,1.8,2.5,3,3.6c.3.3.7.5,1,.8.3.2.5.4.8.6.1,0,.2.1.3.2.4.3.8.6,1.3.9.2,0,.3.2.5.3,1.4.8,3,1.4,4.7,1.8,1.7.4,3.4.6,5.3.6s3.6-.2,5.3-.6c1.7-.4,3.2-1,4.7-1.8.4-.2.7-.4,1.1-.7.3-.1.6-.3.9-.5,0,0,.2-.1.2-.2.4-.3.8-.6,1.1-.9.2-.2.4-.3.6-.5,1.2-1.1,2.2-2.3,3-3.6.8-1.3,1.5-2.8,1.9-4.3.5-1.5.7-3.1.7-4.8s0-.1,0-.2v-.2c0-1.7-.2-3.3-.7-4.8s-1.1-3-1.9-4.3c-.8-1.3-1.8-2.5-3-3.6-.3-.3-.7-.5-1-.8-.3-.2-.5-.4-.8-.6,0,0-.2,0-.3-.2-.4-.3-.8-.6-1.3-.9-.2,0-.3-.2-.5-.3-1.4-.8-3-1.4-4.7-1.8s-3.4-.6-5.3-.6h0Z"/>
    </clipPath>
    <linearGradient id="Degradado_sin_nombre_4" data-name="Degradado sin nombre 4" x1="1287.9" y1="652" x2="1290.1" y2="652" gradientTransform="translate(-22689.5 11495.9) scale(17.6 -17.6)" gradientUnits="userSpaceOnUse">
      <stop offset="0" stop-color="#d29441"/>
      <stop offset="0" stop-color="#b47d37"/>
      <stop offset=".2" stop-color="#92632b"/>
      <stop offset=".2" stop-color="#7b5122"/>
      <stop offset=".3" stop-color="#6e471d"/>
      <stop offset=".4" stop-color="#6a441b"/>
      <stop offset=".5" stop-color="#6f491e"/>
      <stop offset=".6" stop-color="#815524"/>
      <stop offset=".7" stop-color="#9f6c30"/>
      <stop offset=".8" stop-color="#cc8f40"/>
      <stop offset=".8" stop-color="#ce913f"/>
      <stop offset="1" stop-color="#ddb380"/>
    </linearGradient>
    <clipPath id="clippath-4">
      <path class="st4" d="M75.2,2.6c-1.8.5-3.4,1.1-4.8,1.9s-2.8,1.8-4,2.9c-1.2,1.1-2.2,2.4-3,3.7,0,.2-.2.4-.3.5,1.1,2.6,1.7,5.4,1.7,8.4s-.6,5.9-1.8,8.6c0,.2.2.4.3.6.8,1.3,1.8,2.6,2.9,3.7,1.2,1.1,2.4,2.1,3.9,2.9,1.4.8,3,1.4,4.8,1.8,1.7.4,3.6.7,5.5.7s3.9-.2,5.5-.7c.5-.2,1-.4,1.5-.5l1.8-3.7c-1,.7-2,1.3-3.1,1.8-1.2.5-2.4.7-3.6.7-2.1,0-4-.4-5.8-1.1s-3.3-1.7-4.7-3.1c-1.3-1.3-2.3-3-3.1-4.9-.8-1.9-1.1-4.1-1.1-6.6s.4-4.6,1.2-6.6c.8-2,1.8-3.6,3.1-5,1.3-1.4,2.9-2.4,4.7-3.1,1.8-.7,3.7-1.1,5.8-1.1s4.5.7,6.3,2,3.5,3.4,5,6.2l2.6-1.7c-.7-1.2-1.6-2.3-2.6-3.4-1-1.1-2.2-2-3.5-2.9s-2.8-1.5-4.4-2-3.3-.8-5.2-.8-3.8.2-5.6.7h0Z"/>
    </clipPath>
    <linearGradient id="Degradado_sin_nombre_5" data-name="Degradado sin nombre 5" x1="1275.8" y1="656.4" x2="1278" y2="656.4" gradientTransform="translate(-19132.9 9866.2) scale(15 -15)" gradientUnits="userSpaceOnUse">
      <stop offset="0" stop-color="#d29441"/>
      <stop offset="0" stop-color="#b47d37"/>
      <stop offset=".2" stop-color="#92632b"/>
      <stop offset=".2" stop-color="#7b5122"/>
      <stop offset=".3" stop-color="#6e471d"/>
      <stop offset=".4" stop-color="#6a441b"/>
      <stop offset=".5" stop-color="#6f491e"/>
      <stop offset=".6" stop-color="#815524"/>
      <stop offset=".7" stop-color="#9f6c30"/>
      <stop offset=".8" stop-color="#cc8f40"/>
      <stop offset=".8" stop-color="#ce913f"/>
      <stop offset="1" stop-color="#ddb380"/>
    </linearGradient>
    <clipPath id="clippath-5">
      <path class="st4" d="M107.4,10.3l6.4,13.7h-13.1l6.6-13.7h0ZM108.2,2.4l-17.1,35.5h3l5.6-11.6h15.2l5.4,11.6h6.1L109.7,2.4h-1.5Z"/>
    </clipPath>
    <linearGradient id="Degradado_sin_nombre_6" data-name="Degradado sin nombre 6" x1="1281.7" y1="653.3" x2="1283.9" y2="653.3" gradientTransform="translate(-20278.9 10407.1) scale(15.9 -15.9)" gradientUnits="userSpaceOnUse">
      <stop offset="0" stop-color="#d29441"/>
      <stop offset="0" stop-color="#b47d37"/>
      <stop offset=".2" stop-color="#92632b"/>
      <stop offset=".2" stop-color="#7b5122"/>
      <stop offset=".3" stop-color="#6e471d"/>
      <stop offset=".4" stop-color="#6a441b"/>
      <stop offset=".5" stop-color="#6f491e"/>
      <stop offset=".6" stop-color="#815524"/>
      <stop offset=".7" stop-color="#9f6c30"/>
      <stop offset=".8" stop-color="#cc8f40"/>
      <stop offset=".8" stop-color="#ce913f"/>
      <stop offset="1" stop-color="#ddb380"/>
    </linearGradient>
  </defs>
  <g class="st14">
    <rect class="st12" x="1.5" y="4" width="28.9" height="34.7"/>
  </g>
  <g class="st6">
    <rect class="st7" x="241.6" y="11" width="4.1" height="4.5"/>
  </g>
  <g class="st13">
    <rect class="st11" x="239.1" y="9" width="8.8" height="8.7"/>
  </g>
  <path class="st10" d="M149,34.2c-3.3.9-6.4,1.4-9.2,1.4s-7.1-1.1-9.4-3.2c-2.3-2.1-3.5-4.9-3.5-8.5s1.2-6.8,3.7-9,5.8-3.4,10-3.4,6.2.7,8.5,2.2c-.4,1-.6,2-.8,3-1.8-2.6-4.6-3.8-8.3-3.8s-5.2,1-7,2.9-2.7,4.6-2.7,7.9.9,5.8,2.8,7.8,4.3,2.9,7.4,2.9,3.8-.4,5.6-1.2v-3.3c0-1.5,0-3-.1-4.3.7,0,1.1,0,1.5,0s.8,0,1.5,0c0,2.4-.1,4.2-.1,5.3s0,2.4.1,3.3"/>
  <path class="st3" d="M149,34.2c-3.3.9-6.4,1.4-9.2,1.4s-7.1-1.1-9.4-3.2c-2.3-2.1-3.5-4.9-3.5-8.5s1.2-6.8,3.7-9,5.8-3.4,10-3.4,6.2.7,8.5,2.2c-.4,1-.6,2-.8,3-1.8-2.6-4.6-3.8-8.3-3.8s-5.2,1-7,2.9-2.7,4.6-2.7,7.9.9,5.8,2.8,7.8,4.3,2.9,7.4,2.9,3.8-.4,5.6-1.2v-3.3c0-1.5,0-3-.1-4.3.7,0,1.1,0,1.5,0s.8,0,1.5,0c0,2.4-.1,4.2-.1,5.3s0,2.4.1,3.3h0Z"/>
  <path class="st10" d="M153.8,35.2c.2-2.8.3-6.7.3-11.8s0-8.4-.2-11.3h12.1v2c-2.6-.2-5.4-.3-8.2-.3h-.8v8.6h.6c2.1,0,4.6,0,7.5-.3v2c-1-.2-3.2-.3-6.5-.3h-1.6v9.9h.9c2.1,0,4.9,0,8.4-.4v2h-12.5Z"/>
  <path class="st3" d="M153.8,35.2c.2-2.8.3-6.7.3-11.8s0-8.4-.2-11.3h12.1v2c-2.6-.2-5.4-.3-8.2-.3h-.8v8.6h.6c2.1,0,4.6,0,7.5-.3v2c-1-.2-3.2-.3-6.5-.3h-1.6v9.9h.9c2.1,0,4.9,0,8.4-.4v2h-12.5Z"/>
  <path class="st10" d="M170.8,35.2c.3-6.1.4-12.8.4-20v-3.6h.7c4.8,5.5,10.5,11.4,17,17.9v-3c0-5.5,0-10.4-.3-14.4.5,0,.9,0,1.1,0s.6,0,1.1,0c-.1,5.2-.2,10.5-.2,15.9v7.7h-.4c-1.9-2.4-4.9-5.6-8.9-9.7l-8.4-8.7v4.4c0,3.5,0,8,.2,13.5-.4,0-.8-.2-1.2-.2s-.7,0-1.2.2"/>
  <path class="st3" d="M170.8,35.2c.3-6.1.4-12.8.4-20v-3.6h.7c4.8,5.5,10.5,11.4,17,17.9v-3c0-5.5,0-10.4-.3-14.4.5,0,.9,0,1.1,0s.6,0,1.1,0c-.1,5.2-.2,10.5-.2,15.9v7.7h-.4c-1.9-2.4-4.9-5.6-8.9-9.7l-8.4-8.7v4.4c0,3.5,0,8,.2,13.5-.4,0-.8-.2-1.2-.2s-.7,0-1.2.2h0Z"/>
  <path class="st10" d="M215.1,33.7c-1.8,1.3-4.4,1.9-7.8,1.9s-6.8-1.1-8.9-3.1c-2.1-2.1-3.2-5.1-3.2-8.9s1.2-6.6,3.5-8.8,5.4-3.3,9.4-3.3,5.2.5,7.5,1.6c-.4,1.2-.6,2.2-.6,3.3-1.6-2.4-3.9-3.6-7-3.6s-5.1.9-6.8,2.8c-1.6,1.9-2.4,4.6-2.4,8s.8,6,2.4,7.8,3.8,2.8,6.5,2.8,5.2-.9,7.6-2.8l-.2,2.2h0Z"/>
  <path class="st3" d="M215.1,33.7c-1.8,1.3-4.4,1.9-7.8,1.9s-6.8-1.1-8.9-3.1c-2.1-2.1-3.2-5.1-3.2-8.9s1.2-6.6,3.5-8.8,5.4-3.3,9.4-3.3,5.2.5,7.5,1.6c-.4,1.2-.6,2.2-.6,3.3-1.6-2.4-3.9-3.6-7-3.6s-5.1.9-6.8,2.8c-1.6,1.9-2.4,4.6-2.4,8s.8,6,2.4,7.8,3.8,2.8,6.5,2.8,5.2-.9,7.6-2.8l-.2,2.2h0Z"/>
  <path class="st10" d="M224.5,35.2c.1-1.9.2-3.5.2-4.9s0-2.9-.2-4.7c-3.2-5.3-5.9-9.9-8.2-13.7.6,0,1.2,0,1.9,0s1.4,0,1.9,0c1.8,4.1,4,7.9,6.5,11.5,2.4-3.8,4.5-7.6,6.2-11.5.4,0,.8,0,1.3,0s.9,0,1.3,0c-2.9,4.6-5.5,9-7.9,13.1v3.6c0,2.2,0,4.3.2,6.4-.6,0-1.1-.2-1.6-.2s-1,0-1.6.2"/>
  <path class="st3" d="M224.5,35.2c.1-1.9.2-3.5.2-4.9s0-2.9-.2-4.7c-3.2-5.3-5.9-9.9-8.2-13.7.6,0,1.2,0,1.9,0s1.4,0,1.9,0c1.8,4.1,4,7.9,6.5,11.5,2.4-3.8,4.5-7.6,6.2-11.5.4,0,.8,0,1.3,0s.9,0,1.3,0c-2.9,4.6-5.5,9-7.9,13.1v3.6c0,2.2,0,4.3.2,6.4-.6,0-1.1-.2-1.6-.2s-1,0-1.6.2v.2Z"/>
  <g class="st9">
    <rect class="st5" x="22.3" y="2" width="39.2" height="36.3"/>
  </g>
  <g class="st2">
    <rect class="st1" x="63.1" y="2" width="33.4" height="36.4"/>
  </g>
  <g class="st8">
    <rect class="st0" x="91.1" y="2.4" width="35.3" height="35.5"/>
  </g>
</svg>