<?xml version="1.0" encoding="UTF-8"?>
<svg id="Layer_1" xmlns="http://www.w3.org/2000/svg" version="1.1" viewBox="0 0 28 28">
  <!-- Generator: Adobe Illustrator 29.4.0, SVG Export Plug-In . SVG Version: 2.1.0 Build 152)  -->
  <defs>
    <style>
      .st0 {
        fill: #f9f9fa;
      }

      .st1 {
        fill: none;
        stroke: #2a2d44;
        stroke-miterlimit: 10;
        stroke-width: 1.2px;
      }

      .st2 {
        fill: #121c47;
      }
    </style>
  </defs>
  <path class="st0" d="M28,14c0,7.7-6.3,14-14,14S0,21.7,0,14,6.3,0,14,0c7.7,0,14,6.3,14,14"/>
  <path class="st1" d="M17.7,22.6h-7.4c-2.5,0-4.5-2.1-4.5-4.6v-8.1c0-2.5,2-4.6,4.5-4.6h7.4c2.5,0,4.5,2.1,4.5,4.6v8.1c0,2.5-2,4.6-4.5,4.6Z"/>
  <path class="st2" d="M14,18.1c-2.3,0-4.1-1.9-4.1-4.3s1.8-4.3,4.1-4.3,4.1,1.9,4.1,4.3c0,2.4-1.8,4.3-4.1,4.3M14,10.5c-1.8,0-3.2,1.5-3.2,3.3s1.4,3.3,3.2,3.3,3.2-1.5,3.2-3.3-1.4-3.3-3.2-3.3"/>
</svg>