<?xml version="1.0" encoding="UTF-8"?>
<svg id="Layer_1" xmlns="http://www.w3.org/2000/svg" version="1.1" viewBox="0 0 28 28">
  <!-- Generator: Adobe Illustrator 29.4.0, SVG Export Plug-In . SVG Version: 2.1.0 Build 152)  -->
  <defs>
    <style>
      .st0 {
        fill: #f9f9fa;
      }

      .st1 {
        fill: #121c47;
      }
    </style>
  </defs>
  <path class="st0" d="M28,14c0,7.7-6.3,14-14,14S0,21.7,0,14,6.3,0,14,0c7.7,0,14,6.3,14,14"/>
  <path class="st1" d="M17.7,8.5c-.3,0-2.5-.9-3.1.3-.1.2-.1.6-.1,1v1.8h2.6v2.9h-2.6v7.9h-2.9v-7.9h-2.5v-2.9h2.5v-1.7c0-.8.1-1.5.3-2,.2-.6.5-1,.9-1.4s.8-.6,1.3-.8c.5-.2,1-.3,1.6-.3s.7,0,1.1,0c.4,0,.7.1.9.2v2.7Z"/>
</svg>