<?xml version="1.0" encoding="UTF-8"?>
<svg id="Layer_1" xmlns="http://www.w3.org/2000/svg" version="1.1" xmlns:xlink="http://www.w3.org/1999/xlink" viewBox="0 0 473 452">
  <!-- Generator: Adobe Illustrator 29.4.0, SVG Export Plug-In . SVG Version: 2.1.0 Build 152)  -->
  <defs>
    <style>
      .st0 {
        fill: url(#Degradado_sin_nombre_96);
      }

      .st1 {
        fill: url(#Degradado_sin_nombre_92);
      }

      .st2 {
        fill: url(#Degradado_sin_nombre_59);
      }

      .st3 {
        fill: url(#Degradado_sin_nombre_63);
      }

      .st4 {
        fill: url(#Degradado_sin_nombre_37);
      }

      .st5 {
        fill: url(#Degradado_sin_nombre_91);
      }

      .st6 {
        fill: url(#Degradado_sin_nombre_97);
      }
    </style>
    <linearGradient id="Degradado_sin_nombre_37" data-name="Degradado sin nombre 37" x1="-23218.7" y1="1135" x2="-23217.7" y2="1135" gradientTransform="translate(2316.5 -2082.2) rotate(-45) scale(.1)" gradientUnits="userSpaceOnUse">
      <stop offset="0" stop-color="#d1933f"/>
      <stop offset="0" stop-color="#b57e36"/>
      <stop offset="0" stop-color="#92642a"/>
      <stop offset=".2" stop-color="#7b5222"/>
      <stop offset=".3" stop-color="#6e481d"/>
      <stop offset=".4" stop-color="#6a451b"/>
      <stop offset=".5" stop-color="#6f4a1e"/>
      <stop offset=".6" stop-color="#815624"/>
      <stop offset=".7" stop-color="#9f6d2f"/>
      <stop offset=".8" stop-color="#cb8e3d"/>
      <stop offset=".8" stop-color="#ce903d"/>
      <stop offset="1" stop-color="#dcb27e"/>
    </linearGradient>
    <linearGradient id="Degradado_sin_nombre_92" data-name="Degradado sin nombre 92" x1="267.1" y1="131.9" x2="400" y2="69.7" gradientUnits="userSpaceOnUse">
      <stop offset=".2" stop-color="#b77f39"/>
      <stop offset=".3" stop-color="#9b6a2e"/>
      <stop offset=".5" stop-color="#69431b"/>
      <stop offset=".7" stop-color="#70481d"/>
      <stop offset="1" stop-color="#b77f39"/>
    </linearGradient>
    <linearGradient id="Degradado_sin_nombre_97" data-name="Degradado sin nombre 97" x1="94" y1="441.5" x2="411.1" y2="378.7" gradientUnits="userSpaceOnUse">
      <stop offset=".1" stop-color="#d9aa70"/>
      <stop offset=".3" stop-color="#9b6a2e"/>
      <stop offset=".4" stop-color="#7d5222"/>
      <stop offset=".7" stop-color="#7d5222"/>
      <stop offset="1" stop-color="#d9aa70"/>
    </linearGradient>
    <linearGradient id="Degradado_sin_nombre_96" data-name="Degradado sin nombre 96" x1="1.9" y1="357" x2="98.4" y2="315.1" gradientUnits="userSpaceOnUse">
      <stop offset="0" stop-color="#70481d"/>
      <stop offset="1" stop-color="#dcb27e"/>
    </linearGradient>
    <linearGradient id="Degradado_sin_nombre_59" data-name="Degradado sin nombre 59" x1="133.1" y1="232.3" x2="134.1" y2="232.3" gradientTransform="translate(2095.9 21471.9) rotate(-35) scale(79.9 -79.9)" gradientUnits="userSpaceOnUse">
      <stop offset="0" stop-color="#b77f39"/>
      <stop offset=".2" stop-color="#9b6a2e"/>
      <stop offset=".4" stop-color="#7d5222"/>
      <stop offset=".7" stop-color="#6e461c"/>
      <stop offset=".8" stop-color="#69431b"/>
      <stop offset="1" stop-color="#70481d"/>
    </linearGradient>
    <linearGradient id="Degradado_sin_nombre_91" data-name="Degradado sin nombre 91" x1="159.7" y1="315.1" x2="325.4" y2="176.1" gradientUnits="userSpaceOnUse">
      <stop offset=".1" stop-color="#b77f39"/>
      <stop offset=".3" stop-color="#9b6a2e"/>
      <stop offset=".4" stop-color="#69431b"/>
      <stop offset=".7" stop-color="#70481d"/>
      <stop offset="1" stop-color="#b77f39"/>
    </linearGradient>
    <linearGradient id="Degradado_sin_nombre_63" data-name="Degradado sin nombre 63" x1="144.1" y1="316.2" x2="391.8" y2="316.2" gradientUnits="userSpaceOnUse">
      <stop offset="0" stop-color="#d9aa70"/>
      <stop offset="0" stop-color="#d9aa70"/>
      <stop offset=".6" stop-color="#9b6a2e"/>
      <stop offset=".9" stop-color="#7d5222"/>
      <stop offset="1" stop-color="#7d5222"/>
    </linearGradient>
  </defs>
  <path class="st4" d="M310.7,129.8h-.2c0,0,.2,0,.2,0h0Z"/>
  <path class="st1" d="M371.2,96.7l.4-.5c1.7.4,2.7,2.4,2.2,4.1-1.9,6.2-6.5,11.4-10.9,16.1-.6.6-1.1,1.1-1.7,1.7-7.2,7.3-16.1,13.1-26.3,15.4-8.6,1.9-19.8,3-26.4-3.9l.3-.3c-1.3-1.4-1.3-3.3,0-4.7,0,0,.2-.1.3-.2,0,0,0-.1.1-.2,1.2-1.3,3.5-1.3,4.7,0,.2.3.5.5.7.7s.2.2.3.2c0,0,0,0,.2.2,0,0,.2,0,.2,0,.2,0,.5.3.7.4.2.2.5.3.7.4.2,0,.3.2.5.2,0,0,.2,0,.2,0,0,0,.2,0,.3,0,.2,0,.5.3.8.3.5.2,1.1.3,1.6.4.3,0,.6.2.9.2h.2c1.2.2,2.3.2,3.4.2s2.1,0,3.2,0c.5,0,1.1-.2,1.6-.2h.8c1.9-.2,3.7-.6,5.6-1.1,1.2-.3,2.3-.6,3.4-1,.6-.2,1.2-.5,1.8-.7h0c.3,0,.6-.3.9-.4,2.3-1.1,4.6-2.3,6.7-3.8.6-.4,1.2-.8,1.7-1.2.2,0,.5-.3.7-.5,0,0,.3-.2.4-.3,1-.7,1.9-1.5,2.9-2.3,1.5-1.3,2.9-2.7,4.3-4.2.3-.3.5-.6.8-.9.2-.3.5-.5.7-.8.7-.8,1.4-1.6,2.1-2.4.4-.5.9-1,1.3-1.6,0,0,.2-.2.2-.3,0-.2.3-.5.5-.7.1-.2.3-.4.4-.5.5-.8,1.1-1.6,1.6-2.6.2-.3.3-.6.5-.9,0-.2.2-.4.2-.5h0v-.2c0,0,0-.3,0-.4,0-.3.2-.6.3-.9.1-.4.3-.8.6-1.1.6-1,1.7-1.6,2.8-1.6h.9ZM314.9,125.1s0,0,0,0c0,0,0,0,0,0ZM369.9,177.3s0,0,0,0c0,0,0-.1,0-.2v.2ZM407.1,154.1c0,4.5-.3,9.1-.5,13.6,0,2.6-.4,5.3-.9,7.9-.5,2.4-1.6,5.1-3.4,6.8-1.8,1.7-4,2.2-6,1.9-1.1.8-2.4,1.3-3.8,1.3-1.6,0-3-.6-4.2-1.5-.4-.2-.7-.5-1-.8-.4.3-.9.5-1.3.7-1.9.8-4.1.7-5.8-.2-1,.6-2.2,1-3.4,1-2.9,0-5.9-2.2-6.6-5.1-.3-.7-.3-1.6-.3-2.4,0-1.2.1-2.1.6-3.2.9-7.2,1-14.3.6-21.5,3.5-4.1,6.7-8.3,9.8-12.5,2.8-3.8,5.6-7.8,7.8-12.1,1.1-1.9-1.9-3.5-2.8-1.7-4.1,7.7-9.6,14.5-15,21.3-2.7,3.5-5.7,6.8-8.8,9.9s-4.1,3.4-6.4,5.3c-1.3,1-2.4,1.9-3.5,3.1-.2.2-.4.5-.6.7-3.9,2.7-7.9,5.3-12,7.7-3.2,2-7.4.7-9.4-2.4-.5-.9-.9-1.9-.9-3-1.6.3-3.1,0-4.5-.8-6-2.9-11.9-6.1-17.5-9.7-5.4-3.3-10.6-7-15.5-11.1-4.6-5.1-9.1-10.2-12.5-16.2-1.1-1.9-3.9-.2-2.8,1.7,3.8,6.4,8.8,12.1,13.7,17.6-.6,8.2-.6,16.5.4,24.7.5,1,.5,1.9.5,3,0,.9,0,1.7-.3,2.5-.7,2.9-3.5,4.8-6.3,4.9-1.1,0-2.1-.3-3.1-.9-.4.2-.9.4-1.3.5-1.2.3-2.3.3-3.5,0-.6,0-1.2-.4-1.8-.8-.5.5-1,1-1.5,1.2-1,.5-2.1.9-3.3.9s-2.6-.4-3.7-1.2c-2,.2-4.2-.4-5.7-1.9-1.9-2-2.9-4.8-3.3-7.5-.4-2.9-.7-5.8-.8-8.8v-.3c-.5-11.2-1-22.4-1-33.7,0-9.4.6-18.8,1.7-28.1v-1.6c0-2.6,0-5.2.2-7.7.3-5.6.2-11.1.4-16.7.2-6,.5-12,.8-18,.2-5.8.2-11.6.2-17.5,0-5.8,0-11.5.3-17.3,0-1.9.7-3.3,1.9-4.7,1.2-1.3,2.9-1.9,4.7-1.9,1.7,0,3.5.8,4.7,1.9,1.2,1.1,2,3,1.9,4.7-.3,3.8-.3,7.5-.3,11.3,3.3-9.4,8-18,12.7-26.8,1.8-3.2,5.9-4,9.1-2.3,1.5.8,2.6,2.4,3,4,.5,1.7.2,3.5-.7,5.1-3.3,6.2-6.7,12.4-9.6,18.9-.9,2.2-1.7,4.6-2.4,6.8,1.7-2.5,3.3-5,5.2-7.4,3.4-4.4,6.9-8.8,10.8-12.7,3.8-3.8,8.1-7.4,12.9-9.9,3.3-1.8,7-.8,9.1,2.3,1.9,2.9.7,7.4-2.3,9.1-1.8,1-3.4,2-5,3.2-5.3,4.3-9.8,9.5-14,14.8-3,4-5.7,8.2-8.1,12.6,1.7-.8,3.5-1.4,5.4-1.7,2.8-.4,5.4-.4,8.2.2,2.2.5,4.5,1.5,6.5,2.6.7.4,1.2.9,1.7,1.5,2.2,1.1,4.3,2.3,6.2,3.9,3.1,2.4,5.7,5.6,8,8.8,0,0,.2.2.2.3.9-1.3,1.9-2.5,2.8-3.7,2.9-3.5,6.3-6.7,10.3-9,1-.6,2.1-1.1,3.2-1.6.4-.5,1-1,1.6-1.3,5.3-2.9,11-3.8,17-2.6,1.6.4,3.1.9,4.6,1.6-1.8-3-3.7-6-5.8-8.9-4.8-6.1-10.1-12-16.3-16.9-2.1-1.7-4.5-3.2-7-4.4-1.6-.8-2.6-2.4-3.1-4.1-.6-1.8-.2-3.7.7-5.3.8-1.5,2.5-2.6,4.1-3.1,1.9-.5,3.6,0,5.3.7,5.7,2.7,10.7,6.8,15.2,11.2,6.2,6.1,11.9,13,16.7,20.3-.6-1.9-1.3-3.7-2-5.5-3.2-7.4-7.4-14.3-11.4-21.4-1.9-3.3-.7-7.3,2.4-9.4,1-.7,2.2-1,3.5-1s1.3,0,1.9.2c1.7.4,3.2,1.7,4.1,3.1,3,5.4,6.2,10.6,9,16.2,1.9,3.9,3.7,8,5.2,12.1,0-4.3,0-8.5-.4-12.7,0-1.9.9-3.6,2-4.9,1.3-1.4,3.1-2,4.9-2s3.7.9,4.9,2c1.4,1.4,1.9,3,2,4.9.5,6.5.3,13.2.3,19.7-.2,11.9.8,23.9,1.2,35.8.2,5.4,0,10.7.4,16.1,0,2.2,0,4.6,0,6.8v.2c.5,3.7.8,7.4,1.1,11.1.9,13,.8,25.9.2,38.9ZM362.5,69c-2.7-1.2-5.3-1.4-8.2-1.1-1.5.3-2.8.7-4.2,1.2-1.3.7-2.5,1.4-3.7,2.2-2,1.8-4,3.7-5.7,5.8-1.6,2.1-3,4.3-4.4,6.4-.4.9-.9,1.8-1.5,2.2-.9.8-1.9,1.4-3,1.8-.5.2-1.1.2-1.6.2-.9.4-1.8.6-2.7.6s-1.1,0-1.7-.2c-1.4-.3-2.5-1.3-3.4-2.3,0,0,0-.2,0-.2-.4-.5-.7-1-.9-1.5-1.6-2.6-3.2-5.3-5.1-7.8-1.5-1.8-3-3.4-4.8-4.9-1-.7-2-1.3-3.1-1.9-1.2-.4-2.3-.8-3.6-1-1.8-.2-3.6-.2-5.4,0-13.2,1.4-20,16.4-20.4,28h-.2c-.2,3.7-.3,7.6.7,11.2.8,2.8,2.1,5.5,3.6,8.1,1.8,3.3,3.5,6.9,5.8,9.8,4,5.1,8.8,9.7,13.9,13.6,1.9,1.4,3.7,2.7,5.6,4,7.1,4.9,14.8,9.2,22.6,13.1,1.6.8,2.5,2.4,3,4,.2.2.2.4.2.6,5.4-3.3,10.5-6.7,15.5-10.5,7.3-5.8,14.1-12.2,19.9-19.5,3.7-5,7-10.3,9.6-16,.7-1.9,1.2-3.7,1.5-5.6,1.6-16-2.5-33.4-18.4-40.6ZM291.1,178s0,0,0,0c0,0,0,.1,0,.2v-.2Z"/>
  <path class="st6" d="M239,382.2c1.3,0,2.1.2,2.5.4v16.9c-2.7-.5-11.2-1.5-16.9,3.9-5,4.8-5.3,12.3-5.6,21.4-.2,6.7.6,12.4,1.4,16.2h-17.2c.8-9.7,1.3-20.3,1.2-31.7,0-9.4-.5-18.3-1.2-26.5h16.2l.9,8.4c10.2-7.6,15.9-9,18.8-9h0ZM129.1,412.5c-4.4-3.3-9.6-4.4-14.8-5.3-3.3-.6-9.4-1.9-9.8-6.4,0-1,.2-1.9.6-2.7.1-.3.3-.5.4-.7,2.2-3.2,6.4-3.7,9.3-1.2,2.1,1.9,1.2,5.4,3.9,6.2,3.4.9,9.7-1.9,12.8-3.2.2,0,.3-.2.4-.3h0c0,0,0-.1,0-.2v-.4c-.2-.9-.2-1.8-.4-2.7-1.4-9.7-9.8-13.3-18.7-13.3s-2.1,0-3.1.2c-4.2,0-4.1.4-5.2.9-.3,0-.7.2-1,.2-1.4.4-2.6.7-3.8,1.2-1.9.7-3.6,1.7-5,2.9-1.9,1.4-3.8,3-4.9,5.1-.2.3-.3.6-.4.9-.9,1.9-1.2,4.2-1,6.3-.9,8.8,4.3,18.2,15.1,19,2.9.2,6,.5,8.7,1.7,2.7,1.2,7.3,4.3,5.6,7.8-.6,1.3-1.8,2.2-3,2.8-3.2,1.6-7.1,1.7-10.1-.3-2.2-1.5-2.6-4.3-2.2-6.7h-7.6c-1.6,0-5.4-.7-6.8.4-.3.3-.6.6-.8,1-1.3,2.4.4,7.2,1.6,9.1,2.2,3.6,5.8,6,9.5,7.5,7.7,3.2,16.9,3.1,24.5-.2v-.2c4.2-1.8,7.6-5.2,9.7-9.2,3.5-6.6,3.3-14.9-3.5-20ZM263.3,391.3l-.9-8.4h-16.2c.7,8.2,1.2,17.1,1.2,26.5,0,11.4-.4,22-1.2,31.7h17.2c-.8-3.9-1.6-9.4-1.4-16.2h0c.3-9.1.6-16.6,5.6-21.4,5.7-5.4,14.2-4.3,16.9-3.9v-16.9c-.4-.2-1.2-.4-2.4-.4-2.9,0-8.6,1.4-18.8,9ZM299,363.9h-.4c-6.7,0-10.1,5.6-10.1,11.1s3.5,11.4,10.4,11.1c6.9.2,10.3-5.5,10.3-11.1s-3.4-11.4-10.3-11.1ZM291.8,415c0,9.6-.5,18.3-1.5,26h17.2v-50.8h-17.2c.9,7.4,1.4,15.7,1.5,24.8ZM374.4,386.1c6.9.2,10.3-5.5,10.3-11.1s-3.4-11.4-10.3-11.1h-.4c-6.7,0-10.1,5.6-10.1,11.1s3.5,11.4,10.4,11.1ZM366.3,415c0,9.6-.5,18.3-1.5,26h17.2v-50.8h-17.2c.9,7.4,1.4,15.7,1.5,24.8ZM354.7,411.2c-4.4-3.2-9.7-4.3-14.8-5.3-3.4-.6-9.5-1.9-9.8-6.4,0-1.3.4-2.6,1.1-3.6,2.2-3.2,6.4-3.7,9.3-1.2,2.1,1.9,1.2,5.4,3.9,6.2,3.4.9,9.7-1.9,12.8-3.2.2,0,.3-.2.4-.3v-.4c-.2-.9-.2-1.9-.4-2.7-1.4-9.7-9.8-13.3-18.7-13.3s-6.4.5-9.4,1.3c-1.4.3-2.6.7-3.8,1.2-1.9.7-3.6,1.7-5,2.9-2.2,1.5-4.2,3.4-5.3,5.9-.9,1.9-1.2,4.2-1,6.3-.9,8.8,4.3,18.2,15.1,19,2.9.2,6,.5,8.7,1.7,2.7,1.2,7.3,4.3,5.6,7.9-.6,1.3-1.9,2.2-3.1,2.9-3.2,1.6-7.1,1.7-10.1-.3-2.2-1.5-2.6-4.3-2.2-6.7h-7.6c-1.6,0-5.4-.7-6.8.4-2.5,1.9-.4,7.8.9,9.9,2.2,3.6,5.8,6,9.5,7.5,7.7,3.1,16.9,3.1,24.5-.2v-.2c10.8-4.6,17-20.9,6-29.1ZM200.3,411.6s0,0,0,0,0,0,0,0c0,17.1-13.8,30.9-30.9,30.9s-30.9-13.8-30.9-30.9,0,0,0,0,0,0,0,0c0-17.1,13.8-30.9,30.9-30.9s30.9,13.8,30.9,30.9ZM169.5,425.8c7.9,0,14.2-6.3,14.2-14.2s-6.3-14.2-14.2-14.2-14.2,6.4-14.2,14.2,6.4,14.2,14.2,14.2Z"/>
  <path class="st0" d="M71.2,343.7c0,0,0,0,0,.2h-.2l.2-.2ZM79.2,327.1c1.6,2.9,2.3,6.5,2.3,10.5v2.9l-27.1.2c.3,2,1,3.6,2,4.7,1.4,1.7,4.4,2.5,6.6,2.5s4-.4,5.4-1.1c1.4-.7,2.3-1.7,2.7-3h10.4c-.6,4.1-2.6,7.4-6.1,9.9-3.4,2.5-9.1,3.7-12.8,3.7s-7-.9-9.9-2.6c-2.9-1.7-5.2-4.1-6.8-7-1.7-2.9-2.5-6.3-2.5-10.2s.8-7.3,2.4-10.2c1.7-3,3.9-5.3,6.8-7,2.9-1.7,6.2-2.6,9.9-2.6s7.3.8,10.2,2.4c2.9,1.6,5,3.9,6.5,6.8ZM70.2,333.6c0-2-.7-3.5-2-4.7-1.4-1.1-3.5-1.7-5.5-1.7s-3.5.4-4.7,1.1-2.1,1.9-2.7,3.5c-.2.5-.4,1.2-.5,1.9h15.5ZM41.8,335.8c1.4,16.3-17.1,26.8-29.1,15.3v21.3H1.4c1.2-9.6,2-20.6,1.7-32.8-.2-7.7-.8-15-1.7-21.6h10.6l.6,4.5c3.2-4.1,2.4-5.8,11.7-5.8s18.6,8.2,17.5,19.1ZM30.4,336.4c.8-12-18.3-12-17.7,0-.3,6,4.4,9,8.9,9s9.1-3,8.7-9ZM109.4,317.9c-2,0-5.7.9-12.4,5.6l-.6-5.3h-10.6c.5,5.2.8,10.8.8,16.7,0,7.1-.3,13.8-.8,19.9h11.3c-.5-2.4-1.1-5.9-.9-10.2v-.2c.2-5.7.4-10.4,3.7-13.4,3.8-3.4,9.3-2.7,11.1-2.4v-10.6c-.2,0-.8-.3-1.6-.3Z"/>
  <path class="st2" d="M189.7,129.3c.5-1.6,1-3,1.5-4.5.4-1.5.7-2.7.9-3.7.2,1,.5,2.3.9,3.7.5,1.6.9,3,1.4,4.4,2.6,7.6,4.6,13.3,6.2,18h-17c2-6,4.1-12,6.2-18M182.9,96.3c-7.9,29-18.6,57-30.8,84.4h19.7l6.2-17.9h27.9l6.1,17.8h20c-11.6-29.7-23.6-59.5-30.7-84.4h-18.5,0Z"/>
  <path class="st5" d="M282.5,209.9c10.1,9.1,5.9,46.3,5.4,56h-17.1c.4-9.7,5.9-46.1-11.7-45.6-7.4,0-12.2,5-12.1,12.4v33.3h-16.8c.7-6.6,1.3-15.6,1.2-27.1v-2.2c-.2-7.4-.8-17.6-2.6-30.1,5.7-.5,11.4-.9,17.2-1.4l1.2,6.3c4-5.4,11.3-8.2,18.6-8.2s13,2.2,16.8,6.7ZM345.5,256c-5.6,7-14.5,10.2-28.9,9.2-8-.5-15.4-3.2-18.8-11.4-6.4-15.5,7.3-24.4,20.3-26.2l16.4-1.3c2-12.8-21.8-13.2-21.7-1.5h-15c-.5-14.9,13.8-22,27.5-22s10.4,1.1,14.6,3.2h0c16.6,7.3,14.7,38.5,5.5,50.1ZM334.6,238.2c-4.3.5-14.5.8-17.4,2.8-5.2,3.9-1.5,10.6,4.5,10.6s.9,0,1.2,0h0c8.2.3,12.8-5.4,11.8-13.3ZM124.6,223c2-1.2,4.2-1.9,6.7-1.9s5.7.7,7.6,2.2c1.9,1.4,3.1,3.6,3.7,6.7h18.4c-.5-7.7-3.6-13.9-9.1-18.4s-12.6-6.8-21.4-6.8-11.2,1.4-15.8,4c-4.6,2.7-8.1,6.4-10.8,11.1-2.6,4.7-3.9,10.1-3.9,16.2s1.2,11.8,3.8,16.6c2.6,4.7,6.1,8.4,10.8,11,4.6,2.6,10.1,3.9,16.3,3.9h0c5.6,0,10.5-1,14.9-3.1,4.3-2.2,7.9-5.1,10.5-8.9,2.6-3.8,4.2-8.1,4.6-13.2h-18.4c-.5,2.9-1.8,5.1-3.7,6.6-1.9,1.5-4.6,2.2-7.8,2.2s-4.9-.6-6.7-1.8c-1.9-1.2-3.2-2.9-4.3-5.2-1-2.2-1.5-5-1.5-8.1s.5-5.7,1.5-8c1-2.2,2.5-3.9,4.5-5.2ZM208,246.1h16.8c-1,6.6-4.3,11.8-9.7,15.8-5.4,3.9-14.5,5.9-20.4,5.9s-11.2-1.3-15.9-4c-4.6-2.7-8.3-6.4-10.9-11.1-2.6-4.7-3.9-10.1-3.9-16.2s1.3-11.6,3.9-16.3c2.6-4.7,6.2-8.4,10.8-11.1h-.2c4.6-2.6,9.8-3.9,15.8-3.9s11.7,1.3,16.2,3.9c4.5,2.6,8,6.2,10.4,10.9,2.5,4.7,3.7,10.3,3.7,16.8v4.6l-43.2.2c.5,3.2,1.5,5.7,3.1,7.6,2.2,2.6,7,3.9,10.5,3.9s6.3-.6,8.7-1.8c2.3-1.2,3.8-2.9,4.4-5ZM181.7,230.1h24.8c0-3.1-1.1-5.6-3.2-7.5-2.2-1.9-5.7-2.8-8.8-2.8s-5.6.6-7.6,1.8c-1.9,1.2-3.4,3-4.3,5.5-.4.9-.6,1.9-.9,3ZM382,250c-2.2-2.6-5-3.9-8.4-3.9h-.2c-3.1,0-5.6,1.1-7.4,3.1-1.9,2-2.8,4.6-2.8,7.9s.9,4.8,2.9,6.7c1.9,1.9,4.3,2.7,7,2.7s2.1-.2,2.9-.5c.2,0,.4-.2.5-.2-.2,2.3-1.2,4.3-2.9,5.8-2,1.6-4.5,2.8-7.6,3.3v6.6c3.7-.4,7-1.5,9.9-3.5s5.2-4.5,6.8-7.6c1.6-3.1,2.4-6.6,2.4-10.4s-1.1-7.4-3.2-10.1Z"/>
  <path class="st3" d="M215.1,296c-17,0-30.9,13.8-30.9,30.9s13.8,30.9,30.9,30.9,30.9-13.8,30.9-30.9-13.8-30.9-30.9-30.9ZM215.1,341.1c-7.8,0-14.2-6.3-14.2-14.2s6.3-14.2,14.2-14.2,14.2,6.3,14.2,14.2-6.3,14.2-14.2,14.2ZM406.9,292.2c1.2,0,2,.2,2.4.4v16.9c-2.7-.5-11.1-1.5-16.9,3.9-5,4.8-5.3,12.3-5.6,21.4h0c-.2,6.8.6,12.4,1.4,16.2h-17.2c.9-9.7,1.3-20.3,1.2-31.7,0-9.4-.5-18.3-1.2-26.5h16.2l.9,8.4c10.2-7.6,15.9-9,18.8-9ZM301.3,299.2c10.1,9.1,5.9,46.3,5.4,56h-17.1c.4-9.7,5.9-46.1-11.7-45.6-7.4,0-12.2,5-12.1,12.4v33.3h-16.8c.7-6.6,1.3-15.6,1.2-27.1v-2.2c-.2-7.4-.8-17.6-2.6-30.1,5.7-.5,11.4-.9,17.2-1.4l1.2,6.3c4-5.4,11.3-8.2,18.6-8.2s13,2.2,16.8,6.7ZM355.5,295.7h0c-4.2-2.1-9.4-3.2-14.6-3.2-13.7,0-28,7.1-27.5,22h15c0-11.6,23.7-11.2,21.7,1.5l-16.4,1.3c-13.1,1.9-26.8,10.8-20.3,26.2,3.4,8.2,10.8,10.8,18.8,11.4,14.4,1,23.4-2.2,28.9-9.2,9.2-11.6,11.1-42.9-5.5-50.1ZM338.3,341.3h0c-.4,0-.9.2-1.2.2-6,0-9.7-6.7-4.5-10.6,2.9-2,13.2-2.2,17.4-2.8,1.1,7.9-3.6,13.6-11.8,13.2ZM454.8,333.7c-.6,2.2-2.1,3.8-4.4,5-2.3,1.2-5.2,1.8-8.7,1.8s-8.3-1.3-10.5-3.9c-1.5-1.9-2.6-4.3-3.1-7.6l43.2-.2v-4.6c0-6.5-1.2-12.1-3.7-16.8-2.5-4.7-6-8.4-10.4-10.9-4.5-2.6-9.9-3.9-16.2-3.9s-11.2,1.4-15.8,4h.2c-4.6,2.6-8.2,6.3-10.8,11.1-2.6,4.7-3.9,10.1-3.9,16.3s1.3,11.5,3.9,16.2c2.6,4.7,6.3,8.4,10.9,11.1s9.9,4,15.9,4,15-1.9,20.4-5.9c5.5-3.9,8.7-9.2,9.7-15.8h-16.8ZM429.4,314.6c.9-2.5,2.4-4.3,4.3-5.5,1.9-1.2,4.5-1.8,7.6-1.8s6.7.9,8.8,2.8c2.2,1.9,3.2,4.4,3.2,7.6h0c0,0-24.8,0-24.8,0,.2-1.1.5-2.1.9-3ZM164.7,274.4v31.9c-18.3-17.3-46.8-1.5-44.7,22.9-2.6,23.9,29.6,39.1,44.8,19.9l.9,6.7h16.3c-1.3-9.9-2.2-20.7-2.6-32.3-.5-18.3.7-34.7,2.6-49h-17.3ZM150.9,341.9c-7,0-14.1-4.5-13.5-13.5-1.2-18.1,28.2-17.9,27.2,0,.5,9-6.6,13.5-13.7,13.5Z"/>
</svg>