<?xml version="1.0" encoding="utf-8"?>
<!-- Generator: Adobe Illustrator 26.4.1, SVG Export Plug-In . SVG Version: 6.00 Build 0)  -->
<svg version="1.1" id="Layer_1" xmlns="http://www.w3.org/2000/svg" xmlns:xlink="http://www.w3.org/1999/xlink" x="0px" y="0px"
	 viewBox="0 0 307.91 72" style="enable-background:new 0 0 307.91 72;" xml:space="preserve">
<style type="text/css">
	.st0{fill:url(#SVGID_1_);}
	.st1{fill:url(#SVGID_00000025428636943301353310000012420432858031488953_);}
	.st2{fill:#F9F9FA;}
	.st3{fill:#D8D9D8;}
	
		.st4{clip-path:url(#SVGID_00000136394236826320572790000000857555122581023626_);fill:url(#SVGID_00000027593077262758163500000011216911283297863081_);}
	.st5{fill:#121111;}
	.st6{fill:#F6EA12;}
	.st7{fill:#1D9849;}
	.st8{fill:#F7C047;}
	.st9{fill:#DC2427;}
	.st10{fill:#288AC7;}
	
		.st11{clip-path:url(#SVGID_00000176004097913577484640000003778732627679223955_);fill:url(#SVGID_00000147214063912323725840000012942460991102027433_);}
	
		.st12{clip-path:url(#SVGID_00000137120472292819159330000012328699903515751608_);fill:url(#SVGID_00000025421739973509400010000013630643501331951253_);}
	
		.st13{clip-path:url(#SVGID_00000133528089576883584250000012270272163033645714_);fill:url(#SVGID_00000183951928097444358440000011389593453634954683_);}
	.st14{fill:#9B6B3A;}
	.st15{fill:none;stroke:#9B6B3A;stroke-width:0.4622;stroke-miterlimit:10;}
	
		.st16{clip-path:url(#SVGID_00000074401367708513105500000007347279609696798898_);fill:url(#SVGID_00000083778657769598366460000002914998418865304220_);}
	
		.st17{clip-path:url(#SVGID_00000031930322062359743250000010902706394281251006_);fill:url(#SVGID_00000099638572796839978180000001353932994121452986_);}
	
		.st18{clip-path:url(#SVGID_00000076582055745085371310000013662526847083842741_);fill:url(#SVGID_00000106830822777602044310000005843282998004117436_);}
	.st19{fill:#FFFFFF;}
	.st20{fill:none;}
	.st21{fill:url(#SVGID_00000136379627895470227200000016895016415351072955_);}
	.st22{fill:url(#SVGID_00000151527436265422805240000008428940679202315392_);}
	.st23{fill:url(#SVGID_00000065051325103025383700000017064626316462362513_);}
	.st24{fill:url(#SVGID_00000134247317623934275750000014773732575213932699_);}
	.st25{fill:url(#SVGID_00000123410986272607170360000016067785953340257446_);}
	.st26{fill:url(#SVGID_00000178175315402798160380000000891184374710342798_);}
	.st27{fill:url(#SVGID_00000129186852708526168140000001199851356081225869_);}
	.st28{fill:url(#SVGID_00000091738159638226365060000002588692617734793884_);}
	.st29{fill:url(#SVGID_00000132068057008535412870000015028563647269102498_);}
	.st30{fill:url(#SVGID_00000038382825479091661220000013367143663863486851_);}
	.st31{fill:url(#SVGID_00000034802583315999794040000014806475143950704315_);}
	.st32{fill:url(#SVGID_00000008871159857625721420000010199514254896796034_);}
	.st33{fill:url(#SVGID_00000008125789286730853740000004124255509546401688_);}
	.st34{fill:url(#SVGID_00000106849243975232349700000004440146799771631488_);}
	.st35{fill:url(#SVGID_00000009567552997272709930000001032040913949845938_);}
	.st36{fill:url(#SVGID_00000098932572634428827060000002985422275693884806_);}
	.st37{fill:url(#SVGID_00000039120923657879790710000016603859453688413340_);}
	.st38{fill:url(#SVGID_00000071550957825098871390000000360846662934669696_);}
	.st39{fill:url(#SVGID_00000114035214948012593780000000374041110217878449_);}
	.st40{fill:url(#SVGID_00000070114231171067434450000017483428867131314339_);}
	.st41{fill:url(#SVGID_00000070095478547363289510000001196977561735779977_);}
	.st42{fill:url(#SVGID_00000160896177480401855240000001972556734686256789_);}
	.st43{fill:url(#SVGID_00000015349069541223335620000014507948848661044662_);}
	.st44{fill:url(#SVGID_00000046304857150548314740000016547782995789453206_);}
	.st45{fill:url(#SVGID_00000075129772703907157080000008965414581897686662_);}
	
		.st46{clip-path:url(#SVGID_00000047759269636102573010000013715491092474876553_);fill:url(#SVGID_00000145024380882954099010000012087039792633285814_);}
	.st47{fill:#179BD7;}
	.st48{fill:none;stroke:#2A2D44;stroke-width:1.1907;stroke-miterlimit:10;}
	.st49{fill:#121C47;}
	.st50{fill:#CAE7F9;}
	.st51{fill:#E01F26;}
</style>
<g>
	<polygon class="st47" points="91.53,24.52 82.95,24.52 73.71,33.75 73.61,33.75 78,12.92 71.38,12.92 63.54,49.95 70,49.95 
		72.87,36.46 72.97,36.46 79.53,49.95 86.98,49.95 79.33,36.12 	"/>
	<path class="st47" d="M51.03,38.8c0-4.8,2.97-9.73,8.25-9.73c1.83,0,3.55,0.44,4.84,1.28l1.63-5.42c-1.77-0.54-4.15-0.99-6.62-0.99
		c-9.14,0-15.01,6.76-15.01,15.65c0,6.56,4.25,10.96,10.81,10.96c2.17,0,4.35-0.19,6.37-1.18l0.74-5.24
		c-1.73,0.83-3.75,1.28-5.38,1.28C52.12,45.42,51.03,42.1,51.03,38.8z"/>
	<path class="st47" d="M187.13,23.97c-2.97,0-5.82,0.54-8.64,1.53l-0.94,5.28c2.62-1.24,5.44-1.98,8.35-1.98
		c2.32,0,5.09,0.74,5.09,3.3c0,0.74,0,1.48-0.2,2.17h-2.31c-6.21,0-15.6,0.64-15.6,9.04c0,4.7,3.25,7.26,7.84,7.26
		c3.65,0,5.92-1.63,8.19-4.5h0.1l-0.69,3.91h5.57c0.6-4.79,3.11-14.77,3.11-18.17C197,25.84,192.21,23.97,187.13,23.97z
		 M182.53,45.73c-1.67,0-3.36-0.89-3.36-2.66c0-4.3,5.33-4.84,8.54-4.84h2.33C188.99,42.33,187.46,45.73,182.53,45.73z"/>
	<polygon class="st47" points="46.57,13.56 39.95,13.56 38.57,19.89 45.19,19.89 	"/>
	<polygon class="st47" points="37.54,24.52 32.11,49.95 38.73,49.95 44.16,24.52 	"/>
	<path class="st47" d="M123.04,42.95c0-0.83,0.1-1.66,0.29-2.47l2.42-11.11h5.92l1.03-4.84h-5.92l1.63-7.55l-7.11,2.33l-1.14,5.23
		h-4.79l-1.01,4.85h4.79l-1.88,8.58c-0.45,2.03-0.84,3.96-0.84,5.93c0,4.89,3.16,6.66,7.65,6.66c1.13,0,2.42-0.35,3.55-0.59
		l1.13-5.14c-0.84,0.35-2.02,0.6-3.21,0.6C124.07,45.42,123.04,44.47,123.04,42.95z"/>
	<path class="st47" d="M25.13,42.95c0-0.83,0.1-1.66,0.3-2.47l2.41-11.11h5.92l1.03-4.84h-5.92l1.63-7.55l-7.1,2.33l-1.15,5.23
		h-4.79l-1.03,4.85h4.8l-1.88,8.58c-0.45,2.03-0.84,3.96-0.84,5.93c0,4.89,3.16,6.66,7.65,6.66c1.13,0,2.41-0.35,3.55-0.59
		l1.14-5.14c-0.84,0.35-2.02,0.6-3.21,0.6C26.16,45.42,25.13,44.47,25.13,42.95z"/>
	<path class="st47" d="M102.6,25.35c-8.35,0.13-14.34,7.84-14.22,15.73c0.12,7.55,5.11,11.04,12.42,10.92
		c2.72-0.04,5.52-0.73,8.07-1.56l0.76-5.25c-2.45,1.18-5.06,1.9-7.77,1.94c-4.23,0.07-6.73-1.4-7.11-5.4
		c-0.02-0.23-0.04-0.46-0.04-0.7l0-0.22c0.01-1.73,0.35-3.46,1-5.06c1.22-3.26,2.98-5.52,6.88-5.58c2.77-0.04,4.23,1.46,4.27,4.18
		c0.01,0.6-0.04,1.14-0.12,1.73l-9.06,0.14c-0.55,2.01-0.63,3.35-0.64,4.55l15.57-0.25c0.36-1.88,0.58-3.76,0.55-5.69
		C113.07,28.39,108.87,25.25,102.6,25.35z"/>
	<path class="st47" d="M293.8,25.65c-0.02-1.27-0.78-1.88-2.32-1.85l-2.56,0.04h-0.01l0.11,6.71l1.09-0.02l-0.05-2.97l0.92-0.01
		l1.92,2.94l1.16-0.02l-1.96-2.94C293.15,27.51,293.82,26.73,293.8,25.65z M290.05,26.71l-0.03-2.03l1.29-0.02
		c0.7-0.01,1.39,0.2,1.4,0.97c0.01,0.88-0.52,1.05-1.37,1.07L290.05,26.71z"/>
	<path class="st47" d="M164.94,24.36c-3.55,0.06-7.22,1.64-8.86,4.97l-0.1,0c-0.4-3.05-3.54-4.78-6.55-4.73
		c-3.11,0.05-6,1.48-7.73,4.12l-0.1,0l0.54-3.41l-6.17,0.1c-0.13,0.8-0.32,1.84-0.49,2.83l-4.3,22.7l6.62-0.1l2.43-12.14
		c0.78-3.42,1.93-8.82,6.42-8.89c1.69-0.03,3.13,1.13,3.16,3.01c0.02,1.53-0.43,3.91-0.76,5.44l-2.47,12.43l6.62-0.1l2.43-12.14
		c0.78-3.46,1.83-8.82,6.42-8.89c1.69-0.03,3.13,1.13,3.16,3.01c0.02,1.53-0.43,3.91-0.75,5.44L162,50.43l6.62-0.1l2.47-12.19
		c0.51-2.07,1.06-4.66,1.02-6.93C172.06,27.36,168.74,24.3,164.94,24.36z"/>
	<path class="st47" d="M250.57,23.02c-8.35,0.13-14.35,7.84-14.23,15.73c0.12,7.55,5.11,11.04,12.42,10.92
		c2.71-0.04,5.52-0.73,8.08-1.56l0.76-5.25c-2.46,1.17-5.05,1.9-7.77,1.94c-4.24,0.07-6.73-1.4-7.11-5.39
		c-0.01-0.24-0.04-0.46-0.04-0.7c0-0.05,0.01-0.09,0.01-0.15l0-0.08h0.01c0-1.74,0.35-3.47,1-5.06c1.22-3.26,2.98-5.52,6.88-5.58
		c2.76-0.04,4.23,1.46,4.27,4.18c0.01,0.6-0.04,1.14-0.12,1.73l-9.06,0.14c-0.55,2.01-0.63,3.35-0.63,4.55l15.58-0.25
		c0.33-1.88,0.55-3.76,0.52-5.69C261.03,26.05,256.84,22.92,250.57,23.02z"/>
	<path class="st47" d="M291.06,21.44c-3.15,0.05-5.68,2.66-5.63,5.81c0.05,3.16,2.66,5.68,5.81,5.63c3.15-0.05,5.68-2.66,5.63-5.81
		C296.82,23.92,294.21,21.39,291.06,21.44z M291.24,32.03c-2.65,0.04-4.68-2.05-4.72-4.79c-0.04-2.74,1.9-4.9,4.56-4.94
		c2.62-0.04,4.64,2.05,4.68,4.79C295.81,29.83,293.87,31.99,291.24,32.03z"/>
	<path class="st47" d="M271.78,28.07l-0.1,0l0.81-4.8l-6.31,0.1c-0.18,1.18-0.36,2.32-0.54,3.41l-4.19,22.09l6.62-0.1l2.19-11.44
		c0.77-4.1,2.97-8.34,7.67-8.42c0.84-0.01,1.78,0.12,2.52,0.35l1.28-6.49c-0.79-0.19-1.68-0.22-2.52-0.21
		C276.14,22.61,272.92,25.28,271.78,28.07z"/>
	<path class="st47" d="M200.83,31.89c0.1,6.37,8.69,6.63,8.75,10.73c0.03,2.07-2.27,2.85-4.5,2.88c-2.56,0.04-4.45-0.87-6.34-1.88
		l-1.34,5.3c2.45,1.1,5.11,1.45,7.78,1.41c5.68-0.09,11.43-2.15,11.32-8.77c-0.1-6.22-8.7-7.27-8.75-10.48
		c-0.03-2.01,2.42-2.6,4.4-2.63c1.88-0.03,3.72,0.49,4.43,0.86l1.34-5.01c-1.31-0.32-3.79-0.73-6.2-0.69
		C206.48,23.7,200.74,25.92,200.83,31.89z"/>
	<path class="st47" d="M228.66,42.38c0-0.83,0.07-1.66,0.26-2.48l2.24-11.15l5.92-0.09l0.97-4.86l-5.92,0.09l1.51-7.58l-7.08,2.44
		L225.51,24l-4.79,0.08l-0.96,4.87l4.77-0.08l-1.74,8.61c-0.42,2.04-0.78,3.97-0.75,5.94c0.08,4.89,3.26,6.61,7.76,6.54
		c1.13-0.02,2.41-0.39,3.54-0.65l1.05-5.15c-0.82,0.36-2,0.63-3.19,0.65C229.73,44.83,228.68,43.91,228.66,42.38z"/>
</g>
</svg>
