<?xml version="1.0" encoding="UTF-8"?>
<svg id="Layer_1" xmlns="http://www.w3.org/2000/svg" version="1.1" viewBox="0 0 18 15">
  <!-- Generator: Adobe Illustrator 29.4.0, SVG Export Plug-In . SVG Version: 2.1.0 Build 152)  -->
  <defs>
    <style>
      .st0 {
        fill: #fff;
      }

      .st1 {
        fill: #e01f26;
      }

      .st2 {
        fill: #121c47;
      }
    </style>
  </defs>
  <rect class="st1" width="18" height="1.6"/>
  <rect class="st1" y="2.7" width="18" height="1.6"/>
  <rect class="st1" y="5.4" width="18" height="1.6"/>
  <rect class="st1" y="13.4" width="18" height="1.6"/>
  <rect class="st1" y="8" width="18" height="1.6"/>
  <rect class="st1" y="10.7" width="18" height="1.6"/>
  <rect class="st2" width="7.5" height="7"/>
  <path class="st0" d="M1.8,1.1c0,.2-.2.4-.4.4s-.4-.2-.4-.4.2-.4.4-.4.4.2.4.4"/>
  <path class="st0" d="M4.2,1.1c0,.2-.2.4-.4.4s-.4-.2-.4-.4.2-.4.4-.4.4.2.4.4"/>
  <path class="st0" d="M6.5,1.1c0,.2-.2.4-.4.4s-.4-.2-.4-.4.2-.4.4-.4.4.2.4.4"/>
  <path class="st0" d="M1.8,3.5c0,.2-.2.4-.4.4s-.4-.2-.4-.4.2-.4.4-.4.4.2.4.4"/>
  <path class="st0" d="M4.2,3.5c0,.2-.2.4-.4.4s-.4-.2-.4-.4.2-.4.4-.4.4.2.4.4"/>
  <path class="st0" d="M6.5,3.5c0,.2-.2.4-.4.4s-.4-.2-.4-.4.2-.4.4-.4.4.2.4.4"/>
  <path class="st0" d="M1.8,5.9c0,.2-.2.4-.4.4s-.4-.2-.4-.4.2-.4.4-.4c.2,0,.4.2.4.4"/>
  <path class="st0" d="M4.2,5.9c0,.2-.2.4-.4.4s-.4-.2-.4-.4.2-.4.4-.4c.2,0,.4.2.4.4"/>
  <path class="st0" d="M6.5,5.9c0,.2-.2.4-.4.4s-.4-.2-.4-.4.2-.4.4-.4c.2,0,.4.2.4.4"/>
</svg>