<?xml version="1.0" encoding="UTF-8"?>
<svg id="Layer_1" xmlns="http://www.w3.org/2000/svg" version="1.1" viewBox="0 0 71 94">
  <!-- Generator: Adobe Illustrator 29.4.0, SVG Export Plug-In . SVG Version: 2.1.0 Build 152)  -->
  <defs>
    <style>
      .st0 {
        fill: #fff;
      }
    </style>
  </defs>
  <path class="st0" d="M.7,78.3h69.6V.4H.7v77.9ZM66.4,74.5H4.5V4.3h61.9v70.2ZM16.4,42c5.3,0,8-3,8-8.3v-7.4c0-4.9-2-7.6-6-7.6s-3.7.8-4.7,2.4l.4-7.9h9.3v-4.7h-14.2l-1,19.2h5.1v-1c0-2.4,1.1-3.3,2.8-3.3s2.8.9,2.8,3.3v7.3c0,2.4-1.1,3.2-2.8,3.2s-2.8-.8-2.8-3.2v-3.1h-5.1v2.7c0,5.3,2.8,8.3,8,8.3M34.8,42c5.3,0,8-3,8-8.3v-2.6c0-3.4-1.1-5.8-3.8-7,2.6-1,3.8-3.3,3.8-6.8v-.8c0-5.3-2.7-8.3-8-8.3s-8,3-8,8.3v1.8h5.1v-2.1c0-2.4,1.1-3.3,2.8-3.3s2.8.8,2.8,3.8v1.8c0,2.7-1.2,3.5-3.2,3.5h-2.1v4.7h1.8c2.5,0,3.5,1.1,3.5,4.2v2.6c0,2.9-1.1,3.7-2.8,3.7s-2.8-.9-2.8-3.3v-3.1h-5.1v2.7c0,5.3,2.7,8.3,8,8.3M54.5,41.6h5.4v-6h2.7v-4.7h-2.7V8.5h-5.9l-9.8,22.4v4.7h10.3s0,6,0,6ZM49.1,30.9l5.3-12.2v12.2h-5.3ZM50.1,45.8c-6.8,0-12.4,5.5-12.4,12.4s5.5,12.4,12.4,12.4,12.4-5.5,12.4-12.4-5.5-12.4-12.4-12.4M20.8,45.8c-6.8,0-12.4,5.5-12.4,12.4s5.5,12.4,12.4,12.4,12.4-5.5,12.4-12.4-5.5-12.4-12.4-12.4"/>
  <polygon class="st0" points="4.6 88.8 2.3 88.8 2.3 92.6 5 92.6 5 93.6 1.3 93.6 1.3 83.6 4.8 83.6 4.8 84.6 2.3 84.6 2.3 87.9 4.6 87.9 4.6 88.8"/>
  <path class="st0" d="M6.1,93.6v-10h1l1.7,4.7c.4,1.1.9,2.4,1.2,3.5h0c0-1.6-.1-2.8-.1-4.6v-3.6h1v10h-1l-1.8-4.8c-.4-1-.8-2.2-1.1-3.4h0c0,1.3.1,2.6.1,4.7v3.4h-1Z"/>
  <polygon class="st0" points="13.6 84.6 11.9 84.6 11.9 83.6 16.3 83.6 16.3 84.6 14.7 84.6 14.7 93.6 13.6 93.6 13.6 84.6"/>
  <polygon class="st0" points="20.8 88.8 18.4 88.8 18.4 92.6 21.1 92.6 21.1 93.6 17.4 93.6 17.4 83.6 20.9 83.6 20.9 84.6 18.4 84.6 18.4 87.9 20.8 87.9 20.8 88.8"/>
  <path class="st0" d="M22.2,83.8c.5-.1,1-.2,1.5-.2.9,0,1.6.2,2.1.7.5.5.7,1.2.7,1.9,0,1.3-.5,2.1-1.5,2.6h0c.7.2,1,1,1.2,2.3.2,1.4.4,2.2.5,2.5h-1.1c-.1-.3-.3-1.2-.5-2.5-.2-1.4-.6-1.9-1.5-1.9h-.4v4.3h-1.1v-9.8ZM23.3,88.3h.4c1,0,1.7-.8,1.7-2s-.4-1.9-1.6-1.9c-.2,0-.4,0-.5,0,0,0,0,3.8,0,3.8Z"/>
  <polygon class="st0" points="28.8 84.6 27.1 84.6 27.1 83.6 31.5 83.6 31.5 84.6 29.8 84.6 29.8 93.6 28.8 93.6 28.8 84.6"/>
  <path class="st0" d="M33,90.6l-.6,3h-1l2.1-10h1.2l2.1,10h-1l-.6-3h-2ZM35,89.7l-.5-2.5c-.1-.7-.3-1.5-.4-2.3h0c-.1.8-.2,1.6-.4,2.3l-.5,2.5h1.8Z"/>
  <rect class="st0" x="37.9" y="83.6" width="1.1" height="10"/>
  <path class="st0" d="M40.6,93.6v-10h1l1.7,4.7c.4,1.1.9,2.4,1.2,3.5h0c0-1.6-.1-2.8-.1-4.6v-3.6h.9v10h-1l-1.8-4.8c-.4-1-.8-2.2-1.1-3.4h0c0,1.3.1,2.6.1,4.7v3.4h-1Z"/>
  <path class="st0" d="M52.6,89.3c0-1.3-.1-2.8,0-3.9h0c-.2,1.1-1.9,5.7-1.9,5.7h-.7s-1.7-4.5-1.8-5.7h0c0,1.2,0,2.6-.1,4l-.2,4.2h-.9l.6-10h1.1s1.6,4.4,1.8,5.5h0c.2-1.1,1.7-5.5,1.7-5.5h1.2l.5,10h-1l-.2-4.3Z"/>
  <polygon class="st0" points="58.6 88.8 56.3 88.8 56.3 92.6 59 92.6 59 93.6 55.3 93.6 55.3 83.6 58.8 83.6 58.8 84.6 56.3 84.6 56.3 87.9 58.6 87.9 58.6 88.8"/>
  <path class="st0" d="M60.1,93.6v-10h1l1.7,4.7c.4,1.1.9,2.4,1.2,3.5h0c0-1.6-.1-2.8-.1-4.6v-3.6h.9v10h-1l-1.8-4.8c-.4-1-.8-2.2-1.1-3.4h0c0,1.3.1,2.6.1,4.7v3.4h-1Z"/>
  <polygon class="st0" points="67.6 84.6 65.9 84.6 65.9 83.6 70.3 83.6 70.3 84.6 68.6 84.6 68.6 93.6 67.6 93.6 67.6 84.6"/>
</svg>