<?xml version="1.0" encoding="UTF-8"?>
<svg id="Capa_2" data-name="Capa 2" xmlns="http://www.w3.org/2000/svg" viewBox="0 0 400.08 40">
  <defs>
    <style>
      .cls-1 {
        font-family: Poppins-Medium, Poppins;
        font-size: 18px;
        font-weight: 500;
      }

      .cls-1, .cls-2 {
        fill: #d1933f;
      }
    </style>
  </defs>
  <g id="Layer_1" data-name="Layer 1">
    <g>
      <g id="Grupo_4050" data-name="Grupo 4050">
        <g>
          <g id="Grupo_3802" data-name="Grupo 3802">
            <path id="Trazado_2408" data-name="Trazado 2408" class="cls-2" d="M291.91,22.89c.73,2.71,2.75,4.04,6.07,4.04,1.86.11,3.66-.69,4.82-2.15l4.47,2.58c-2.11,3.06-5.67,4.81-9.38,4.6-3.17.15-6.27-1.02-8.56-3.22-4.28-4.55-4.3-11.64-.04-16.22,2.14-2.2,5.12-3.39,8.18-3.27,2.95-.09,5.79,1.1,7.79,3.27,2.06,2.18,3.18,5.09,3.1,8.09-.01.76-.08,1.53-.21,2.28h-16.22ZM302.79,18.59c-.43-2.58-2.72-4.45-5.33-4.34-2.71-.19-5.12,1.68-5.64,4.34h10.97Z"/>
            <path id="Trazado_2409" data-name="Trazado 2409" class="cls-2" d="M234.75,15.2h-4.86v8.95c0,2.32,1.68,2.37,4.86,2.19v5.03c-7.61.86-10.41-1.33-10.41-7.23v-8.95h-3.74v-5.33h3.74v-4.34l5.55-1.68v6.02h4.86v5.33Z"/>
            <path id="Trazado_2410" data-name="Trazado 2410" class="cls-2" d="M236.94,3.89c.02-1.88,1.52-3.4,3.4-3.44,1.89.02,3.42,1.55,3.44,3.44-.02,1.88-1.56,3.4-3.44,3.4-1.87-.02-3.38-1.53-3.4-3.4ZM237.59,31.37V9.87h5.55v21.51h-5.55Z"/>
            <path id="Trazado_2411" data-name="Trazado 2411" class="cls-2" d="M248.68,28.71c-2.13-2.14-3.3-5.06-3.22-8.09-.08-3.02,1.09-5.94,3.22-8.09,2.14-2.17,5.08-3.35,8.13-3.27,4-.09,7.71,2.05,9.64,5.55l-4.77,2.8c-.94-1.83-2.85-2.95-4.9-2.88-3.11-.07-5.7,2.39-5.77,5.51,0,.13,0,.26,0,.39-.04,1.57.55,3.08,1.63,4.22,1.09,1.09,2.59,1.68,4.13,1.63,2.06.1,3.99-1.01,4.95-2.84l4.82,2.75c-1.98,3.49-5.7,5.64-9.72,5.59-3.05.08-5.99-1.11-8.13-3.28Z"/>
            <path id="Trazado_2412" data-name="Trazado 2412" class="cls-2" d="M287.65,31.37h-6.45l-7.83-9.76v9.76h-5.55V1.26h5.55v18.07l7.4-9.46h6.62l-8.65,10.62,8.9,10.88Z"/>
            <path id="Trazado_2413" data-name="Trazado 2413" class="cls-2" d="M322.23,15.2h-4.86v8.95c0,2.32,1.68,2.37,4.86,2.19v5.03c-7.61.86-10.41-1.33-10.41-7.23v-8.95h-3.74v-5.33h3.74v-4.34l5.55-1.68v6.02h4.86v5.33Z"/>
            <path id="Trazado_2414" data-name="Trazado 2414" class="cls-2" d="M342.28,11.63c1.62,1.78,2.46,4.14,2.32,6.54v13.2h-5.55v-12.52c.25-2.19-1.31-4.16-3.5-4.42-.25-.03-.51-.03-.76-.02-2.88,0-4.73,1.76-4.73,5.33v11.61h-5.55V1.68l5.55-1.68v12.27c1.45-2.07,3.89-3.22,6.41-3.01,2.19-.08,4.3.78,5.81,2.37Z"/>
            <path id="Trazado_2415" data-name="Trazado 2415" class="cls-2" d="M357.94,31.98c-6.21-.09-11.16-5.19-11.07-11.4.09-6.21,5.19-11.16,11.4-11.07,6.21.09,11.16,5.19,11.07,11.4-.04,2.93-1.23,5.74-3.31,7.81-2.13,2.16-5.06,3.34-8.09,3.27ZM357.94,26.56c1.56.04,3.07-.57,4.17-1.68,2.24-2.4,2.24-6.12,0-8.52-2.33-2.24-6.01-2.24-8.35,0-2.18,2.42-2.18,6.1,0,8.52,1.1,1.11,2.61,1.72,4.17,1.68Z"/>
            <path id="Trazado_2416" data-name="Trazado 2416" class="cls-2" d="M384.78,9.87h5.94l-7.83,21.51c-2.24,6.19-5.85,8.9-11.36,8.6v-5.16c2.97.04,4.6-1.2,5.64-4.13l-8.82-20.82h6.07l5.59,14.45,4.78-14.45Z"/>
          </g>
          <g id="Grupo_3803" data-name="Grupo 3803">
            <path id="Trazado_2417" data-name="Trazado 2417" class="cls-2" d="M395.97,3.93v.76h-.99v2.78h-.83v-2.78h-1.01v-.76h2.83ZM399.26,3.93h.82v3.54h-.82v-2.19l-.99,1.56h-.09l-.99-1.56v2.19h-.82v-3.54h.82l1.04,1.63,1.03-1.63Z"/>
          </g>
          <g id="Grupo_3803-2" data-name="Grupo 3803">
            <path id="Trazado_2417-2" data-name="Trazado 2417" class="cls-2" d="M395.85,3.93v.76h-.99v2.78h-.83v-2.78h-1.01v-.76h2.83ZM399.14,3.93h.82v3.54h-.82v-2.19l-.99,1.56h-.09l-.99-1.56v2.19h-.82v-3.54h.82l1.04,1.63,1.03-1.63Z"/>
          </g>
        </g>
      </g>
      <text class="cls-1" transform="translate(0 26.4)"><tspan x="0" y="0">Buy your tickets here</tspan></text>
    </g>
  </g>
</svg>