<?xml version="1.0" encoding="UTF-8"?>
<svg id="Capa_2" data-name="Capa 2" xmlns="http://www.w3.org/2000/svg" viewBox="0 0 277.5 113.09">
  <defs>
    <style>
      .cls-1, .cls-2 {
        fill: #d1933f;
      }

      .cls-2 {
        font-family: Poppins-Medium, Poppins;
        font-size: 18px;
        font-weight: 500;
      }

      .cls-3 {
        fill: #2a364d;
        stroke: #d1933f;
        stroke-miterlimit: 10;
        stroke-width: 2px;
      }
    </style>
  </defs>
  <g id="Layer_1" data-name="Layer 1">
    <g>
      <rect class="cls-3" x="1" y="1" width="275.5" height="111.09" rx="20.72" ry="20.72"/>
      <g id="Grupo_4050" data-name="Grupo 4050">
        <g>
          <g id="Grupo_3802" data-name="Grupo 3802">
            <path id="Trazado_2408" data-name="Trazado 2408" class="cls-1" d="M119.22,75.96c.89,3.29,3.35,4.91,7.37,4.91,2.26.14,4.45-.84,5.85-2.61l5.43,3.14c-2.57,3.72-6.89,5.84-11.4,5.59-3.86.18-7.62-1.23-10.4-3.91-5.21-5.53-5.23-14.15-.05-19.7,2.6-2.67,6.21-4.12,9.94-3.98,3.58-.11,7.03,1.34,9.46,3.97,2.51,2.65,3.86,6.18,3.76,9.82-.01.93-.1,1.85-.26,2.77h-19.71ZM132.44,70.73c-.52-3.14-3.3-5.4-6.48-5.27-3.29-.23-6.23,2.04-6.85,5.27h13.33Z"/>
            <path id="Trazado_2409" data-name="Trazado 2409" class="cls-1" d="M49.77,66.62h-5.91v10.87c0,2.82,2.04,2.87,5.91,2.67v6.12c-9.25,1.04-12.65-1.62-12.65-8.78v-10.87h-4.55v-6.48h4.55v-5.27l6.74-2.04v7.32h5.91v6.48Z"/>
            <path id="Trazado_2410" data-name="Trazado 2410" class="cls-1" d="M52.44,52.87c.02-2.28,1.85-4.13,4.13-4.18,2.3.02,4.16,1.88,4.18,4.18-.03,2.29-1.89,4.13-4.18,4.13-2.27-.02-4.11-1.86-4.13-4.13ZM53.22,86.26v-26.13h6.74v26.13h-6.74Z"/>
            <path id="Trazado_2411" data-name="Trazado 2411" class="cls-1" d="M66.7,83.02c-2.59-2.6-4.01-6.15-3.91-9.82-.09-3.67,1.32-7.22,3.91-9.82,2.6-2.63,6.18-4.07,9.88-3.97,4.85-.11,9.37,2.49,11.71,6.74l-5.8,3.4c-1.14-2.22-3.46-3.58-5.96-3.5-3.78-.09-6.92,2.91-7.01,6.69,0,.16,0,.31,0,.47-.05,1.9.67,3.75,1.99,5.12,1.33,1.32,3.14,2.04,5.02,1.99,2.5.12,4.85-1.23,6.01-3.45l5.85,3.34c-2.41,4.25-6.93,6.85-11.81,6.79-3.7.1-7.28-1.34-9.88-3.98Z"/>
            <path id="Trazado_2412" data-name="Trazado 2412" class="cls-1" d="M114.05,86.26h-7.84l-9.51-11.86v11.86h-6.74v-36.58h6.74v21.95l8.99-11.5h8.05l-10.5,12.91,10.81,13.22Z"/>
            <path id="Trazado_2413" data-name="Trazado 2413" class="cls-1" d="M156.07,66.62h-5.9v10.87c0,2.82,2.04,2.87,5.91,2.67v6.12c-9.25,1.04-12.65-1.62-12.65-8.78v-10.87h-4.55v-6.48h4.55v-5.27l6.74-2.04v7.32h5.91v6.48Z"/>
            <path id="Trazado_2414" data-name="Trazado 2414" class="cls-1" d="M180.42,62.27c1.97,2.16,2.99,5.02,2.82,7.94v16.04h-6.74v-15.21c.31-2.66-1.6-5.06-4.25-5.37-.31-.04-.61-.04-.92-.02-3.5,0-5.75,2.14-5.75,6.48v14.11h-6.74v-36.07l6.74-2.04v14.9c1.76-2.52,4.73-3.91,7.79-3.66,2.66-.1,5.22.95,7.05,2.88Z"/>
            <path id="Trazado_2415" data-name="Trazado 2415" class="cls-1" d="M199.44,87c-7.54-.11-13.56-6.31-13.45-13.85.11-7.54,6.31-13.56,13.85-13.45,7.54.11,13.56,6.31,13.45,13.85-.05,3.57-1.5,6.97-4.02,9.48-2.59,2.62-6.14,4.06-9.82,3.97ZM199.44,80.41c1.9.05,3.73-.69,5.07-2.04,2.72-2.91,2.72-7.43,0-10.35-2.83-2.72-7.31-2.72-10.14,0-2.65,2.94-2.65,7.41,0,10.35,1.33,1.35,3.17,2.09,5.07,2.04Z"/>
            <path id="Trazado_2416" data-name="Trazado 2416" class="cls-1" d="M232.05,60.14h7.21l-9.51,26.13c-2.72,7.53-7.11,10.82-13.8,10.45v-6.27c3.61.05,5.59-1.46,6.85-5.02l-10.72-25.29h7.37l6.79,17.56,5.81-17.56Z"/>
          </g>
          <g id="Grupo_3803" data-name="Grupo 3803">
            <path id="Trazado_2417" data-name="Trazado 2417" class="cls-1" d="M245.65,52.93v.92h-1.2v3.38h-1.01v-3.38h-1.22v-.92h3.44ZM249.65,52.93h.99v4.3h-.99v-2.67l-1.2,1.89h-.11l-1.2-1.89v2.67h-.99v-4.3h.99l1.27,1.98,1.25-1.98Z"/>
          </g>
          <g id="Grupo_3803-2" data-name="Grupo 3803">
            <path id="Trazado_2417-2" data-name="Trazado 2417" class="cls-1" d="M245.5,52.93v.92h-1.2v3.38h-1.01v-3.38h-1.22v-.92h3.44ZM249.5,52.93h.99v4.3h-.99v-2.67l-1.2,1.89h-.11l-1.2-1.89v2.67h-.99v-4.3h.99l1.27,1.98,1.25-1.98Z"/>
          </g>
        </g>
      </g>
      <text class="cls-2" transform="translate(34.58 37.63)"><tspan x="0" y="0">Adquirí tus entradas</tspan></text>
    </g>
  </g>
</svg>